<?xml version="1.0" standalone="no"?>
<!DOCTYPE svg PUBLIC "-//W3C//DTD SVG 1.1//EN" "http://www.w3.org/Graphics/SVG/1.1/DTD/svg11.dtd" >
<svg xmlns="http://www.w3.org/2000/svg">
<metadata></metadata>
<defs>
<font id="3dsitalic" horiz-adv-x="1177" >
<font-face units-per-em="2048" ascent="1638" descent="-410" />
<missing-glyph horiz-adv-x="524" />
<glyph unicode="&#xfb01;" horiz-adv-x="1185" d="M-90 -283q156 91 226.5 186t99.5 232l147 703h-150l33 149h150l33 156q27 125 101.5 209t175.5 120.5t226 36.5q169 0 295 -36l-53 -160q-123 35 -264 35q-239 0 -283 -203l-33 -158h570l-164 -772q-4 -20 -4 -27q0 -31 18.5 -41t50.5 -10q39 0 113 19l-29 -156 q-82 -20 -147 -20q-203 0 -203 172q0 34 10 86l125 600h-372l-150 -701q-21 -97 -51 -170t-80 -140.5t-124.5 -124.5t-180.5 -112z" />
<glyph unicode="&#xfb02;" horiz-adv-x="1183" d="M-90 -283q156 91 226.5 186t99.5 232l147 703h-150l33 149h150l33 156q21 99 69 171.5t117.5 114t149 61t173.5 19.5q137 0 328 -36l-268 -1258q-4 -20 -4 -27q0 -31 18.5 -41t50.5 -10q39 0 113 19l-29 -156q-88 -20 -147 -20q-203 0 -203 176q0 30 10 82l234 1099 q-79 9 -121 9q-249 0 -293 -201l-33 -158h224l-33 -149h-223l-150 -701q-21 -97 -51 -170t-80 -140.5t-124.5 -124.5t-180.5 -112z" />
<glyph horiz-adv-x="0" />
<glyph horiz-adv-x="0" />
<glyph horiz-adv-x="682" />
<glyph unicode="&#xd;" horiz-adv-x="524" />
<glyph unicode=" "  horiz-adv-x="524" />
<glyph unicode="&#x09;" horiz-adv-x="524" />
<glyph unicode="&#xa0;" horiz-adv-x="524" />
<glyph unicode="!" horiz-adv-x="583" d="M186 63q0 58 44 100t106 42q46 0 72 -21.5t26 -60.5q0 -66 -42 -104.5t-105 -38.5q-48 0 -74.5 21.5t-26.5 61.5zM287 344l190 1018h211l-246 -1018h-155z" />
<glyph unicode="&#x22;" horiz-adv-x="899" d="M414 926l61 436h201l-125 -436h-137zM750 926l61 436h201l-125 -436h-137z" />
<glyph unicode="#" horiz-adv-x="1390" d="M213 393l29 146h262l61 278h-260l31 146h260l90 399h158l-92 -399h280l90 399h164l-88 -399h258l-31 -146h-258l-61 -278h258l-31 -146h-260l-82 -393h-164l84 393h-282l-84 -393h-156l82 393h-258zM659 539h283l62 278h-283z" />
<glyph unicode="$" d="M195 98l36 164q171 -67 357 -67q47 0 84 3.5t77 14t67 29t44 50t17 73.5q0 44 -28 88.5t-73.5 83.5t-100 79t-109 82.5t-100 87t-73.5 99.5t-28 112q0 62 16.5 111t48 82t68 56t87 37t93.5 21.5t98 12.5l41 188h144l-39 -184q120 0 284 -31l-35 -164q-147 33 -297 33 q-43 0 -74.5 -1.5t-70 -6t-65 -14t-50 -24.5t-35.5 -39t-12 -56q0 -37 28.5 -75t74 -74t100.5 -75t110 -83.5t100.5 -92t74 -109.5t28.5 -128q0 -304 -401 -344l-43 -211h-145l45 205q-204 6 -344 67z" />
<glyph unicode="%" horiz-adv-x="1673" d="M299 915q0 60 10 111q33 186 133.5 271t245.5 85q119 0 185.5 -62t66.5 -190q0 -59 -10 -110q-33 -186 -133.5 -271t-245.5 -85q-119 0 -185.5 61.5t-66.5 189.5zM334 0l1122 1362h166l-1126 -1362h-162zM453 924q0 -73 31 -106.5t83 -33.5q157 0 207 236q12 58 12 102 q0 140 -118 140q-153 0 -203 -236q-12 -58 -12 -102zM1022 231q0 60 10 111q33 186 133.5 271t245.5 85q119 0 185.5 -62t66.5 -190q0 -59 -10 -110q-33 -186 -133.5 -271t-245.5 -85q-119 0 -185.5 61.5t-66.5 189.5zM1176 240q0 -73 31 -106.5t83 -33.5q157 0 207 236 q12 58 12 102q0 140 -118 140q-153 0 -203 -236q-12 -58 -12 -102z" />
<glyph unicode="&#x26;" horiz-adv-x="1247" d="M147 272q0 73 20 136t52 110t84 92.5t102.5 77.5t120.5 70q-26 40 -40 63t-33 61t-28 74.5t-9 73.5q0 168 114 260t291 92q144 0 223.5 -62.5t79.5 -172.5q0 -248 -336 -432l195 -322q78 73 158 240l141 -66q-78 -189 -219 -321l156 -246h-228l-71 117 q-184 -137 -408 -137q-174 0 -269.5 77.5t-95.5 214.5zM354 291q0 -154 207 -154q127 0 281 121l-226 360q-71 -38 -111 -65t-79 -66t-55.5 -86t-16.5 -110zM606 1059q0 -21 4 -41t17 -45.5t18.5 -36.5t28 -46t26.5 -42q53 33 88.5 59.5t70.5 61.5t52 75t17 86 q0 54 -36.5 79.5t-94.5 25.5q-82 0 -136.5 -41.5t-54.5 -134.5z" />
<glyph unicode="'" horiz-adv-x="542" d="M397 926l62 436h200l-124 -436h-138z" />
<glyph unicode="(" horiz-adv-x="630" d="M205 248q0 356 133 673t397 572h183q-102 -113 -177 -209.5t-147 -217t-116.5 -240.5t-71.5 -269t-27 -313q0 -312 141 -629h-160q-70 127 -112.5 296t-42.5 337z" />
<glyph unicode=")" horiz-adv-x="630" d="M-123 -385q102 113 177 209.5t147 217t116.5 240.5t71.5 269t27 313q0 310 -142 629h160q70 -128 113 -296.5t43 -336.5q0 -356 -133.5 -673t-397.5 -572h-182z" />
<glyph unicode="*" horiz-adv-x="831" d="M289 1085l69 129l230 -90l35 238h157l-73 -238l272 93l18 -136l-264 -57l133 -184l-125 -92l-112 204l-207 -207l-100 99l215 182z" />
<glyph unicode="+" d="M131 582v143h379v348h156v-348h378v-143h-378v-351h-156v351h-379z" />
<glyph unicode="," horiz-adv-x="534" d="M31 -272l235 481h203l-274 -481h-164z" />
<glyph unicode="-" horiz-adv-x="761" d="M221 475l33 160h520l-33 -160h-520z" />
<glyph unicode="." horiz-adv-x="534" d="M156 70q0 67 45.5 107t109.5 40q49 0 78 -23t29 -63q0 -67 -45.5 -108t-110.5 -41q-50 0 -78 23.5t-28 64.5z" />
<glyph unicode="/" horiz-adv-x="931" d="M18 -109l1035 1604h170l-1037 -1604h-168z" />
<glyph unicode="0" d="M215 383q0 131 33 293q71 368 223.5 537t398.5 169q192 0 283.5 -97t91.5 -308q0 -132 -33 -297q-70 -367 -219 -533.5t-399 -166.5q-194 0 -286.5 97t-92.5 306zM410 379q0 -128 49.5 -183t156.5 -55q152 0 242 120t154 417q41 190 41 305q0 128 -50 183t-155 55 q-152 0 -242.5 -122t-154.5 -421q-41 -187 -41 -299z" />
<glyph unicode="1" d="M473 1098l37 172l354 92h160l-289 -1362h-196l249 1178z" />
<glyph unicode="2" d="M139 0v154l486 417q80 68 134.5 121.5t105 116.5t75.5 126.5t25 127.5q0 82 -62.5 120t-169.5 38q-130 0 -321 -52l14 170q147 43 342 43q190 0 298 -78.5t108 -234.5q0 -65 -13 -123.5t-42.5 -112.5t-60 -97t-83.5 -95t-94 -88t-109 -92l-360 -297h596l-35 -164h-834z " />
<glyph unicode="3" d="M135 20l35 164q150 -43 330 -43q59 0 110 9.5t99.5 33.5t83 61t55 94.5t20.5 131.5q0 178 -245 178h-152l29 139l446 410h-565l35 164h790v-143l-463 -422q69 0 127.5 -17t106 -51.5t75 -95t27.5 -141.5q0 -95 -23.5 -173.5t-66 -133.5t-98 -95.5t-124.5 -64 t-139.5 -34.5t-148.5 -11q-199 0 -344 40z" />
<glyph unicode="4" d="M160 326v141l776 895h287l-187 -879h166l-35 -157h-166l-67 -326h-191l68 326h-651zM389 483h457l147 699z" />
<glyph unicode="5" d="M190 20l35 162q131 -41 316 -41q57 0 106.5 9.5t99.5 34.5t85 64.5t57 104t22 148.5q0 98 -61.5 137t-175.5 39q-107 0 -277 -29l-43 56l140 657h776l-37 -170h-588l-70 -365q68 11 134 11q195 0 301 -75.5t106 -244.5q0 -254 -162 -396t-432 -142q-194 0 -332 40z" />
<glyph unicode="6" d="M252 395q0 107 29 275q35 199 95.5 339t146 220.5t187.5 116.5t232 36q168 0 307 -34l-32 -164q-142 37 -285 37q-83 0 -147.5 -21.5t-119 -71t-93.5 -135t-62 -207.5q156 39 266 39q177 0 280 -81.5t103 -239.5q0 -240 -143 -382t-375 -142q-200 0 -294.5 96.5 t-94.5 318.5zM449 391q0 -118 46.5 -184t163.5 -66q130 0 214.5 90t84.5 248q0 90 -47 135t-153 45q-141 0 -283 -51q-26 -120 -26 -217z" />
<glyph unicode="7" d="M225 0l791 1194h-662l37 168l856 -2v-139l-780 -1221h-242z" />
<glyph unicode="8" d="M182 285q0 175 88.5 283t229.5 137q-81 27 -117.5 83t-36.5 148q0 144 69 246.5t184.5 151t264.5 48.5q191 0 294.5 -72.5t103.5 -215.5q0 -155 -76.5 -255.5t-206.5 -138.5q170 -50 170 -254q0 -216 -148.5 -341t-398.5 -125q-198 0 -309 80t-111 225zM389 309 q0 -82 58.5 -125t173.5 -43q150 0 239.5 79t89.5 218q0 176 -229 176q-69 0 -128 -18t-105 -54t-72.5 -96t-26.5 -137zM549 948q0 -160 209 -160q131 0 217 71.5t86 207.5q0 75 -54.5 114.5t-154.5 39.5q-140 0 -221.5 -71.5t-81.5 -201.5z" />
<glyph unicode="9" d="M203 14l33 164q142 -37 284 -37q83 0 147.5 21.5t119 70.5t93.5 134.5t62 207.5q-132 -38 -270 -38q-177 0 -278 81t-101 240q0 240 143 382t375 142q200 0 294.5 -96.5t94.5 -318.5q0 -107 -29 -275q-35 -199 -95.5 -339t-146 -220.5t-187.5 -116.5t-232 -36 q-168 0 -307 34zM494 883q0 -91 47 -136t153 -45q151 0 283 50q27 125 27 219q0 118 -47 184t-164 66q-130 0 -214.5 -90t-84.5 -248z" />
<glyph unicode=":" horiz-adv-x="534" d="M156 70q0 67 45.5 107t109.5 40q49 0 78 -23t29 -63q0 -67 -45.5 -108t-110.5 -41q-50 0 -78 23.5t-28 64.5zM322 860q0 67 45.5 107.5t109.5 40.5q49 0 78 -23t29 -63q0 -67 -45.5 -108.5t-110.5 -41.5q-50 0 -78 23.5t-28 64.5z" />
<glyph unicode=";" horiz-adv-x="534" d="M-16 -272l235 481h203l-275 -481h-163zM322 860q0 67 45.5 107.5t109.5 40.5q49 0 78 -23t29 -63q0 -67 -45.5 -108.5t-110.5 -41.5q-50 0 -78 23.5t-28 64.5z" />
<glyph unicode="&#x3c;" d="M131 584v139l913 364v-159l-718 -281l718 -282v-148z" />
<glyph unicode="=" d="M131 379v141h913v-141h-913zM131 786v142h913v-142h-913z" />
<glyph unicode="&#x3e;" d="M133 217v160l719 280l-719 283v147l914 -366v-139z" />
<glyph unicode="?" horiz-adv-x="839" d="M291 63q0 58 44.5 100t106.5 42q45 0 72 -22.5t27 -61.5q0 -63 -44 -102t-104 -39q-48 0 -75 22t-27 61zM356 1327q135 55 295 55q83 0 146.5 -14t114.5 -44.5t77.5 -85.5t26.5 -132q0 -67 -21 -125t-55.5 -101t-76.5 -82t-86.5 -75.5t-83.5 -73.5t-69.5 -85t-41.5 -101 l-27 -121h-170l27 129q16 78 47.5 144t68.5 110.5t78 83.5t78.5 71t68 63.5t48.5 70t18 82.5q0 65 -44.5 94t-135.5 29q-69 0 -148 -16t-133 -40z" />
<glyph unicode="@" horiz-adv-x="1771" d="M168 184q0 171 37.5 330t116.5 298.5t191.5 242.5t272.5 163t349 60q171 0 297 -39.5t199 -111.5t107 -163t34 -204q0 -91 -16.5 -187t-54 -193t-91.5 -172.5t-135.5 -123t-178.5 -47.5q-167 0 -211 108q-135 -100 -260 -100q-102 0 -160.5 63t-58.5 191 q0 266 120.5 409.5t311.5 143.5q161 0 291 -49l-96 -453q-10 -48 -10 -76q0 -52 19.5 -72t78.5 -20t110 42t84.5 106.5t57.5 142.5t34.5 148.5t10.5 126.5q0 93 -27 163.5t-85 123.5t-157 80.5t-237 27.5q-115 0 -216.5 -27.5t-180.5 -76.5t-144 -118t-111 -151.5 t-77.5 -176.5t-46 -193t-14.5 -203q0 -101 25 -176.5t81.5 -133t154.5 -87t236 -29.5q217 0 496 96l6 -139q-265 -99 -528 -99q-165 0 -287 40.5t-195 115.5t-108 174t-35 225zM784 324q0 -72 27 -100.5t74 -28.5q73 0 159 71l95 434q-62 15 -111 15q-101 0 -172.5 -102 t-71.5 -289z" />
<glyph unicode="A" horiz-adv-x="1314" d="M172 0l186 885q103 497 572 497q213 0 322.5 -94t109.5 -260q0 -61 -16 -143l-187 -885h-205l107 504h-582l-106 -504h-201zM514 666h582l47 225q14 75 14 121q0 209 -233 209q-159 0 -244.5 -86.5t-118.5 -243.5z" />
<glyph unicode="B" horiz-adv-x="1226" d="M199 31l282 1331h420q191 0 294 -74.5t103 -214.5q0 -167 -78 -260.5t-200 -124.5q180 -48 180 -239q0 -223 -157 -346t-427 -123q-196 0 -417 51zM430 160q77 -19 217 -19q338 0 338 308q0 80 -54 118.5t-177 38.5h-230zM559 766h227q129 0 214 77t85 218q0 75 -52 109 t-161 34h-221z" />
<glyph unicode="C" horiz-adv-x="1107" d="M225 428q0 110 27 254q37 197 105.5 335t165 217t210.5 113.5t258 34.5q141 0 289 -32l-35 -162q-129 33 -297 33q-89 0 -159.5 -26t-132.5 -86.5t-109.5 -166.5t-79.5 -258q-33 -149 -33 -258q0 -157 71.5 -221t217.5 -64q148 0 326 41l-19 -168q-128 -34 -328 -34 q-115 0 -200 23t-148.5 74t-96 139t-32.5 212z" />
<glyph unicode="D" horiz-adv-x="1327" d="M199 29l284 1333h439q229 0 345.5 -107.5t116.5 -332.5q0 -102 -24 -228q-32 -171 -91 -300.5t-151 -223.5t-222.5 -142t-297.5 -48q-207 0 -399 49zM432 156q76 -15 209 -15q202 0 324 132.5t182 418.5q27 138 27 213q0 154 -73 224.5t-214 70.5h-234z" />
<glyph unicode="E" horiz-adv-x="1101" d="M246 260q0 32 10 84l217 1018h776l-35 -162h-571l-90 -422h516l-35 -162h-516l-61 -294q-6 -27 -6 -50q0 -110 147 -110h422l-35 -162h-426q-149 0 -231 69.5t-82 190.5z" />
<glyph unicode="F" horiz-adv-x="1079" d="M201 0l288 1362h787l-35 -162h-582l-94 -446h508l-35 -162h-508l-124 -592h-205z" />
<glyph unicode="G" horiz-adv-x="1323" d="M225 428q0 102 29 260q38 193 107 328t170.5 215t225.5 115.5t285 35.5q189 0 373 -36l-37 -166q-196 41 -356 41q-117 0 -203 -26.5t-154.5 -88.5t-116 -165t-79.5 -255q-33 -146 -33 -256q0 -158 73 -223.5t220 -65.5q135 0 281 31l90 424h-283l37 166h487l-153 -717 q-237 -65 -467 -65q-119 0 -207 22.5t-154.5 73.5t-100.5 139t-34 213z" />
<glyph unicode="H" horiz-adv-x="1456" d="M201 0l288 1362h205l-123 -576h646l122 576h205l-289 -1362h-204l129 616h-645l-129 -616h-205z" />
<glyph unicode="I" horiz-adv-x="606" d="M201 0l288 1362h205l-288 -1362h-205z" />
<glyph unicode="J" horiz-adv-x="608" d="M-111 -279q169 118 243 212t101 219l256 1210h205l-254 -1206q-38 -182 -144.5 -308t-315.5 -256z" />
<glyph unicode="K" horiz-adv-x="1218" d="M201 0l288 1362h205l-147 -705l733 705h221l-637 -629q114 -37 175.5 -138t101.5 -269l76 -326h-224l-59 279q-14 66 -32 116t-45 93.5t-67 68.5t-92 31l-209 -195l-83 -393h-205z" />
<glyph unicode="L" horiz-adv-x="1001" d="M201 0l288 1362h205l-256 -1200h551l-33 -162h-755z" />
<glyph unicode="M" horiz-adv-x="1779" d="M201 0l288 1362h209l310 -735l622 735h238l-289 -1362h-201l228 1071l-541 -643h-168l-266 643l-228 -1071h-202z" />
<glyph unicode="N" horiz-adv-x="1468" d="M201 0l288 1362h164l531 -811l174 811h198l-288 -1362h-199l66 317l-508 760l-230 -1077h-196z" />
<glyph unicode="O" horiz-adv-x="1337" d="M229 426q0 110 27 254q70 370 239 536t447 166q224 0 338.5 -107.5t114.5 -338.5q0 -112 -27 -256q-70 -368 -238.5 -534t-445.5 -166q-226 0 -340.5 107t-114.5 339zM438 422q0 -151 64.5 -216t195.5 -65q174 0 283.5 122t171.5 417q33 146 33 258q0 151 -64.5 217 t-193.5 66q-116 0 -200 -50t-149.5 -170.5t-107.5 -320.5q-33 -146 -33 -258z" />
<glyph unicode="P" horiz-adv-x="1214" d="M201 0l288 1362h418q212 0 311 -73.5t99 -244.5q0 -150 -45 -260t-126 -173.5t-183 -93.5t-228 -30q-95 0 -223 23l-106 -510h-205zM547 670q90 -17 201 -17q181 0 274.5 97.5t93.5 287.5q0 92 -57.5 127t-186.5 35h-213z" />
<glyph unicode="Q" horiz-adv-x="1337" d="M229 426q0 110 27 254q70 370 239 536t447 166q224 0 338.5 -107.5t114.5 -338.5q0 -112 -27 -256q-70 -368 -238.5 -534t-445.5 -166q-226 0 -340.5 107t-114.5 339zM438 422q0 -151 64.5 -216t195.5 -65q174 0 283.5 122t171.5 417q33 146 33 258q0 151 -64.5 217 t-193.5 66q-116 0 -200 -50t-149.5 -170.5t-107.5 -320.5q-33 -146 -33 -258zM512 -289l35 162q71 0 179 -25.5t201 -51t128 -25.5q40 0 68.5 12.5t70.5 42.5l63 -150q-96 -79 -223 -79q-66 0 -262 57t-260 57z" />
<glyph unicode="R" horiz-adv-x="1249" d="M201 0l288 1362h418q210 0 310 -73.5t100 -254.5q0 -366 -328 -467q59 -30 84.5 -88.5t40.5 -165.5l45 -313h-211l-41 289q-8 54 -18.5 90t-31.5 68t-58 47.5t-90 15.5q-92 0 -191 18l-112 -528h-205zM553 690q106 -20 199 -20q182 0 273 88.5t91 273.5q0 95 -58 131.5 t-186 36.5h-213z" />
<glyph unicode="S" horiz-adv-x="1030" d="M127 47l35 164q192 -70 368 -70q55 0 101.5 9.5t86.5 30.5t62.5 59.5t22.5 91.5q0 51 -27.5 103t-71.5 97.5t-97.5 92.5t-107 95t-97.5 97t-71.5 106.5t-27.5 116.5q0 342 514 342q163 0 311 -32l-34 -162q-150 33 -299 33q-138 0 -211.5 -34.5t-73.5 -125.5 q0 -43 27.5 -88.5t71.5 -87.5t97.5 -86.5t107 -93t97.5 -98t71.5 -110t27.5 -122.5q0 -84 -24.5 -150.5t-68.5 -112t-107 -75.5t-137.5 -43.5t-162.5 -13.5q-108 0 -211.5 19.5t-171.5 47.5z" />
<glyph unicode="T" horiz-adv-x="1118" d="M287 1200l35 162h1052l-35 -162h-424l-253 -1200h-205l254 1200h-424z" />
<glyph unicode="U" horiz-adv-x="1372" d="M266 352q0 63 13 119l186 891h205l-193 -907q-12 -55 -12 -101q0 -213 278 -213q133 0 277 37l252 1184h203l-277 -1305q-239 -77 -471 -77q-76 0 -141 10.5t-125.5 37t-102.5 67.5t-67 106.5t-25 150.5z" />
<glyph unicode="V" horiz-adv-x="1189" d="M297 1362h197l172 -1151q350 537 575 1151h205q-254 -705 -719 -1362h-219z" />
<glyph unicode="W" horiz-adv-x="1753" d="M307 1362h199l39 -1120l473 856h196l115 -856q140 222 270.5 531.5t206.5 588.5h203q-253 -790 -625 -1362h-202l-113 854l-487 -854h-213z" />
<glyph unicode="X" horiz-adv-x="1153" d="M8 0l590 702l-276 660h219l204 -506l431 506h229l-574 -670l291 -692h-225l-219 528l-442 -528h-228z" />
<glyph unicode="Y" horiz-adv-x="1122" d="M266 1362h228l221 -688q289 257 452 688h222q-94 -256 -259 -495.5t-364 -397.5l-100 -469h-205l100 465z" />
<glyph unicode="Z" horiz-adv-x="1179" d="M127 0l10 147l942 1053h-696l35 162h932l-13 -150l-942 -1050h735l-32 -162h-971z" />
<glyph unicode="[" horiz-adv-x="630" d="M125 -385l399 1882h396l-29 -135h-227l-342 -1612h227l-29 -135h-395z" />
<glyph unicode="\" horiz-adv-x="931" d="M205 1495h170l600 -1604h-168z" />
<glyph unicode="]" horiz-adv-x="630" d="M-61 -385l28 135h228l342 1612h-228l29 135h395l-399 -1882h-395z" />
<glyph unicode="^" d="M334 739l473 623h139l205 -623h-156l-143 459l-340 -459h-178z" />
<glyph unicode="_" horiz-adv-x="1335" d="M-31 -152l27 132h1333l-26 -132h-1334z" />
<glyph unicode="`" horiz-adv-x="1069" d="M643 1495h205l96 -330h-147z" />
<glyph unicode="a" horiz-adv-x="1169" d="M180 319q0 73 23 185q29 137 85.5 237t132.5 157t161 83.5t184 26.5q170 0 379 -76l-144 -670q-8 -46 -8 -59q0 -39 16 -52.5t50 -13.5q43 0 125 21l-29 -160q-85 -18 -147 -18q-64 0 -111 29t-61 93q-86 -66 -169 -94t-188 -28q-137 0 -218 82t-81 257zM387 328 q0 -191 152 -191q71 0 150.5 41t117.5 84l119 557q-109 31 -191 31q-58 0 -104 -15t-89.5 -52t-77 -107.5t-54.5 -173.5q-23 -115 -23 -174z" />
<glyph unicode="b" horiz-adv-x="1095" d="M168 39l309 1456h197l-111 -518q147 31 234 31q338 0 338 -326q0 -78 -21 -180q-26 -120 -68.5 -211.5t-94 -149.5t-116.5 -95t-131.5 -51.5t-144.5 -14.5q-88 0 -197.5 17t-193.5 42zM387 158q99 -21 203 -21q61 0 106.5 16t86.5 55.5t72 112t54 181.5q19 97 19 157 q0 104 -45 147.5t-129 43.5q-85 0 -224 -31z" />
<glyph unicode="c" horiz-adv-x="862" d="M180 317q0 77 21 179q31 144 85 246t128.5 159t160 82t191.5 25q103 0 209 -25l-35 -162q-110 27 -207 27q-62 0 -109 -15t-89.5 -53t-74.5 -109t-54 -177q-21 -95 -21 -160q0 -108 51 -152.5t152 -44.5q84 0 223 33l-16 -154q-125 -36 -242 -36q-373 0 -373 337z" />
<glyph unicode="d" horiz-adv-x="1159" d="M180 317q0 78 23 187q29 137 85.5 237t132.5 157t161 83.5t184 26.5q106 0 195 -33l106 520h197l-263 -1237q-8 -46 -8 -55q0 -39 16 -52.5t50 -13.5q43 0 125 21l-29 -160q-85 -18 -147 -18q-64 0 -111 29t-61 93q-150 -122 -351 -122q-141 0 -223 82t-82 255zM387 328 q0 -191 148 -191q71 0 149 39t123 84l119 559q-109 31 -191 31q-58 0 -104 -15t-89.5 -52t-77 -107.5t-54.5 -173.5q-23 -115 -23 -174z" />
<glyph unicode="e" horiz-adv-x="980" d="M180 328q0 102 19.5 197.5t64 184t109 154.5t161 105t214.5 39q151 0 228 -67.5t77 -188.5q0 -164 -125 -247t-336 -83q-97 0 -205 18q-8 -47 -8 -98q0 -101 54.5 -153t187.5 -52q59 0 152 12t138 25l-14 -151q-146 -43 -311 -43q-201 0 -303.5 89.5t-102.5 258.5z M426 582q90 -11 143 -11q291 0 291 152q0 71 -35 103t-118 32q-109 0 -175.5 -67t-105.5 -209z" />
<glyph unicode="f" horiz-adv-x="710" d="M-90 -283q156 91 226.5 186t99.5 232l147 699h-150l33 153h152l37 172q37 175 154.5 262.5t293.5 87.5q86 0 158 -16l-33 -152q-83 11 -139 11q-93 0 -154 -43t-84 -150l-37 -172h304l-33 -153h-303l-150 -697q-21 -97 -51 -170t-80 -140.5t-124.5 -124.5t-180.5 -112z " />
<glyph unicode="g" horiz-adv-x="1097" d="M113 -352l34 153q161 -53 310 -53q124 0 195 54t89 169l19 84q-116 -55 -240 -55q-75 0 -133 14.5t-106.5 49t-74.5 99t-26 156.5q0 86 23 195q105 494 559 494q170 0 379 -76l-199 -938q-46 -216 -171 -308t-335 -92q-82 0 -172 15t-151 39zM385 340q0 -105 41 -143.5 t129 -38.5q55 0 124 21t122 57l121 583q-108 31 -191 31q-46 0 -83 -8t-75 -30t-67.5 -58.5t-55 -97.5t-42.5 -144q-23 -115 -23 -172z" />
<glyph unicode="h" horiz-adv-x="1144" d="M168 0l317 1495h197l-111 -520q157 33 246 33q73 0 130.5 -13t103 -41.5t70 -78t24.5 -117.5q0 -53 -10 -99l-140 -659h-196l137 651q6 35 6 62q0 75 -47.5 106t-134.5 31q-67 0 -223 -37l-172 -813h-197z" />
<glyph unicode="i" horiz-adv-x="563" d="M197 152q0 34 10 86l158 749h196l-164 -772q-4 -20 -4 -27q0 -30 19 -40.5t51 -10.5q38 0 112 19l-28 -156q-82 -20 -148 -20q-202 0 -202 172zM410 1325q0 68 45 109t110 41q50 0 76.5 -22t26.5 -62q0 -64 -43 -108t-111 -44q-51 0 -77.5 22.5t-26.5 63.5z" />
<glyph unicode="j" horiz-adv-x="530" d="M-129 -283q156 91 226.5 186t99.5 232l180 852h196l-180 -850q-21 -97 -51 -170t-80 -140.5t-124.5 -124.5t-180.5 -112zM422 1325q0 68 45 109t111 41q102 0 102 -84q0 -64 -43 -108t-111 -44q-51 0 -77.5 22.5t-26.5 63.5z" />
<glyph unicode="k" horiz-adv-x="1042" d="M168 0l317 1495h199l-199 -936l480 428h241l-438 -403q80 -39 126.5 -112t68.5 -191l53 -281h-209l-45 248q-14 87 -49 138t-107 79l-174 -154l-65 -311h-199z" />
<glyph unicode="l" horiz-adv-x="563" d="M197 158q0 28 10 80l266 1257h197l-273 -1280q-4 -20 -4 -27q0 -30 19 -40.5t51 -10.5q38 0 112 19l-28 -156q-85 -18 -148 -18q-104 0 -153 42.5t-49 133.5z" />
<glyph unicode="m" horiz-adv-x="1710" d="M166 0l196 932q251 76 418 76q173 0 254 -78q190 78 371 78q305 0 305 -242q0 -48 -12 -107l-139 -659h-197l137 651q8 33 8 66q0 133 -164 133q-110 0 -235 -57q0 -83 -10 -134l-140 -659h-196l137 651q8 33 8 68q0 72 -43 101.5t-121 29.5q-96 0 -206 -31l-175 -819 h-196z" />
<glyph unicode="n" horiz-adv-x="1142" d="M166 0l196 932q240 76 435 76q346 0 346 -252q0 -53 -10 -97l-140 -659h-196l137 651q6 35 6 62q0 75 -47 106t-135 31q-107 0 -221 -31l-175 -819h-196z" />
<glyph unicode="o" horiz-adv-x="1083" d="M184 322q0 72 19 172q97 514 553 514q358 0 358 -342q0 -78 -18 -172q-97 -514 -547 -514q-181 0 -273 82.5t-92 259.5zM387 326q0 -103 46 -146t140 -43q124 0 200 78.5t118 278.5q20 97 20 168q0 103 -46 145.5t-140 42.5q-124 0 -199.5 -78t-117.5 -278 q-21 -102 -21 -168z" />
<glyph unicode="p" horiz-adv-x="1110" d="M84 -385l278 1317q239 76 426 76q353 0 353 -328q0 -77 -21 -176q-26 -121 -68 -214t-92.5 -150.5t-114 -94.5t-127 -51t-136.5 -14q-77 0 -220 26l-81 -391h-197zM397 164q131 -27 205 -27q57 0 101 16t85 55.5t72.5 112.5t54.5 181q21 99 21 162q0 104 -46.5 145 t-137.5 41q-43 0 -108.5 -10t-106.5 -21z" />
<glyph unicode="q" horiz-adv-x="1101" d="M180 317q0 78 23 187q29 137 85.5 237t132.5 157t161 83.5t184 26.5q170 0 379 -76l-279 -1317h-196l90 436q-107 -71 -275 -71q-141 0 -223 82t-82 255zM387 328q0 -102 40.5 -146.5t117.5 -44.5q115 0 260 117l121 565q-109 31 -191 31q-58 0 -104 -15t-89.5 -52 t-77 -107.5t-54.5 -173.5q-23 -115 -23 -174z" />
<glyph unicode="r" horiz-adv-x="733" d="M164 0l196 932q132 39 242 56.5t285 17.5l-35 -164q-196 0 -320 -27l-172 -815h-196z" />
<glyph unicode="s" horiz-adv-x="897" d="M133 33l35 153q53 -20 141.5 -36.5t159.5 -16.5q193 0 193 129q0 32 -22 62t-57 56t-77.5 52t-85 55t-77.5 60.5t-57 73.5t-22 88q0 70 25 123.5t65.5 86.5t101 53t123.5 28t140 8q107 0 233 -23l-28 -154q-117 23 -219 23q-59 0 -100.5 -4.5t-76 -17t-52 -37 t-17.5 -60.5q0 -37 41.5 -74.5t100.5 -73.5t117.5 -76.5t100 -99.5t41.5 -128q0 -82 -32.5 -142.5t-90.5 -94.5t-128.5 -50t-155.5 -16q-87 0 -174.5 15t-145.5 38z" />
<glyph unicode="t" horiz-adv-x="755" d="M227 834l33 153h154l106 285h150l-60 -285h273l-33 -153h-272l-125 -586q-4 -24 -4 -33q0 -74 96 -74q74 0 178 29l-27 -164q-89 -29 -196 -29q-112 0 -179 57.5t-67 162.5q0 38 8 77l119 560h-154z" />
<glyph unicode="u" horiz-adv-x="1189" d="M217 262q0 45 8 86l133 639h197l-139 -655q-6 -30 -6 -58q0 -137 133 -137q155 0 282 119l156 731h197l-156 -729q-8 -46 -8 -59q0 -36 16 -49t49 -13q43 0 125 21l-28 -160q-86 -18 -148 -18q-146 0 -172 120q-161 -120 -328 -120q-149 0 -230 72t-81 210z" />
<glyph unicode="v" horiz-adv-x="970" d="M205 987h198l111 -811q246 361 414 811h196q-202 -553 -538 -987h-230z" />
<glyph unicode="w" horiz-adv-x="1648" d="M215 987h197l59 -794l422 794h231l84 -799q205 306 379 799h195q-182 -547 -494 -987h-235l-82 799l-410 -799h-254z" />
<glyph unicode="x" horiz-adv-x="970" d="M35 0l434 502l-215 485h217l150 -350l305 350h211l-426 -491l227 -496h-207l-168 358l-309 -358h-219z" />
<glyph unicode="y" horiz-adv-x="1134" d="M137 -352l35 153q164 -53 311 -53q124 0 191 52t90 167l20 103q-119 -70 -245 -70q-149 0 -234.5 67.5t-85.5 208.5q0 50 12 105l127 606h197l-133 -631q-8 -36 -8 -65q0 -133 141 -133q70 0 147.5 34.5t126.5 83.5l152 711h197l-211 -991q-46 -217 -170.5 -309.5 t-335.5 -92.5q-82 0 -172 15t-152 39z" />
<glyph unicode="z" horiz-adv-x="956" d="M111 0v135l673 699h-510l33 153h742v-133l-670 -700h539l-31 -154h-776z" />
<glyph unicode="{" horiz-adv-x="722" d="M182 473l35 164q97 2 145 28t64 99q13 59 27 208t26 214q32 171 124 249t251 78q74 0 135 -14l-31 -149q-46 12 -106 12q-94 0 -137 -41t-62 -125q-15 -66 -29.5 -218.5t-27.5 -213.5q-22 -97 -77 -148.5t-128 -66.5q119 -29 119 -148q0 -74 -68.5 -286t-68.5 -271 q0 -51 30 -74.5t101 -23.5q45 0 119 12l-33 -151q-54 -13 -119 -13q-130 0 -199 62.5t-69 175.5q0 64 34.5 180.5t68.5 223.5t34 147q0 51 -38 69.5t-120 20.5z" />
<glyph unicode="|" horiz-adv-x="573" d="M205 -410v2048h162v-2048h-162z" />
<glyph unicode="}" horiz-adv-x="722" d="M-51 -389l31 149q46 -12 106 -12q94 0 137 41t62 125q15 66 29.5 218.5t27.5 213.5q22 97 77 148.5t128 66.5q-119 29 -119 148q0 74 68.5 286t68.5 271q0 51 -30 74.5t-101 23.5q-45 0 -119 -12l33 151q54 13 119 13q130 0 199 -62.5t69 -175.5q0 -64 -34.5 -180.5 t-68.5 -223.5t-34 -147q0 -51 38 -69.5t120 -20.5l-35 -164q-97 -2 -145 -28t-64 -99q-13 -59 -27 -208t-26 -214q-32 -171 -124 -249t-251 -78q-74 0 -135 14z" />
<glyph unicode="~" d="M90 584q90 190 297 190q71 0 226.5 -51t197.5 -51q62 0 96 20t68 84l112 -53q-91 -193 -303 -193q-71 0 -222 53.5t-193 53.5q-60 0 -94.5 -21.5t-67.5 -85.5z" />
<glyph unicode="&#xa1;" horiz-adv-x="583" d="M106 -385l242 1020h156l-187 -1020h-211zM358 866q0 60 42.5 101t105.5 41q47 0 72.5 -21t25.5 -61q0 -65 -42 -103.5t-103 -38.5q-48 0 -74.5 21.5t-26.5 60.5z" />
<glyph unicode="&#xa2;" d="M293 500q0 140 29 256.5t78 196.5t117 138t142.5 89t157.5 43l57 280h144l-60 -272q135 -3 263 -35l-35 -166q-47 15 -128 27t-155 12t-131.5 -17t-109.5 -59t-90.5 -120t-63.5 -193q-21 -94 -21 -162q0 -126 66 -178.5t199 -52.5q140 0 297 49l-27 -168 q-128 -45 -293 -45l-61 -295h-144l64 305q-147 21 -221 109t-74 258z" />
<glyph unicode="&#xa3;" d="M113 0v131q52 36 91 69.5t68 72t49 72.5t38 85t29 93.5t28 113.5h-193l10 143h207l49 230q80 372 521 372q158 0 299 -30l-35 -162q-126 31 -260 31q-276 0 -318 -205l-49 -236h469l-29 -143h-464q-41 -195 -93.5 -302.5t-152.5 -172.5h680l-33 -162h-911z" />
<glyph unicode="&#xa5;" d="M213 436l27 131h387l-68 189h-278l26 125h207l-174 481h223l209 -627l445 627h196l-350 -481h223l-26 -125h-279l-133 -189h371l-27 -131h-385l-92 -436h-197l92 436h-397z" />
<glyph unicode="&#xa6;" horiz-adv-x="573" d="M205 -410v822h162v-822h-162zM205 817v821h162v-821h-162z" />
<glyph unicode="&#xa7;" horiz-adv-x="1095" d="M25 -330l63 156q193 -76 344 -76q41 0 79.5 6t75.5 21.5t64 38.5t43.5 59t16.5 82q0 49 -35 96t-87 83t-113.5 79.5t-113.5 85.5t-87 102.5t-35 128.5q0 97 51 181.5t143 134.5q-61 71 -61 160q0 82 30.5 147.5t81.5 107.5t121 70t144.5 39.5t156.5 11.5q147 0 293 -30 l-35 -158q-157 33 -288 33q-55 0 -104.5 -9.5t-94 -30.5t-70.5 -59.5t-26 -91.5q0 -37 27.5 -73.5t72 -68t98.5 -64.5t107.5 -71t98 -80.5t72 -100t27.5 -121.5q0 -119 -58 -204t-150 -126q38 -62 38 -141q0 -38 -8 -74q-20 -93 -67.5 -158t-118 -99.5t-148.5 -49.5 t-176 -15t-201.5 23.5t-170.5 54.5zM434 565q0 -34 22.5 -68t63 -65.5t82.5 -59.5t94.5 -63.5t85.5 -64.5q43 22 76 73t33 109q0 38 -21 74t-60.5 69t-77.5 58.5t-92.5 60.5t-84.5 57q-48 -20 -84.5 -71t-36.5 -109z" />
<glyph unicode="&#xa8;" horiz-adv-x="1069" d="M563 1303q0 58 37.5 93.5t99.5 35.5q45 0 69 -20t24 -56q0 -54 -39.5 -89.5t-96.5 -35.5q-45 0 -69.5 19t-24.5 53zM922 1303q0 58 37.5 93.5t97.5 35.5q45 0 69.5 -20t24.5 -56q0 -54 -39.5 -89.5t-97.5 -35.5q-92 0 -92 72z" />
<glyph unicode="&#xa9;" horiz-adv-x="1488" d="M203 471q0 90 22 209q67 343 272.5 522.5t518.5 179.5q267 0 407 -126t140 -369q0 -84 -23 -209q-65 -340 -268 -519t-512 -179q-273 0 -415 122.5t-142 368.5zM317 475q0 -194 109 -290.5t332 -96.5q276 0 439.5 147t227.5 443q23 109 23 205q0 194 -108.5 290.5 t-331.5 96.5q-276 0 -440 -147t-228 -443q-23 -109 -23 -205zM553 549q0 62 14 131q43 205 149.5 297t274.5 92q115 0 193 -29l-27 -127q-87 27 -182 27q-99 0 -155.5 -54.5t-88.5 -205.5q-16 -68 -16 -129q0 -78 37.5 -106.5t119.5 -28.5q88 0 195 35l-12 -134 q-92 -30 -205 -30q-297 0 -297 262z" />
<glyph unicode="&#xaa;" horiz-adv-x="798" d="M299 948q0 57 14 123q39 166 131.5 236.5t235.5 70.5q63 0 128.5 -13t104.5 -32l-88 -395q-6 -21 -6 -37q0 -25 9 -33t28 -8q42 0 88 12l-24 -114q-57 -13 -101 -13q-103 0 -121 68q-101 -70 -211 -70q-86 0 -137 51.5t-51 153.5zM446 963q0 -60 21 -82.5t65 -22.5 q74 0 148 62l76 335q-62 17 -101 17q-147 0 -196 -203q-13 -53 -13 -106z" />
<glyph unicode="&#xab;" horiz-adv-x="1118" d="M213 555l375 371h186l-348 -371l190 -371h-157zM684 555l348 371h178l-313 -371l156 -371h-179z" />
<glyph unicode="&#xac;" d="M131 786v142h913v-549h-147v407h-766z" />
<glyph unicode="&#xad;" horiz-adv-x="761" d="M221 475l33 160h520l-33 -160h-520z" />
<glyph unicode="&#xae;" horiz-adv-x="1282" d="M256 717q0 68 14 137q54 255 217.5 390.5t423.5 135.5q223 0 346 -100.5t123 -288.5q0 -78 -12 -137q-54 -254 -217.5 -390t-421.5 -136q-225 0 -349 101t-124 288zM369 723q0 -295 360 -295q439 0 528 426q15 71 15 133q0 293 -363 293q-435 0 -526 -426 q-14 -66 -14 -131zM563 580l123 579h197q190 0 190 -139q0 -46 -11.5 -80t-33 -54t-42 -31t-48.5 -19q27 -16 36.5 -37.5t16.5 -65.5l23 -153h-129l-23 153q-6 37 -23 48.5t-51 13.5q-23 0 -59 4l-45 -219h-121zM748 893q36 -4 63 -4q139 0 139 121q0 31 -21.5 44t-70.5 13 h-72z" />
<glyph unicode="&#xaf;" horiz-adv-x="1069" d="M588 1262l28 135h510l-28 -135h-510z" />
<glyph unicode="&#xb0;" horiz-adv-x="749" d="M373 1110q0 117 82.5 194.5t206.5 77.5q94 0 148 -53t54 -141q0 -117 -82.5 -195t-206.5 -78q-94 0 -148 53.5t-54 141.5zM485 1118q0 -47 26 -73.5t79 -26.5q70 0 116 46t46 116q0 46 -27.5 73t-79.5 27q-69 0 -114.5 -46t-45.5 -116z" />
<glyph unicode="&#xb1;" d="M131 0v143h913v-143h-913zM131 582v143h379v348h156v-348h378v-143h-378v-351h-156v351h-379z" />
<glyph unicode="&#xb2;" horiz-adv-x="641" d="M227 680l21 100l233 203q86 73 126 122t40 89q0 36 -26.5 52t-81.5 16q-71 0 -174 -25l26 123q73 20 172 20q114 0 169.5 -44t55.5 -136q0 -28 -6.5 -54.5t-14 -46t-27 -44.5t-31.5 -39t-42 -40t-44 -37.5t-52 -41.5l-125 -100h269l-25 -117h-463z" />
<glyph unicode="&#xb3;" horiz-adv-x="641" d="M233 688l29 119q80 -37 180 -37q40 0 72.5 11t57 42.5t24.5 81.5q0 41 -30.5 56.5t-90.5 15.5h-98l20 94l213 176h-268l25 115h448l-22 -105l-224 -180h9q73 0 118 -41t45 -118q0 -88 -45 -150.5t-113.5 -90.5t-150.5 -28q-107 0 -199 39z" />
<glyph unicode="&#xb4;" horiz-adv-x="1069" d="M690 1165l193 330h223l-248 -330h-168z" />
<glyph unicode="&#xb6;" horiz-adv-x="1306" d="M260 754q0 64 23 172q26 125 68 206.5t106.5 131.5t154 72.5t210.5 28t276 -2.5l-359 -1686h-143l170 797q-13 0 -46 -1t-71 -1q-202 0 -295.5 65t-93.5 218zM893 -324l358 1686h146l-359 -1686h-145z" />
<glyph unicode="&#xb7;" horiz-adv-x="534" d="M156 522q0 67 45.5 107.5t109.5 40.5q49 0 78 -23t29 -63q0 -67 -45.5 -108.5t-110.5 -41.5q-50 0 -78 23.5t-28 64.5z" />
<glyph unicode="&#xb8;" horiz-adv-x="1069" d="M303 -381l29 125q49 -18 92 -18q39 0 56.5 18.5t17.5 60.5q0 32 -21 101h146q30 -73 30 -121q0 -89 -59.5 -140t-155.5 -51q-69 0 -135 25z" />
<glyph unicode="&#xb9;" horiz-adv-x="608" d="M338 1188l27 125l204 49h107l-146 -684h-143l117 551z" />
<glyph unicode="&#xba;" horiz-adv-x="798" d="M313 956q0 110 30 194t82.5 133t116 73t136.5 24q108 0 169.5 -55.5t61.5 -163.5q0 -81 -22 -155.5t-65 -135.5t-113.5 -98t-159.5 -37q-112 0 -174 55.5t-62 165.5zM463 967q0 -119 102 -119q35 0 67 14.5t62.5 46.5t49 94.5t18.5 147.5q0 117 -107 117q-33 0 -65 -16 t-61.5 -49.5t-47.5 -94.5t-18 -141z" />
<glyph unicode="&#xbb;" horiz-adv-x="1118" d="M141 184l314 371l-156 371h178l191 -371l-349 -371h-178zM578 184l348 371l-191 371h158l246 -371l-375 -371h-186z" />
<glyph unicode="&#xbc;" horiz-adv-x="1552" d="M242 0l1122 1362h162l-1125 -1362h-159zM338 1188l27 125l204 49h107l-146 -684h-143l117 551zM958 150l21 98l352 454h197l-92 -440h92l-25 -112h-92l-31 -150h-139l31 150h-314zM1130 262h166l60 287z" />
<glyph unicode="&#xbd;" horiz-adv-x="1552" d="M233 0l1123 1362h162l-1125 -1362h-160zM338 1188l27 125l204 49h107l-146 -684h-143l117 551zM1036 0l21 100l233 203q86 73 126 122t40 89q0 36 -26.5 52t-81.5 16q-72 0 -174 -25l26 123q73 20 172 20q114 0 169.5 -44t55.5 -136q0 -28 -6.5 -54.5t-14 -46t-27 -44.5 t-31.5 -39t-42 -40t-44 -37.5t-52 -41.5l-125 -100h269l-25 -117h-463z" />
<glyph unicode="&#xbe;" horiz-adv-x="1552" d="M233 688l29 119q80 -37 180 -37q40 0 72.5 11t57 42.5t24.5 81.5q0 41 -30.5 56.5t-90.5 15.5h-98l20 94l213 176h-268l25 115h448l-22 -105l-224 -180h9q73 0 118 -41t45 -118q0 -88 -45 -150.5t-113.5 -90.5t-150.5 -28q-107 0 -199 39zM305 0l1122 1362h162 l-1124 -1362h-160zM950 150l21 98l352 454h197l-93 -440h93l-25 -112h-92l-31 -150h-139l31 150h-314zM1122 262h166l60 287z" />
<glyph unicode="&#xbf;" horiz-adv-x="757" d="M25 -133q0 67 21 125t55.5 101t76.5 82t86.5 75.5t83.5 73.5t69.5 85t41.5 101l26 121h170l-26 -129q-16 -78 -47.5 -144t-68.5 -110.5t-78 -83.5t-78.5 -71t-68 -63.5t-49 -70t-18.5 -82.5q0 -65 44.5 -94t135.5 -29q69 0 148 16t133 40l2 -164q-137 -56 -295 -56 q-172 0 -268 64t-96 213zM502 866q0 64 43.5 103t103.5 39q48 0 75.5 -22.5t27.5 -61.5q0 -58 -45 -100t-107 -42q-45 0 -71.5 22.5t-26.5 61.5z" />
<glyph unicode="&#xc0;" horiz-adv-x="1314" d="M172 0l186 885q103 497 572 497q213 0 322.5 -94t109.5 -260q0 -61 -16 -143l-187 -885h-205l107 504h-582l-106 -504h-201zM514 666h582l47 225q14 75 14 121q0 209 -233 209q-159 0 -244.5 -86.5t-118.5 -243.5zM715 1876h205l96 -330h-148z" />
<glyph unicode="&#xc1;" horiz-adv-x="1314" d="M172 0l186 885q103 497 572 497q213 0 322.5 -94t109.5 -260q0 -61 -16 -143l-187 -885h-205l107 504h-582l-106 -504h-201zM514 666h582l47 225q14 75 14 121q0 209 -233 209q-159 0 -244.5 -86.5t-118.5 -243.5zM870 1546l193 330h223l-248 -330h-168z" />
<glyph unicode="&#xc2;" horiz-adv-x="1314" d="M172 0l186 885q103 497 572 497q213 0 322.5 -94t109.5 -260q0 -61 -16 -143l-187 -885h-205l107 504h-582l-106 -504h-201zM514 666h582l47 225q14 75 14 121q0 209 -233 209q-159 0 -244.5 -86.5t-118.5 -243.5zM639 1546l270 330h183l127 -330h-156l-76 211l-168 -211 h-180z" />
<glyph unicode="&#xc3;" horiz-adv-x="1314" d="M172 0l186 885q103 497 572 497q213 0 322.5 -94t109.5 -260q0 -61 -16 -143l-187 -885h-205l107 504h-582l-106 -504h-201zM514 666h582l47 225q14 75 14 121q0 209 -233 209q-159 0 -244.5 -86.5t-118.5 -243.5zM717 1667q31 66 84.5 104.5t126.5 38.5 q54 0 121.5 -33.5t93.5 -33.5q14 0 24.5 3.5t20.5 13.5t14.5 15.5t15 22.5t13.5 21l106 -62q-40 -76 -90 -113.5t-123 -37.5q-44 0 -112 33.5t-92 33.5q-35 0 -56.5 -17.5t-38.5 -51.5z" />
<glyph unicode="&#xc4;" horiz-adv-x="1314" d="M172 0l186 885q103 497 572 497q213 0 322.5 -94t109.5 -260q0 -61 -16 -143l-187 -885h-205l107 504h-582l-106 -504h-201zM514 666h582l47 225q14 75 14 121q0 209 -233 209q-159 0 -244.5 -86.5t-118.5 -243.5zM733 1681q0 58 37.5 93.5t99.5 35.5q45 0 69 -19.5 t24 -55.5q0 -54 -39.5 -89.5t-96.5 -35.5q-45 0 -69.5 18.5t-24.5 52.5zM1092 1681q0 58 37.5 93.5t97.5 35.5q45 0 69.5 -19.5t24.5 -55.5q0 -54 -39.5 -89.5t-97.5 -35.5q-92 0 -92 71z" />
<glyph unicode="&#xc5;" horiz-adv-x="1314" d="M172 0l186 885q103 497 572 497q213 0 322.5 -94t109.5 -260q0 -61 -16 -143l-187 -885h-205l107 504h-582l-106 -504h-201zM514 666h582l47 225q14 75 14 121q0 209 -233 209q-159 0 -244.5 -86.5t-118.5 -243.5zM821 1667q0 104 70 161.5t176 57.5q83 0 128.5 -33.5 t45.5 -97.5q0 -104 -70 -161.5t-176 -57.5q-83 0 -128.5 33.5t-45.5 97.5zM948 1686q0 -54 66 -54q47 2 73.5 28t26.5 77t-61 51q-105 0 -105 -102z" />
<glyph unicode="&#xc6;" horiz-adv-x="1869" d="M172 0l186 885q104 497 568 497q234 0 303 -118l22 98h766l-35 -162h-569l-90 -422h514l-35 -162h-514l-61 -297q-6 -27 -6 -49q0 -108 149 -108h420l-35 -162h-426q-145 0 -229 71.5t-84 182.5q0 39 10 88l57 274h-581l-129 -616h-201zM537 778h581l21 88q16 71 16 144 q0 102 -54 156.5t-179 54.5q-163 0 -247.5 -90.5t-119.5 -262.5z" />
<glyph unicode="&#xc7;" horiz-adv-x="1107" d="M225 428q0 110 27 254q37 197 105.5 335t165 217t210.5 113.5t258 34.5q141 0 289 -32l-35 -162q-129 33 -297 33q-89 0 -159.5 -26t-132.5 -86.5t-109.5 -166.5t-79.5 -258q-33 -149 -33 -258q0 -157 71.5 -221t217.5 -64q148 0 326 41l-19 -168q-128 -34 -328 -34 q-115 0 -200 23t-148.5 74t-96 139t-32.5 212zM373 -381l28 125q49 -18 93 -18q39 0 56 18.5t17 60.5q0 35 -20 101h145q31 -76 31 -121q0 -89 -59.5 -140t-155.5 -51q-69 0 -135 25z" />
<glyph unicode="&#xc8;" horiz-adv-x="1101" d="M246 260q0 32 10 84l217 1018h776l-35 -162h-571l-90 -422h516l-35 -162h-516l-61 -294q-6 -27 -6 -50q0 -110 147 -110h422l-35 -162h-426q-149 0 -231 69.5t-82 190.5zM719 1876h205l96 -330h-148z" />
<glyph unicode="&#xc9;" horiz-adv-x="1101" d="M246 260q0 32 10 84l217 1018h776l-35 -162h-571l-90 -422h516l-35 -162h-516l-61 -294q-6 -27 -6 -50q0 -110 147 -110h422l-35 -162h-426q-149 0 -231 69.5t-82 190.5zM766 1546l192 330h224l-248 -330h-168z" />
<glyph unicode="&#xca;" horiz-adv-x="1101" d="M246 260q0 32 10 84l217 1018h776l-35 -162h-571l-90 -422h516l-35 -162h-516l-61 -294q-6 -27 -6 -50q0 -110 147 -110h422l-35 -162h-426q-149 0 -231 69.5t-82 190.5zM600 1546l270 330h183l127 -330h-156l-76 211l-168 -211h-180z" />
<glyph unicode="&#xcb;" horiz-adv-x="1101" d="M246 260q0 32 10 84l217 1018h776l-35 -162h-571l-90 -422h516l-35 -162h-516l-61 -294q-6 -27 -6 -50q0 -110 147 -110h422l-35 -162h-426q-149 0 -231 69.5t-82 190.5zM633 1681q0 58 37.5 93.5t99.5 35.5q92 0 92 -75q0 -54 -39 -89.5t-96 -35.5q-45 0 -69.5 18.5 t-24.5 52.5zM991 1681q0 58 37.5 93.5t97.5 35.5q45 0 70 -20t25 -55q0 -53 -40 -89t-98 -36q-92 0 -92 71z" />
<glyph unicode="&#xcc;" horiz-adv-x="606" d="M201 0l288 1362h205l-288 -1362h-205zM393 1876h205l96 -330h-147z" />
<glyph unicode="&#xcd;" horiz-adv-x="606" d="M201 0l288 1362h205l-288 -1362h-205zM541 1546l192 330h223l-247 -330h-168z" />
<glyph unicode="&#xce;" horiz-adv-x="606" d="M201 0l288 1362h205l-288 -1362h-205zM328 1546l270 330h182l127 -330h-155l-76 211l-168 -211h-180z" />
<glyph unicode="&#xcf;" horiz-adv-x="606" d="M201 0l288 1362h205l-288 -1362h-205zM373 1681q0 58 37.5 93.5t99.5 35.5q92 0 92 -75q0 -54 -39 -89.5t-96 -35.5q-45 0 -69.5 18.5t-24.5 52.5zM731 1681q0 58 37.5 93.5t97.5 35.5q45 0 70 -20t25 -55q0 -53 -40 -89t-98 -36q-92 0 -92 71z" />
<glyph unicode="&#xd0;" horiz-adv-x="1345" d="M168 608l33 162h174l127 592h438q230 0 346.5 -107.5t116.5 -332.5q0 -97 -25 -228q-32 -171 -91 -300.5t-151 -223.5t-222.5 -142t-297.5 -48q-207 0 -399 49l123 579h-172zM451 156q76 -15 208 -15q202 0 324 132.5t182 418.5q27 138 27 213q0 154 -73 224.5t-214 70.5 h-233l-92 -430h307l-33 -162h-307z" />
<glyph unicode="&#xd1;" horiz-adv-x="1468" d="M201 0l288 1362h164l531 -811l174 811h198l-288 -1362h-199l66 317l-508 760l-230 -1077h-196zM784 1665q31 66 84.5 104.5t126.5 38.5q54 0 121.5 -33.5t93.5 -33.5q14 0 24.5 3.5t20.5 13.5t14.5 15.5t15 22.5t13.5 21l107 -62q-40 -76 -90 -113.5t-123 -37.5 q-44 0 -112.5 33.5t-92.5 33.5q-35 0 -56 -17.5t-38 -51.5z" />
<glyph unicode="&#xd2;" horiz-adv-x="1337" d="M229 426q0 110 27 254q70 370 239 536t447 166q224 0 338.5 -107.5t114.5 -338.5q0 -112 -27 -256q-70 -368 -238.5 -534t-445.5 -166q-226 0 -340.5 107t-114.5 339zM438 422q0 -151 64.5 -216t195.5 -65q174 0 283.5 122t171.5 417q33 146 33 258q0 151 -64.5 217 t-193.5 66q-116 0 -200 -50t-149.5 -170.5t-107.5 -320.5q-33 -146 -33 -258zM772 1876h205l96 -330h-147z" />
<glyph unicode="&#xd3;" horiz-adv-x="1337" d="M229 426q0 110 27 254q70 370 239 536t447 166q224 0 338.5 -107.5t114.5 -338.5q0 -112 -27 -256q-70 -368 -238.5 -534t-445.5 -166q-226 0 -340.5 107t-114.5 339zM438 422q0 -151 64.5 -216t195.5 -65q174 0 283.5 122t171.5 417q33 146 33 258q0 151 -64.5 217 t-193.5 66q-116 0 -200 -50t-149.5 -170.5t-107.5 -320.5q-33 -146 -33 -258zM907 1546l193 330h223l-248 -330h-168z" />
<glyph unicode="&#xd4;" horiz-adv-x="1337" d="M229 426q0 110 27 254q70 370 239 536t447 166q224 0 338.5 -107.5t114.5 -338.5q0 -112 -27 -256q-70 -368 -238.5 -534t-445.5 -166q-226 0 -340.5 107t-114.5 339zM438 422q0 -151 64.5 -216t195.5 -65q174 0 283.5 122t171.5 417q33 146 33 258q0 151 -64.5 217 t-193.5 66q-116 0 -200 -50t-149.5 -170.5t-107.5 -320.5q-33 -146 -33 -258zM690 1546l271 330h182l127 -330h-156l-76 211l-168 -211h-180z" />
<glyph unicode="&#xd5;" horiz-adv-x="1337" d="M229 426q0 110 27 254q70 370 239 536t447 166q224 0 338.5 -107.5t114.5 -338.5q0 -112 -27 -256q-70 -368 -238.5 -534t-445.5 -166q-226 0 -340.5 107t-114.5 339zM438 422q0 -151 64.5 -216t195.5 -65q174 0 283.5 122t171.5 417q33 146 33 258q0 151 -64.5 217 t-193.5 66q-116 0 -200 -50t-149.5 -170.5t-107.5 -320.5q-33 -146 -33 -258zM721 1665q31 66 84.5 104.5t126.5 38.5q54 0 121.5 -33.5t93.5 -33.5q14 0 24.5 3.5t20.5 13.5t14.5 15.5t15 22.5t13.5 21l106 -62q-40 -76 -90 -113.5t-123 -37.5q-44 0 -112 33.5t-92 33.5 q-35 0 -56.5 -17.5t-38.5 -51.5z" />
<glyph unicode="&#xd6;" horiz-adv-x="1337" d="M229 426q0 110 27 254q70 370 239 536t447 166q224 0 338.5 -107.5t114.5 -338.5q0 -112 -27 -256q-70 -368 -238.5 -534t-445.5 -166q-226 0 -340.5 107t-114.5 339zM438 422q0 -151 64.5 -216t195.5 -65q174 0 283.5 122t171.5 417q33 146 33 258q0 151 -64.5 217 t-193.5 66q-116 0 -200 -50t-149.5 -170.5t-107.5 -320.5q-33 -146 -33 -258zM737 1681q0 58 37.5 93.5t99.5 35.5q45 0 69 -19.5t24 -55.5q0 -54 -39.5 -89.5t-96.5 -35.5q-45 0 -69.5 18.5t-24.5 52.5zM1096 1681q0 58 37.5 93.5t97.5 35.5q45 0 69.5 -19.5t24.5 -55.5 q0 -54 -39.5 -89.5t-97.5 -35.5q-92 0 -92 71z" />
<glyph unicode="&#xd7;" d="M164 346l313 305l-307 303l102 105l314 -303l321 309l105 -107l-316 -307l312 -303l-101 -106l-321 307l-320 -307z" />
<glyph unicode="&#xd8;" horiz-adv-x="1337" d="M127 -51l168 198q-66 104 -66 277q0 112 27 256q70 370 239 536t447 166q197 0 309 -84l158 189l86 -68l-168 -200q68 -106 68 -285q0 -113 -27 -254q-70 -368 -238.5 -534t-445.5 -166q-206 0 -317 86l-154 -187zM438 418q0 -48 6 -88l682 819q-63 72 -198 72 q-116 0 -200 -50t-149.5 -170.5t-107.5 -320.5q-33 -152 -33 -262zM494 217q59 -76 204 -76q174 0 283.5 122t171.5 417q33 168 33 256q0 59 -8 100z" />
<glyph unicode="&#xd9;" horiz-adv-x="1372" d="M266 352q0 63 13 119l186 891h205l-193 -907q-12 -55 -12 -101q0 -213 278 -213q133 0 277 37l252 1184h203l-277 -1305q-239 -77 -471 -77q-76 0 -141 10.5t-125.5 37t-102.5 67.5t-67 106.5t-25 150.5zM739 1876h205l96 -330h-147z" />
<glyph unicode="&#xda;" horiz-adv-x="1372" d="M266 352q0 63 13 119l186 891h205l-193 -907q-12 -55 -12 -101q0 -213 278 -213q133 0 277 37l252 1184h203l-277 -1305q-239 -77 -471 -77q-76 0 -141 10.5t-125.5 37t-102.5 67.5t-67 106.5t-25 150.5zM887 1546l192 330h224l-248 -330h-168z" />
<glyph unicode="&#xdb;" horiz-adv-x="1372" d="M266 352q0 63 13 119l186 891h205l-193 -907q-12 -55 -12 -101q0 -213 278 -213q133 0 277 37l252 1184h203l-277 -1305q-239 -77 -471 -77q-76 0 -141 10.5t-125.5 37t-102.5 67.5t-67 106.5t-25 150.5zM682 1546l270 330h183l127 -330h-156l-76 211l-168 -211h-180z " />
<glyph unicode="&#xdc;" horiz-adv-x="1372" d="M266 352q0 63 13 119l186 891h205l-193 -907q-12 -55 -12 -101q0 -213 278 -213q133 0 277 37l252 1184h203l-277 -1305q-239 -77 -471 -77q-76 0 -141 10.5t-125.5 37t-102.5 67.5t-67 106.5t-25 150.5zM717 1681q0 58 37.5 93.5t99.5 35.5q92 0 92 -75q0 -54 -39 -89.5 t-96 -35.5q-45 0 -69.5 18.5t-24.5 52.5zM1075 1681q0 58 37.5 93.5t97.5 35.5q45 0 70 -20t25 -55q0 -53 -40 -89t-98 -36q-92 0 -92 71z" />
<glyph unicode="&#xdd;" horiz-adv-x="1122" d="M266 1362h228l221 -688q289 257 452 688h222q-94 -256 -259 -495.5t-364 -397.5l-100 -469h-205l100 465zM770 1546l193 330h223l-248 -330h-168z" />
<glyph unicode="&#xde;" horiz-adv-x="1208" d="M201 0l288 1362h205l-49 -234h213q212 0 311 -73t99 -244q0 -150 -45 -260t-126 -173.5t-183 -93.5t-228 -30q-100 0 -223 22l-57 -276h-205zM498 436q85 -16 200 -16q181 0 275 97.5t94 287.5q0 92 -57.5 127t-186.5 35h-213z" />
<glyph unicode="&#xdf;" horiz-adv-x="1062" d="M-133 -283q153 91 223.5 186t99.5 228l220 1032q74 350 450 350q154 0 238 -68.5t84 -180.5q0 -80 -31 -152.5t-75 -123t-87.5 -94t-74.5 -85t-31 -76.5q0 -32 21 -70t50.5 -76.5t59 -81t50.5 -98t21 -112.5q0 -71 -21 -126.5t-54.5 -90t-81 -57.5t-96 -32t-103.5 -9 q-121 0 -207 30l31 146q85 -29 170 -29q39 0 69 6.5t57 23t41.5 49t14.5 79.5q0 45 -31 98.5t-68 97t-68 105t-31 121.5q0 48 16 93t41.5 80.5t56 70t61 67t56 65t41.5 71t16 77.5q0 64 -41.5 95.5t-115.5 31.5q-189 0 -232 -195l-217 -1026q-21 -97 -51 -170t-80 -140.5 t-124.5 -124.5t-180.5 -112z" />
<glyph unicode="&#xe0;" horiz-adv-x="1169" d="M180 319q0 73 23 185q29 137 85.5 237t132.5 157t161 83.5t184 26.5q170 0 379 -76l-144 -670q-8 -46 -8 -59q0 -39 16 -52.5t50 -13.5q43 0 125 21l-29 -160q-85 -18 -147 -18q-64 0 -111 29t-61 93q-86 -66 -169 -94t-188 -28q-137 0 -218 82t-81 257zM387 328 q0 -191 152 -191q71 0 150.5 41t117.5 84l119 557q-109 31 -191 31q-58 0 -104 -15t-89.5 -52t-77 -107.5t-54.5 -173.5q-23 -115 -23 -174zM596 1495h205l96 -330h-147z" />
<glyph unicode="&#xe1;" horiz-adv-x="1169" d="M180 319q0 73 23 185q29 137 85.5 237t132.5 157t161 83.5t184 26.5q170 0 379 -76l-144 -670q-8 -46 -8 -59q0 -39 16 -52.5t50 -13.5q43 0 125 21l-29 -160q-85 -18 -147 -18q-64 0 -111 29t-61 93q-86 -66 -169 -94t-188 -28q-137 0 -218 82t-81 257zM387 328 q0 -191 152 -191q71 0 150.5 41t117.5 84l119 557q-109 31 -191 31q-58 0 -104 -15t-89.5 -52t-77 -107.5t-54.5 -173.5q-23 -115 -23 -174zM692 1165l193 330h223l-248 -330h-168z" />
<glyph unicode="&#xe2;" horiz-adv-x="1169" d="M180 319q0 73 23 185q29 137 85.5 237t132.5 157t161 83.5t184 26.5q170 0 379 -76l-144 -670q-8 -46 -8 -59q0 -39 16 -52.5t50 -13.5q43 0 125 21l-29 -160q-85 -18 -147 -18q-64 0 -111 29t-61 93q-86 -66 -169 -94t-188 -28q-137 0 -218 82t-81 257zM387 328 q0 -191 152 -191q71 0 150.5 41t117.5 84l119 557q-109 31 -191 31q-58 0 -104 -15t-89.5 -52t-77 -107.5t-54.5 -173.5q-23 -115 -23 -174zM483 1165l271 330h182l127 -330h-156l-76 211l-167 -211h-181z" />
<glyph unicode="&#xe3;" horiz-adv-x="1169" d="M180 319q0 73 23 185q29 137 85.5 237t132.5 157t161 83.5t184 26.5q170 0 379 -76l-144 -670q-8 -46 -8 -59q0 -39 16 -52.5t50 -13.5q43 0 125 21l-29 -160q-85 -18 -147 -18q-64 0 -111 29t-61 93q-86 -66 -169 -94t-188 -28q-137 0 -218 82t-81 257zM387 328 q0 -191 152 -191q71 0 150.5 41t117.5 84l119 557q-109 31 -191 31q-58 0 -104 -15t-89.5 -52t-77 -107.5t-54.5 -173.5q-23 -115 -23 -174zM500 1286q67 144 211 144q54 0 121.5 -34t93.5 -34q14 0 24.5 3.5t20.5 13.5t14.5 15.5t15 22.5t13.5 21l106 -62 q-40 -76 -90 -113.5t-123 -37.5q-44 0 -112.5 33.5t-92.5 33.5q-35 0 -56 -17.5t-38 -51.5z" />
<glyph unicode="&#xe4;" horiz-adv-x="1169" d="M180 319q0 73 23 185q29 137 85.5 237t132.5 157t161 83.5t184 26.5q170 0 379 -76l-144 -670q-8 -46 -8 -59q0 -39 16 -52.5t50 -13.5q43 0 125 21l-29 -160q-85 -18 -147 -18q-64 0 -111 29t-61 93q-86 -66 -169 -94t-188 -28q-137 0 -218 82t-81 257zM387 328 q0 -191 152 -191q71 0 150.5 41t117.5 84l119 557q-109 31 -191 31q-58 0 -104 -15t-89.5 -52t-77 -107.5t-54.5 -173.5q-23 -115 -23 -174zM520 1303q0 58 37.5 93.5t99.5 35.5q45 0 69 -20t24 -56q0 -54 -39.5 -89.5t-96.5 -35.5q-45 0 -69.5 19t-24.5 53zM879 1303 q0 58 37.5 93.5t97.5 35.5q45 0 69.5 -20t24.5 -56q0 -54 -39.5 -89.5t-97.5 -35.5q-92 0 -92 72z" />
<glyph unicode="&#xe5;" horiz-adv-x="1169" d="M180 319q0 73 23 185q29 137 85.5 237t132.5 157t161 83.5t184 26.5q170 0 379 -76l-144 -670q-8 -46 -8 -59q0 -39 16 -52.5t50 -13.5q43 0 125 21l-29 -160q-85 -18 -147 -18q-64 0 -111 29t-61 93q-86 -66 -169 -94t-188 -28q-137 0 -218 82t-81 257zM387 328 q0 -191 152 -191q71 0 150.5 41t117.5 84l119 557q-109 31 -191 31q-58 0 -104 -15t-89.5 -52t-77 -107.5t-54.5 -173.5q-23 -115 -23 -174zM598 1284q0 104 70 161.5t176 57.5q83 0 128.5 -33.5t45.5 -97.5q0 -104 -70 -161.5t-176 -57.5q-83 0 -128.5 33.5t-45.5 97.5z M725 1303q0 -54 66 -54q47 2 73.5 28t26.5 77t-62 51q-104 0 -104 -102z" />
<glyph unicode="&#xe6;" horiz-adv-x="1536" d="M123 236q0 83 27.5 148.5t71.5 105t104 65t120 35.5t125 10q128 0 205 -14q29 85 29 141q0 69 -50.5 96t-142.5 27q-97 0 -268 -35l21 160q158 33 290 33q100 0 179 -28.5t120 -86.5q129 115 344 115q151 0 230.5 -67.5t79.5 -188.5q0 -164 -125 -247t-336 -83 q-97 0 -205 18q-8 -47 -8 -98q0 -100 55.5 -152.5t186.5 -52.5q59 0 152 12t138 25l-14 -151q-146 -43 -311 -43q-219 0 -320 104q-166 -104 -362 -104q-156 0 -246 61t-90 195zM315 248q0 -61 41.5 -92t110.5 -31q76 0 155 25t128 59q-15 62 -15 96q0 90 10 141 q-86 13 -182 13q-37 0 -70 -5.5t-66.5 -20t-57.5 -37.5t-39 -61t-15 -87zM981 582q90 -11 143 -11q291 0 291 152q0 71 -35 103t-118 32q-109 0 -175.5 -67t-105.5 -209z" />
<glyph unicode="&#xe7;" horiz-adv-x="862" d="M180 317q0 77 21 179q31 144 85 246t128.5 159t160 82t191.5 25q103 0 209 -25l-35 -162q-110 27 -207 27q-62 0 -109 -15t-89.5 -53t-74.5 -109t-54 -177q-21 -95 -21 -160q0 -108 51 -152.5t152 -44.5q84 0 223 33l-16 -154q-125 -36 -242 -36q-373 0 -373 337z M246 -381l28 125q49 -18 93 -18q39 0 56 18.5t17 60.5q0 35 -20 101h145q31 -76 31 -121q0 -89 -59.5 -140t-155.5 -51q-69 0 -135 25z" />
<glyph unicode="&#xe8;" horiz-adv-x="980" d="M180 328q0 102 19.5 197.5t64 184t109 154.5t161 105t214.5 39q151 0 228 -67.5t77 -188.5q0 -164 -125 -247t-336 -83q-97 0 -205 18q-8 -47 -8 -98q0 -101 54.5 -153t187.5 -52q59 0 152 12t138 25l-14 -151q-146 -43 -311 -43q-201 0 -303.5 89.5t-102.5 258.5z M426 582q90 -11 143 -11q291 0 291 152q0 71 -35 103t-118 32q-109 0 -175.5 -67t-105.5 -209zM559 1495h205l96 -330h-147z" />
<glyph unicode="&#xe9;" horiz-adv-x="980" d="M180 328q0 102 19.5 197.5t64 184t109 154.5t161 105t214.5 39q151 0 228 -67.5t77 -188.5q0 -164 -125 -247t-336 -83q-97 0 -205 18q-8 -47 -8 -98q0 -101 54.5 -153t187.5 -52q59 0 152 12t138 25l-14 -151q-146 -43 -311 -43q-201 0 -303.5 89.5t-102.5 258.5z M426 582q90 -11 143 -11q291 0 291 152q0 71 -35 103t-118 32q-109 0 -175.5 -67t-105.5 -209zM725 1165l193 330h223l-248 -330h-168z" />
<glyph unicode="&#xea;" horiz-adv-x="980" d="M180 328q0 102 19.5 197.5t64 184t109 154.5t161 105t214.5 39q151 0 228 -67.5t77 -188.5q0 -164 -125 -247t-336 -83q-97 0 -205 18q-8 -47 -8 -98q0 -101 54.5 -153t187.5 -52q59 0 152 12t138 25l-14 -151q-146 -43 -311 -43q-201 0 -303.5 89.5t-102.5 258.5z M426 582q90 -11 143 -11q291 0 291 152q0 71 -35 103t-118 32q-109 0 -175.5 -67t-105.5 -209zM520 1165l271 330h182l127 -330h-156l-76 211l-168 -211h-180z" />
<glyph unicode="&#xeb;" horiz-adv-x="980" d="M180 328q0 102 19.5 197.5t64 184t109 154.5t161 105t214.5 39q151 0 228 -67.5t77 -188.5q0 -164 -125 -247t-336 -83q-97 0 -205 18q-8 -47 -8 -98q0 -101 54.5 -153t187.5 -52q59 0 152 12t138 25l-14 -151q-146 -43 -311 -43q-201 0 -303.5 89.5t-102.5 258.5z M426 582q90 -11 143 -11q291 0 291 152q0 71 -35 103t-118 32q-109 0 -175.5 -67t-105.5 -209zM555 1303q0 58 37.5 93.5t99.5 35.5q45 0 68.5 -20t23.5 -56q0 -54 -39 -89.5t-96 -35.5q-45 0 -69.5 19t-24.5 53zM913 1303q0 58 38 93.5t98 35.5q45 0 69.5 -20t24.5 -56 q0 -54 -39.5 -89.5t-97.5 -35.5q-45 0 -69 19t-24 53z" />
<glyph unicode="&#xec;" horiz-adv-x="563" d="M197 152q0 34 10 86l158 749h196l-164 -772q-4 -20 -4 -27q0 -53 70 -53q30 0 112 21l-28 -156q-85 -18 -148 -18q-202 0 -202 170zM272 1495h205l96 -330h-147z" />
<glyph unicode="&#xed;" horiz-adv-x="563" d="M197 152q0 34 10 86l158 749h196l-164 -772q-4 -20 -4 -27q0 -53 70 -53q30 0 112 21l-28 -156q-85 -18 -148 -18q-202 0 -202 170zM410 1165l192 330h223l-247 -330h-168z" />
<glyph unicode="&#xee;" horiz-adv-x="563" d="M190 1165l271 330h182l127 -330h-156l-75 211l-168 -211h-181zM197 152q0 34 10 86l158 749h196l-164 -772q-4 -20 -4 -27q0 -53 70 -53q30 0 112 21l-28 -156q-85 -18 -148 -18q-202 0 -202 170z" />
<glyph unicode="&#xef;" horiz-adv-x="563" d="M197 152q0 34 10 86l158 749h196l-164 -772q-4 -20 -4 -27q0 -53 70 -53q30 0 112 21l-28 -156q-85 -18 -148 -18q-202 0 -202 170zM233 1303q0 58 38 93.5t100 35.5q45 0 68.5 -20t23.5 -56q0 -54 -39 -89.5t-96 -35.5q-45 0 -70 19t-25 53zM592 1303q0 58 37.5 93.5 t97.5 35.5q45 0 69.5 -20t24.5 -56q0 -54 -39.5 -89.5t-97.5 -35.5q-92 0 -92 72z" />
<glyph unicode="&#xf0;" horiz-adv-x="1071" d="M182 322q0 72 19 172q46 257 187.5 385.5t350.5 128.5q89 0 148 -26.5t82 -68.5q0 154 -43 267l-367 -68l29 131l295 55q-29 74 -105 197h195q50 -72 88 -164l227 43l-26 -129l-158 -31q37 -154 37 -321q0 -452 -154 -682.5t-448 -230.5q-175 0 -266 82.5t-91 259.5z M385 326q0 -103 46 -146t140 -43q124 0 200 78.5t118 278.5q20 97 20 168q0 103 -46 145.5t-140 42.5q-124 0 -199.5 -78t-117.5 -278q-21 -102 -21 -168z" />
<glyph unicode="&#xf1;" horiz-adv-x="1142" d="M164 0l196 932q240 76 435 76q346 0 346 -252q0 -49 -11 -97l-139 -659h-196l137 651q6 35 6 62q0 75 -47 106t-135 31q-107 0 -221 -31l-175 -819h-196zM555 1286q67 144 211 144q54 0 121.5 -34t93.5 -34q14 0 24.5 3.5t20.5 13.5t14.5 15.5t15 22.5t13.5 21l107 -62 q-40 -76 -90 -113.5t-123 -37.5q-44 0 -112.5 33.5t-92.5 33.5q-35 0 -56 -17.5t-38 -51.5z" />
<glyph unicode="&#xf2;" horiz-adv-x="1083" d="M184 322q0 72 19 172q97 514 553 514q358 0 358 -342q0 -78 -18 -172q-97 -514 -547 -514q-181 0 -273 82.5t-92 259.5zM387 326q0 -103 46 -146t140 -43q124 0 200 78.5t118 278.5q20 97 20 168q0 103 -46 145.5t-140 42.5q-124 0 -199.5 -78t-117.5 -278 q-21 -102 -21 -168zM596 1495h205l96 -330h-147z" />
<glyph unicode="&#xf3;" horiz-adv-x="1083" d="M184 322q0 72 19 172q97 514 553 514q358 0 358 -342q0 -78 -18 -172q-97 -514 -547 -514q-181 0 -273 82.5t-92 259.5zM387 326q0 -103 46 -146t140 -43q124 0 200 78.5t118 278.5q20 97 20 168q0 103 -46 145.5t-140 42.5q-124 0 -199.5 -78t-117.5 -278 q-21 -102 -21 -168zM696 1165l193 330h223l-248 -330h-168z" />
<glyph unicode="&#xf4;" horiz-adv-x="1083" d="M184 322q0 72 19 172q97 514 553 514q358 0 358 -342q0 -78 -18 -172q-97 -514 -547 -514q-181 0 -273 82.5t-92 259.5zM387 326q0 -103 46 -146t140 -43q124 0 200 78.5t118 278.5q20 97 20 168q0 103 -46 145.5t-140 42.5q-124 0 -199.5 -78t-117.5 -278 q-21 -102 -21 -168zM502 1165l270 330h182l127 -330h-155l-76 211l-168 -211h-180z" />
<glyph unicode="&#xf5;" horiz-adv-x="1083" d="M184 322q0 72 19 172q97 514 553 514q358 0 358 -342q0 -78 -18 -172q-97 -514 -547 -514q-181 0 -273 82.5t-92 259.5zM387 326q0 -103 46 -146t140 -43q124 0 200 78.5t118 278.5q20 97 20 168q0 103 -46 145.5t-140 42.5q-124 0 -199.5 -78t-117.5 -278 q-21 -102 -21 -168zM522 1286q67 144 211 144q54 0 121.5 -34t93.5 -34q14 0 24.5 3.5t20.5 13.5t14.5 15.5t15 22.5t13.5 21l107 -62q-40 -76 -90 -113.5t-123 -37.5q-44 0 -112.5 33.5t-92.5 33.5q-35 0 -56 -17.5t-38 -51.5z" />
<glyph unicode="&#xf6;" horiz-adv-x="1083" d="M184 322q0 72 19 172q97 514 553 514q358 0 358 -342q0 -78 -18 -172q-97 -514 -547 -514q-181 0 -273 82.5t-92 259.5zM387 326q0 -103 46 -146t140 -43q124 0 200 78.5t118 278.5q20 97 20 168q0 103 -46 145.5t-140 42.5q-124 0 -199.5 -78t-117.5 -278 q-21 -102 -21 -168zM539 1303q0 58 37.5 93.5t99.5 35.5q45 0 68.5 -20t23.5 -56q0 -54 -39 -89.5t-96 -35.5q-45 0 -69.5 19t-24.5 53zM897 1303q0 58 37.5 93.5t97.5 35.5q45 0 69.5 -20t24.5 -56q0 -54 -39.5 -89.5t-97.5 -35.5q-92 0 -92 72z" />
<glyph unicode="&#xf7;" d="M131 582v143h913v-143h-913zM481 297q0 49 30 75.5t83 26.5t83 -26.5t30 -75.5q0 -50 -30 -77t-83 -27t-83 27t-30 77zM481 1012q0 49 30 75.5t83 26.5t83 -26.5t30 -75.5t-30 -77t-83 -28t-83 28t-30 77z" />
<glyph unicode="&#xf8;" horiz-adv-x="1083" d="M94 -111l158 199q-68 83 -68 234q0 72 19 172q97 514 553 514q127 0 209 -43l145 174l76 -64l-142 -174q70 -86 70 -235q0 -78 -18 -172q-97 -514 -547 -514q-132 0 -217 43l-158 -195zM387 326q0 -39 6 -66l455 561q-45 29 -123 29q-124 0 -199.5 -78t-117.5 -278 q-21 -102 -21 -168zM449 166q45 -29 124 -29q124 0 200 78.5t118 278.5q20 97 20 168q0 37 -6 67z" />
<glyph unicode="&#xf9;" horiz-adv-x="1189" d="M217 262q0 45 8 86l133 639h197l-139 -655q-6 -30 -6 -58q0 -137 133 -137q155 0 282 119l156 731h197l-156 -729q-8 -46 -8 -59q0 -36 16 -49t49 -13q43 0 125 21l-28 -160q-86 -18 -148 -18q-146 0 -172 120q-161 -120 -328 -120q-149 0 -230 72t-81 210zM592 1495h205 l96 -330h-148z" />
<glyph unicode="&#xfa;" horiz-adv-x="1189" d="M217 262q0 45 8 86l133 639h197l-139 -655q-6 -30 -6 -58q0 -137 133 -137q155 0 282 119l156 731h197l-156 -729q-8 -46 -8 -59q0 -36 16 -49t49 -13q43 0 125 21l-28 -160q-86 -18 -148 -18q-146 0 -172 120q-161 -120 -328 -120q-149 0 -230 72t-81 210zM717 1165 l192 330h224l-248 -330h-168z" />
<glyph unicode="&#xfb;" horiz-adv-x="1189" d="M217 262q0 45 8 86l133 639h197l-139 -655q-6 -30 -6 -58q0 -137 133 -137q155 0 282 119l156 731h197l-156 -729q-8 -46 -8 -59q0 -36 16 -49t49 -13q43 0 125 21l-28 -160q-86 -18 -148 -18q-146 0 -172 120q-161 -120 -328 -120q-149 0 -230 72t-81 210zM512 1165 l270 330h183l127 -330h-156l-76 211l-168 -211h-180z" />
<glyph unicode="&#xfc;" horiz-adv-x="1189" d="M217 262q0 45 8 86l133 639h197l-139 -655q-6 -30 -6 -58q0 -137 133 -137q155 0 282 119l156 731h197l-156 -729q-8 -46 -8 -59q0 -36 16 -49t49 -13q43 0 125 21l-28 -160q-86 -18 -148 -18q-146 0 -172 120q-161 -120 -328 -120q-149 0 -230 72t-81 210zM539 1303 q0 58 37.5 93.5t99.5 35.5q45 0 68.5 -20t23.5 -56q0 -54 -39 -89.5t-96 -35.5q-45 0 -69.5 19t-24.5 53zM897 1303q0 58 37.5 93.5t97.5 35.5q45 0 69.5 -20t24.5 -56q0 -54 -39.5 -89.5t-97.5 -35.5q-92 0 -92 72z" />
<glyph unicode="&#xfd;" horiz-adv-x="1134" d="M137 -352l35 153q164 -53 311 -53q124 0 191 52t90 167l20 103q-119 -70 -245 -70q-149 0 -234.5 67.5t-85.5 208.5q0 50 12 105l127 606h197l-133 -631q-8 -36 -8 -65q0 -133 141 -133q70 0 147.5 34.5t126.5 83.5l152 711h197l-211 -991q-46 -217 -170.5 -309.5 t-335.5 -92.5q-82 0 -172 15t-152 39zM719 1165l192 330h224l-248 -330h-168z" />
<glyph unicode="&#xfe;" horiz-adv-x="1112" d="M86 -385l399 1880h197l-111 -514q128 27 220 27q352 0 352 -330q0 -77 -21 -176q-26 -121 -68.5 -213.5t-92.5 -150.5t-113 -94t-126 -50t-136 -14q-78 0 -221 26l-82 -391h-197zM399 164q135 -27 205 -27q57 0 101 15.5t85 55t73 112.5t55 182q20 94 20 164 q0 103 -46 143.5t-138 40.5q-45 0 -110.5 -10t-104.5 -21z" />
<glyph unicode="&#xff;" horiz-adv-x="1134" d="M137 -352l35 153q164 -53 311 -53q124 0 191 52t90 167l20 103q-119 -70 -245 -70q-149 0 -234.5 67.5t-85.5 208.5q0 50 12 105l127 606h197l-133 -631q-8 -36 -8 -65q0 -133 141 -133q70 0 147.5 34.5t126.5 83.5l152 711h197l-211 -991q-46 -217 -170.5 -309.5 t-335.5 -92.5q-82 0 -172 15t-152 39zM549 1303q0 58 37.5 93.5t99.5 35.5q45 0 68.5 -20t23.5 -56q0 -54 -39 -89.5t-96 -35.5q-45 0 -69.5 19t-24.5 53zM907 1303q0 58 37.5 93.5t97.5 35.5q45 0 70 -20t25 -56q0 -53 -40 -89t-98 -36q-92 0 -92 72z" />
<glyph unicode="&#x152;" horiz-adv-x="1927" d="M229 426q0 108 27 252q70 370 238.5 537t445.5 167q256 0 346 -161l31 141h758l-35 -162h-570l-90 -422h514l-34 -162h-514l-62 -297q-6 -27 -6 -47q0 -110 145 -110h422l-35 -162h-436q-93 0 -171 41t-109 113q-83 -94 -178.5 -134t-235.5 -40q-222 0 -336.5 107.5 t-114.5 338.5zM438 424q0 -151 65 -218t195 -67q174 0 283.5 123t171.5 418q33 146 33 258q0 151 -64.5 217t-193.5 66q-175 0 -284.5 -123.5t-172.5 -417.5q-33 -146 -33 -256z" />
<glyph unicode="&#x153;" horiz-adv-x="1671" d="M182 322q0 75 19 172q99 514 553 514q243 0 311 -154q130 154 371 154q151 0 230 -67.5t79 -188.5q0 -164 -125.5 -247t-337.5 -83q-97 0 -205 18q-6 -50 -6 -92q0 -108 53 -159.5t187 -51.5q59 0 152.5 12t138.5 25l-11 -151q-146 -43 -315 -43q-274 0 -363 165 q-149 -165 -378 -165q-353 0 -353 342zM385 326q0 -103 46 -146t140 -43q123 0 199.5 78.5t118.5 278.5q20 97 20 168q0 103 -46.5 145.5t-139.5 42.5q-124 0 -199.5 -78t-117.5 -278q-21 -102 -21 -168zM1118 582q90 -11 144 -11q290 0 290 152q0 71 -35 103t-118 32 q-109 0 -175.5 -67t-105.5 -209z" />
<glyph unicode="&#x178;" horiz-adv-x="1122" d="M266 1362h228l221 -688q289 257 452 688h222q-94 -256 -259 -495.5t-364 -397.5l-100 -469h-205l100 465zM625 1681q0 58 37.5 93.5t99.5 35.5q92 0 92 -75q0 -54 -39 -89.5t-96 -35.5q-45 0 -69.5 18.5t-24.5 52.5zM983 1681q0 58 37.5 93.5t97.5 35.5q45 0 69.5 -19.5 t24.5 -55.5q0 -54 -39.5 -89.5t-97.5 -35.5q-92 0 -92 71z" />
<glyph unicode="&#x2c6;" horiz-adv-x="1069" d="M530 1165l271 330h182l127 -330h-156l-75 211l-168 -211h-181z" />
<glyph unicode="&#x2dc;" horiz-adv-x="1069" d="M547 1286q67 144 211 144q54 0 121.5 -34t93.5 -34q14 0 24.5 3.5t20.5 13.5t14.5 15.5t15 22.5t13.5 21l106 -62q-40 -76 -90 -113.5t-123 -37.5q-44 0 -112 33.5t-92 33.5q-35 0 -56.5 -17.5t-38.5 -51.5z" />
<glyph unicode="&#x2000;" horiz-adv-x="943" />
<glyph unicode="&#x2001;" horiz-adv-x="1886" />
<glyph unicode="&#x2002;" horiz-adv-x="943" />
<glyph unicode="&#x2003;" horiz-adv-x="1886" />
<glyph unicode="&#x2004;" horiz-adv-x="628" />
<glyph unicode="&#x2005;" horiz-adv-x="471" />
<glyph unicode="&#x2006;" horiz-adv-x="314" />
<glyph unicode="&#x2007;" horiz-adv-x="314" />
<glyph unicode="&#x2008;" horiz-adv-x="235" />
<glyph unicode="&#x2009;" horiz-adv-x="377" />
<glyph unicode="&#x200a;" horiz-adv-x="104" />
<glyph unicode="&#x2010;" horiz-adv-x="761" d="M221 475l33 160h520l-33 -160h-520z" />
<glyph unicode="&#x2011;" horiz-adv-x="761" d="M221 475l33 160h520l-33 -160h-520z" />
<glyph unicode="&#x2012;" horiz-adv-x="761" d="M221 475l33 160h520l-33 -160h-520z" />
<glyph unicode="&#x2013;" horiz-adv-x="1146" d="M221 481l33 148h907l-33 -148h-907z" />
<glyph unicode="&#x2014;" horiz-adv-x="1566" d="M221 481l33 148h1325l-33 -148h-1325z" />
<glyph unicode="&#x2018;" horiz-adv-x="540" d="M285 926l237 436h164l-211 -436h-190z" />
<glyph unicode="&#x2019;" horiz-adv-x="540" d="M322 926l210 436h191l-238 -436h-163z" />
<glyph unicode="&#x201a;" horiz-adv-x="540" d="M12 -328l211 437h191l-238 -437h-164z" />
<glyph unicode="&#x201c;" horiz-adv-x="942" d="M309 926l254 436h160l-221 -436h-193zM705 926l206 436h160l-182 -436h-184z" />
<glyph unicode="&#x201d;" horiz-adv-x="942" d="M338 926l182 436h185l-207 -436h-160zM686 926l221 436h193l-254 -436h-160z" />
<glyph unicode="&#x201e;" horiz-adv-x="890" d="M72 -328l182 437h186l-221 -437h-147zM420 -328l223 437h191l-267 -437h-147z" />
<glyph unicode="&#x2022;" horiz-adv-x="749" d="M272 502q0 121 78.5 189.5t184.5 68.5q81 0 127.5 -39t46.5 -111q0 -121 -76.5 -191.5t-183.5 -70.5q-81 0 -129 40t-48 114z" />
<glyph unicode="&#x2026;" horiz-adv-x="1638" d="M156 70q0 67 45.5 107t109.5 40q49 0 78 -23t29 -63q0 -67 -45.5 -108t-110.5 -41q-50 0 -78 23.5t-28 64.5zM707 72q0 65 46 105t109 40q50 0 79.5 -23.5t29.5 -64.5q0 -65 -46.5 -106t-111.5 -41q-48 0 -77 24t-29 66zM1260 72q0 65 46 105t109 40q49 0 78 -23t29 -63 q0 -67 -45.5 -108t-110.5 -41q-48 0 -77 24t-29 66z" />
<glyph unicode="&#x202f;" horiz-adv-x="377" />
<glyph unicode="&#x2039;" horiz-adv-x="690" d="M233 555l375 371h187l-349 -371l191 -371h-158z" />
<glyph unicode="&#x203a;" horiz-adv-x="690" d="M123 184l348 371l-190 371h157l246 -371l-375 -371h-186z" />
<glyph unicode="&#x205f;" horiz-adv-x="471" />
<glyph unicode="&#x20ac;" d="M143 430l27 127h166q9 56 22 119l17 76h-162l27 127h176q78 256 225 379.5t371 123.5q139 0 295 -32l-37 -172q-143 34 -254 34q-103 0 -171.5 -27t-124 -101t-93.5 -205h512l-54 -127h-493q-13 -42 -21 -86q-1 -5 -20 -109h469l-53 -127h-426q-4 -40 -4 -59 q0 -120 58 -175t173 -55q125 0 299 43l-14 -164q-132 -40 -342 -40q-380 0 -383 450h-185z" />
<glyph unicode="&#x2122;" horiz-adv-x="1591" d="M322 1249l24 113h543l-25 -113h-192l-107 -499h-155l106 499h-194zM870 750l131 612h156l119 -352l266 352h180l-131 -612h-135l90 424l-223 -295h-129l-96 295l-90 -424h-138z" />
<glyph unicode="&#x25fc;" horiz-adv-x="983" d="M0 0v983h983v-983h-983z" />
</font>
</defs>
</svg>
