<?xml version="1.0" standalone="no"?>
<!DOCTYPE svg PUBLIC "-//W3C//DTD SVG 1.1//EN" "http://www.w3.org/Graphics/SVG/1.1/DTD/svg11.dtd" >
<svg xmlns="http://www.w3.org/2000/svg">
<metadata></metadata>
<defs>
<font id="3dslight" horiz-adv-x="1239" >
<font-face units-per-em="2048" ascent="1638" descent="-410" />
<missing-glyph horiz-adv-x="522" />
<glyph unicode="&#xfb01;" horiz-adv-x="1144" d="M82 887v94h166v186q0 160 100 248t275 88q147 0 288 -37l-20 -100q-138 35 -264 35q-262 0 -262 -234v-186h577v-981h-117v887h-460v-887h-117v887h-166z" />
<glyph unicode="&#xfb02;" horiz-adv-x="1142" d="M82 887v94h166v186q0 75 20.5 133t55.5 96t85.5 62.5t107 34.5t124.5 10q131 0 299 -43v-1460h-115v1380q-115 21 -184 21q-62 0 -109 -10.5t-86 -35.5t-60 -72.5t-21 -115.5v-186h288v-94h-288v-887h-117v887h-166z" />
<glyph horiz-adv-x="0" />
<glyph horiz-adv-x="0" />
<glyph horiz-adv-x="682" />
<glyph unicode="&#xd;" horiz-adv-x="522" />
<glyph unicode=" "  horiz-adv-x="522" />
<glyph unicode="&#x09;" horiz-adv-x="522" />
<glyph unicode="&#xa0;" horiz-adv-x="522" />
<glyph unicode="!" horiz-adv-x="610" d="M221 66q0 38 23.5 58.5t62.5 20.5q37 0 59.5 -20.5t22.5 -58.5t-22.5 -60t-59.5 -22q-39 0 -62.5 22t-23.5 60zM244 1362h123l-9 -1055h-106z" />
<glyph unicode="&#x22;" horiz-adv-x="921" d="M244 1362h121l-15 -436h-94zM557 1362h121l-14 -436h-95z" />
<glyph unicode="#" horiz-adv-x="1464" d="M92 422l19 100h301l61 320h-301l21 100h301l81 420h119l-84 -420h344l84 420h117l-82 -420h299l-20 -100h-299l-62 -320h299l-20 -100h-299l-80 -422h-119l82 422h-344l-82 -422h-117l80 422h-299zM528 522h346l62 320h-346z" />
<glyph unicode="$" d="M174 123l27 102q80 -32 192 -55t219 -23q72 0 123 6.5t96 25t68 55t23 92.5q0 59 -40.5 112t-105 93.5t-142.5 80.5t-156 82t-142.5 87.5t-105 107.5t-40.5 133q0 79 30.5 134.5t87.5 86t122.5 44.5t151.5 18v190h110v-190q145 -3 293 -29l-16 -111q-52 12 -152 21.5 t-172 9.5q-57 0 -99 -3t-87.5 -12.5t-74.5 -27t-48 -48t-19 -73.5q0 -52 40.5 -100t105.5 -88t143.5 -80t157 -83.5t143.5 -92t105.5 -113t40.5 -137.5q0 -80 -27.5 -136.5t-80 -88.5t-111.5 -47.5t-138 -22.5v-217h-110v213q-106 3 -225 27.5t-187 56.5z" />
<glyph unicode="%" horiz-adv-x="1761" d="M121 1030q0 185 82 269.5t225 84.5q142 0 223.5 -84.5t81.5 -271.5q0 -182 -82.5 -270t-222.5 -88q-141 0 -224 88t-83 272zM233 1030q0 -144 54 -206t141 -62q84 0 136 61.5t52 204.5q0 266 -188 266q-195 0 -195 -264zM362 0l887 1378h135l-888 -1378h-134zM1028 344 q0 185 82 269.5t225 84.5q142 0 223.5 -84.5t81.5 -271.5q0 -182 -82.5 -270t-222.5 -88q-141 0 -224 88t-83 272zM1143 344q0 -144 53 -206t139 -62t138.5 61.5t52.5 204.5q0 266 -191 266q-192 0 -192 -264z" />
<glyph unicode="&#x26;" horiz-adv-x="1208" d="M111 340q0 73 21 133.5t63.5 110t96 88.5t128.5 80q-4 4 -37.5 41.5t-41 47.5t-34 43t-35 51t-23 48.5t-19.5 58.5t-5 58q0 135 87.5 209.5t230.5 74.5q147 0 239 -70t92 -202q0 -217 -272 -389l354 -416q74 79 134 236l94 -37q-59 -173 -162 -287l186 -219h-143 l-119 135q-165 -155 -407 -155q-204 0 -316 93.5t-112 266.5zM233 344q0 -140 81.5 -199t232.5 -59q181 0 336 133l-383 445q-54 -31 -82.5 -49t-65 -44t-54 -46.5t-35 -49t-24 -60t-6.5 -71.5zM350 1108q0 -19 4.5 -39t9 -35t18 -37t21 -34t28 -37.5t28.5 -35t34.5 -39.5 t34.5 -40q56 37 92.5 66t68 65t46.5 76.5t15 89.5q0 85 -57.5 125.5t-145.5 40.5q-86 0 -141.5 -38.5t-55.5 -127.5z" />
<glyph unicode="'" horiz-adv-x="608" d="M244 1362h121l-15 -436h-94z" />
<glyph unicode="(" horiz-adv-x="626" d="M135 553q0 270 88.5 517.5t251.5 424.5h131q-82 -102 -141 -197t-107 -209.5t-72 -248t-24 -287.5t24 -287t72 -247t106.5 -207.5t141.5 -196.5h-131q-163 178 -251.5 423t-88.5 515z" />
<glyph unicode=")" horiz-adv-x="626" d="M20 -385q83 103 141.5 196.5t107 207.5t72.5 247t24 287t-24 287.5t-72.5 248.5t-107 209.5t-141.5 196.5h132q163 -177 251.5 -424.5t88.5 -517.5t-88.5 -515t-251.5 -423h-132z" />
<glyph unicode="*" horiz-adv-x="856" d="M86 1116l31 86l264 -82v242h94v-242l264 82l31 -86l-258 -74l168 -186l-72 -63l-180 204l-180 -204l-72 63l168 186z" />
<glyph unicode="+" d="M152 608v92h417v371h99v-371h419v-92h-419v-372h-99v372h-417z" />
<glyph unicode="," horiz-adv-x="563" d="M49 -272l168 411h127l-184 -411h-111z" />
<glyph unicode="-" horiz-adv-x="788" d="M135 500v110h518v-110h-518z" />
<glyph unicode="." horiz-adv-x="561" d="M197 66q0 37 23 58t61 21q39 0 61.5 -20.5t22.5 -58.5t-23 -60t-61 -22q-37 0 -60.5 22t-23.5 60z" />
<glyph unicode="/" horiz-adv-x="980" d="M78 -109l725 1604h121l-729 -1604h-117z" />
<glyph unicode="0" d="M137 682q0 373 115.5 536.5t365.5 163.5t366 -163t116 -537t-116 -537t-366 -163t-365.5 163t-115.5 537zM266 682q0 -327 80.5 -460.5t271.5 -133.5q128 0 204 57t112.5 186.5t36.5 350.5t-36.5 350t-112.5 185.5t-204 56.5t-204 -56.5t-112 -185.5t-36 -350z" />
<glyph unicode="1" d="M299 1157v113l340 92h100v-1362h-125v1243z" />
<glyph unicode="2" d="M127 0v100l436 443q55 56 73 75t61 66t58 68t42 61.5t36.5 68.5t18 66t8.5 76q0 250 -340 250q-141 0 -327 -39l-13 108q62 16 158 27.5t180 11.5q471 0 471 -360q0 -67 -18.5 -130t-45.5 -112.5t-73.5 -106t-87.5 -98t-102 -100.5q-11 -11 -17 -16l-362 -350h716v-109 h-872z" />
<glyph unicode="3" d="M139 20l13 105q180 -39 352 -39q192 0 289.5 71t97.5 244q0 285 -369 285h-137v94l436 473h-665v109h833v-90l-450 -481h10q75 0 142 -13t128 -42.5t105 -73t70 -109.5t26 -147q0 -98 -27 -172.5t-72.5 -122t-112.5 -77.5t-141.5 -42t-164.5 -12q-193 0 -363 40z" />
<glyph unicode="4" d="M66 362v84l694 916h172v-899h201v-101h-201v-362h-121v362h-745zM215 463h596v786z" />
<glyph unicode="5" d="M201 20l12 105q189 -39 334 -39q68 0 120.5 8.5t100 30.5t78 58.5t48 94.5t17.5 136q0 94 -23.5 157.5t-71.5 97.5t-108 48t-145 14q-128 0 -301 -33l-47 47l55 617h727v-111h-620l-37 -432q118 21 227 21q231 0 352 -98.5t121 -325.5q0 -123 -35.5 -210t-103.5 -135.5 t-153.5 -69.5t-198.5 -21q-181 0 -348 40z" />
<glyph unicode="6" d="M170 672q0 160 24 281.5t68.5 202.5t113 132t151 72.5t188.5 21.5q151 0 323 -30l-16 -111q-169 33 -309 33q-98 0 -172 -27t-129 -86.5t-83 -161t-28 -243.5q190 55 356 55q214 0 325.5 -91.5t111.5 -297.5q0 -202 -117.5 -322t-321.5 -120q-251 0 -368 163t-117 529z M301 641q0 -60 3 -110.5t12 -109.5t24.5 -105t42.5 -90.5t63 -74t89.5 -47.5t119.5 -18q141 0 226.5 90t85.5 244q0 155 -75 218.5t-239 63.5q-172 0 -352 -61z" />
<glyph unicode="7" d="M172 1253v109h893v-90l-674 -1272h-131l660 1253h-748z" />
<glyph unicode="8" d="M145 358q0 150 73 238.5t185 110.5q-229 71 -229 325q0 161 121.5 255.5t322.5 94.5t323 -94.5t122 -255.5q0 -254 -229 -325q112 -22 185 -110.5t73 -238.5q0 -174 -122.5 -276t-351.5 -102q-228 0 -350.5 102t-122.5 276zM274 358q0 -130 91 -201t253 -71t253.5 71 t91.5 201q0 152 -88.5 220.5t-256.5 68.5t-256 -68.5t-88 -220.5zM303 1028q0 -131 82.5 -194.5t232.5 -63.5t233 63.5t83 194.5q0 117 -83 181.5t-233 64.5q-149 0 -232 -64.5t-83 -181.5z" />
<glyph unicode="9" d="M145 942q0 202 119 321t324 119q250 0 365.5 -161.5t115.5 -528.5q0 -164 -27 -288t-74.5 -204t-119 -130t-154 -70t-186.5 -20q-152 0 -303 36l12 107q148 -37 289 -37q226 0 327.5 132.5t104.5 389.5q-190 -55 -356 -55q-214 0 -325.5 91.5t-111.5 297.5zM272 944 q0 -155 75 -218.5t239 -63.5q172 0 352 61q0 61 -2.5 110.5t-11.5 109t-24 104.5t-41.5 90t-62.5 74t-89 47t-119 18q-142 0 -229 -89.5t-87 -242.5z" />
<glyph unicode=":" horiz-adv-x="563" d="M197 66q0 37 23 58t61 21q39 0 61.5 -20.5t22.5 -58.5t-23 -60t-61 -22q-37 0 -60.5 22t-23.5 60zM199 918q0 37 23 58t61 21q39 0 61.5 -20.5t22.5 -58.5t-23 -60t-61 -22q-37 0 -60.5 22t-23.5 60z" />
<glyph unicode=";" horiz-adv-x="563" d="M49 -272l168 411h127l-184 -411h-111zM199 918q0 37 23 58t61 21q39 0 61.5 -20.5t22.5 -58.5t-23 -60t-61 -22q-37 0 -60.5 22t-23.5 60z" />
<glyph unicode="&#x3c;" d="M152 608v90l935 381v-96l-813 -330l813 -329v-97z" />
<glyph unicode="=" d="M152 403v91h935v-91h-935zM152 813v90h935v-90h-935z" />
<glyph unicode="&#x3e;" d="M152 227v97l813 329l-813 330v96l935 -381v-90z" />
<glyph unicode="?" horiz-adv-x="849" d="M76 1313q66 28 159 48.5t181 20.5q173 0 274 -79t101 -238q0 -62 -18.5 -116t-48 -93.5t-65.5 -76l-72 -73t-65.5 -75t-48 -90t-18.5 -111.5v-123h-109v123q0 92 33.5 169.5t81 130.5t95 101.5t81 106t33.5 121.5q0 114 -63.5 164.5t-196.5 50.5q-152 0 -299 -66zM315 66 q0 38 23.5 58.5t62.5 20.5q37 0 59.5 -20.5t22.5 -58.5t-22.5 -60t-59.5 -22q-39 0 -62.5 22t-23.5 60z" />
<glyph unicode="@" horiz-adv-x="1783" d="M109 459q0 134 28 252t89.5 221.5t152.5 178t224 117t296 42.5q168 0 302 -37t221.5 -100.5t145.5 -152.5t82.5 -187t24.5 -211q0 -545 -352 -545q-157 0 -236 104q-62 -45 -112 -66.5t-121 -21.5q-136 0 -212.5 98t-76.5 306q0 184 91 281.5t235 97.5q136 0 270 -43 v-447q0 -46 6.5 -80t23.5 -64t50.5 -45.5t83.5 -15.5q122 0 176.5 107t54.5 338q0 98 -19.5 181t-67 158t-121 127t-188 82.5t-261.5 30.5q-146 0 -261.5 -37.5t-191.5 -102t-126 -155.5t-71.5 -192.5t-21.5 -218.5q0 -121 16 -218.5t60.5 -192.5t116.5 -159t192.5 -103.5 t280.5 -39.5q132 0 249.5 28t256.5 79l28 -101q-276 -114 -536 -114q-128 0 -235.5 23.5t-187 64.5t-142 100.5t-103 129t-66.5 153.5t-37 169.5t-11 180.5zM680 455q0 -92 15.5 -155t43 -92.5t55.5 -40.5t62 -11q101 0 195 86v475q-82 20 -160 20q-211 0 -211 -282z" />
<glyph unicode="A" horiz-adv-x="1396" d="M205 0v885q0 497 493 497q111 0 196 -24.5t141 -67.5t91.5 -106.5t50.5 -136.5t15 -162v-885h-123v541h-741v-541h-123zM328 649h741v234q0 88 -16.5 154.5t-56 122t-115 85t-183.5 29.5t-183 -29.5t-114.5 -85t-56 -122t-16.5 -154.5v-234z" />
<glyph unicode="B" horiz-adv-x="1282" d="M238 33v1329h413q222 0 334.5 -83t112.5 -267q0 -246 -205 -316q108 -24 176 -104.5t68 -229.5q0 -179 -114.5 -279.5t-363.5 -100.5q-76 0 -195.5 14t-225.5 37zM360 123q169 -31 302 -31q186 0 267 68.5t81 197.5q0 141 -78.5 207t-269.5 66h-302v-508zM360 739h299 q148 0 229 70.5t81 202.5q0 127 -76 184t-242 57h-291v-514z" />
<glyph unicode="C" horiz-adv-x="1183" d="M143 678q0 163 27 285.5t75 201.5t122.5 128t161 69t198.5 20q155 0 336 -32l-16 -109q-191 33 -322 33q-91 0 -158.5 -16t-125 -56t-93.5 -107t-56 -170.5t-20 -244.5q0 -172 29 -289.5t88.5 -183.5t136.5 -93.5t185 -27.5q153 0 348 39l12 -105q-173 -40 -360 -40 q-107 0 -191.5 21t-156.5 70.5t-119.5 128.5t-74 199.5t-26.5 278.5z" />
<glyph unicode="D" horiz-adv-x="1390" d="M238 31v1331h413q596 0 596 -674q0 -354 -146 -531t-446 -177q-205 0 -417 51zM360 117q134 -25 295 -25q230 0 347.5 142t117.5 456q0 292 -120 427.5t-349 135.5h-291v-1136z" />
<glyph unicode="E" horiz-adv-x="1144" d="M225 281v1081h766v-109h-643v-495h567v-109h-567v-368q0 -172 193 -172h481v-109h-481q-148 0 -232 73.5t-84 207.5z" />
<glyph unicode="F" horiz-adv-x="1126" d="M238 0v1362h766v-109h-644v-505h568v-109h-568v-639h-122z" />
<glyph unicode="G" horiz-adv-x="1382" d="M143 690q0 361 144.5 526.5t443.5 165.5q223 0 434 -36l-16 -111q-204 39 -416 39q-239 0 -350 -137.5t-111 -450.5q0 -170 28.5 -287t88.5 -185.5t142.5 -98t199.5 -29.5q195 0 352 33v520h-340v109h465v-711q-220 -57 -481 -57q-113 0 -201.5 22.5t-161.5 73.5 t-121 132.5t-74 202.5t-26 279z" />
<glyph unicode="H" horiz-adv-x="1531" d="M238 0v1362h122v-604h811v604h123v-1362h-123v649h-811v-649h-122z" />
<glyph unicode="I" horiz-adv-x="598" d="M238 0v1362h122v-1362h-122z" />
<glyph unicode="J" horiz-adv-x="595" d="M-37 -315q154 131 214.5 228.5t60.5 205.5v1243h122v-1243q0 -100 -34 -183t-102 -160t-191 -179z" />
<glyph unicode="K" horiz-adv-x="1212" d="M238 0v1362h122v-758l687 758h149l-547 -608q249 -69 387 -377l166 -377h-137l-150 338q-122 278 -350 317l-205 -209v-446h-122z" />
<glyph unicode="L" horiz-adv-x="1040" d="M238 0v1362h122v-1253h629v-109h-751z" />
<glyph unicode="M" horiz-adv-x="1851" d="M238 0v1362h157l531 -799l530 799h158v-1362h-119v1206l-508 -766h-123l-508 766v-1206h-118z" />
<glyph unicode="N" horiz-adv-x="1544" d="M238 0v1362h106l844 -870v870h119v-1362h-119v326l-832 854v-1180h-118z" />
<glyph unicode="O" horiz-adv-x="1400" d="M143 680q0 190 37 326t110 218t174 120t236 38t236 -38t174 -120t110 -218t37 -326q0 -189 -37 -324.5t-110 -217.5t-174 -120t-236 -38t-236 38t-174 120t-110 217.5t-37 324.5zM272 680q0 -165 27 -280t82.5 -184t133 -99.5t185.5 -30.5t185.5 30.5t133 99.5t82.5 184 t27 280t-27 280t-82.5 184t-133 99.5t-185.5 30.5t-185.5 -30.5t-133 -99.5t-82.5 -184t-27 -280z" />
<glyph unicode="P" horiz-adv-x="1288" d="M238 0v1362h421q252 0 374 -95t122 -325q0 -225 -127.5 -327.5t-380.5 -102.5q-112 0 -287 27v-539h-122zM360 645q159 -27 289 -27q204 0 290.5 80t86.5 244q0 174 -84 242.5t-283 68.5h-299v-608z" />
<glyph unicode="Q" horiz-adv-x="1400" d="M143 680q0 190 37 326t110 218t174 120t236 38t236 -38t174 -120t110 -218t37 -326q0 -189 -37 -324.5t-110 -217.5t-174 -120t-236 -38t-236 38t-174 120t-110 217.5t-37 324.5zM272 680q0 -165 27 -280t82.5 -184t133 -99.5t185.5 -30.5t185.5 30.5t133 99.5t82.5 184 t27 280t-27 280t-82.5 184t-133 99.5t-185.5 30.5t-185.5 -30.5t-133 -99.5t-82.5 -184t-27 -280zM606 -141q78 0 280.5 -54.5t248.5 -54.5q55 0 89.5 17.5t82.5 60.5l71 -82q-98 -106 -241 -106q-67 0 -269 56t-262 56v107z" />
<glyph unicode="R" horiz-adv-x="1327" d="M238 0v1362h421q126 0 214.5 -19.5t153.5 -66t96.5 -127t31.5 -197.5q0 -161 -73 -254t-212 -133q62 -36 98.5 -87t78.5 -148l137 -330h-131l-125 303q-21 51 -44 88.5t-56 72t-78.5 53t-102.5 18.5q-118 0 -287 26v-561h-122zM360 668q159 -27 289 -27q206 0 291.5 74.5 t85.5 236.5q0 173 -83 237t-284 64h-299v-585z" />
<glyph unicode="S" horiz-adv-x="1148" d="M145 49l25 105q198 -68 410 -68q290 0 290 184q0 60 -40 121.5t-103.5 116t-141 109.5t-154.5 111.5t-140.5 112.5t-103.5 122t-40 131q0 71 25 123.5t65.5 83.5t101 49.5t120.5 25t135 6.5q176 0 336 -32l-17 -111q-55 13 -152 24t-163 11q-58 0 -99 -3t-85 -13 t-71 -27.5t-44.5 -49.5t-17.5 -77q0 -52 39.5 -106.5t102.5 -104.5t139.5 -103t153 -110t139.5 -116t102.5 -130.5t39.5 -144.5q0 -309 -424 -309q-115 0 -230 20t-198 49z" />
<glyph unicode="T" horiz-adv-x="1155" d="M41 1253v109h1073v-109h-475v-1253h-123v1253h-475z" />
<glyph unicode="U" horiz-adv-x="1435" d="M215 477v885h123v-883q0 -389 395 -389q195 0 367 49v1223h121v-1301q-80 -25 -130.5 -38.5t-152 -28t-207.5 -14.5q-136 0 -237 37t-161 104.5t-89 156t-29 199.5z" />
<glyph unicode="V" horiz-adv-x="1140" d="M-10 1362h127l479 -1233q149 284 264 604t166 629h115q-67 -360 -189 -687t-299 -675h-127z" />
<glyph unicode="W" horiz-adv-x="1828" d="M27 1362h125l315 -1241l373 960h145l371 -960q124 284 203.5 584t132.5 657h110q-66 -411 -152.5 -723t-230.5 -639h-137l-371 956l-379 -956h-141z" />
<glyph unicode="X" horiz-adv-x="1144" d="M23 0l481 702l-445 660h144l381 -561l391 561h135l-459 -664l471 -698h-145l-408 600l-411 -600h-135z" />
<glyph unicode="Y" horiz-adv-x="1099" d="M-20 1362h145l457 -780q163 159 265 365t142 415h121q-58 -266 -182 -498.5t-303 -398.5v-465h-119v463z" />
<glyph unicode="Z" horiz-adv-x="1232" d="M106 0v92l850 1161h-821v109h973v-96l-840 -1157h858v-109h-1020z" />
<glyph unicode="[" horiz-adv-x="638" d="M248 -385v1880h368v-100h-251v-1680h251v-100h-368z" />
<glyph unicode="\" horiz-adv-x="980" d="M53 1495h121l725 -1604h-117z" />
<glyph unicode="]" horiz-adv-x="638" d="M23 -285h251v1680h-251v100h368v-1880h-368v100z" />
<glyph unicode="^" d="M221 739l352 623h91l354 -623h-113l-287 510l-284 -510h-113z" />
<glyph unicode="_" horiz-adv-x="1394" d="M0 -23h1395v-81h-1395v81z" />
<glyph unicode="`" horiz-adv-x="1126" d="M350 1495h144l182 -330h-117z" />
<glyph unicode="a" horiz-adv-x="1038" d="M92 293q0 80 31.5 138t88 89.5t122.5 45.5t147 14q103 0 264 -23v127q0 211 -284 211q-117 0 -248 -27l-10 101q126 28 260 28q65 0 120.5 -8.5t108 -30.5t89.5 -56t59 -89.5t22 -126.5v-637q-74 -21 -119.5 -32t-124.5 -22t-155 -11q-78 0 -143 17t-117.5 52t-81.5 96.5 t-29 143.5zM211 283q0 -103 70.5 -150t183.5 -47q124 0 280 39v328q-148 24 -266 24q-58 0 -102 -8t-84 -28t-61 -60t-21 -98z" />
<glyph unicode="b" horiz-adv-x="1153" d="M197 39v1456h116v-539q157 41 299 41q70 0 129.5 -14.5t114 -50.5t92 -92.5t60 -144.5t22.5 -201q0 -120 -23.5 -210.5t-62.5 -147t-97 -92t-120.5 -49t-138.5 -13.5q-131 0 -391 57zM313 117q170 -31 273 -31q78 0 132.5 17t99.5 60.5t67 125.5t22 205q0 115 -22 195.5 t-64 124.5t-93 62.5t-118 18.5q-125 0 -297 -43v-735z" />
<glyph unicode="c" horiz-adv-x="950" d="M123 489q0 98 15 175.5t44 133t68 94.5t91 62t108.5 33t125.5 10q116 0 248 -24l-14 -103q-142 25 -238 25q-60 0 -106.5 -10.5t-88.5 -38t-70 -72.5t-44 -117t-16 -168q0 -95 16.5 -166.5t44.5 -116t70.5 -72t88.5 -38t105 -10.5q120 0 252 29l13 -101 q-128 -32 -261 -32q-81 0 -146.5 14.5t-123.5 51t-97.5 93t-62 145t-22.5 203.5z" />
<glyph unicode="d" horiz-adv-x="1150" d="M123 494q0 113 24 201.5t64 144t97 92t118 51t131 14.5q108 0 281 -36v534h116v-1456q-260 -57 -391 -57q-76 0 -138 13.5t-120 49t-97 92t-62 147t-23 210.5zM244 494q0 -122 23 -204.5t68 -126t99.5 -60.5t130.5 -17q106 0 273 31v735q-159 43 -283 43q-51 0 -94 -11 t-84 -39t-69.5 -72.5t-46 -115.5t-17.5 -163z" />
<glyph unicode="e" horiz-adv-x="1054" d="M123 489q0 508 430 508q189 0 289 -106.5t100 -286.5v-133h-694q0 -97 16.5 -164t58.5 -119t117.5 -77t188.5 -25q130 0 274 35l10 -101q-136 -36 -284 -36q-98 0 -172 13.5t-139 47.5t-106.5 90.5t-65 145t-23.5 208.5zM250 571h571q0 324 -270 324q-146 0 -217.5 -80.5 t-83.5 -243.5z" />
<glyph unicode="f" horiz-adv-x="749" d="M82 881v100h166v186q0 166 98 250t270 84q94 0 170 -12l-14 -100q-59 10 -156 10q-56 0 -99 -11t-78.5 -36.5t-54.5 -72t-19 -112.5v-186h358v-100h-358v-881h-117v881h-166z" />
<glyph unicode="g" horiz-adv-x="1153" d="M123 502q0 112 24 199t65 142t99.5 90.5t122 49.5t139.5 14q146 0 383 -69v-971q0 -360 -395 -360q-197 0 -352 47l18 104q161 -47 332 -47q149 0 215 61.5t66 188.5v78q-178 -29 -281 -29q-74 0 -133 11.5t-117.5 44.5t-98 87.5t-63.5 145.5t-24 213zM246 502 q0 -99 16 -172t42.5 -116t67.5 -69t84.5 -34.5t100.5 -8.5q101 0 283 31v719q-151 43 -265 43q-58 0 -104 -9.5t-89.5 -35.5t-72 -69t-46 -114t-17.5 -165z" />
<glyph unicode="h" horiz-adv-x="1202" d="M203 0v1495h116v-541q172 43 304 43q83 0 151 -16.5t125 -53t89 -102.5t32 -157v-668h-117v662q0 66 -21.5 112.5t-62 72.5t-90.5 37t-115 11q-114 0 -295 -43v-852h-116z" />
<glyph unicode="i" horiz-adv-x="522" d="M172 1364q0 36 22.5 58t65.5 22t65.5 -22t22.5 -58t-22.5 -58t-65.5 -22t-65.5 22t-22.5 58zM203 0v981h116v-981h-116z" />
<glyph unicode="j" horiz-adv-x="522" d="M-41 -324q105 92 157.5 160.5t69.5 128t17 148.5v868h116v-868q0 -90 -10 -147.5t-44.5 -117t-87 -113t-150.5 -136.5zM172 1364q0 36 22.5 58t65.5 22t65.5 -22t22.5 -58t-22.5 -58t-65.5 -22t-65.5 22t-22.5 58z" />
<glyph unicode="k" horiz-adv-x="1056" d="M203 0v1495h116v-1016l539 502h148l-416 -397q171 -37 282 -275l144 -309h-129l-121 258q-49 105 -111 170.5t-151 75.5l-185 -162v-342h-116z" />
<glyph unicode="l" horiz-adv-x="522" d="M203 0v1495h116v-1495h-116z" />
<glyph unicode="m" horiz-adv-x="1812" d="M203 0v928q252 69 399 69q187 0 285 -92q181 92 370 92q79 0 143 -16t117.5 -52.5t83 -102.5t29.5 -158v-668h-117v662q0 233 -258 233q-152 0 -309 -76q29 -66 29 -151v-668h-117v662q0 233 -258 233q-105 0 -281 -43v-852h-116z" />
<glyph unicode="n" horiz-adv-x="1202" d="M203 0v928q236 69 420 69q83 0 151 -16.5t125 -53t89 -102.5t32 -157v-668h-117v662q0 66 -21.5 112.5t-62 72.5t-90.5 37t-115 11q-114 0 -295 -43v-852h-116z" />
<glyph unicode="o" horiz-adv-x="1122" d="M123 489q0 263 111.5 385.5t326.5 122.5t326.5 -122.5t111.5 -385.5t-111 -384t-327 -121t-327 121t-111 384zM246 489q0 -118 21.5 -198.5t64.5 -124.5t98.5 -62t132.5 -18q75 0 129.5 18t98 62t65 124.5t21.5 198.5t-21.5 199t-64.5 125.5t-98 63t-130 18.5 q-77 0 -132.5 -18.5t-98.5 -63t-64.5 -125.5t-21.5 -199z" />
<glyph unicode="p" horiz-adv-x="1159" d="M203 -385v1313q237 69 403 69q430 0 430 -503q0 -122 -24 -214t-63.5 -147.5t-97.5 -89.5t-118 -46.5t-133 -12.5q-109 0 -281 28v-397h-116zM319 117q182 -31 283 -31q72 0 124 16.5t96.5 59t67.5 126t23 206.5q0 95 -15 166t-41.5 115.5t-66.5 71.5t-84.5 37.5 t-101.5 10.5q-59 0 -145.5 -14t-139.5 -29v-735z" />
<glyph unicode="q" horiz-adv-x="1159" d="M123 494q0 112 24 199.5t65 144t99.5 93t122.5 51.5t139 15q146 0 383 -69v-1313h-116v397q-172 -28 -281 -28q-73 0 -133 12.5t-118 46.5t-97.5 89.5t-63.5 147.5t-24 214zM246 494q0 -123 23 -206.5t67.5 -126t96.5 -59t124 -16.5q116 0 283 31v735q-151 43 -265 43 q-57 0 -103.5 -10.5t-89.5 -37.5t-72 -71.5t-46.5 -115.5t-17.5 -166z" />
<glyph unicode="r" horiz-adv-x="724" d="M203 0v928q240 69 481 69v-104q-218 0 -365 -43v-850h-116z" />
<glyph unicode="s" horiz-adv-x="913" d="M113 754q0 67 29.5 115.5t83 75.5t119.5 39.5t147 12.5q154 0 276 -24l-12 -103q-147 25 -260 25q-267 0 -267 -137q0 -45 43.5 -85t108 -69.5t140.5 -67.5t140.5 -77t108 -100.5t43.5 -135.5q0 -120 -91 -179.5t-247 -59.5q-196 0 -354 57l18 102q169 -57 336 -57 q219 0 219 137q0 47 -32 86.5t-83.5 69.5t-113 58.5t-123.5 59.5t-113.5 65.5t-83.5 83.5t-32 108z" />
<glyph unicode="t" horiz-adv-x="747" d="M72 881v100h168l30 291h86v-291h306v-100h-306v-674q0 -63 42 -92t108 -29q74 0 190 33l6 -103q-91 -32 -202 -32q-54 0 -98.5 11.5t-82 36t-58.5 70t-21 107.5v672h-168z" />
<glyph unicode="u" horiz-adv-x="1169" d="M184 324v657h117v-651q0 -67 22.5 -116t63 -76t88.5 -39.5t105 -12.5q133 0 276 39v856h117v-928q-209 -69 -398 -69q-64 0 -119.5 10.5t-106.5 35.5t-87 63.5t-57 97t-21 133.5z" />
<glyph unicode="v" horiz-adv-x="972" d="M20 981h121l357 -868q103 185 205 433t139 435h110q-62 -262 -162.5 -495.5t-244.5 -485.5h-119z" />
<glyph unicode="w" horiz-adv-x="1662" d="M37 981h123l274 -868l332 868h131l328 -868q104 198 182.5 423t110.5 445h108q-39 -258 -125.5 -493.5t-220.5 -487.5h-123l-328 874l-331 -874h-133z" />
<glyph unicode="x" horiz-adv-x="944" d="M31 0l372 498l-356 483h135l295 -395l293 395h131l-358 -479l370 -502h-135l-307 414l-311 -414h-129z" />
<glyph unicode="y" horiz-adv-x="1175" d="M184 340v641h117v-635q0 -67 22.5 -116t63 -76t88.5 -39.5t105 -12.5q106 0 276 31v848h117v-1024q0 -184 -98.5 -272t-296.5 -88t-353 47l19 104q161 -47 331 -47q149 0 215 61.5t66 188.5v78q-164 -29 -281 -29q-64 0 -119.5 10.5t-106.5 35.5t-87 63.5t-57 97 t-21 133.5z" />
<glyph unicode="z" horiz-adv-x="989" d="M90 0v86l653 795h-637v100h787v-86l-649 -795h665v-100h-819z" />
<glyph unicode="{" horiz-adv-x="735" d="M102 498v114q103 2 152 34t49 114q0 62 -20.5 220t-20.5 226q0 149 67.5 227t223.5 78q95 0 149 -14l-12 -106q-58 14 -135 14q-57 0 -93 -13.5t-53.5 -43t-23.5 -61.5t-6 -81q0 -68 18.5 -226t18.5 -218q0 -177 -140 -207q140 -30 140 -207q0 -61 -18.5 -220t-18.5 -222 q0 -50 6 -82.5t23.5 -61.5t53.5 -43t93 -14q77 0 135 14l12 -106q-54 -14 -149 -14q-156 0 -223.5 78.5t-67.5 228.5q0 65 20.5 222t20.5 222q0 83 -48.5 114.5t-152.5 33.5z" />
<glyph unicode="|" horiz-adv-x="602" d="M248 -410v2048h106v-2048h-106z" />
<glyph unicode="}" horiz-adv-x="735" d="M33 -387l12 106q58 -14 135 -14q57 0 93 14t53.5 43t23.5 61.5t6 82.5q0 63 -18.5 222t-18.5 220q0 177 140 207q-140 30 -140 207q0 60 18.5 218t18.5 226q0 49 -6 81t-23.5 61.5t-53.5 43t-93 13.5q-77 0 -135 -14l-12 106q54 14 149 14q156 0 223.5 -78t67.5 -227 q0 -68 -20.5 -226t-20.5 -220q0 -82 49 -114t152 -34v-114q-104 -2 -152.5 -33.5t-48.5 -114.5q0 -65 20.5 -222t20.5 -222q0 -150 -67.5 -228.5t-223.5 -78.5q-95 0 -149 14z" />
<glyph unicode="~" d="M129 598q26 72 86.5 116t149.5 44q61 0 260 -55.5t247 -55.5q35 0 59.5 7t43 24t28 31.5t25.5 42.5l82 -37q-26 -72 -86.5 -116t-149.5 -44q-54 0 -253 55.5t-254 55.5q-65 0 -95.5 -24.5t-60.5 -80.5z" />
<glyph unicode="&#xa1;" horiz-adv-x="610" d="M221 915q0 38 23.5 60t62.5 22q37 0 59.5 -22t22.5 -60t-22.5 -58.5t-59.5 -20.5q-39 0 -62.5 20.5t-23.5 58.5zM244 -385l8 1059h106l9 -1059h-123z" />
<glyph unicode="&#xa2;" d="M174 676q0 137 32.5 238t93 162t137 92.5t173.5 37.5v289h111v-283q148 -5 303 -47l-18 -108q-164 47 -322 47q-84 0 -148 -18t-119 -63t-84.5 -132.5t-29.5 -214.5q0 -220 97.5 -322t289.5 -102q77 0 166 16.5t156 40.5l20 -106q-165 -59 -311 -62v-313h-111v317 q-436 34 -436 531z" />
<glyph unicode="&#xa3;" d="M119 666v104h219l31 264q10 82 38 144t67 100t93 62t109 33t121 9q137 0 297 -36l-17 -109q-155 37 -282 37q-137 0 -211 -53.5t-90 -186.5l-31 -264h518v-104h-530l-25 -238q-23 -223 -141 -319h772v-109h-936v90q88 56 127.5 139.5t52.5 206.5l23 230h-205z" />
<glyph unicode="&#xa5;" d="M80 1362h141l426 -707l389 707h123l-268 -492h268v-100h-321l-117 -215h438v-111h-454v-444h-121v444h-453v111h438l-131 215h-307v100h248z" />
<glyph unicode="&#xa6;" horiz-adv-x="602" d="M248 -410v822h106v-822h-106zM248 817v821h106v-821h-106z" />
<glyph unicode="&#xa7;" horiz-adv-x="1122" d="M111 -309l30 106q83 -36 192.5 -64t211.5 -28q139 0 222 53t83 170q0 63 -39.5 116.5t-103 93t-140 77t-152.5 76.5t-139.5 82t-103 104t-39.5 133q0 159 131 238q-104 91 -104 207q0 73 24.5 130.5t66 94t100 60t121 33t134.5 9.5q192 0 336 -32l-16 -111 q-56 12 -154 23.5t-162 11.5q-317 0 -317 -209q0 -46 30.5 -88t80.5 -73.5t114 -66t130.5 -65t130.5 -71t114 -83.5t80.5 -103.5t30.5 -129.5q0 -162 -111 -242q84 -91 84 -202q0 -97 -37 -166.5t-102 -106.5t-138 -53t-161 -16q-100 0 -225.5 29t-202.5 63zM260 621 q0 -51 36 -95.5t99.5 -82t131.5 -70.5t150.5 -76.5t137.5 -83.5q68 58 68 160q0 58 -33 107.5t-94 89.5t-122 70.5t-144.5 71t-135.5 72.5q-94 -54 -94 -163z" />
<glyph unicode="&#xa8;" horiz-adv-x="1126" d="M297 1329q0 36 22.5 58t65.5 22t65.5 -22t22.5 -58t-22.5 -58t-65.5 -22t-65.5 22t-22.5 58zM651 1329q0 36 22.5 58t65.5 22q42 0 65 -22t23 -58t-23 -58t-65 -22q-43 0 -65.5 22t-22.5 58z" />
<glyph unicode="&#xa9;" horiz-adv-x="1626" d="M123 680q0 702 690 702t690 -702q0 -700 -690 -700t-690 700zM223 680q0 -305 145 -456.5t445 -151.5t445 151.5t145 456.5t-145 457.5t-445 152.5t-445 -152.5t-145 -457.5zM492 680q0 207 89 297t261 90q55 0 123 -10.5t104 -22.5l-16 -90q-114 29 -209 29 q-65 0 -107.5 -11.5t-75.5 -43t-48 -90t-15 -148.5t15 -148.5t48 -90t75.5 -43t107.5 -11.5q103 0 215 35l16 -90q-39 -15 -108.5 -27t-126.5 -12q-172 0 -260 90t-88 297z" />
<glyph unicode="&#xaa;" horiz-adv-x="733" d="M96 936q0 54 19.5 92t53 57.5t70 28t80.5 8.5q81 0 156 -16v84q0 64 -37 87t-104 23q-82 0 -176 -24l-15 82q105 24 193 24q108 0 172.5 -44.5t64.5 -145.5v-395q-144 -49 -243 -49q-48 0 -88 9.5t-74 30t-53 58.5t-19 90zM186 934q0 -109 146 -109q66 0 143 23v178 q-78 16 -156 16q-28 0 -49 -4t-41.5 -15t-31.5 -33.5t-11 -55.5z" />
<glyph unicode="&#xab;" horiz-adv-x="1118" d="M135 555l295 371h123l-285 -371l285 -371h-123zM565 555l295 371h123l-285 -371l285 -371h-123z" />
<glyph unicode="&#xac;" d="M152 813v90h935v-500h-100v410h-835z" />
<glyph unicode="&#xad;" horiz-adv-x="788" d="M135 500v110h518v-110h-518z" />
<glyph unicode="&#xae;" horiz-adv-x="1351" d="M102 858q0 247 151.5 384.5t422.5 137.5q270 0 421.5 -137.5t151.5 -384.5t-151.5 -384.5t-421.5 -137.5q-271 0 -422.5 137.5t-151.5 384.5zM199 858q0 -212 123.5 -325t353.5 -113t353.5 113t123.5 325t-123.5 325t-353.5 113t-353.5 -113t-123.5 -325zM485 580v579 h195q209 0 209 -168q0 -72 -27.5 -106.5t-75.5 -48.5q28 -14 46.5 -42.5t35.5 -76.5l50 -137h-99l-53 139q-9 24 -18.5 40.5t-33.5 31t-57 14.5q-31 0 -77 4v-229h-95zM580 887q69 -6 84 -6q69 0 101 20t32 88q0 53 -28.5 73.5t-96.5 20.5h-92v-196z" />
<glyph unicode="&#xaf;" horiz-adv-x="1126" d="M324 1278v102h479v-102h-479z" />
<glyph unicode="&#xb0;" horiz-adv-x="788" d="M137 1149q0 104 71.5 168.5t186.5 64.5t186.5 -64.5t71.5 -168.5t-71.5 -169t-186.5 -65t-186.5 65t-71.5 169zM244 1149q0 -65 41 -104t110 -39t110.5 39t41.5 104t-41.5 104t-110.5 39t-110 -39t-41 -104z" />
<glyph unicode="&#xb1;" d="M152 0v92h935v-92h-935zM152 608v92h417v371h99v-371h419v-92h-419v-372h-99v372h-417z" />
<glyph unicode="&#xb2;" horiz-adv-x="675" d="M98 680v76l213 215q94 94 115 124q29 42 29 89q0 106 -148 106q-69 0 -182 -24l-8 88q83 24 194 24q114 0 181 -48.5t67 -145.5q0 -30 -9 -59.5t-21 -51.5t-39.5 -54t-47 -51.5t-61.5 -60.5l-143 -139h325v-88h-465z" />
<glyph unicode="&#xb3;" horiz-adv-x="675" d="M78 680l14 90q110 -27 191 -27q172 0 172 138q0 36 -14 60t-42 35.5t-58 16t-73 4.5h-88v76l215 199h-307v90h447v-84l-216 -199h3q103 0 170 -49t67 -147q0 -112 -76.5 -172t-199.5 -60q-107 0 -205 29z" />
<glyph unicode="&#xb4;" horiz-adv-x="1126" d="M451 1165l182 330h141l-209 -330h-114z" />
<glyph unicode="&#xb6;" horiz-adv-x="1318" d="M113 934q0 236 105 332t353 96h240v-1686h-111v807q-41 -2 -129 -2q-251 0 -354.5 100.5t-103.5 352.5zM971 -324v1686h110v-1686h-110z" />
<glyph unicode="&#xb7;" horiz-adv-x="563" d="M197 555q0 37 23 58.5t61 21.5q39 0 61.5 -21t22.5 -59t-23 -60t-61 -22q-37 0 -60.5 22t-23.5 60z" />
<glyph unicode="&#xb8;" horiz-adv-x="1126" d="M420 -377l22 88q55 -20 97 -20q37 0 50 12.5t13 42.5q0 45 -53 145h106q58 -90 58 -153q0 -139 -158 -139q-78 0 -135 24z" />
<glyph unicode="&#xb9;" horiz-adv-x="616" d="M92 1217v94l211 51h76v-684h-107v584z" />
<glyph unicode="&#xba;" horiz-adv-x="733" d="M86 1059q0 164 74.5 241.5t208.5 77.5q132 0 206 -77.5t74 -241.5t-74 -242t-206 -78q-133 0 -208 78t-75 242zM180 1059q0 -238 187 -238q89 0 138.5 54.5t49.5 183.5t-49.5 183t-138.5 54q-187 0 -187 -237z" />
<glyph unicode="&#xbb;" horiz-adv-x="1118" d="M135 184l285 371l-285 371h123l295 -371l-295 -371h-123zM565 184l285 371l-285 371h123l295 -371l-295 -371h-123z" />
<glyph unicode="&#xbc;" horiz-adv-x="1611" d="M102 1217v94l211 51h76v-684h-106v584zM236 0l876 1362h131l-878 -1362h-129zM983 158v80l301 464h129v-456h103v-88h-103v-158h-110v158h-320zM1100 246h203v311z" />
<glyph unicode="&#xbd;" horiz-adv-x="1601" d="M102 1217v94l211 51h76v-684h-106v584zM225 0l877 1362h131l-879 -1362h-129zM975 0v76l213 215q64 64 86.5 88.5t39.5 57t17 67.5q0 106 -147 106q-70 0 -183 -24l-8 88q83 24 195 24q114 0 181 -48.5t67 -145.5q0 -38 -10.5 -70t-40 -69.5t-52.5 -61.5t-76 -76 l-143 -139h326v-88h-465z" />
<glyph unicode="&#xbe;" horiz-adv-x="1611" d="M78 680l14 90q110 -27 191 -27q172 0 172 138q0 36 -14 60t-42 35.5t-58 16t-73 4.5h-88v76l215 199h-307v90h447v-84l-216 -199h3q103 0 170 -49t67 -147q0 -112 -76.5 -172t-199.5 -60q-107 0 -205 29zM326 0l876 1362h131l-878 -1362h-129zM983 158v80l301 464h129 v-456h103v-88h-103v-158h-110v158h-320zM1100 246h203v311z" />
<glyph unicode="&#xbf;" horiz-adv-x="763" d="M16 -84q0 62 18.5 116t48 93.5t65.5 76l72 73t65.5 75t48 90t18.5 111.5v123h109v-123q0 -92 -33.5 -169.5t-81 -130.5t-95 -101.5t-81 -106t-33.5 -121.5q0 -114 63.5 -164.5t196.5 -50.5q152 0 299 66l35 -105q-66 -28 -159 -48.5t-181 -20.5q-173 0 -274 79t-101 238z M324 915q0 38 22.5 60t59.5 22q39 0 62.5 -22t23.5 -60t-23.5 -58.5t-62.5 -20.5q-37 0 -59.5 20.5t-22.5 58.5z" />
<glyph unicode="&#xc0;" horiz-adv-x="1396" d="M205 0v885q0 497 493 497q111 0 196 -24.5t141 -67.5t91.5 -106.5t50.5 -136.5t15 -162v-885h-123v541h-741v-541h-123zM328 649h741v234q0 88 -16.5 154.5t-56 122t-115 85t-183.5 29.5t-183 -29.5t-114.5 -85t-56 -122t-16.5 -154.5v-234zM426 1876h143l183 -330h-117z " />
<glyph unicode="&#xc1;" horiz-adv-x="1396" d="M205 0v885q0 497 493 497q111 0 196 -24.5t141 -67.5t91.5 -106.5t50.5 -136.5t15 -162v-885h-123v541h-741v-541h-123zM328 649h741v234q0 88 -16.5 154.5t-56 122t-115 85t-183.5 29.5t-183 -29.5t-114.5 -85t-56 -122t-16.5 -154.5v-234zM637 1546l182 330h142 l-209 -330h-115z" />
<glyph unicode="&#xc2;" horiz-adv-x="1396" d="M205 0v885q0 497 493 497q111 0 196 -24.5t141 -67.5t91.5 -106.5t50.5 -136.5t15 -162v-885h-123v541h-741v-541h-123zM328 649h741v234q0 88 -16.5 154.5t-56 122t-115 85t-183.5 29.5t-183 -29.5t-114.5 -85t-56 -122t-16.5 -154.5v-234zM436 1546l197 330h131 l197 -330h-121l-142 232l-141 -232h-121z" />
<glyph unicode="&#xc3;" horiz-adv-x="1396" d="M205 0v885q0 497 493 497q111 0 196 -24.5t141 -67.5t91.5 -106.5t50.5 -136.5t15 -162v-885h-123v541h-741v-541h-123zM328 649h741v234q0 88 -16.5 154.5t-56 122t-115 85t-183.5 29.5t-183 -29.5t-114.5 -85t-56 -122t-16.5 -154.5v-234zM403 1651q24 68 63 103.5 t107 35.5q56 0 140 -34t116 -34q12 0 21.5 4t15.5 8t12.5 15.5t8 15t7 19t5.5 16.5l94 -28q-19 -77 -58 -112.5t-108 -35.5q-42 0 -133.5 34t-120.5 34q-18 0 -31.5 -5.5t-22 -17t-13 -21.5t-10.5 -26z" />
<glyph unicode="&#xc4;" horiz-adv-x="1396" d="M205 0v885q0 497 493 497q111 0 196 -24.5t141 -67.5t91.5 -106.5t50.5 -136.5t15 -162v-885h-123v541h-741v-541h-123zM328 649h741v234q0 88 -16.5 154.5t-56 122t-115 85t-183.5 29.5t-183 -29.5t-114.5 -85t-56 -122t-16.5 -154.5v-234zM434 1710q0 36 22.5 58 t65.5 22t65.5 -22t22.5 -58t-22.5 -58t-65.5 -22t-65.5 22t-22.5 58zM788 1710q0 36 23 58t66 22q42 0 65 -22t23 -58t-23 -58t-65 -22q-43 0 -66 22t-23 58z" />
<glyph unicode="&#xc5;" horiz-adv-x="1396" d="M205 0v885q0 497 493 497q111 0 196 -24.5t141 -67.5t91.5 -106.5t50.5 -136.5t15 -162v-885h-123v541h-741v-541h-123zM328 649h741v234q0 88 -16.5 154.5t-56 122t-115 85t-183.5 29.5t-183 -29.5t-114.5 -85t-56 -122t-16.5 -154.5v-234zM508 1712q0 76 51 121t139 45 q89 0 140 -45t51 -121t-51 -121t-140 -45q-88 0 -139 45t-51 121zM606 1712q0 -86 92 -86q93 0 93 86t-93 86q-92 0 -92 -86z" />
<glyph unicode="&#xc6;" horiz-adv-x="1988" d="M205 0v885q0 497 493 497q258 0 371 -149v129h766v-109h-643v-495h567v-109h-567v-368q0 -87 52.5 -129.5t139.5 -42.5h482v-109h-482q-147 0 -231 73.5t-84 207.5v368h-741v-649h-123zM328 758h741v125q0 88 -16.5 154.5t-56 122t-115 85t-183.5 29.5t-183 -29.5 t-114.5 -85t-56 -122t-16.5 -154.5v-125z" />
<glyph unicode="&#xc7;" horiz-adv-x="1183" d="M143 678q0 163 27 285.5t75 201.5t122.5 128t161 69t198.5 20q155 0 336 -32l-16 -109q-191 33 -322 33q-91 0 -158.5 -16t-125 -56t-93.5 -107t-56 -170.5t-20 -244.5q0 -172 29 -289.5t88.5 -183.5t136.5 -93.5t185 -27.5q153 0 348 39l12 -105q-173 -40 -360 -40 q-107 0 -191.5 21t-156.5 70.5t-119.5 128.5t-74 199.5t-26.5 278.5zM483 -377l23 88q55 -20 96 -20q37 0 50.5 12.5t13.5 42.5q0 43 -54 145h107q57 -88 57 -153q0 -139 -158 -139q-78 0 -135 24z" />
<glyph unicode="&#xc8;" horiz-adv-x="1144" d="M225 281v1081h766v-109h-643v-495h567v-109h-567v-368q0 -172 193 -172h481v-109h-481q-148 0 -232 73.5t-84 207.5zM360 1876h144l182 -330h-117z" />
<glyph unicode="&#xc9;" horiz-adv-x="1144" d="M225 281v1081h766v-109h-643v-495h567v-109h-567v-368q0 -172 193 -172h481v-109h-481q-148 0 -232 73.5t-84 207.5zM561 1546l182 330h142l-209 -330h-115z" />
<glyph unicode="&#xca;" horiz-adv-x="1144" d="M225 281v1081h766v-109h-643v-495h567v-109h-567v-368q0 -172 193 -172h481v-109h-481q-148 0 -232 73.5t-84 207.5zM342 1546l197 330h131l196 -330h-121l-141 232l-141 -232h-121z" />
<glyph unicode="&#xcb;" horiz-adv-x="1144" d="M225 281v1081h766v-109h-643v-495h567v-109h-567v-368q0 -172 193 -172h481v-109h-481q-148 0 -232 73.5t-84 207.5zM346 1712q0 36 22.5 58t65.5 22t65.5 -22t22.5 -58t-22.5 -58t-65.5 -22t-65.5 22t-22.5 58zM700 1712q0 36 22.5 58t65.5 22q42 0 65.5 -22t23.5 -58 t-23.5 -58t-65.5 -22q-43 0 -65.5 22t-22.5 58z" />
<glyph unicode="&#xcc;" horiz-adv-x="595" d="M27 1876h143l182 -330h-116zM238 0v1362h122v-1362h-122z" />
<glyph unicode="&#xcd;" horiz-adv-x="595" d="M238 0v1362h122v-1362h-122zM242 1546l182 330h141l-209 -330h-114z" />
<glyph unicode="&#xce;" horiz-adv-x="595" d="M35 1546l196 330h131l197 -330h-121l-141 232l-141 -232h-121zM238 0v1362h122v-1362h-122z" />
<glyph unicode="&#xcf;" horiz-adv-x="595" d="M35 1712q0 36 22.5 58t65.5 22t65.5 -22t22.5 -58t-22.5 -58t-65.5 -22t-65.5 22t-22.5 58zM238 0v1362h122v-1362h-122zM389 1712q0 36 22.5 58t65.5 22q42 0 65 -22t23 -58t-23 -58t-65 -22q-43 0 -65.5 22t-22.5 58z" />
<glyph unicode="&#xd0;" horiz-adv-x="1388" d="M41 639v109h195v614h413q596 0 596 -674q0 -354 -146 -531t-446 -177q-205 0 -417 51v608h-195zM358 117q134 -25 295 -25q230 0 347.5 142t117.5 456q0 292 -120 427.5t-349 135.5h-291v-505h373v-109h-373v-522z" />
<glyph unicode="&#xd1;" horiz-adv-x="1544" d="M238 0v1362h106l844 -870v870h119v-1362h-119v326l-832 854v-1180h-118zM477 1651q24 68 63 103.5t107 35.5q56 0 140 -34t116 -34q12 0 21.5 4t15.5 8t12.5 15.5t8 15t7 19t5.5 16.5l94 -28q-19 -77 -58 -112.5t-108 -35.5q-42 0 -133.5 34t-120.5 34q-24 0 -40.5 -11.5 t-23.5 -24t-14 -34.5z" />
<glyph unicode="&#xd2;" horiz-adv-x="1400" d="M143 680q0 190 37 326t110 218t174 120t236 38t236 -38t174 -120t110 -218t37 -326q0 -189 -37 -324.5t-110 -217.5t-174 -120t-236 -38t-236 38t-174 120t-110 217.5t-37 324.5zM272 680q0 -165 27 -280t82.5 -184t133 -99.5t185.5 -30.5t185.5 30.5t133 99.5t82.5 184 t27 280t-27 280t-82.5 184t-133 99.5t-185.5 30.5t-185.5 -30.5t-133 -99.5t-82.5 -184t-27 -280zM434 1876h144l182 -330h-117z" />
<glyph unicode="&#xd3;" horiz-adv-x="1400" d="M143 680q0 190 37 326t110 218t174 120t236 38t236 -38t174 -120t110 -218t37 -326q0 -189 -37 -324.5t-110 -217.5t-174 -120t-236 -38t-236 38t-174 120t-110 217.5t-37 324.5zM272 680q0 -165 27 -280t82.5 -184t133 -99.5t185.5 -30.5t185.5 30.5t133 99.5t82.5 184 t27 280t-27 280t-82.5 184t-133 99.5t-185.5 30.5t-185.5 -30.5t-133 -99.5t-82.5 -184t-27 -280zM637 1546l182 330h142l-209 -330h-115z" />
<glyph unicode="&#xd4;" horiz-adv-x="1400" d="M143 680q0 190 37 326t110 218t174 120t236 38t236 -38t174 -120t110 -218t37 -326q0 -189 -37 -324.5t-110 -217.5t-174 -120t-236 -38t-236 38t-174 120t-110 217.5t-37 324.5zM272 680q0 -165 27 -280t82.5 -184t133 -99.5t185.5 -30.5t185.5 30.5t133 99.5t82.5 184 t27 280t-27 280t-82.5 184t-133 99.5t-185.5 30.5t-185.5 -30.5t-133 -99.5t-82.5 -184t-27 -280zM438 1546l197 330h131l197 -330h-121l-142 232l-141 -232h-121z" />
<glyph unicode="&#xd5;" horiz-adv-x="1400" d="M143 680q0 190 37 326t110 218t174 120t236 38t236 -38t174 -120t110 -218t37 -326q0 -189 -37 -324.5t-110 -217.5t-174 -120t-236 -38t-236 38t-174 120t-110 217.5t-37 324.5zM272 680q0 -165 27 -280t82.5 -184t133 -99.5t185.5 -30.5t185.5 30.5t133 99.5t82.5 184 t27 280t-27 280t-82.5 184t-133 99.5t-185.5 30.5t-185.5 -30.5t-133 -99.5t-82.5 -184t-27 -280zM406 1651q24 68 62.5 103.5t106.5 35.5q56 0 140 -34t116 -34q12 0 21.5 4t15.5 8t12.5 15.5t8 15t7 19t5.5 16.5l94 -28q-19 -77 -58 -112.5t-108 -35.5q-42 0 -133.5 34 t-120.5 34q-18 0 -31.5 -5.5t-22 -17t-13 -21.5t-10.5 -26z" />
<glyph unicode="&#xd6;" horiz-adv-x="1400" d="M143 680q0 190 37 326t110 218t174 120t236 38t236 -38t174 -120t110 -218t37 -326q0 -189 -37 -324.5t-110 -217.5t-174 -120t-236 -38t-236 38t-174 120t-110 217.5t-37 324.5zM272 680q0 -165 27 -280t82.5 -184t133 -99.5t185.5 -30.5t185.5 30.5t133 99.5t82.5 184 t27 280t-27 280t-82.5 184t-133 99.5t-185.5 30.5t-185.5 -30.5t-133 -99.5t-82.5 -184t-27 -280zM436 1712q0 36 22.5 58t65.5 22t65.5 -22t22.5 -58t-22.5 -58t-65.5 -22t-65.5 22t-22.5 58zM791 1712q0 36 22.5 58t65.5 22q42 0 65 -22t23 -58t-23 -58t-65 -22 q-43 0 -65.5 22t-22.5 58z" />
<glyph unicode="&#xd7;" d="M186 328l359 325l-348 320l71 65l348 -319l361 328l74 -66l-361 -328l354 -323l-69 -66l-359 326l-356 -326z" />
<glyph unicode="&#xd8;" horiz-adv-x="1400" d="M143 680q0 190 37 326t110 218t174 120t236 38q204 0 334 -90l115 178l86 -51l-125 -194q147 -170 147 -545q0 -189 -37 -324.5t-110 -217.5t-174 -120t-236 -38q-212 0 -338 90l-112 -174l-86 51l125 192q-146 172 -146 541zM272 680q0 -290 86 -432l613 946 q-102 80 -271 80q-108 0 -185.5 -30.5t-133 -99.5t-82.5 -184t-27 -280zM426 168q101 -82 274 -82q108 0 185.5 30.5t133 99.5t82.5 184t27 280q0 291 -90 434z" />
<glyph unicode="&#xd9;" horiz-adv-x="1435" d="M215 477v885h123v-883q0 -389 395 -389q195 0 367 49v1223h121v-1301q-80 -25 -130.5 -38.5t-152 -28t-207.5 -14.5q-136 0 -237 37t-161 104.5t-89 156t-29 199.5zM455 1876h143l182 -330h-116z" />
<glyph unicode="&#xda;" horiz-adv-x="1435" d="M215 477v885h123v-883q0 -389 395 -389q195 0 367 49v1223h121v-1301q-80 -25 -130.5 -38.5t-152 -28t-207.5 -14.5q-136 0 -237 37t-161 104.5t-89 156t-29 199.5zM655 1546l183 330h141l-209 -330h-115z" />
<glyph unicode="&#xdb;" horiz-adv-x="1435" d="M215 477v885h123v-883q0 -389 395 -389q195 0 367 49v1223h121v-1301q-80 -25 -130.5 -38.5t-152 -28t-207.5 -14.5q-136 0 -237 37t-161 104.5t-89 156t-29 199.5zM457 1546l196 330h131l197 -330h-121l-141 232l-141 -232h-121z" />
<glyph unicode="&#xdc;" horiz-adv-x="1435" d="M215 477v885h123v-883q0 -389 395 -389q195 0 367 49v1223h121v-1301q-80 -25 -130.5 -38.5t-152 -28t-207.5 -14.5q-136 0 -237 37t-161 104.5t-89 156t-29 199.5zM455 1710q0 36 22.5 58t65.5 22t65.5 -22t22.5 -58t-22.5 -58t-65.5 -22t-65.5 22t-22.5 58zM809 1710 q0 36 22.5 58t65.5 22q42 0 65 -22t23 -58t-23 -58t-65 -22q-43 0 -65.5 22t-22.5 58z" />
<glyph unicode="&#xdd;" horiz-adv-x="1099" d="M-20 1362h145l457 -780q163 159 265 365t142 415h121q-58 -266 -182 -498.5t-303 -398.5v-465h-119v463zM494 1546l182 330h141l-209 -330h-114z" />
<glyph unicode="&#xde;" horiz-adv-x="1288" d="M238 0v1362h122v-242h299q252 0 374 -95t122 -325q0 -225 -127.5 -327.5t-380.5 -102.5q-112 0 -287 27v-297h-122zM360 403q153 -26 289 -26q204 0 290.5 79.5t86.5 243.5q0 174 -84 243t-283 69h-299v-609z" />
<glyph unicode="&#xdf;" horiz-adv-x="1062" d="M205 0v1176q0 163 91.5 249t270.5 86q166 0 263.5 -84t97.5 -229q0 -76 -26 -136t-63 -98t-74 -71t-63 -72t-26 -84q0 -34 21 -67t55 -61.5t75 -58t81.5 -62.5t74.5 -68.5t55 -82t21 -97.5q0 -256 -334 -256q-127 0 -229 30l12 99q114 -31 215 -31q109 0 163 34.5 t54 125.5q0 38 -21 73.5t-54.5 64.5t-74 58t-80.5 60t-73.5 64.5t-54.5 78t-21 94.5q0 46 14 84.5t36 66.5t48.5 54.5t53 52.5t48.5 54.5t36 67.5t14 85q0 108 -65 158.5t-179 50.5q-132 0 -188.5 -54t-56.5 -179v-1176h-117z" />
<glyph unicode="&#xe0;" horiz-adv-x="1038" d="M92 293q0 80 31.5 138t88 89.5t122.5 45.5t147 14q103 0 264 -23v127q0 211 -284 211q-117 0 -248 -27l-10 101q126 28 260 28q65 0 120.5 -8.5t108 -30.5t89.5 -56t59 -89.5t22 -126.5v-637q-74 -21 -119.5 -32t-124.5 -22t-155 -11q-78 0 -143 17t-117.5 52t-81.5 96.5 t-29 143.5zM211 283q0 -103 70.5 -150t183.5 -47q124 0 280 39v328q-148 24 -266 24q-58 0 -102 -8t-84 -28t-61 -60t-21 -98zM252 1495h143l183 -330h-117z" />
<glyph unicode="&#xe1;" horiz-adv-x="1038" d="M92 293q0 80 31.5 138t88 89.5t122.5 45.5t147 14q103 0 264 -23v127q0 211 -284 211q-117 0 -248 -27l-10 101q126 28 260 28q65 0 120.5 -8.5t108 -30.5t89.5 -56t59 -89.5t22 -126.5v-637q-74 -21 -119.5 -32t-124.5 -22t-155 -11q-78 0 -143 17t-117.5 52t-81.5 96.5 t-29 143.5zM211 283q0 -103 70.5 -150t183.5 -47q124 0 280 39v328q-148 24 -266 24q-58 0 -102 -8t-84 -28t-61 -60t-21 -98zM436 1165l182 330h142l-209 -330h-115z" />
<glyph unicode="&#xe2;" horiz-adv-x="1038" d="M92 293q0 80 31.5 138t88 89.5t122.5 45.5t147 14q103 0 264 -23v127q0 211 -284 211q-117 0 -248 -27l-10 101q126 28 260 28q65 0 120.5 -8.5t108 -30.5t89.5 -56t59 -89.5t22 -126.5v-637q-74 -21 -119.5 -32t-124.5 -22t-155 -11q-78 0 -143 17t-117.5 52t-81.5 96.5 t-29 143.5zM211 283q0 -103 70.5 -150t183.5 -47q124 0 280 39v328q-148 24 -266 24q-58 0 -102 -8t-84 -28t-61 -60t-21 -98zM266 1165l197 330h131l197 -330h-121l-142 232l-141 -232h-121z" />
<glyph unicode="&#xe3;" horiz-adv-x="1038" d="M92 293q0 80 31.5 138t88 89.5t122.5 45.5t147 14q103 0 264 -23v127q0 211 -284 211q-117 0 -248 -27l-10 101q126 28 260 28q65 0 120.5 -8.5t108 -30.5t89.5 -56t59 -89.5t22 -126.5v-637q-74 -21 -119.5 -32t-124.5 -22t-155 -11q-78 0 -143 17t-117.5 52t-81.5 96.5 t-29 143.5zM211 283q0 -103 70.5 -150t183.5 -47q124 0 280 39v328q-148 24 -266 24q-58 0 -102 -8t-84 -28t-61 -60t-21 -98zM233 1270q24 68 63 103.5t107 35.5q56 0 140 -34t116 -34q12 0 21.5 4t15.5 8t12.5 15.5t8 15t7 19t5.5 16.5l94 -28q-19 -77 -58 -112.5 t-108 -35.5q-42 0 -133.5 34t-120.5 34q-18 0 -31.5 -5.5t-22 -17t-13 -21.5t-10.5 -26z" />
<glyph unicode="&#xe4;" horiz-adv-x="1038" d="M92 293q0 80 31.5 138t88 89.5t122.5 45.5t147 14q103 0 264 -23v127q0 211 -284 211q-117 0 -248 -27l-10 101q126 28 260 28q65 0 120.5 -8.5t108 -30.5t89.5 -56t59 -89.5t22 -126.5v-637q-74 -21 -119.5 -32t-124.5 -22t-155 -11q-78 0 -143 17t-117.5 52t-81.5 96.5 t-29 143.5zM211 283q0 -103 70.5 -150t183.5 -47q124 0 280 39v328q-148 24 -266 24q-58 0 -102 -8t-84 -28t-61 -60t-21 -98zM264 1329q0 36 22.5 58t65.5 22t65.5 -22t22.5 -58t-22.5 -58t-65.5 -22t-65.5 22t-22.5 58zM618 1329q0 36 23 58t66 22q42 0 65 -22t23 -58 t-23 -58t-65 -22q-43 0 -66 22t-23 58z" />
<glyph unicode="&#xe5;" horiz-adv-x="1038" d="M92 293q0 80 31.5 138t88 89.5t122.5 45.5t147 14q103 0 264 -23v127q0 211 -284 211q-117 0 -248 -27l-10 101q126 28 260 28q65 0 120.5 -8.5t108 -30.5t89.5 -56t59 -89.5t22 -126.5v-637q-74 -21 -119.5 -32t-124.5 -22t-155 -11q-78 0 -143 17t-117.5 52t-81.5 96.5 t-29 143.5zM211 283q0 -103 70.5 -150t183.5 -47q124 0 280 39v328q-148 24 -266 24q-58 0 -102 -8t-84 -28t-61 -60t-21 -98zM338 1327q0 76 51 121t139 45q89 0 140 -45t51 -121t-51 -121t-140 -45q-88 0 -139 45t-51 121zM436 1327q0 -86 92 -86q93 0 93 86t-93 86 q-92 0 -92 -86z" />
<glyph unicode="&#xe6;" horiz-adv-x="1667" d="M92 293q0 80 31.5 138t88 89.5t122.5 45.5t147 14q103 0 264 -23v127q0 211 -284 211q-115 0 -246 -27l-12 101q132 28 260 28q282 0 364 -168q98 168 338 168q189 0 289 -106.5t100 -286.5v-133h-694q0 -97 16.5 -164t58.5 -119t117.5 -77t188.5 -25q61 0 146.5 11.5 t128.5 23.5l10 -101q-136 -36 -285 -36q-258 0 -375 106q-193 -106 -401 -106q-167 0 -270 74.5t-103 234.5zM211 283q0 -53 20 -92.5t55.5 -61.5t80.5 -32.5t100 -10.5q86 0 181 25.5t151 64.5q-61 107 -64 279q-163 22 -256 22q-58 0 -102 -8t-84 -28t-61 -60t-21 -98z M862 571h572q0 161 -68.5 242.5t-202.5 81.5q-146 0 -217.5 -80.5t-83.5 -243.5z" />
<glyph unicode="&#xe7;" horiz-adv-x="950" d="M123 489q0 98 15 175.5t44 133t68 94.5t91 62t108.5 33t125.5 10q116 0 248 -24l-14 -103q-142 25 -238 25q-60 0 -106.5 -10.5t-88.5 -38t-70 -72.5t-44 -117t-16 -168q0 -95 16.5 -166.5t44.5 -116t70.5 -72t88.5 -38t105 -10.5q120 0 252 29l13 -101 q-128 -32 -261 -32q-81 0 -146.5 14.5t-123.5 51t-97.5 93t-62 145t-22.5 203.5zM340 -377l22 88q55 -20 97 -20q37 0 50 12.5t13 42.5q0 45 -53 145h106q58 -90 58 -153q0 -139 -158 -139q-78 0 -135 24z" />
<glyph unicode="&#xe8;" horiz-adv-x="1054" d="M123 489q0 508 430 508q189 0 289 -106.5t100 -286.5v-133h-694q0 -97 16.5 -164t58.5 -119t117.5 -77t188.5 -25q130 0 274 35l10 -101q-136 -36 -284 -36q-98 0 -172 13.5t-139 47.5t-106.5 90.5t-65 145t-23.5 208.5zM250 571h571q0 324 -270 324q-146 0 -217.5 -80.5 t-83.5 -243.5zM291 1495h143l182 -330h-116z" />
<glyph unicode="&#xe9;" horiz-adv-x="1054" d="M123 489q0 508 430 508q189 0 289 -106.5t100 -286.5v-133h-694q0 -97 16.5 -164t58.5 -119t117.5 -77t188.5 -25q130 0 274 35l10 -101q-136 -36 -284 -36q-98 0 -172 13.5t-139 47.5t-106.5 90.5t-65 145t-23.5 208.5zM250 571h571q0 324 -270 324q-146 0 -217.5 -80.5 t-83.5 -243.5zM483 1165l183 330h141l-209 -330h-115z" />
<glyph unicode="&#xea;" horiz-adv-x="1054" d="M123 489q0 508 430 508q189 0 289 -106.5t100 -286.5v-133h-694q0 -97 16.5 -164t58.5 -119t117.5 -77t188.5 -25q130 0 274 35l10 -101q-136 -36 -284 -36q-98 0 -172 13.5t-139 47.5t-106.5 90.5t-65 145t-23.5 208.5zM250 571h571q0 324 -270 324q-146 0 -217.5 -80.5 t-83.5 -243.5zM287 1165l196 330h131l197 -330h-121l-141 232l-141 -232h-121z" />
<glyph unicode="&#xeb;" horiz-adv-x="1054" d="M123 489q0 508 430 508q189 0 289 -106.5t100 -286.5v-133h-694q0 -97 16.5 -164t58.5 -119t117.5 -77t188.5 -25q130 0 274 35l10 -101q-136 -36 -284 -36q-98 0 -172 13.5t-139 47.5t-106.5 90.5t-65 145t-23.5 208.5zM250 571h571q0 324 -270 324q-146 0 -217.5 -80.5 t-83.5 -243.5zM285 1329q0 36 22.5 58t65.5 22t65.5 -22t22.5 -58t-22.5 -58t-65.5 -22t-65.5 22t-22.5 58zM639 1329q0 36 22.5 58t65.5 22q42 0 65 -22t23 -58t-23 -58t-65 -22q-43 0 -65.5 22t-22.5 58z" />
<glyph unicode="&#xec;" horiz-adv-x="522" d="M-6 1495h143l182 -330h-116zM203 0v981h116v-981h-116z" />
<glyph unicode="&#xed;" horiz-adv-x="522" d="M203 0v981h116v-981h-116zM203 1165l182 330h141l-209 -330h-114z" />
<glyph unicode="&#xee;" horiz-adv-x="522" d="M-2 1165l197 330h131l196 -330h-121l-141 232l-141 -232h-121zM203 0v981h116v-981h-116z" />
<glyph unicode="&#xef;" horiz-adv-x="522" d="M-4 1329q0 36 22.5 58t65.5 22t65.5 -22t22.5 -58t-22.5 -58t-65.5 -22t-65.5 22t-22.5 58zM203 0v981h116v-981h-116zM350 1329q0 36 22.5 58t65.5 22q42 0 65 -22t23 -58t-23 -58t-65 -22q-43 0 -65.5 22t-22.5 58z" />
<glyph unicode="&#xf0;" horiz-adv-x="1095" d="M113 489q0 508 438 508q202 0 293 -125q-51 216 -123 336l-365 -67v94l314 57q-41 68 -162 203h133q79 -85 139 -180l213 41v-94l-162 -31q156 -322 156 -731q0 -260 -112 -388t-326 -128q-436 0 -436 505zM236 489q0 -93 14.5 -163.5t40.5 -115.5t66 -73t86 -39.5 t106 -11.5q74 0 129.5 19t99 62.5t66 122.5t22.5 193q0 76 -7 133t-27.5 112t-55 90t-92 56t-135.5 21q-75 0 -129.5 -18.5t-97.5 -63t-64.5 -125.5t-21.5 -199z" />
<glyph unicode="&#xf1;" horiz-adv-x="1202" d="M203 0v928q236 69 420 69q83 0 151 -16.5t125 -53t89 -102.5t32 -157v-668h-117v662q0 66 -21.5 112.5t-62 72.5t-90.5 37t-115 11q-114 0 -295 -43v-852h-116zM319 1270q24 68 63 103.5t107 35.5q56 0 140 -34t116 -34q12 0 21.5 4t15.5 8t12.5 15.5t8 15t7 19t5.5 16.5 l94 -28q-19 -77 -58 -112.5t-108 -35.5q-42 0 -133.5 34t-120.5 34q-18 0 -31.5 -5.5t-22 -17t-13 -21.5t-10.5 -26z" />
<glyph unicode="&#xf2;" horiz-adv-x="1095" d="M113 489q0 263 111.5 385.5t326.5 122.5t326.5 -122.5t111.5 -385.5t-111 -384t-327 -121t-327 121t-111 384zM236 489q0 -118 21.5 -198.5t64.5 -124.5t98.5 -62t132.5 -18q75 0 129.5 18t97.5 62t64.5 124.5t21.5 198.5t-21.5 199t-64.5 125.5t-97.5 63t-129.5 18.5 q-77 0 -132.5 -18.5t-98.5 -63t-64.5 -125.5t-21.5 -199zM264 1495h144l182 -330h-117z" />
<glyph unicode="&#xf3;" horiz-adv-x="1095" d="M113 489q0 263 111.5 385.5t326.5 122.5t326.5 -122.5t111.5 -385.5t-111 -384t-327 -121t-327 121t-111 384zM236 489q0 -118 21.5 -198.5t64.5 -124.5t98.5 -62t132.5 -18q75 0 129.5 18t97.5 62t64.5 124.5t21.5 198.5t-21.5 199t-64.5 125.5t-97.5 63t-129.5 18.5 q-77 0 -132.5 -18.5t-98.5 -63t-64.5 -125.5t-21.5 -199zM494 1165l182 330h141l-209 -330h-114z" />
<glyph unicode="&#xf4;" horiz-adv-x="1095" d="M113 489q0 263 111.5 385.5t326.5 122.5t326.5 -122.5t111.5 -385.5t-111 -384t-327 -121t-327 121t-111 384zM236 489q0 -118 21.5 -198.5t64.5 -124.5t98.5 -62t132.5 -18q75 0 129.5 18t97.5 62t64.5 124.5t21.5 198.5t-21.5 199t-64.5 125.5t-97.5 63t-129.5 18.5 q-77 0 -132.5 -18.5t-98.5 -63t-64.5 -125.5t-21.5 -199zM285 1165l196 330h131l197 -330h-121l-141 232l-141 -232h-121z" />
<glyph unicode="&#xf5;" horiz-adv-x="1095" d="M113 489q0 263 111.5 385.5t326.5 122.5t326.5 -122.5t111.5 -385.5t-111 -384t-327 -121t-327 121t-111 384zM236 489q0 -118 21.5 -198.5t64.5 -124.5t98.5 -62t132.5 -18q75 0 129.5 18t97.5 62t64.5 124.5t21.5 198.5t-21.5 199t-64.5 125.5t-97.5 63t-129.5 18.5 q-77 0 -132.5 -18.5t-98.5 -63t-64.5 -125.5t-21.5 -199zM254 1270q24 68 63 103.5t107 35.5q56 0 140 -34t116 -34q12 0 21.5 4t15.5 8t12.5 15.5t8 15t7 19t5.5 16.5l94 -28q-19 -77 -58 -112.5t-108 -35.5q-42 0 -133.5 34t-120.5 34q-24 0 -40.5 -11.5t-23.5 -24 t-14 -34.5z" />
<glyph unicode="&#xf6;" horiz-adv-x="1095" d="M113 489q0 263 111.5 385.5t326.5 122.5t326.5 -122.5t111.5 -385.5t-111 -384t-327 -121t-327 121t-111 384zM236 489q0 -118 21.5 -198.5t64.5 -124.5t98.5 -62t132.5 -18q75 0 129.5 18t97.5 62t64.5 124.5t21.5 198.5t-21.5 199t-64.5 125.5t-97.5 63t-129.5 18.5 q-77 0 -132.5 -18.5t-98.5 -63t-64.5 -125.5t-21.5 -199zM283 1329q0 36 22.5 58t65.5 22t65.5 -22t22.5 -58t-22.5 -58t-65.5 -22t-65.5 22t-22.5 58zM637 1329q0 36 22.5 58t65.5 22q42 0 65 -22t23 -58t-23 -58t-65 -22q-43 0 -65.5 22t-22.5 58z" />
<glyph unicode="&#xf7;" d="M152 608v92h935v-92h-935zM545 309q0 37 23 58.5t61 21.5q39 0 61.5 -21t22.5 -59t-23 -60t-61 -22q-37 0 -60.5 22t-23.5 60zM545 1001q0 37 23 58.5t61 21.5q39 0 61.5 -21t22.5 -59t-22.5 -59.5t-61.5 -21.5q-37 0 -60.5 21.5t-23.5 59.5z" />
<glyph unicode="&#xf8;" horiz-adv-x="1101" d="M113 489q0 263 111.5 385.5t326.5 122.5q142 0 237 -53l101 162l84 -45l-107 -174q123 -126 123 -398q0 -263 -111 -384t-327 -121q-133 0 -219 41l-119 -195l-84 45l123 201q-139 124 -139 413zM236 489q0 -219 77 -315l420 678q-68 43 -180 43q-77 0 -132.5 -18.5 t-98.5 -63t-64.5 -125.5t-21.5 -199zM389 117q63 -31 164 -31q75 0 129.5 18t97.5 62t64.5 124.5t21.5 198.5q0 198 -63 295z" />
<glyph unicode="&#xf9;" horiz-adv-x="1169" d="M184 324v657h117v-651q0 -67 22.5 -116t63 -76t88.5 -39.5t105 -12.5q133 0 276 39v856h117v-928q-209 -69 -398 -69q-64 0 -119.5 10.5t-106.5 35.5t-87 63.5t-57 97t-21 133.5zM334 1495h143l182 -330h-116z" />
<glyph unicode="&#xfa;" horiz-adv-x="1169" d="M184 324v657h117v-651q0 -67 22.5 -116t63 -76t88.5 -39.5t105 -12.5q133 0 276 39v856h117v-928q-209 -69 -398 -69q-64 0 -119.5 10.5t-106.5 35.5t-87 63.5t-57 97t-21 133.5zM498 1165l182 330h141l-209 -330h-114z" />
<glyph unicode="&#xfb;" horiz-adv-x="1169" d="M184 324v657h117v-651q0 -67 22.5 -116t63 -76t88.5 -39.5t105 -12.5q133 0 276 39v856h117v-928q-209 -69 -398 -69q-64 0 -119.5 10.5t-106.5 35.5t-87 63.5t-57 97t-21 133.5zM317 1165l197 330h131l197 -330h-121l-141 232l-142 -232h-121z" />
<glyph unicode="&#xfc;" horiz-adv-x="1169" d="M184 324v657h117v-651q0 -67 22.5 -116t63 -76t88.5 -39.5t105 -12.5q133 0 276 39v856h117v-928q-209 -69 -398 -69q-64 0 -119.5 10.5t-106.5 35.5t-87 63.5t-57 97t-21 133.5zM315 1329q0 36 22.5 58t65.5 22t66 -22t23 -58t-23 -58t-66 -22t-65.5 22t-22.5 58z M670 1329q0 36 22.5 58t65.5 22q42 0 65 -22t23 -58t-23 -58t-65 -22q-43 0 -65.5 22t-22.5 58z" />
<glyph unicode="&#xfd;" horiz-adv-x="1175" d="M184 340v641h117v-635q0 -67 22.5 -116t63 -76t88.5 -39.5t105 -12.5q106 0 276 31v848h117v-1024q0 -184 -98.5 -272t-296.5 -88t-353 47l19 104q161 -47 331 -47q149 0 215 61.5t66 188.5v78q-164 -29 -281 -29q-64 0 -119.5 10.5t-106.5 35.5t-87 63.5t-57 97 t-21 133.5zM539 1165l182 330h141l-209 -330h-114z" />
<glyph unicode="&#xfe;" horiz-adv-x="1146" d="M203 -385v1880h116v-537q163 39 287 39q430 0 430 -503q0 -122 -24 -214t-63.5 -147.5t-97.5 -89.5t-118 -46.5t-133 -12.5q-109 0 -281 28v-397h-116zM319 117q182 -31 283 -31q72 0 124 16.5t96.5 59t67.5 126t23 206.5q0 95 -15 166t-41.5 115.5t-66.5 71.5 t-84.5 37.5t-101.5 10.5q-59 0 -145.5 -14t-139.5 -29v-735z" />
<glyph unicode="&#xff;" horiz-adv-x="1175" d="M184 340v641h117v-635q0 -67 22.5 -116t63 -76t88.5 -39.5t105 -12.5q106 0 276 31v848h117v-1024q0 -184 -98.5 -272t-296.5 -88t-353 47l19 104q161 -47 331 -47q149 0 215 61.5t66 188.5v78q-164 -29 -281 -29q-64 0 -119.5 10.5t-106.5 35.5t-87 63.5t-57 97 t-21 133.5zM315 1329q0 36 22.5 58t65.5 22t66 -22t23 -58t-23 -58t-66 -22t-65.5 22t-22.5 58zM670 1329q0 36 22.5 58t65.5 22q42 0 65 -22t23 -58t-23 -58t-65 -22q-43 0 -65.5 22t-22.5 58z" />
<glyph unicode="&#x152;" horiz-adv-x="2048" d="M143 680q0 190 37 326t110 218t174 120t236 38q295 0 428 -198v178h766v-109h-643v-495h568v-109h-568v-368q0 -87 53 -129.5t140 -42.5h481v-109h-481q-122 0 -201 51t-104 146q-130 -217 -439 -217q-135 0 -236 38t-174 120t-110 217.5t-37 324.5zM272 680 q0 -165 27 -280t82.5 -184t133 -99.5t185.5 -30.5t185.5 30.5t133 99.5t82.5 184t27 280t-27 280t-82.5 184t-133 99.5t-185.5 30.5t-185.5 -30.5t-133 -99.5t-82.5 -184t-27 -280z" />
<glyph unicode="&#x153;" horiz-adv-x="1808" d="M123 489q0 263 111.5 385.5t326.5 122.5q287 0 377 -223q87 223 369 223q189 0 289 -106.5t100 -286.5v-133h-695q0 -97 16.5 -164t58.5 -119t117.5 -77t188.5 -25q61 0 146.5 11.5t128.5 23.5l10 -101q-136 -36 -285 -36q-116 0 -198 19t-146.5 68.5t-99.5 133.5 q-86 -221 -377 -221q-216 0 -327 121t-111 384zM246 489q0 -118 21.5 -198.5t64.5 -124.5t98.5 -62t132.5 -18q75 0 129.5 18t98 62t65 124.5t21.5 198.5t-21.5 199t-64.5 125.5t-98 63t-130 18.5q-77 0 -132.5 -18.5t-98.5 -63t-64.5 -125.5t-21.5 -199zM1004 571h571 q0 324 -270 324q-146 0 -217.5 -80.5t-83.5 -243.5z" />
<glyph unicode="&#x178;" horiz-adv-x="1099" d="M-20 1362h145l457 -780q163 159 265 365t142 415h121q-58 -266 -182 -498.5t-303 -398.5v-465h-119v463zM326 1710q0 36 22.5 58t65.5 22t65.5 -22t22.5 -58t-22.5 -58t-65.5 -22t-65.5 22t-22.5 58zM680 1710q0 36 22.5 58t65.5 22q42 0 65 -22t23 -58t-23 -58t-65 -22 q-43 0 -65.5 22t-22.5 58z" />
<glyph unicode="&#x2c6;" horiz-adv-x="1126" d="M301 1165l197 330h131l196 -330h-120l-142 232l-141 -232h-121z" />
<glyph unicode="&#x2dc;" horiz-adv-x="1126" d="M268 1270q24 68 63 103.5t107 35.5q56 0 140 -34t116 -34q12 0 21.5 4t15.5 8t12.5 15.5t8 15t7 19t5.5 16.5l94 -28q-19 -77 -58 -112.5t-108 -35.5q-42 0 -133.5 34t-120.5 34q-24 0 -40.5 -11.5t-23.5 -24t-14 -34.5z" />
<glyph unicode="&#x2000;" horiz-adv-x="939" />
<glyph unicode="&#x2001;" horiz-adv-x="1878" />
<glyph unicode="&#x2002;" horiz-adv-x="939" />
<glyph unicode="&#x2003;" horiz-adv-x="1878" />
<glyph unicode="&#x2004;" horiz-adv-x="626" />
<glyph unicode="&#x2005;" horiz-adv-x="469" />
<glyph unicode="&#x2006;" horiz-adv-x="313" />
<glyph unicode="&#x2007;" horiz-adv-x="313" />
<glyph unicode="&#x2008;" horiz-adv-x="234" />
<glyph unicode="&#x2009;" horiz-adv-x="375" />
<glyph unicode="&#x200a;" horiz-adv-x="104" />
<glyph unicode="&#x2010;" horiz-adv-x="788" d="M135 500v110h518v-110h-518z" />
<glyph unicode="&#x2011;" horiz-adv-x="788" d="M135 500v110h518v-110h-518z" />
<glyph unicode="&#x2012;" horiz-adv-x="788" d="M135 500v110h518v-110h-518z" />
<glyph unicode="&#x2013;" horiz-adv-x="1189" d="M135 506v98h920v-98h-920z" />
<glyph unicode="&#x2014;" horiz-adv-x="1640" d="M135 506v98h1370v-98h-1370z" />
<glyph unicode="&#x2018;" horiz-adv-x="608" d="M166 926l170 436h106l-155 -436h-121z" />
<glyph unicode="&#x2019;" horiz-adv-x="608" d="M166 926l156 436h120l-170 -436h-106z" />
<glyph unicode="&#x201a;" horiz-adv-x="608" d="M166 -328l156 437h120l-170 -437h-106z" />
<glyph unicode="&#x201c;" horiz-adv-x="991" d="M166 926l170 436h106l-155 -436h-121zM569 926l150 436h106l-135 -436h-121z" />
<glyph unicode="&#x201d;" horiz-adv-x="991" d="M166 926l135 436h121l-150 -436h-106zM549 926l156 436h120l-170 -436h-106z" />
<glyph unicode="&#x201e;" horiz-adv-x="991" d="M166 -328l135 437h121l-150 -437h-106zM549 -328l156 437h120l-170 -437h-106z" />
<glyph unicode="&#x2022;" horiz-adv-x="788" d="M221 555q0 76 48.5 120t125.5 44q76 0 123 -43.5t47 -120.5q0 -76 -47 -121t-123 -45t-125 45.5t-49 120.5z" />
<glyph unicode="&#x2026;" horiz-adv-x="1746" d="M197 66q0 37 23 58t61 21q39 0 61.5 -20.5t22.5 -58.5t-23 -60t-61 -22q-37 0 -60.5 22t-23.5 60zM788 66q0 37 23 58t61 21q39 0 61.5 -20.5t22.5 -58.5t-23 -60t-61 -22q-37 0 -60.5 22t-23.5 60zM1382 66q0 37 23 58t61 21q39 0 61.5 -20.5t22.5 -58.5t-23 -60 t-61 -22q-37 0 -60.5 22t-23.5 60z" />
<glyph unicode="&#x202f;" horiz-adv-x="375" />
<glyph unicode="&#x2039;" horiz-adv-x="704" d="M135 555l311 371h123l-301 -371l301 -371h-123z" />
<glyph unicode="&#x203a;" horiz-adv-x="704" d="M135 184l301 371l-301 371h123l311 -371l-311 -371h-123z" />
<glyph unicode="&#x205f;" horiz-adv-x="469" />
<glyph unicode="&#x20ac;" d="M78 436v105h194q-6 65 -6 133q0 72 2 90h-190v104h198q26 268 151.5 391t348.5 123q165 0 314 -32l-17 -109q-154 33 -299 33q-169 0 -259 -91.5t-112 -314.5h586l-45 -104h-545q-2 -27 -2 -92q0 -57 4 -131h473l-45 -105h-415q25 -185 115 -267.5t245 -82.5 q172 0 311 37l13 -105q-135 -38 -326 -38q-420 0 -487 456h-207z" />
<glyph unicode="&#x2122;" horiz-adv-x="1636" d="M78 1280v82h520v-82h-207v-530h-104v530h-209zM741 750v612h113l246 -389l248 389h112v-612h-98v473l-219 -344h-86l-215 344v-473h-101z" />
<glyph unicode="&#x25fc;" horiz-adv-x="983" d="M0 0v983h983v-983h-983z" />
</font>
</defs>
</svg>
