<?xml version="1.0" standalone="no"?>
<!DOCTYPE svg PUBLIC "-//W3C//DTD SVG 1.1//EN" "http://www.w3.org/Graphics/SVG/1.1/DTD/svg11.dtd" >
<svg xmlns="http://www.w3.org/2000/svg">
<metadata></metadata>
<defs>
<font id="3dsextralight" horiz-adv-x="1239" >
<font-face units-per-em="2048" ascent="1638" descent="-410" />
<missing-glyph horiz-adv-x="501" />
<glyph unicode="&#xfb01;" horiz-adv-x="1105" d="M98 922v49h170v203q0 321 342 321q59 0 143 -10t134 -23l-10 -49q-50 13 -129.5 23t-137.5 10q-141 0 -213.5 -60.5t-72.5 -211.5v-203h563v-971h-56v922h-507v-922h-56v922h-170z" />
<glyph unicode="&#xfb02;" horiz-adv-x="1107" d="M98 922v49h170v203q0 321 342 321q62 0 144.5 -10.5t134.5 -24.5v-1460h-58v1423q-117 23 -221 23q-141 0 -213.5 -60.5t-72.5 -211.5v-203h325v-49h-325v-922h-56v922h-170z" />
<glyph horiz-adv-x="0" />
<glyph horiz-adv-x="0" />
<glyph horiz-adv-x="682" />
<glyph unicode="&#xd;" horiz-adv-x="501" />
<glyph unicode=" "  horiz-adv-x="501" />
<glyph unicode="&#x09;" horiz-adv-x="501" />
<glyph unicode="&#xa0;" horiz-adv-x="501" />
<glyph unicode="!" horiz-adv-x="606" d="M248 35q0 24 16 37.5t41 13.5q53 0 53 -51q0 -23 -14 -37t-39 -14t-41 14t-16 37zM272 1362h60v-1090h-58z" />
<glyph unicode="&#x22;" horiz-adv-x="905" d="M287 926v436h59v-436h-59zM559 926v436h59v-436h-59z" />
<glyph unicode="#" horiz-adv-x="1464" d="M121 449l10 55h318l65 364h-317l8 56h317l78 438h59l-77 -438h381l77 438h60l-78 -438h319l-8 -56h-319l-66 -364h320l-11 -55h-319l-78 -449h-59l78 449h-381l-78 -449h-60l78 449h-317zM508 504h381l65 364h-381z" />
<glyph unicode="$" d="M184 133l13 55q77 -35 195.5 -59.5t230.5 -24.5q59 0 104 4t93.5 16.5t80 34.5t52 60t20.5 90q0 55 -32.5 108t-86.5 96t-122.5 87.5t-139.5 83t-139.5 82.5t-122.5 86.5t-86.5 94.5t-32.5 106q0 57 22 99.5t57 68t88 41.5t106 22.5t120 7.5v193h62v-195q115 0 292 -30 l-8 -58q-51 12 -150.5 23.5t-166.5 11.5q-53 0 -89.5 -1.5t-83 -7t-77 -18t-58.5 -32t-41.5 -50.5t-13.5 -73q0 -45 32.5 -90.5t86 -84.5t122 -81.5t139.5 -81.5t139.5 -86.5t122 -94t86 -105t32.5 -120.5q0 -61 -21 -107.5t-54.5 -74.5t-84 -46t-100 -25.5t-111.5 -10.5 v-221h-61v221q-105 3 -225.5 28t-188.5 58z" />
<glyph unicode="%" horiz-adv-x="1761" d="M139 1028q0 181 80 266.5t213 85.5t213 -85.5t80 -266.5t-80 -266.5t-213 -85.5t-213 85.5t-80 266.5zM195 1028q0 -164 62.5 -232.5t174.5 -68.5t175 68.5t63 232.5t-63 232.5t-175 68.5t-174.5 -68.5t-62.5 -232.5zM416 0l876 1362h60l-879 -1362h-57zM1040 336 q0 181 80 266.5t213 85.5t213 -85.5t80 -266.5t-80 -266.5t-213 -85.5t-213 85.5t-80 266.5zM1096 336q0 -164 62.5 -232.5t174.5 -68.5t175 68.5t63 232.5t-63 232.5t-175 68.5t-174.5 -68.5t-62.5 -232.5z" />
<glyph unicode="&#x26;" horiz-adv-x="1155" d="M121 332q0 147 79 238.5t246 177.5q-8 10 -40 48.5t-40 48.5t-33 42.5t-32.5 46t-23 41.5t-20.5 47.5t-10 45.5t-5 52q0 123 82.5 192.5t203.5 69.5q136 0 217.5 -68.5t81.5 -193.5q0 -64 -22 -121t-64 -104.5t-89.5 -85t-112.5 -76.5l417 -497q84 93 144 219l47 -25 q-30 -72 -63 -122.5t-91 -114.5l168 -193h-78l-131 152q-184 -170 -417 -170q-195 0 -304.5 94t-109.5 256zM182 334q0 -140 96.5 -217.5t258.5 -77.5q206 0 378 154l-430 516q-68 -38 -110.5 -65t-83 -61.5t-62 -68.5t-34.5 -79t-13 -101zM303 1120q0 -36 8.5 -68.5 t33 -70.5t40 -60t58 -73t59.5 -72q133 79 197.5 156.5t64.5 187.5q0 203 -234 203q-100 0 -163.5 -49.5t-63.5 -153.5z" />
<glyph unicode="'" horiz-adv-x="634" d="M287 926v436h59v-436h-59z" />
<glyph unicode="(" horiz-adv-x="602" d="M164 555q0 162 27.5 303.5t79 256t108.5 202.5t133 178h70q-82 -97 -141 -187.5t-111 -205t-78.5 -252t-26.5 -295.5t26.5 -295.5t78.5 -252t111 -205t141 -187.5h-70q-76 90 -133 178t-108.5 202.5t-79 256t-27.5 303.5z" />
<glyph unicode=")" horiz-adv-x="602" d="M20 -385q82 97 141 187.5t111 205t78.5 252t26.5 295.5t-26.5 295.5t-78.5 252t-111 205t-141 187.5h70q76 -90 133 -178t108.5 -202.5t79 -256t27.5 -303.5t-27.5 -303.5t-79 -256t-108.5 -202.5t-133 -178h-70z" />
<glyph unicode="*" horiz-adv-x="843" d="M102 1141l17 49l280 -76l-4 248h54l-5 -248l281 76l16 -49l-278 -70l188 -205l-43 -37l-186 215l-186 -215l-43 37l190 205z" />
<glyph unicode="+" d="M162 629v51h430v389h53v-389h434v-51h-434v-389h-53v389h-430z" />
<glyph unicode="," horiz-adv-x="563" d="M111 -272l170 346h69l-178 -346h-61z" />
<glyph unicode="-" horiz-adv-x="778" d="M139 530v52h500v-52h-500z" />
<glyph unicode="." horiz-adv-x="563" d="M229 31q0 21 14.5 33t37.5 12q24 0 37.5 -12t13.5 -33q0 -22 -14 -34.5t-37 -12.5q-22 0 -37 13t-15 34z" />
<glyph unicode="/" horiz-adv-x="980" d="M98 -109l723 1604h62l-723 -1604h-62z" />
<glyph unicode="0" d="M156 684q0 255 51 408.5t150.5 220.5t260.5 67t261 -67t151 -221t51 -408q0 -256 -51 -411.5t-151 -223t-261 -67.5t-260.5 67.5t-150.5 222.5t-51 412zM221 684q0 -239 41 -379.5t126.5 -203t229.5 -62.5t230 62.5t127 203.5t41 379t-41.5 377.5t-127 200.5t-229.5 61 t-229.5 -61t-126.5 -200.5t-41 -377.5z" />
<glyph unicode="1" d="M322 1212v58l333 92h47v-1362h-61v1303z" />
<glyph unicode="2" d="M127 0v49l436 445q24 25 75 75t73.5 74t61 67.5t56.5 74t39 72.5t29 85.5t8 91.5q0 156 -99.5 222.5t-283.5 66.5q-142 0 -327 -37l-7 57q57 14 158.5 25.5t175.5 11.5q209 0 327 -83t118 -263q0 -47 -8.5 -91.5t-21 -80t-36.5 -75t-44.5 -67.5t-56.5 -67.5t-60.5 -64 l-69 -69l-70.5 -70.5l-387 -396h764v-53h-850z" />
<glyph unicode="3" d="M139 16l8 56q156 -33 351 -33q107 0 182.5 15.5t134.5 54t88 109t29 175.5q0 83 -22 143.5t-56.5 95t-87.5 54.5t-104.5 26.5t-118.5 6.5h-148v49l482 537h-707v57h797v-43l-488 -543h62q76 0 137 -8.5t122 -33.5t101.5 -66.5t66 -111.5t25.5 -163q0 -120 -35 -202 t-104 -127t-155 -63.5t-203 -18.5q-187 0 -357 34z" />
<glyph unicode="4" d="M78 385v41l751 936h76v-920h221v-57h-221v-385h-61v385h-766zM166 442h678v850z" />
<glyph unicode="5" d="M197 16l8 56q171 -33 346 -33q95 0 164.5 16.5t126 57t85.5 116t29 185.5t-25.5 183.5t-77 113t-117 55.5t-158.5 16q-65 0 -156.5 -11.5t-155.5 -27.5l-30 31l51 588h692v-57h-639l-41 -496q140 31 276 31q218 0 331.5 -98.5t113.5 -329.5q0 -98 -23 -172.5t-63 -123 t-100 -79t-128.5 -43t-154.5 -12.5q-187 0 -354 34z" />
<glyph unicode="6" d="M193 674q0 200 33 338t101 218.5t160.5 115t223.5 34.5q169 0 333 -28l-12 -58q-145 29 -323 29q-155 0 -251 -56t-146.5 -186.5t-53.5 -349.5q221 70 395 70q209 0 315.5 -89t106.5 -294q0 -196 -113 -316t-305 -120q-134 0 -226 46.5t-143.5 140t-73 215t-21.5 290.5z M258 670q2 -85 6.5 -148.5t15.5 -132.5t29 -118t47.5 -95.5t70.5 -74.5t99 -45t131 -17q164 0 258.5 100.5t94.5 280.5q0 177 -85 250t-270 73q-194 0 -397 -73z" />
<glyph unicode="7" d="M186 1305v57h867v-47l-711 -1315h-68l709 1305h-797z" />
<glyph unicode="8" d="M168 350q0 87 25.5 157t68.5 112t91.5 66.5t101.5 31.5q-51 12 -94.5 36t-80.5 62t-58 96.5t-21 130.5q0 151 110 244.5t307 93.5t307.5 -93.5t110.5 -244.5q0 -72 -21 -130.5t-58 -96.5t-80.5 -62t-94.5 -36q53 -7 101.5 -31.5t91.5 -66.5t68.5 -112t25.5 -157 q0 -167 -114 -267.5t-337 -100.5t-336.5 100.5t-113.5 267.5zM231 348q0 -151 98 -230t289 -79t289.5 79t98.5 230q0 340 -388 340q-387 0 -387 -340zM264 1040q0 -148 95 -221.5t259 -73.5t259.5 73.5t95.5 221.5q0 133 -92.5 208t-262.5 75t-262 -75t-92 -208z" />
<glyph unicode="9" d="M168 944q0 196 113 316t305 120q108 0 188.5 -31.5t133 -88t85 -144t45.5 -191t13 -237.5q0 -162 -20 -281.5t-58 -201t-99.5 -131t-139 -71t-181.5 -21.5q-192 0 -340 34l8 56q140 -33 334 -33q230 0 328.5 132.5t101.5 459.5q-221 -70 -395 -70q-209 0 -315.5 89 t-106.5 294zM233 942q0 -177 85 -250.5t270 -73.5q191 0 397 74q-2 85 -6.5 148.5t-15.5 132.5t-29 118t-47.5 95.5t-70.5 74.5t-99 45t-131 17q-164 0 -258.5 -100.5t-94.5 -280.5z" />
<glyph unicode=":" horiz-adv-x="563" d="M229 31q0 21 14.5 33t37.5 12q24 0 37.5 -12t13.5 -33q0 -22 -14 -34.5t-37 -12.5q-22 0 -37 13t-15 34zM231 942q0 21 14.5 33t37.5 12q24 0 37.5 -12t13.5 -33q0 -22 -14 -34.5t-37 -12.5q-22 0 -37 13t-15 34z" />
<glyph unicode=";" horiz-adv-x="563" d="M121 -272l170 346h69l-178 -346h-61zM231 942q0 21 14.5 33t37.5 12q24 0 37.5 -12t13.5 -33q0 -22 -14 -34.5t-37 -12.5q-22 0 -37 13t-15 34z" />
<glyph unicode="&#x3c;" d="M162 625v57l917 389v-51l-860 -367l860 -366v-51z" />
<glyph unicode="=" d="M162 422v51h917v-51h-917zM162 831v52h917v-52h-917z" />
<glyph unicode="&#x3e;" d="M160 236v51l860 366l-860 367v51l917 -389v-57z" />
<glyph unicode="?" horiz-adv-x="825" d="M78 1333q152 47 338 47q165 0 257.5 -76.5t92.5 -230.5q0 -61 -19 -115.5t-49.5 -95.5t-67.5 -80.5t-74 -79.5t-67.5 -82.5t-49.5 -100t-19 -122.5v-123h-62v123q0 70 19 131.5t49.5 107t67 87t73 80t67 77.5t49.5 88.5t19 104.5q0 122 -71 187t-215 65q-173 0 -328 -51z M334 35q0 24 16 37.5t41 13.5q24 0 38.5 -13.5t14.5 -37.5q0 -23 -15 -37t-38 -14q-25 0 -41 14t-16 37z" />
<glyph unicode="@" horiz-adv-x="1769" d="M121 449q0 199 42.5 346.5t133.5 253t240 158.5t356 53q165 0 297.5 -42t217.5 -110t141.5 -160.5t80 -188t23.5 -198.5q0 -145 -22.5 -247t-67 -161t-104.5 -85.5t-140 -26.5t-132.5 29.5t-76.5 70.5q-140 -82 -248 -82q-295 0 -295 387q0 180 83.5 272.5t230.5 92.5 q110 0 252 -39v-493q0 -185 188 -185q68 0 116 21.5t85 73.5t55 144.5t18 229.5q0 94 -21 181t-72.5 172.5t-129.5 148t-201 101t-278 38.5q-198 0 -337 -48.5t-221.5 -146.5t-119.5 -234.5t-37 -325.5q0 -90 9 -167.5t31 -154.5t57 -138.5t90 -115t127.5 -89.5t171.5 -56.5 t219 -20.5q142 0 282 32.5t236 82.5l16 -55q-103 -52 -242.5 -85.5t-293.5 -33.5q-178 0 -313 43.5t-218.5 115.5t-136 177.5t-72.5 217.5t-20 247zM623 446q0 -101 19 -170t54.5 -103.5t74.5 -48t91 -13.5q46 0 90.5 12.5t71 26t63.5 36.5q-4 14 -6.5 36.5t-2.5 37.5l-1 16 v457q-96 27 -196 27q-124 0 -191 -78t-67 -236z" />
<glyph unicode="A" horiz-adv-x="1404" d="M227 0v885q0 495 478 495q477 0 477 -495v-885h-62v573h-831v-573h-62zM289 631h831v252q0 78 -11 140.5t-40 120t-75 96t-119.5 61t-169.5 22.5t-169.5 -22.5t-119.5 -61t-75 -95.5t-40.5 -120t-11.5 -141v-252z" />
<glyph unicode="B" horiz-adv-x="1255" d="M246 33v1329h393q420 0 420 -336q0 -79 -20.5 -141t-56 -100t-73 -60.5t-80.5 -34.5q56 -10 102 -32t86 -60t62.5 -101t22.5 -145q0 -81 -24 -146t-75 -116.5t-140.5 -79.5t-211.5 -28q-183 0 -405 51zM307 76q169 -37 344 -37q109 0 186 23t120 66.5t62 98t19 125.5 q0 161 -87.5 233t-303.5 72h-340v-581zM307 715h340q348 0 348 311q0 147 -85 213t-273 66h-330v-590z" />
<glyph unicode="C" horiz-adv-x="1183" d="M160 676q0 164 26 287t72 202t117.5 127.5t153.5 68t188 19.5q161 0 334 -28l-13 -58q-168 29 -319 29q-99 0 -173.5 -18t-137 -62.5t-101.5 -118t-60.5 -185.5t-21.5 -263q0 -148 22 -259t61.5 -182.5t99.5 -115.5t129 -62t157 -18q181 0 357 33l6 -56 q-157 -34 -363 -34q-98 0 -177 21.5t-146.5 72t-113.5 129.5t-71.5 198t-25.5 273z" />
<glyph unicode="D" horiz-adv-x="1384" d="M256 33v1329h408q285 0 423 -165t138 -519q0 -696 -561 -696q-199 0 -408 51zM317 76q159 -37 347 -37q118 0 206.5 33.5t154.5 106.5t100 198t34 301q0 336 -116 481.5t-379 145.5h-347v-1229z" />
<glyph unicode="E" horiz-adv-x="1136" d="M246 240v1122h733v-57h-672v-568h596v-57h-596v-438q0 -91 51.5 -138t149.5 -47h504v-57h-504q-125 0 -193.5 63.5t-68.5 176.5z" />
<glyph unicode="F" horiz-adv-x="1120" d="M256 0v1362h725v-57h-664v-564h592v-57h-592v-684h-61z" />
<glyph unicode="G" horiz-adv-x="1388" d="M160 682q0 358 133.5 528t429.5 170q206 0 434 -30l-10 -58q-198 31 -424 31q-262 0 -380 -149.5t-118 -491.5q0 -182 30 -306.5t94 -198.5t154 -106t218 -32q206 0 399 37v600h-362v57h426v-700q-218 -51 -463 -51q-140 0 -241 36.5t-174.5 117.5t-109.5 217t-36 329z " />
<glyph unicode="H" horiz-adv-x="1531" d="M256 0v1362h61v-629h897v629h62v-1362h-62v676h-897v-676h-61z" />
<glyph unicode="I" horiz-adv-x="573" d="M256 0v1362h61v-1362h-61z" />
<glyph unicode="J" horiz-adv-x="575" d="M-14 -348q160 138 215 233t55 201v1276h61v-1276q0 -123 -59 -220.5t-238 -260.5z" />
<glyph unicode="K" horiz-adv-x="1171" d="M256 0v1362h61v-809l742 809h71l-555 -606q154 -36 242.5 -116t153.5 -230l180 -410h-66l-172 387q-65 145 -146 219.5t-230 100.5l-220 -230v-477h-61z" />
<glyph unicode="L" horiz-adv-x="1030" d="M256 0v1362h61v-1305h660v-57h-721z" />
<glyph unicode="M" horiz-adv-x="1837" d="M256 0v1362h68l594 -854l593 854h68v-1362h-57v1278l-576 -825h-59l-574 825v-1278h-57z" />
<glyph unicode="N" horiz-adv-x="1542" d="M256 0v1362h61l912 -946v946h57v-1362h-57v336l-916 950v-1286h-57z" />
<glyph unicode="O" horiz-adv-x="1396" d="M160 680q0 155 24 274t68.5 199t112 131t149 73.5t184.5 22.5t184.5 -22.5t149 -73.5t112 -131t69 -199t24.5 -274q0 -153 -24.5 -271t-69 -198.5t-112 -132t-149 -74t-184.5 -22.5t-184.5 22.5t-149 74t-112 132t-68.5 198.5t-24 271zM225 680q0 -178 30 -302.5 t92 -198.5t147 -107t204 -33t204 33t147 107t92 198.5t30 302.5t-30 303t-92 199.5t-147.5 107.5t-203.5 33t-203.5 -33t-147.5 -107.5t-92 -199.5t-30 -303z" />
<glyph unicode="P" horiz-adv-x="1269" d="M256 0v1362h412q241 0 357 -92.5t116 -317.5q0 -216 -118 -319t-370 -103q-143 0 -336 33v-563h-61zM317 621q171 -33 336 -33q122 0 204.5 23t130.5 70.5t68.5 112.5t20.5 158q0 197 -92.5 275t-316.5 78h-351v-684z" />
<glyph unicode="Q" horiz-adv-x="1396" d="M160 680q0 155 24 274t68.5 199t112 131t149 73.5t184.5 22.5t184.5 -22.5t149 -73.5t112 -131t69 -199t24.5 -274q0 -153 -24.5 -271t-69 -198.5t-112 -132t-149 -74t-184.5 -22.5t-184.5 22.5t-149 74t-112 132t-68.5 198.5t-24 271zM225 680q0 -178 30 -302.5 t92 -198.5t147 -107t204 -33t204 33t147 107t92 198.5t30 302.5t-30 303t-92 199.5t-147.5 107.5t-203.5 33t-203.5 -33t-147.5 -107.5t-92 -199.5t-30 -303zM604 -154q76 0 277.5 -57t251.5 -57q60 0 102 18.5t86 61.5l35 -41q-50 -49 -101.5 -72t-121.5 -23 q-60 0 -263 57.5t-266 57.5v55z" />
<glyph unicode="R" horiz-adv-x="1318" d="M256 0v1362h410q119 0 204.5 -19.5t147.5 -65t92.5 -123t30.5 -189.5q0 -95 -24 -166.5t-69.5 -116t-102 -70t-130.5 -37.5q39 -14 68.5 -35.5t54 -57.5t39.5 -64.5t41 -85.5l147 -332h-67l-137 315q-20 45 -32.5 70.5t-35 58.5t-47.5 54q-70 61 -191 61q-159 0 -338 33 v-592h-61zM317 649q165 -33 336 -33q233 0 328.5 84t95.5 265q0 99 -22.5 164t-74 104.5t-126.5 55.5t-188 16h-349v-656z" />
<glyph unicode="S" horiz-adv-x="1093" d="M139 51l11 55q209 -67 419 -67q324 0 324 215q0 68 -40 136t-104 127t-141.5 118t-154.5 117.5t-141 116t-104 122.5t-40 129q0 260 412 260q132 0 327 -30l-10 -56q-185 29 -317 29q-59 0 -105.5 -4t-94 -17t-78.5 -34t-51 -57t-20 -85q0 -58 40 -118.5t104 -115.5 t141 -112.5t154.5 -117.5t141.5 -121t104 -133.5t40 -145.5q0 -75 -30 -130.5t-84 -87.5t-122 -47t-151 -15q-211 0 -430 69z" />
<glyph unicode="T" horiz-adv-x="1138" d="M45 1305v57h1049v-57h-494v-1305h-61v1305h-494z" />
<glyph unicode="U" horiz-adv-x="1433" d="M229 492v870h62v-870q0 -453 438 -453q212 0 408 55v1268h61v-1307q-87 -25 -135 -37t-140 -24t-192 -12q-110 0 -196.5 26.5t-143.5 72.5t-94 111.5t-52.5 139t-15.5 160.5z" />
<glyph unicode="V" horiz-adv-x="1130" d="M8 1362h68l510 -1301q180 354 301 667t176 634h59q-63 -347 -187.5 -666.5t-322.5 -695.5h-63q-89 238 -273 688t-268 674z" />
<glyph unicode="W" horiz-adv-x="1802" d="M37 1362h63l349 -1303l421 1006h76l426 -1008q257 623 338 1305h55q-53 -401 -130 -699t-230 -663h-70l-426 1012l-430 -1012h-69q-78 276 -215.5 783t-157.5 579z" />
<glyph unicode="X" horiz-adv-x="1099" d="M27 0l491 707l-446 655h69l414 -604l428 604h70l-463 -653l481 -709h-72l-446 655l-457 -655h-69z" />
<glyph unicode="Y" horiz-adv-x="956" d="M-10 1362h71l435 -809q146 167 259 381.5t142 427.5h59q-40 -238 -158 -464t-284 -406v-492h-57v489z" />
<glyph unicode="Z" horiz-adv-x="1212" d="M104 0v39l908 1266h-877v57h955v-45l-895 -1260h913v-57h-1004z" />
<glyph unicode="[" horiz-adv-x="622" d="M276 -385v1880h332v-59h-268v-1764h268v-57h-332z" />
<glyph unicode="\" horiz-adv-x="980" d="M98 1495h62l723 -1604h-62z" />
<glyph unicode="]" horiz-adv-x="622" d="M10 -328h269v1764h-269v59h332v-1880h-332v57z" />
<glyph unicode="^" d="M242 739l348 623h57l348 -623h-63l-314 561l-313 -561h-63z" />
<glyph unicode="_" horiz-adv-x="1386" d="M0 -23h1386v-34h-1386v34z" />
<glyph unicode="`" horiz-adv-x="1126" d="M328 1495h67l191 -330h-60z" />
<glyph unicode="a" horiz-adv-x="1024" d="M104 276q0 80 28 136.5t81 87.5t118 44t150 13q127 0 291 -31v162q0 250 -315 250q-127 0 -244 -23l-8 50q107 22 252 22q79 0 143.5 -15.5t117.5 -49t82 -93.5t29 -143v-639q-75 -23 -117.5 -34t-109 -20t-141.5 -9q-106 0 -183.5 27.5t-125.5 94.5t-48 170zM160 274 q0 -241 301 -241q176 0 311 47v397q-163 31 -291 31q-78 0 -133 -10t-99.5 -35.5t-66.5 -72t-22 -116.5z" />
<glyph unicode="b" horiz-adv-x="1144" d="M213 33v1462h55v-557q196 49 324 49q414 0 414 -504q0 -117 -22.5 -205.5t-60 -143.5t-93.5 -89.5t-116 -47.5t-134 -13q-151 0 -367 49zM270 70q166 -37 310 -37q55 0 99 7t87.5 25t75 51.5t56.5 82t37.5 121t12.5 165.5q0 133 -26 224t-76.5 140t-111.5 69t-142 20 q-161 0 -322 -53v-815z" />
<glyph unicode="c" horiz-adv-x="968" d="M137 483q0 116 21 204t57.5 144.5t91.5 91.5t117 49.5t139 14.5q122 0 258 -24l-8 -50q-146 25 -250 25q-88 0 -151.5 -20t-114.5 -69t-76.5 -140t-25.5 -224q0 -134 25.5 -224.5t76 -139t114.5 -68.5t154 -20q109 0 254 33l6 -50q-139 -32 -262 -32q-76 0 -137 14 t-116 49t-92.5 90.5t-59 143t-21.5 202.5z" />
<glyph unicode="d" horiz-adv-x="1142" d="M135 483q0 115 24 204.5t64 145t97 91t117.5 49.5t131.5 14q137 0 301 -45v553h58v-1462q-216 -49 -367 -49q-74 0 -134 13t-116 47.5t-93.5 89.5t-60 143.5t-22.5 205.5zM193 485q0 -93 12.5 -165.5t37.5 -121t56.5 -82t75 -51.5t87.5 -25t99 -7q143 0 309 37v821 q-162 47 -301 47q-65 0 -117.5 -12t-102 -43t-83 -80.5t-53.5 -130.5t-20 -187z" />
<glyph unicode="e" horiz-adv-x="1050" d="M137 485q0 255 103 378.5t309 123.5q181 0 279 -115t98 -321v-49h-731q0 -143 25 -236t80 -144t128 -70t184 -19q129 0 277 35l4 -52q-135 -32 -281 -32q-122 0 -207.5 24.5t-147.5 82t-91 155t-29 239.5zM197 553h671q0 186 -83.5 285.5t-235.5 99.5q-175 0 -259 -96 t-93 -289z" />
<glyph unicode="f" horiz-adv-x="733" d="M98 922v49h170v203q0 321 342 321q94 0 162 -12l-8 -49q-65 12 -154 12q-141 0 -213.5 -60.5t-72.5 -211.5v-203h385v-49h-385v-922h-56v922h-170z" />
<glyph unicode="g" horiz-adv-x="1146" d="M135 483q0 115 24 204.5t64 145t97 91t117.5 49.5t131.5 14q167 0 359 -63v-992q0 -158 -96 -244.5t-283 -86.5q-170 0 -338 53l8 49q174 -53 330 -53q163 0 242 73t79 209v88q-180 -36 -309 -36q-74 0 -134 13t-116 47.5t-93.5 89.5t-60 143.5t-22.5 205.5zM193 485 q0 -93 12.5 -165.5t37.5 -121t56.5 -82t75 -51.5t87.5 -25t99 -7q124 0 309 37v819q-149 49 -301 49q-65 0 -117.5 -12t-102 -43t-83 -80.5t-53.5 -130.5t-20 -187z" />
<glyph unicode="h" horiz-adv-x="1202" d="M221 0v1495h58v-557q192 49 339 49q85 0 152 -16.5t120 -52t82 -97.5t29 -147v-674h-57v670q0 76 -24.5 129.5t-70.5 83t-102 42.5t-129 13q-87 0 -184.5 -17t-154.5 -36v-885h-58z" />
<glyph unicode="i" horiz-adv-x="499" d="M199 1343q0 23 13.5 35.5t37.5 12.5t37.5 -12.5t13.5 -35.5q0 -47 -51 -47t-51 47zM221 0v971h58v-971h-58z" />
<glyph unicode="j" horiz-adv-x="497" d="M-20 -356q69 58 112.5 103t70 82t39 80.5t16 80.5t3.5 100v881h58v-881q0 -87 -7.5 -137.5t-36.5 -107t-78.5 -108.5t-142.5 -134zM199 1343q0 23 13.5 35.5t37.5 12.5t37.5 -12.5t13.5 -35.5q0 -47 -51 -47t-51 47z" />
<glyph unicode="k" horiz-adv-x="1034" d="M221 0v1495h58v-1071l610 547h78l-435 -383q181 -49 291 -271l156 -317h-61l-144 291q-51 105 -112 168t-170 90l-213 -191v-358h-58z" />
<glyph unicode="l" horiz-adv-x="499" d="M221 0v1495h58v-1495h-58z" />
<glyph unicode="m" horiz-adv-x="1822" d="M221 0v922q227 65 383 65q182 0 273 -96q192 96 393 96q77 0 138.5 -16.5t110.5 -52t76 -97.5t27 -147v-674h-57v670q0 268 -295 268q-100 0 -195.5 -27t-165.5 -63q41 -66 41 -174v-674h-57v670q0 268 -291 268q-76 0 -171 -17t-152 -36v-885h-58z" />
<glyph unicode="n" horiz-adv-x="1202" d="M221 0v946q229 64 410 64q401 0 401 -328v-682h-59v672q0 83 -25.5 141t-74 90t-109.5 46t-141 14q-132 0 -344 -54v-909h-58z" />
<glyph unicode="o" horiz-adv-x="1110" d="M135 485q0 261 106.5 381.5t311.5 120.5q207 0 314.5 -120.5t107.5 -381.5t-107 -381t-315 -120q-205 0 -311.5 120t-106.5 381zM193 485q0 -132 25.5 -222.5t75.5 -139.5t112.5 -69.5t148.5 -20.5q68 0 120.5 12t99.5 43t77.5 81.5t48 130t17.5 185.5t-17.5 185.5 t-48 130.5t-77 82t-99.5 43t-121 12q-86 0 -148.5 -20.5t-112.5 -69.5t-75.5 -140t-25.5 -223z" />
<glyph unicode="p" horiz-adv-x="1153" d="M221 -385v1307q216 65 379 65q414 0 414 -504q0 -122 -25 -213.5t-64 -145t-96.5 -86t-113 -43.5t-123.5 -11q-140 0 -313 36v-405h-58zM279 72q11 -2 46.5 -9t50 -9.5t46.5 -7.5t54 -7t53.5 -4t62.5 -2q67 0 117.5 10t98.5 39.5t79.5 78.5t50 131t18.5 193q0 89 -12 160 t-35.5 120t-54.5 83.5t-72.5 53.5t-85 27.5t-96.5 8.5q-160 0 -321 -53v-813z" />
<glyph unicode="q" horiz-adv-x="1153" d="M139 483q0 115 24 204.5t64 145t97 91t117.5 49.5t131.5 14q164 0 359 -63v-1309h-58v405q-180 -36 -309 -36q-74 0 -134 13t-116 47.5t-93.5 89.5t-60 143.5t-22.5 205.5zM197 485q0 -93 12.5 -165.5t37.5 -121t56.5 -82t75 -51.5t87.5 -25t99 -7q124 0 309 37v819 q-149 49 -301 49q-65 0 -117.5 -12t-102 -43t-83 -80.5t-53.5 -130.5t-20 -187z" />
<glyph unicode="r" horiz-adv-x="710" d="M221 0v922q233 65 445 65v-51q-230 0 -387 -53v-883h-58z" />
<glyph unicode="s" horiz-adv-x="894" d="M113 45l10 49q181 -61 350 -61q244 0 244 180q0 55 -33 101.5t-85 79t-115.5 62.5t-127 60.5t-115.5 64t-85 81.5t-33 106q0 219 346 219q157 0 260 -18l-8 -49q-119 18 -250 18q-144 0 -218.5 -37.5t-74.5 -130.5q0 -49 33 -90t85 -71t115.5 -59t127 -61t115.5 -68 t85 -89t33 -117q0 -109 -75 -170t-224 -61q-186 0 -360 61z" />
<glyph unicode="t" horiz-adv-x="727" d="M84 922v49h172l20 301h37v-301h316v-49h-316v-734q0 -155 179 -155q88 0 184 30l6 -49q-88 -30 -190 -30q-104 0 -170 48t-66 156v734h-172z" />
<glyph unicode="u" horiz-adv-x="1163" d="M203 317v654h55v-652q0 -80 25.5 -137.5t70.5 -89t98 -45.5t117 -14q91 0 183 15t141 32v891h55v-924q-187 -63 -379 -63q-78 0 -142.5 19t-115.5 58t-79.5 104t-28.5 152z" />
<glyph unicode="v" horiz-adv-x="917" d="M23 971h59l397 -912q289 549 361 912h55q-88 -422 -393 -971h-56z" />
<glyph unicode="w" horiz-adv-x="1601" d="M43 971h57l312 -901l364 901h66l366 -905q103 209 180.5 445.5t112.5 459.5h58q-49 -262 -123.5 -484.5t-200.5 -486.5h-59l-367 913l-367 -913h-65z" />
<glyph unicode="x" horiz-adv-x="911" d="M37 0l385 502l-369 469h66l336 -424l342 424h63l-371 -467l388 -504h-68l-352 461l-353 -461h-67z" />
<glyph unicode="y" horiz-adv-x="1177" d="M203 330v641h55v-639q0 -79 26 -136t72.5 -88t102 -45t123.5 -14q161 0 323 49v873h58v-1039q0 -158 -96 -244.5t-283 -86.5q-170 0 -338 53l8 49q174 -53 330 -53q163 0 242 73t79 209v115q-174 -47 -323 -47q-83 0 -149.5 17.5t-119.5 55t-81.5 102.5t-28.5 155z" />
<glyph unicode="z" horiz-adv-x="976" d="M94 0v41l711 881h-696v49h772v-41l-709 -881h723v-49h-801z" />
<glyph unicode="{" horiz-adv-x="716" d="M131 526v54q103 3 149 44t46 130q0 70 -22.5 244.5t-22.5 240.5q0 125 60.5 196.5t193.5 71.5q92 0 151 -18l-8 -55q-74 18 -141 18q-112 0 -154.5 -54t-42.5 -159q0 -71 22.5 -249t22.5 -236q0 -91 -34.5 -134t-96.5 -65q62 -22 96.5 -67t34.5 -136q0 -58 -22.5 -236 t-22.5 -249q0 -105 42.5 -159t154.5 -54q67 0 141 18l8 -55q-59 -18 -151 -18q-133 0 -193.5 71.5t-60.5 196.5q0 66 22.5 240.5t22.5 244.5q0 91 -45.5 131t-149.5 43z" />
<glyph unicode="|" horiz-adv-x="600" d="M270 -410v2048h60v-2048h-60z" />
<glyph unicode="}" horiz-adv-x="716" d="M31 -383l8 55q74 -18 141 -18q112 0 154.5 54t42.5 159q0 71 -22.5 249t-22.5 236q0 91 34.5 136t96.5 67q-62 22 -96.5 65t-34.5 134q0 58 22.5 236t22.5 249q0 105 -42.5 159t-154.5 54q-67 0 -141 -18l-8 55q59 18 151 18q133 0 193.5 -71.5t60.5 -196.5 q0 -66 -22.5 -240.5t-22.5 -244.5q0 -89 46 -130t149 -44v-54q-104 -3 -149.5 -43t-45.5 -131q0 -70 22.5 -244.5t22.5 -240.5q0 -125 -60.5 -196.5t-193.5 -71.5q-92 0 -151 18z" />
<glyph unicode="~" d="M139 610q48 133 207 133q64 0 273 -61t270 -61q70 0 106.5 26.5t57.5 77.5l45 -20q-49 -134 -207 -134q-64 0 -273 61.5t-270 61.5q-70 0 -106.5 -26.5t-57.5 -77.5z" />
<glyph unicode="&#xa1;" horiz-adv-x="606" d="M248 936q0 23 15 37t38 14q25 0 41 -14t16 -37q0 -24 -16 -37.5t-41 -13.5q-24 0 -38.5 13.5t-14.5 37.5zM270 -385l4 1096h56l4 -1096h-64z" />
<glyph unicode="&#xa2;" d="M188 672q0 508 451 522v291h61v-291q109 -6 308 -51l-15 -56q-202 52 -329 52q-71 0 -128 -11.5t-112.5 -42.5t-92.5 -82t-60 -135t-23 -196q0 -221 108.5 -340t309.5 -119q157 0 340 66l12 -56q-162 -59 -318 -65v-330h-61v330q-208 10 -329.5 135t-121.5 379z" />
<glyph unicode="&#xa3;" d="M131 0v49q162 112 186 367l27 260h-194v57h200l27 279q8 88 34 153.5t62 106t87 65.5t103.5 34t116.5 9q161 0 297 -34l-10 -60q-135 37 -289 37q-160 0 -240 -69.5t-98 -243.5l-28 -277h544v-57h-550l-27 -268q-23 -234 -154 -351h807v-57h-901z" />
<glyph unicode="&#xa5;" d="M98 1362h68l475 -793l436 793h66l-281 -510h297v-57h-328l-143 -252h471v-58h-487v-485h-62v485h-477v58h459l-150 252h-309v57h275z" />
<glyph unicode="&#xa6;" horiz-adv-x="600" d="M270 -410v822h60v-822h-60zM270 817v821h60v-821h-60z" />
<glyph unicode="&#xa7;" horiz-adv-x="1101" d="M117 -330l10 56q212 -68 420 -68q153 0 238 52.5t85 162.5q0 68 -38 129t-98.5 108.5t-133.5 92.5t-146 89.5t-133.5 90.5t-98.5 104.5t-38 122.5q0 91 56 153.5t145 90.5q-199 133 -199 274q0 63 24.5 109.5t62.5 73t94.5 43t110.5 21.5t120 5q181 0 328 -28l-13 -58 q-46 11 -141 20t-174 9q-60 0 -105.5 -3.5t-93.5 -15t-78.5 -31.5t-50.5 -55t-20 -83q0 -58 38 -111.5t99 -97t134.5 -87t147 -90t134.5 -96t99 -115.5t38 -139q0 -85 -44 -151.5t-114 -100.5q152 -127 152 -266q0 -75 -30.5 -130.5t-85 -87.5t-122 -47t-149.5 -15 q-211 0 -430 69zM248 614q0 -52 29.5 -100t85 -90.5t111.5 -77t134 -81t127 -81.5q66 23 104 80t38 129q0 35 -11.5 69t-27.5 61t-46 57.5t-55 51t-68 49t-70 45t-76.5 45.5t-73.5 44q-83 -15 -142 -67.5t-59 -133.5z" />
<glyph unicode="&#xa8;" horiz-adv-x="1126" d="M342 1341q0 23 13.5 35.5t37.5 12.5t37.5 -12.5t13.5 -35.5q0 -47 -51 -47t-51 47zM682 1343q0 23 13.5 35.5t37.5 12.5t37.5 -12.5t13.5 -35.5q0 -47 -51 -47t-51 47z" />
<glyph unicode="&#xa9;" horiz-adv-x="1660" d="M160 680q0 355 162 528.5t507 173.5q347 0 509.5 -173.5t162.5 -528.5t-162.5 -526.5t-509.5 -171.5q-346 0 -507.5 171.5t-161.5 526.5zM217 680q0 -330 145 -486.5t467 -156.5t468.5 157t146.5 486q0 330 -147 489.5t-468 159.5t-466.5 -159t-145.5 -490zM510 680 q0 383 332 383q106 0 221 -33l-8 -49q-132 31 -215 31q-138 0 -205.5 -78.5t-67.5 -253.5q0 -181 65 -255.5t204 -74.5q86 0 223 35l6 -49q-127 -37 -227 -37q-162 0 -245 90.5t-83 290.5z" />
<glyph unicode="&#xaa;" horiz-adv-x="733" d="M111 936q0 178 233 178q76 0 162 -14v102q0 133 -162 133q-91 0 -184 -26l-6 45q93 26 188 26q98 0 154.5 -43t56.5 -135v-403q-136 -41 -219 -41q-44 0 -82 9t-70.5 28.5t-51.5 55.5t-19 85zM158 936q0 -133 176 -133q86 0 172 26v226q-102 16 -160 16q-41 0 -71.5 -5.5 t-58.5 -19.5t-43 -41.5t-15 -68.5z" />
<glyph unicode="&#xab;" horiz-adv-x="1077" d="M152 555l315 371h70l-314 -371l314 -371h-70zM539 555l315 371h70l-314 -371l314 -371h-70z" />
<glyph unicode="&#xac;" d="M162 831v52h917v-461h-49v409h-868z" />
<glyph unicode="&#xad;" horiz-adv-x="778" d="M139 530v52h500v-52h-500z" />
<glyph unicode="&#xae;" horiz-adv-x="1370" d="M121 858q0 254 141 383t414 129t414 -129t141 -383t-141 -383t-414 -129t-414 129t-141 383zM174 858q0 -465 502 -465t502 465t-502 465t-502 -465zM504 580v579h174q95 0 151 -41.5t56 -126.5q0 -72 -37.5 -111t-95.5 -53q37 -11 58 -37.5t38 -72.5l53 -137h-53 l-51 133q-20 49 -50 72.5t-83 23.5q-63 0 -109 8v-237h-51zM555 864q54 -8 109 -8q70 0 120 31.5t50 101.5q0 123 -156 123h-123v-248z" />
<glyph unicode="&#xaf;" horiz-adv-x="1126" d="M342 1305v49h442v-49h-442z" />
<glyph unicode="&#xb0;" horiz-adv-x="788" d="M154 1149q0 106 65.5 168.5t175.5 62.5t176 -62.5t66 -168.5q0 -107 -65.5 -169t-176.5 -62t-176 62t-65 169zM211 1149q0 -83 49.5 -130.5t134.5 -47.5q86 0 135.5 47.5t49.5 130.5q0 82 -49.5 130t-135.5 48q-85 0 -134.5 -48t-49.5 -130z" />
<glyph unicode="&#xb1;" d="M162 0v51h917v-51h-917zM162 629v51h430v389h53v-389h434v-51h-434v-389h-53v389h-430z" />
<glyph unicode="&#xb2;" horiz-adv-x="675" d="M104 680v41l238 244q92 92 119.5 134.5t27.5 100.5q0 39 -14.5 66.5t-41.5 42t-59 20.5t-73 6q-90 0 -168 -24l-4 49q86 20 170 20q246 0 246 -180q0 -31 -8 -59t-17 -47.5t-37.5 -52.5t-45 -50.5t-64.5 -66.5l-191 -195h373v-49h-451z" />
<glyph unicode="&#xb3;" horiz-adv-x="675" d="M80 682l10 49q95 -29 199 -29q97 0 144.5 38t47.5 134q0 43 -16.5 72.5t-48 45t-68.5 22t-86 6.5h-69v35l264 258h-365v49h430v-49l-254 -248h31q101 0 168.5 -47.5t67.5 -143.5q0 -110 -59 -165.5t-187 -55.5q-103 0 -209 29z" />
<glyph unicode="&#xb4;" horiz-adv-x="1126" d="M449 1165l190 330h68l-199 -330h-59z" />
<glyph unicode="&#xb6;" horiz-adv-x="1280" d="M129 942q0 228 101 324t333 96h205v-1686h-59v816h-142q-245 0 -341.5 99t-96.5 351zM989 -324v1686h62v-1686h-62z" />
<glyph unicode="&#xb7;" horiz-adv-x="563" d="M229 553q0 21 14.5 33t37.5 12q24 0 37.5 -12t13.5 -33q0 -22 -14 -34.5t-37 -12.5q-22 0 -37 13t-15 34z" />
<glyph unicode="&#xb8;" horiz-adv-x="1126" d="M444 -375l11 45q56 -18 104 -18q41 0 61.5 15t20.5 54q0 73 -70 185h58q67 -110 67 -182q0 -119 -137 -119q-60 0 -115 20z" />
<glyph unicode="&#xb9;" horiz-adv-x="600" d="M109 1262v47l210 53h31v-684h-53v633z" />
<glyph unicode="&#xba;" horiz-adv-x="733" d="M98 1059q0 163 72.5 240t198.5 77q124 0 196 -77t72 -240q0 -162 -72 -239t-196 -77q-125 0 -198 77t-73 239zM150 1059q0 -268 217 -268q219 0 219 268q0 270 -219 270q-217 0 -217 -270z" />
<glyph unicode="&#xbb;" horiz-adv-x="1077" d="M152 184l313 371l-313 371h69l316 -371l-316 -371h-69zM541 184l313 371l-313 371h69l316 -371l-316 -371h-69z" />
<glyph unicode="&#xbc;" horiz-adv-x="1597" d="M125 1262v47l211 53h31v-684h-54v633zM285 0l876 1362h60l-879 -1362h-57zM977 174v43l326 485h75v-481h107v-47h-107v-174h-57v174h-344zM1038 221h283v424z" />
<glyph unicode="&#xbd;" horiz-adv-x="1583" d="M125 1262v47l211 53h31v-684h-54v633zM285 0l876 1362h60l-879 -1362h-57zM954 0v41l238 244q92 92 119.5 134.5t27.5 100.5q0 39 -14.5 66.5t-41.5 42t-59 20.5t-73 6q-90 0 -168 -24l-4 49q86 20 170 20q246 0 246 -180q0 -31 -8 -59t-17 -47.5t-37.5 -52.5t-45 -50.5 t-64.5 -66.5l-191 -195h373v-49h-451z" />
<glyph unicode="&#xbe;" horiz-adv-x="1597" d="M74 682l10 49q95 -29 199 -29q97 0 144.5 38t47.5 134q0 43 -16.5 72.5t-48 45t-68.5 22t-86 6.5h-70v35l265 258h-365v49h430v-49l-254 -248h31q101 0 168 -47.5t67 -143.5q0 -110 -58.5 -165.5t-186.5 -55.5q-103 0 -209 29zM365 0l876 1362h59l-878 -1362h-57z M977 174v43l326 485h75v-481h107v-47h-107v-174h-57v174h-344zM1038 221h283v424z" />
<glyph unicode="&#xbf;" horiz-adv-x="739" d="M12 -94q0 61 19 115.5t49.5 95.5t67.5 80.5t74 79.5t67.5 82.5t49.5 100t19 122.5v123h62v-123q0 -70 -19 -131.5t-49.5 -107t-67 -87t-73 -80t-67 -77.5t-49.5 -88.5t-19 -104.5q0 -122 71 -187t215 -65q173 0 328 51l10 -59q-158 -49 -338 -49q-163 0 -256.5 78.5 t-93.5 230.5zM334 936q0 23 15 37t38 14q25 0 41 -14t16 -37q0 -24 -16 -37.5t-41 -13.5q-24 0 -38.5 13.5t-14.5 37.5z" />
<glyph unicode="&#xc0;" horiz-adv-x="1404" d="M227 0v885q0 495 478 495q477 0 477 -495v-885h-62v573h-831v-573h-62zM289 631h831v252q0 78 -11 140.5t-40 120t-75 96t-119.5 61t-169.5 22.5t-169.5 -22.5t-119.5 -61t-75 -95.5t-40.5 -120t-11.5 -141v-252zM477 1876h68l190 -330h-59z" />
<glyph unicode="&#xc1;" horiz-adv-x="1404" d="M227 0v885q0 495 478 495q477 0 477 -495v-885h-62v573h-831v-573h-62zM289 631h831v252q0 78 -11 140.5t-40 120t-75 96t-119.5 61t-169.5 22.5t-169.5 -22.5t-119.5 -61t-75 -95.5t-40.5 -120t-11.5 -141v-252zM668 1546l190 330h68l-199 -330h-59z" />
<glyph unicode="&#xc2;" horiz-adv-x="1404" d="M227 0v885q0 495 478 495q477 0 477 -495v-885h-62v573h-831v-573h-62zM289 631h831v252q0 78 -11 140.5t-40 120t-75 96t-119.5 61t-169.5 22.5t-169.5 -22.5t-119.5 -61t-75 -95.5t-40.5 -120t-11.5 -141v-252zM475 1546l193 330h69l193 -330h-58l-170 281l-170 -281 h-57z" />
<glyph unicode="&#xc3;" horiz-adv-x="1404" d="M227 0v885q0 495 478 495q477 0 477 -495v-885h-62v573h-831v-573h-62zM289 631h831v252q0 78 -11 140.5t-40 120t-75 96t-119.5 61t-169.5 22.5t-169.5 -22.5t-119.5 -61t-75 -95.5t-40.5 -120t-11.5 -141v-252zM426 1655q33 117 143 117q39 0 138.5 -39t132.5 -39 q40 0 59.5 21t30.5 59l51 -17q-33 -117 -143 -117q-39 0 -138.5 39t-132.5 39q-68 0 -90 -80z" />
<glyph unicode="&#xc4;" horiz-adv-x="1404" d="M227 0v885q0 495 478 495q477 0 477 -495v-885h-62v573h-831v-573h-62zM289 631h831v252q0 78 -11 140.5t-40 120t-75 96t-119.5 61t-169.5 22.5t-169.5 -22.5t-119.5 -61t-75 -95.5t-40.5 -120t-11.5 -141v-252zM481 1722q0 47 51 47q24 0 38 -12t14 -35t-14 -35 t-38 -12q-51 0 -51 47zM821 1724q0 23 13.5 35.5t37.5 12.5t38 -12.5t14 -35.5t-14 -35t-38 -12q-51 0 -51 47z" />
<glyph unicode="&#xc5;" horiz-adv-x="1404" d="M227 0v885q0 495 478 495q477 0 477 -495v-885h-62v573h-831v-573h-62zM289 631h831v252q0 78 -11 140.5t-40 120t-75 96t-119.5 61t-169.5 22.5t-169.5 -22.5t-119.5 -61t-75 -95.5t-40.5 -120t-11.5 -141v-252zM528 1712q0 69 47 112.5t127 43.5t127.5 -43.5 t47.5 -112.5t-47.5 -112.5t-127.5 -43.5t-127 43.5t-47 112.5zM580 1712q0 -52 32 -80t90 -28t90.5 28t32.5 80t-32.5 80.5t-90.5 28.5q-57 0 -89.5 -28.5t-32.5 -80.5z" />
<glyph unicode="&#xc6;" horiz-adv-x="2011" d="M227 0v885q0 495 478 495q306 0 415 -213v195h733v-57h-671v-568h596v-57h-596v-438q0 -92 51.5 -138.5t148.5 -46.5h504v-57h-504q-125 0 -193.5 63.5t-68.5 176.5v440h-831v-680h-62zM289 737h831v146q0 78 -11 140.5t-39.5 120t-74 96t-119 61t-171.5 22.5 q-96 0 -169.5 -22.5t-119.5 -61t-75 -95.5t-40.5 -120t-11.5 -141v-146z" />
<glyph unicode="&#xc7;" horiz-adv-x="1183" d="M160 676q0 164 26 287t72 202t117.5 127.5t153.5 68t188 19.5q161 0 334 -28l-13 -58q-168 29 -319 29q-99 0 -173.5 -18t-137 -62.5t-101.5 -118t-60.5 -185.5t-21.5 -263q0 -148 22 -259t61.5 -182.5t99.5 -115.5t129 -62t157 -18q181 0 357 33l6 -56 q-157 -34 -363 -34q-98 0 -177 21.5t-146.5 72t-113.5 129.5t-71.5 198t-25.5 273zM498 -375l10 45q56 -18 104 -18q41 0 61.5 15t20.5 54q0 74 -69 185h57q68 -112 68 -182q0 -119 -138 -119q-59 0 -114 20z" />
<glyph unicode="&#xc8;" horiz-adv-x="1136" d="M246 240v1122h733v-57h-672v-568h596v-57h-596v-438q0 -91 51.5 -138t149.5 -47h504v-57h-504q-125 0 -193.5 63.5t-68.5 176.5zM399 1876h68l190 -330h-59z" />
<glyph unicode="&#xc9;" horiz-adv-x="1136" d="M246 240v1122h733v-57h-672v-568h596v-57h-596v-438q0 -91 51.5 -138t149.5 -47h504v-57h-504q-125 0 -193.5 63.5t-68.5 176.5zM598 1546l190 330h68l-199 -330h-59z" />
<glyph unicode="&#xca;" horiz-adv-x="1136" d="M246 240v1122h733v-57h-672v-568h596v-57h-596v-438q0 -91 51.5 -138t149.5 -47h504v-57h-504q-125 0 -193.5 63.5t-68.5 176.5zM379 1546l192 330h70l193 -330h-58l-170 281l-170 -281h-57z" />
<glyph unicode="&#xcb;" horiz-adv-x="1136" d="M246 240v1122h733v-57h-672v-568h596v-57h-596v-438q0 -91 51.5 -138t149.5 -47h504v-57h-504q-125 0 -193.5 63.5t-68.5 176.5zM387 1726q0 23 13.5 35.5t37.5 12.5t37.5 -12.5t13.5 -35.5q0 -47 -51 -47t-51 47zM727 1729q0 47 51 47t51 -47q0 -23 -13.5 -35.5 t-37.5 -12.5q-51 0 -51 48z" />
<glyph unicode="&#xcc;" horiz-adv-x="573" d="M57 1876h68l190 -330h-59zM256 0v1362h61v-1362h-61z" />
<glyph unicode="&#xcd;" horiz-adv-x="573" d="M256 0v1362h61v-1362h-61zM258 1546l191 330h67l-199 -330h-59z" />
<glyph unicode="&#xce;" horiz-adv-x="573" d="M57 1546l193 330h69l193 -330h-57l-170 281l-170 -281h-58zM256 0v1362h61v-1362h-61z" />
<glyph unicode="&#xcf;" horiz-adv-x="573" d="M63 1726q0 23 14 35.5t38 12.5t37.5 -12.5t13.5 -35.5q0 -47 -51 -47q-52 0 -52 47zM256 0v1362h61v-1362h-61zM403 1729q0 23 14 35t38 12q51 0 51 -47q0 -23 -13.5 -35.5t-37.5 -12.5q-52 0 -52 48z" />
<glyph unicode="&#xd0;" horiz-adv-x="1243" d="M41 676v57h197v629h407q285 0 423 -165t138 -519q0 -696 -561 -696q-198 0 -407 51v643h-197zM299 76q159 -37 346 -37q94 0 169 20.5t137 67.5t103.5 120t64 181.5t22.5 249.5q0 335 -116 481t-380 146h-346v-572h403v-57h-403v-600z" />
<glyph unicode="&#xd1;" horiz-adv-x="1542" d="M256 0v1362h61l912 -946v946h57v-1362h-57v336l-916 950v-1286h-57zM494 1655q33 117 143 117q39 0 138 -39t132 -39q40 0 59.5 21t30.5 59l52 -17q-33 -117 -144 -117q-39 0 -138 39t-132 39q-68 0 -90 -80z" />
<glyph unicode="&#xd2;" horiz-adv-x="1396" d="M160 680q0 155 24 274t68.5 199t112 131t149 73.5t184.5 22.5t184.5 -22.5t149 -73.5t112 -131t69 -199t24.5 -274q0 -153 -24.5 -271t-69 -198.5t-112 -132t-149 -74t-184.5 -22.5t-184.5 22.5t-149 74t-112 132t-68.5 198.5t-24 271zM225 680q0 -178 30 -302.5 t92 -198.5t147 -107t204 -33t204 33t147 107t92 198.5t30 302.5t-30 303t-92 199.5t-147.5 107.5t-203.5 33t-203.5 -33t-147.5 -107.5t-92 -199.5t-30 -303zM469 1876h68l190 -330h-59z" />
<glyph unicode="&#xd3;" horiz-adv-x="1396" d="M160 680q0 155 24 274t68.5 199t112 131t149 73.5t184.5 22.5t184.5 -22.5t149 -73.5t112 -131t69 -199t24.5 -274q0 -153 -24.5 -271t-69 -198.5t-112 -132t-149 -74t-184.5 -22.5t-184.5 22.5t-149 74t-112 132t-68.5 198.5t-24 271zM225 680q0 -178 30 -302.5 t92 -198.5t147 -107t204 -33t204 33t147 107t92 198.5t30 302.5t-30 303t-92 199.5t-147.5 107.5t-203.5 33t-203.5 -33t-147.5 -107.5t-92 -199.5t-30 -303zM664 1546l190 330h68l-199 -330h-59z" />
<glyph unicode="&#xd4;" horiz-adv-x="1396" d="M160 680q0 155 24 274t68.5 199t112 131t149 73.5t184.5 22.5t184.5 -22.5t149 -73.5t112 -131t69 -199t24.5 -274q0 -153 -24.5 -271t-69 -198.5t-112 -132t-149 -74t-184.5 -22.5t-184.5 22.5t-149 74t-112 132t-68.5 198.5t-24 271zM225 680q0 -178 30 -302.5 t92 -198.5t147 -107t204 -33t204 33t147 107t92 198.5t30 302.5t-30 303t-92 199.5t-147.5 107.5t-203.5 33t-203.5 -33t-147.5 -107.5t-92 -199.5t-30 -303zM471 1546l193 330h69l193 -330h-58l-170 281l-170 -281h-57z" />
<glyph unicode="&#xd5;" horiz-adv-x="1396" d="M160 680q0 155 24 274t68.5 199t112 131t149 73.5t184.5 22.5t184.5 -22.5t149 -73.5t112 -131t69 -199t24.5 -274q0 -153 -24.5 -271t-69 -198.5t-112 -132t-149 -74t-184.5 -22.5t-184.5 22.5t-149 74t-112 132t-68.5 198.5t-24 271zM225 680q0 -178 30 -302.5 t92 -198.5t147 -107t204 -33t204 33t147 107t92 198.5t30 302.5t-30 303t-92 199.5t-147.5 107.5t-203.5 33t-203.5 -33t-147.5 -107.5t-92 -199.5t-30 -303zM422 1655q33 117 143 117q39 0 138.5 -39t132.5 -39q40 0 59.5 21t30.5 59l51 -17q-33 -117 -143 -117 q-39 0 -138.5 39t-132.5 39q-68 0 -90 -80z" />
<glyph unicode="&#xd6;" horiz-adv-x="1396" d="M160 680q0 155 24 274t68.5 199t112 131t149 73.5t184.5 22.5t184.5 -22.5t149 -73.5t112 -131t69 -199t24.5 -274q0 -153 -24.5 -271t-69 -198.5t-112 -132t-149 -74t-184.5 -22.5t-184.5 22.5t-149 74t-112 132t-68.5 198.5t-24 271zM225 680q0 -178 30 -302.5 t92 -198.5t147 -107t204 -33t204 33t147 107t92 198.5t30 302.5t-30 303t-92 199.5t-147.5 107.5t-203.5 33t-203.5 -33t-147.5 -107.5t-92 -199.5t-30 -303zM477 1726q0 23 13.5 35.5t37.5 12.5t38 -12.5t14 -35.5t-14 -35t-38 -12q-51 0 -51 47zM817 1729q0 47 51 47 q24 0 38 -12t14 -35t-14 -35.5t-38 -12.5q-51 0 -51 48z" />
<glyph unicode="&#xd7;" d="M209 322l358 333l-358 334l37 37l356 -332l356 332l37 -37l-358 -334l358 -333l-37 -37l-356 331l-356 -331z" />
<glyph unicode="&#xd8;" horiz-adv-x="1396" d="M160 680q0 155 24 274t68.5 199t112 131t149 73.5t184.5 22.5q220 0 346 -106l115 176l47 -33l-119 -184q150 -173 150 -553q0 -153 -24.5 -271t-69 -198.5t-112 -132t-149 -74t-184.5 -22.5q-222 0 -348 106l-114 -178l-48 31l121 188q-149 172 -149 551zM225 680 q0 -345 119 -498l668 1041q-108 100 -314 100q-118 0 -203.5 -33t-147.5 -107.5t-92 -199.5t-30 -303zM383 137q108 -100 315 -100q118 0 203.5 33t147.5 107.5t92 199.5t30 303q0 347 -118 498z" />
<glyph unicode="&#xd9;" horiz-adv-x="1433" d="M229 492v870h62v-870q0 -453 438 -453q212 0 408 55v1268h61v-1307q-87 -25 -135 -37t-140 -24t-192 -12q-110 0 -196.5 26.5t-143.5 72.5t-94 111.5t-52.5 139t-15.5 160.5zM477 1876h68l190 -330h-59z" />
<glyph unicode="&#xda;" horiz-adv-x="1433" d="M229 492v870h62v-870q0 -453 438 -453q212 0 408 55v1268h61v-1307q-87 -25 -135 -37t-140 -24t-192 -12q-110 0 -196.5 26.5t-143.5 72.5t-94 111.5t-52.5 139t-15.5 160.5zM676 1546l190 330h68l-199 -330h-59z" />
<glyph unicode="&#xdb;" horiz-adv-x="1433" d="M229 492v870h62v-870q0 -453 438 -453q212 0 408 55v1268h61v-1307q-87 -25 -135 -37t-140 -24t-192 -12q-110 0 -196.5 26.5t-143.5 72.5t-94 111.5t-52.5 139t-15.5 160.5zM481 1546l193 330h69l193 -330h-57l-170 281l-170 -281h-58z" />
<glyph unicode="&#xdc;" horiz-adv-x="1433" d="M229 492v870h62v-870q0 -453 438 -453q212 0 408 55v1268h61v-1307q-87 -25 -135 -37t-140 -24t-192 -12q-110 0 -196.5 26.5t-143.5 72.5t-94 111.5t-52.5 139t-15.5 160.5zM487 1722q0 23 14 35t38 12q51 0 51 -47t-51 -47q-52 0 -52 47zM827 1724q0 23 14 35.5 t38 12.5t37.5 -12.5t13.5 -35.5q0 -47 -51 -47q-52 0 -52 47z" />
<glyph unicode="&#xdd;" horiz-adv-x="956" d="M-10 1362h71l435 -809q146 167 259 381.5t142 427.5h59q-40 -238 -158 -464t-284 -406v-492h-57v489zM453 1546l190 330h68l-199 -330h-59z" />
<glyph unicode="&#xde;" horiz-adv-x="1269" d="M256 0v1362h61v-248h351q241 0 357 -92t116 -317q0 -216 -118 -319t-370 -103q-149 0 -336 32v-315h-61zM317 373q171 -33 336 -33q121 0 204 23t131 71t68.5 113t20.5 158q0 197 -92.5 274.5t-316.5 77.5h-351v-684z" />
<glyph unicode="&#xdf;" horiz-adv-x="1026" d="M225 0v1178q0 163 79 246t255 83q152 0 244 -74.5t92 -222.5q0 -65 -20.5 -119t-50.5 -88t-66 -68t-66 -60.5t-50.5 -65t-20.5 -82.5q0 -37 22.5 -71.5t59 -63.5t80 -58.5t87.5 -62t80.5 -67.5t59 -81t22.5 -98q0 -130 -82.5 -184.5t-234.5 -56.5q-122 0 -246 32l8 50 q132 -33 238 -33q65 0 109.5 8t81.5 28t55 59.5t18 98.5q0 46 -22.5 86.5t-59 72t-80.5 62t-88 60.5t-80.5 61.5t-59 72t-22.5 85.5t15 82.5t39 64.5t53.5 52t58.5 52t53 57.5t39 75.5t15 99q0 248 -283 248q-154 0 -215 -67.5t-61 -212.5v-1178h-56z" />
<glyph unicode="&#xe0;" horiz-adv-x="1024" d="M104 276q0 80 28 136.5t81 87.5t118 44t150 13q127 0 291 -31v162q0 250 -315 250q-127 0 -244 -23l-8 50q107 22 252 22q79 0 143.5 -15.5t117.5 -49t82 -93.5t29 -143v-639q-75 -23 -117.5 -34t-109 -20t-141.5 -9q-106 0 -183.5 27.5t-125.5 94.5t-48 170zM160 274 q0 -241 301 -241q176 0 311 47v397q-163 31 -291 31q-78 0 -133 -10t-99.5 -35.5t-66.5 -72t-22 -116.5zM276 1495h68l191 -330h-60z" />
<glyph unicode="&#xe1;" horiz-adv-x="1024" d="M104 276q0 80 28 136.5t81 87.5t118 44t150 13q127 0 291 -31v162q0 250 -315 250q-127 0 -244 -23l-8 50q107 22 252 22q79 0 143.5 -15.5t117.5 -49t82 -93.5t29 -143v-639q-75 -23 -117.5 -34t-109 -20t-141.5 -9q-106 0 -183.5 27.5t-125.5 94.5t-48 170zM160 274 q0 -241 301 -241q176 0 311 47v397q-163 31 -291 31q-78 0 -133 -10t-99.5 -35.5t-66.5 -72t-22 -116.5zM471 1165l191 330h67l-199 -330h-59z" />
<glyph unicode="&#xe2;" horiz-adv-x="1024" d="M104 276q0 80 28 136.5t81 87.5t118 44t150 13q127 0 291 -31v162q0 250 -315 250q-127 0 -244 -23l-8 50q107 22 252 22q79 0 143.5 -15.5t117.5 -49t82 -93.5t29 -143v-639q-75 -23 -117.5 -34t-109 -20t-141.5 -9q-106 0 -183.5 27.5t-125.5 94.5t-48 170zM160 274 q0 -241 301 -241q176 0 311 47v397q-163 31 -291 31q-78 0 -133 -10t-99.5 -35.5t-66.5 -72t-22 -116.5zM281 1165l192 330h70l192 -330h-57l-170 281l-170 -281h-57z" />
<glyph unicode="&#xe3;" horiz-adv-x="1024" d="M104 276q0 80 28 136.5t81 87.5t118 44t150 13q127 0 291 -31v162q0 250 -315 250q-127 0 -244 -23l-8 50q107 22 252 22q79 0 143.5 -15.5t117.5 -49t82 -93.5t29 -143v-639q-75 -23 -117.5 -34t-109 -20t-141.5 -9q-106 0 -183.5 27.5t-125.5 94.5t-48 170zM160 274 q0 -241 301 -241q176 0 311 47v397q-163 31 -291 31q-78 0 -133 -10t-99.5 -35.5t-66.5 -72t-22 -116.5zM229 1274q33 117 144 117q39 0 138 -39t132 -39q40 0 59.5 21t30.5 59l51 -17q-33 -116 -143 -116q-39 0 -138 38.5t-132 38.5q-68 0 -90 -80z" />
<glyph unicode="&#xe4;" horiz-adv-x="1024" d="M104 276q0 80 28 136.5t81 87.5t118 44t150 13q127 0 291 -31v162q0 250 -315 250q-127 0 -244 -23l-8 50q107 22 252 22q79 0 143.5 -15.5t117.5 -49t82 -93.5t29 -143v-639q-75 -23 -117.5 -34t-109 -20t-141.5 -9q-106 0 -183.5 27.5t-125.5 94.5t-48 170zM160 274 q0 -241 301 -241q176 0 311 47v397q-163 31 -291 31q-78 0 -133 -10t-99.5 -35.5t-66.5 -72t-22 -116.5zM285 1341q0 23 13.5 35.5t37.5 12.5t37.5 -12.5t13.5 -35.5q0 -47 -51 -47t-51 47zM625 1343q0 23 13.5 35.5t37.5 12.5t37.5 -12.5t13.5 -35.5q0 -47 -51 -47t-51 47z " />
<glyph unicode="&#xe5;" horiz-adv-x="1024" d="M104 276q0 80 28 136.5t81 87.5t118 44t150 13q127 0 291 -31v162q0 250 -315 250q-127 0 -244 -23l-8 50q107 22 252 22q79 0 143.5 -15.5t117.5 -49t82 -93.5t29 -143v-639q-75 -23 -117.5 -34t-109 -20t-141.5 -9q-106 0 -183.5 27.5t-125.5 94.5t-48 170zM160 274 q0 -241 301 -241q176 0 311 47v397q-163 31 -291 31q-78 0 -133 -10t-99.5 -35.5t-66.5 -72t-22 -116.5zM332 1327q0 69 47 112.5t127 43.5t127 -43.5t47 -112.5t-47 -112.5t-127 -43.5t-127 43.5t-47 112.5zM383 1327q0 -52 32.5 -80t90.5 -28t90.5 28t32.5 80t-32.5 80.5 t-90.5 28.5t-90.5 -28.5t-32.5 -80.5z" />
<glyph unicode="&#xe6;" horiz-adv-x="1681" d="M104 272q0 157 97 221t276 64q132 0 295 -31v162q0 250 -315 250q-127 0 -244 -23l-8 50q107 22 252 22q306 0 358 -225q86 225 365 225q181 0 278.5 -115t97.5 -321v-47h-731q0 -115 17.5 -197.5t49 -135.5t84.5 -83.5t116 -42.5t151 -12q129 0 277 35l4 -52 q-135 -32 -281 -32q-268 0 -375 129q-195 -129 -407 -129q-78 0 -140.5 15.5t-112 48.5t-77 90t-27.5 134zM160 274q0 -241 301 -241q102 0 206.5 37.5t170.5 85.5q-60 101 -66 321q-147 31 -293 31q-159 0 -239 -51t-80 -183zM825 553h674q0 186 -83.5 285.5t-235.5 99.5 q-175 0 -260.5 -96t-94.5 -289z" />
<glyph unicode="&#xe7;" horiz-adv-x="968" d="M137 483q0 116 21 204t57.5 144.5t91.5 91.5t117 49.5t139 14.5q122 0 258 -24l-8 -50q-146 25 -250 25q-88 0 -151.5 -20t-114.5 -69t-76.5 -140t-25.5 -224q0 -134 25.5 -224.5t76 -139t114.5 -68.5t154 -20q109 0 254 33l6 -50q-139 -32 -262 -32q-76 0 -137 14 t-116 49t-92.5 90.5t-59 143t-21.5 202.5zM362 -375l11 45q56 -18 104 -18q41 0 61.5 15t20.5 54q0 73 -70 185h58q67 -110 67 -182q0 -119 -137 -119q-60 0 -115 20z" />
<glyph unicode="&#xe8;" horiz-adv-x="1050" d="M137 485q0 255 103 378.5t309 123.5q181 0 279 -115t98 -321v-49h-731q0 -143 25 -236t80 -144t128 -70t184 -19q129 0 277 35l4 -52q-135 -32 -281 -32q-122 0 -207.5 24.5t-147.5 82t-91 155t-29 239.5zM197 553h671q0 186 -83.5 285.5t-235.5 99.5q-175 0 -259 -96 t-93 -289zM303 1495h68l190 -330h-59z" />
<glyph unicode="&#xe9;" horiz-adv-x="1050" d="M137 485q0 255 103 378.5t309 123.5q181 0 279 -115t98 -321v-49h-731q0 -143 25 -236t80 -144t128 -70t184 -19q129 0 277 35l4 -52q-135 -32 -281 -32q-122 0 -207.5 24.5t-147.5 82t-91 155t-29 239.5zM197 553h671q0 186 -83.5 285.5t-235.5 99.5q-175 0 -259 -96 t-93 -289zM492 1165l190 330h68l-199 -330h-59z" />
<glyph unicode="&#xea;" horiz-adv-x="1050" d="M137 485q0 255 103 378.5t309 123.5q181 0 279 -115t98 -321v-49h-731q0 -143 25 -236t80 -144t128 -70t184 -19q129 0 277 35l4 -52q-135 -32 -281 -32q-122 0 -207.5 24.5t-147.5 82t-91 155t-29 239.5zM197 553h671q0 186 -83.5 285.5t-235.5 99.5q-175 0 -259 -96 t-93 -289zM305 1165l193 330h69l193 -330h-58l-170 281l-170 -281h-57z" />
<glyph unicode="&#xeb;" horiz-adv-x="1050" d="M137 485q0 255 103 378.5t309 123.5q181 0 279 -115t98 -321v-49h-731q0 -143 25 -236t80 -144t128 -70t184 -19q129 0 277 35l4 -52q-135 -32 -281 -32q-122 0 -207.5 24.5t-147.5 82t-91 155t-29 239.5zM197 553h671q0 186 -83.5 285.5t-235.5 99.5q-175 0 -259 -96 t-93 -289zM311 1341q0 23 13.5 35.5t37.5 12.5t38 -12.5t14 -35.5t-14 -35t-38 -12q-51 0 -51 47zM651 1343q0 23 13.5 35.5t37.5 12.5t38 -12.5t14 -35.5t-14 -35t-38 -12q-51 0 -51 47z" />
<glyph unicode="&#xec;" horiz-adv-x="499" d="M23 1495h67l191 -330h-60zM221 0v971h58v-971h-58z" />
<glyph unicode="&#xed;" horiz-adv-x="499" d="M221 0v971h58v-971h-58zM221 1165l191 330h67l-198 -330h-60z" />
<glyph unicode="&#xee;" horiz-adv-x="499" d="M20 1165l193 330h70l192 -330h-57l-170 281l-170 -281h-58zM221 0v971h58v-971h-58z" />
<glyph unicode="&#xef;" horiz-adv-x="499" d="M29 1341q0 23 13.5 35.5t37.5 12.5t37.5 -12.5t13.5 -35.5q0 -47 -51 -47t-51 47zM221 0v971h58v-971h-58zM369 1343q0 23 13.5 35.5t37.5 12.5t37.5 -12.5t13.5 -35.5q0 -47 -51 -47t-51 47z" />
<glyph unicode="&#xf0;" horiz-adv-x="1075" d="M137 485q0 261 106.5 381.5t311.5 120.5q240 0 336 -153q-50 254 -137 407l-361 -67v51l336 59q-61 103 -162 211h68q73 -80 149 -199l195 39v-51l-170 -33q80 -156 124 -356.5t44 -409.5q-3 -266 -109.5 -383.5t-312.5 -117.5q-205 0 -311.5 120t-106.5 381zM195 485 q0 -132 25.5 -222.5t75.5 -139.5t112.5 -69.5t148.5 -20.5q68 0 120.5 12t99.5 43t77.5 81.5t48 130t17.5 185.5t-17.5 185.5t-48 130.5t-77 82t-99.5 43t-121 12q-86 0 -148.5 -20.5t-112.5 -69.5t-75.5 -140t-25.5 -223z" />
<glyph unicode="&#xf1;" horiz-adv-x="1202" d="M221 0v922q229 65 397 65q85 0 152 -16.5t120 -52t82 -97.5t29 -147v-674h-57v670q0 76 -24.5 129.5t-70.5 83t-102 42.5t-129 13q-88 0 -185 -16.5t-154 -36.5v-885h-58zM340 1274q33 117 143 117q39 0 138.5 -39t132.5 -39q40 0 59.5 21t30.5 59l51 -17 q-33 -116 -143 -116q-39 0 -138.5 38.5t-132.5 38.5q-68 0 -90 -80z" />
<glyph unicode="&#xf2;" horiz-adv-x="1110" d="M135 485q0 261 106.5 381.5t311.5 120.5q207 0 314.5 -120.5t107.5 -381.5t-107 -381t-315 -120q-205 0 -311.5 120t-106.5 381zM193 485q0 -132 25.5 -222.5t75.5 -139.5t112.5 -69.5t148.5 -20.5q68 0 120.5 12t99.5 43t77.5 81.5t48 130t17.5 185.5t-17.5 185.5 t-48 130.5t-77 82t-99.5 43t-121 12q-86 0 -148.5 -20.5t-112.5 -69.5t-75.5 -140t-25.5 -223zM326 1495h67l191 -330h-60z" />
<glyph unicode="&#xf3;" horiz-adv-x="1110" d="M135 485q0 261 106.5 381.5t311.5 120.5q207 0 314.5 -120.5t107.5 -381.5t-107 -381t-315 -120q-205 0 -311.5 120t-106.5 381zM193 485q0 -132 25.5 -222.5t75.5 -139.5t112.5 -69.5t148.5 -20.5q68 0 120.5 12t99.5 43t77.5 81.5t48 130t17.5 185.5t-17.5 185.5 t-48 130.5t-77 82t-99.5 43t-121 12q-86 0 -148.5 -20.5t-112.5 -69.5t-75.5 -140t-25.5 -223zM520 1165l191 330h67l-198 -330h-60z" />
<glyph unicode="&#xf4;" horiz-adv-x="1110" d="M135 485q0 261 106.5 381.5t311.5 120.5q207 0 314.5 -120.5t107.5 -381.5t-107 -381t-315 -120q-205 0 -311.5 120t-106.5 381zM193 485q0 -132 25.5 -222.5t75.5 -139.5t112.5 -69.5t148.5 -20.5q68 0 120.5 12t99.5 43t77.5 81.5t48 130t17.5 185.5t-17.5 185.5 t-48 130.5t-77 82t-99.5 43t-121 12q-86 0 -148.5 -20.5t-112.5 -69.5t-75.5 -140t-25.5 -223zM322 1165l192 330h70l192 -330h-57l-170 281l-170 -281h-57z" />
<glyph unicode="&#xf5;" horiz-adv-x="1110" d="M135 485q0 261 106.5 381.5t311.5 120.5q207 0 314.5 -120.5t107.5 -381.5t-107 -381t-315 -120q-205 0 -311.5 120t-106.5 381zM193 485q0 -132 25.5 -222.5t75.5 -139.5t112.5 -69.5t148.5 -20.5q68 0 120.5 12t99.5 43t77.5 81.5t48 130t17.5 185.5t-17.5 185.5 t-48 130.5t-77 82t-99.5 43t-121 12q-86 0 -148.5 -20.5t-112.5 -69.5t-75.5 -140t-25.5 -223zM272 1274q33 117 144 117q39 0 138 -39t132 -39q40 0 59.5 21t30.5 59l51 -17q-33 -116 -143 -116q-39 0 -138 38.5t-132 38.5q-68 0 -90 -80z" />
<glyph unicode="&#xf6;" horiz-adv-x="1110" d="M135 485q0 261 106.5 381.5t311.5 120.5q207 0 314.5 -120.5t107.5 -381.5t-107 -381t-315 -120q-205 0 -311.5 120t-106.5 381zM193 485q0 -132 25.5 -222.5t75.5 -139.5t112.5 -69.5t148.5 -20.5q68 0 120.5 12t99.5 43t77.5 81.5t48 130t17.5 185.5t-17.5 185.5 t-48 130.5t-77 82t-99.5 43t-121 12q-86 0 -148.5 -20.5t-112.5 -69.5t-75.5 -140t-25.5 -223zM328 1341q0 23 13.5 35.5t37.5 12.5t37.5 -12.5t13.5 -35.5q0 -47 -51 -47t-51 47zM668 1343q0 23 13.5 35.5t37.5 12.5t37.5 -12.5t13.5 -35.5q0 -47 -51 -47t-51 47z" />
<glyph unicode="&#xf7;" d="M162 629v51h917v-51h-917zM571 322q0 27 17 42t43 15q28 0 44.5 -15t16.5 -42q0 -28 -16.5 -45t-44.5 -17q-25 0 -42.5 17.5t-17.5 44.5zM571 991q0 27 17 42.5t43 15.5q28 0 44.5 -15.5t16.5 -42.5q0 -28 -16.5 -44.5t-44.5 -16.5q-25 0 -42.5 17t-17.5 44z" />
<glyph unicode="&#xf8;" horiz-adv-x="1110" d="M135 483q0 261 106.5 381.5t311.5 120.5q151 0 248 -63l100 163l43 -24l-102 -170q133 -121 133 -408q0 -261 -107 -381t-315 -120q-140 0 -234 55l-114 -189l-45 25l116 193q-141 120 -141 417zM193 483q0 -269 112 -372l471 770q-79 55 -221 55q-86 0 -148.5 -20.5 t-112.5 -69.5t-75.5 -140t-25.5 -223zM344 78q77 -47 211 -47q68 0 120.5 12t99.5 43t77.5 81.5t48 130t17.5 185.5q0 257 -105 365z" />
<glyph unicode="&#xf9;" horiz-adv-x="1163" d="M203 317v654h55v-652q0 -80 25.5 -137.5t70.5 -89t98 -45.5t117 -14q91 0 183 15t141 32v891h55v-924q-187 -63 -379 -63q-78 0 -142.5 19t-115.5 58t-79.5 104t-28.5 152zM342 1495h68l190 -330h-59z" />
<glyph unicode="&#xfa;" horiz-adv-x="1163" d="M203 317v654h55v-652q0 -80 25.5 -137.5t70.5 -89t98 -45.5t117 -14q91 0 183 15t141 32v891h55v-924q-187 -63 -379 -63q-78 0 -142.5 19t-115.5 58t-79.5 104t-28.5 152zM537 1165l190 330h68l-199 -330h-59z" />
<glyph unicode="&#xfb;" horiz-adv-x="1163" d="M203 317v654h55v-652q0 -80 25.5 -137.5t70.5 -89t98 -45.5t117 -14q91 0 183 15t141 32v891h55v-924q-187 -63 -379 -63q-78 0 -142.5 19t-115.5 58t-79.5 104t-28.5 152zM346 1165l193 330h69l193 -330h-58l-170 281l-170 -281h-57z" />
<glyph unicode="&#xfc;" horiz-adv-x="1163" d="M203 317v654h55v-652q0 -80 25.5 -137.5t70.5 -89t98 -45.5t117 -14q91 0 183 15t141 32v891h55v-924q-187 -63 -379 -63q-78 0 -142.5 19t-115.5 58t-79.5 104t-28.5 152zM354 1341q0 23 14 35.5t38 12.5t37.5 -12.5t13.5 -35.5q0 -47 -51 -47q-52 0 -52 47zM694 1343 q0 23 13.5 35.5t37.5 12.5t38 -12.5t14 -35.5t-14 -35t-38 -12q-51 0 -51 47z" />
<glyph unicode="&#xfd;" horiz-adv-x="1177" d="M203 330v641h55v-639q0 -79 26 -136t72.5 -88t102 -45t123.5 -14q161 0 323 49v873h58v-1039q0 -158 -96 -244.5t-283 -86.5q-170 0 -338 53l8 49q174 -53 330 -53q163 0 242 73t79 209v115q-174 -47 -323 -47q-83 0 -149.5 17.5t-119.5 55t-81.5 102.5t-28.5 155z M569 1165l191 330h67l-198 -330h-60z" />
<glyph unicode="&#xfe;" horiz-adv-x="1153" d="M221 -385v1880h58v-557q179 49 321 49q414 0 414 -504q0 -122 -25 -213.5t-64 -145t-96.5 -86t-113 -43.5t-123.5 -11q-140 0 -313 36v-405h-58zM279 72q11 -2 46.5 -9t50 -9.5t46.5 -7.5t54 -7t53.5 -4t62.5 -2q67 0 117.5 10t98.5 39.5t79.5 78.5t50 131t18.5 193 q0 89 -12 160t-35.5 120t-54.5 83.5t-72.5 53.5t-85 27.5t-96.5 8.5q-160 0 -321 -53v-813z" />
<glyph unicode="&#xff;" horiz-adv-x="1177" d="M203 330v641h55v-639q0 -79 26 -136t72.5 -88t102 -45t123.5 -14q161 0 323 49v873h58v-1039q0 -158 -96 -244.5t-283 -86.5q-170 0 -338 53l8 49q174 -53 330 -53q163 0 242 73t79 209v115q-174 -47 -323 -47q-83 0 -149.5 17.5t-119.5 55t-81.5 102.5t-28.5 155z M358 1341q0 23 14 35.5t38 12.5t37.5 -12.5t13.5 -35.5q0 -47 -51 -47q-52 0 -52 47zM698 1343q0 23 14 35.5t38 12.5t37.5 -12.5t13.5 -35.5q0 -47 -51 -47q-52 0 -52 47z" />
<glyph unicode="&#x152;" horiz-adv-x="2062" d="M160 680q0 155 24 274t68.5 199t112 131t149 73.5t184.5 22.5q179 0 297 -73t176 -236v291h734v-57h-672v-568h596v-57h-596v-438q0 -91 51.5 -138t149.5 -47h503v-57h-503q-125 0 -194 63.5t-69 176.5v53q-58 -164 -176.5 -237.5t-296.5 -73.5q-103 0 -184.5 22.5 t-149 74t-112 132t-68.5 198.5t-24 271zM225 680q0 -178 30 -302.5t92 -198.5t147 -107t204 -33t204 33t147 107t92 198.5t30 302.5t-30 303t-92 199.5t-147.5 107.5t-203.5 33t-203.5 -33t-147.5 -107.5t-92 -199.5t-30 -303z" />
<glyph unicode="&#x153;" horiz-adv-x="1826" d="M135 485q0 261 106.5 381.5t311.5 120.5q157 0 254.5 -68t134.5 -214q76 282 383 282q181 0 279 -115t98 -321v-49h-731q0 -143 25 -236t80.5 -144t128.5 -70t184 -19q129 0 276 35l4 -52q-135 -32 -280 -32q-191 0 -299 63.5t-148 216.5q-37 -146 -134.5 -213 t-254.5 -67q-205 0 -311.5 120t-106.5 381zM193 485q0 -132 25.5 -222.5t75.5 -139.5t112.5 -69.5t148.5 -20.5q68 0 120.5 12t99.5 43t77.5 81.5t48 130t17.5 185.5t-17.5 185.5t-48 130.5t-77 82t-99.5 43t-121 12q-86 0 -148.5 -20.5t-112.5 -69.5t-75.5 -140t-25.5 -223 zM973 553h672q0 186 -84 285.5t-236 99.5q-175 0 -259 -96t-93 -289z" />
<glyph unicode="&#x178;" horiz-adv-x="956" d="M-10 1362h71l435 -809q146 167 259 381.5t142 427.5h59q-40 -238 -158 -464t-284 -406v-492h-57v489zM293 1722q0 47 51 47t51 -47t-51 -47t-51 47zM633 1724q0 23 13.5 35.5t37.5 12.5t37.5 -12.5t13.5 -35.5q0 -47 -51 -47t-51 47z" />
<glyph unicode="&#x2c6;" horiz-adv-x="1126" d="M336 1165l192 330h70l193 -330h-58l-170 281l-170 -281h-57z" />
<glyph unicode="&#x2dc;" horiz-adv-x="1126" d="M285 1274q33 117 143 117q39 0 138 -39t132 -39q40 0 59.5 21t30.5 59l52 -17q-33 -116 -144 -116q-39 0 -138 38.5t-132 38.5q-68 0 -90 -80z" />
<glyph unicode="&#x2000;" horiz-adv-x="938" />
<glyph unicode="&#x2001;" horiz-adv-x="1876" />
<glyph unicode="&#x2002;" horiz-adv-x="938" />
<glyph unicode="&#x2003;" horiz-adv-x="1876" />
<glyph unicode="&#x2004;" horiz-adv-x="625" />
<glyph unicode="&#x2005;" horiz-adv-x="469" />
<glyph unicode="&#x2006;" horiz-adv-x="312" />
<glyph unicode="&#x2007;" horiz-adv-x="312" />
<glyph unicode="&#x2008;" horiz-adv-x="234" />
<glyph unicode="&#x2009;" horiz-adv-x="375" />
<glyph unicode="&#x200a;" horiz-adv-x="104" />
<glyph unicode="&#x2010;" horiz-adv-x="778" d="M139 530v52h500v-52h-500z" />
<glyph unicode="&#x2011;" horiz-adv-x="778" d="M139 530v52h500v-52h-500z" />
<glyph unicode="&#x2012;" horiz-adv-x="778" d="M139 530v52h500v-52h-500z" />
<glyph unicode="&#x2013;" horiz-adv-x="1177" d="M139 530v52h897v-52h-897z" />
<glyph unicode="&#x2014;" horiz-adv-x="1634" d="M139 530v52h1356v-52h-1356z" />
<glyph unicode="&#x2018;" horiz-adv-x="634" d="M197 926l170 436h71l-176 -436h-65z" />
<glyph unicode="&#x2019;" horiz-adv-x="634" d="M197 926l170 436h71l-176 -436h-65z" />
<glyph unicode="&#x201a;" horiz-adv-x="634" d="M197 -328l170 437h71l-176 -437h-65z" />
<glyph unicode="&#x201c;" horiz-adv-x="991" d="M182 926l170 436h66l-164 -436h-72zM586 926l155 436h66l-150 -436h-71z" />
<glyph unicode="&#x201d;" horiz-adv-x="991" d="M182 926l150 436h71l-155 -436h-66zM571 926l164 436h72l-170 -436h-66z" />
<glyph unicode="&#x201e;" horiz-adv-x="999" d="M186 -328l150 437h72l-156 -437h-66zM575 -328l164 437h72l-170 -437h-66z" />
<glyph unicode="&#x2022;" horiz-adv-x="788" d="M256 555q0 57 38.5 91t100.5 34q60 0 97.5 -34t37.5 -91q0 -56 -37.5 -91.5t-97.5 -35.5q-61 0 -100 35.5t-39 91.5z" />
<glyph unicode="&#x2026;" horiz-adv-x="1763" d="M229 31q0 21 14.5 33t37.5 12q24 0 37.5 -12t13.5 -33q0 -22 -14 -34.5t-37 -12.5q-22 0 -37 13t-15 34zM829 31q0 21 14.5 33t37.5 12q49 0 49 -45q0 -22 -13 -34.5t-36 -12.5q-22 0 -37 13t-15 34zM1432 31q0 21 14.5 33t36.5 12q49 0 49 -45q0 -22 -13 -34.5 t-36 -12.5q-22 0 -36.5 13t-14.5 34z" />
<glyph unicode="&#x202f;" horiz-adv-x="375" />
<glyph unicode="&#x2039;" horiz-adv-x="690" d="M152 555l315 371h70l-314 -371l314 -371h-70z" />
<glyph unicode="&#x203a;" horiz-adv-x="690" d="M152 184l313 371l-313 371h69l316 -371l-316 -371h-69z" />
<glyph unicode="&#x205f;" horiz-adv-x="469" />
<glyph unicode="&#x20ac;" d="M82 451v57h207q-8 102 -8 168q0 38 4 112h-203v58h207q13 154 51.5 259t105 165t151 85t200.5 25q107 0 274 -26l-12 -58q-170 27 -262 27q-145 0 -234 -41.5t-142 -146.5t-67 -289h604l-28 -58h-580q-4 -74 -4 -112q0 -66 8 -168h480l-27 -57h-447q14 -118 47.5 -199 t87 -127t120.5 -66t157 -20q112 0 303 33l6 -58q-178 -32 -309 -32q-206 0 -323.5 108t-151.5 361h-215z" />
<glyph unicode="&#x2122;" horiz-adv-x="1609" d="M96 1311v51h479v-51h-210v-561h-56v561h-213zM745 750v612h62l272 -432l273 432h61v-612h-55v528l-252 -399h-53l-252 399v-528h-56z" />
<glyph unicode="&#x25fc;" horiz-adv-x="972" d="M0 0v973h973v-973h-973z" />
</font>
</defs>
</svg>
