<?xml version="1.0" standalone="no"?>
<!DOCTYPE svg PUBLIC "-//W3C//DTD SVG 1.1//EN" "http://www.w3.org/Graphics/SVG/1.1/DTD/svg11.dtd" >
<svg xmlns="http://www.w3.org/2000/svg">
<metadata></metadata>
<defs>
<font id="3dsextralight_italic" horiz-adv-x="1177" >
<font-face units-per-em="2048" ascent="1638" descent="-410" />
<missing-glyph horiz-adv-x="477" />
<glyph unicode="&#xfb01;" horiz-adv-x="1087" d="M-53 -354q74 44 126 87t84 79.5t54.5 86t33.5 88t25 103.5l176 832h-159l10 49h160l43 203q36 172 136 246.5t255 74.5q57 0 131.5 -10t118.5 -23l-11 -49q-118 33 -243 33q-131 0 -214.5 -61t-115.5 -211l-43 -203h535l-164 -785q-6 -30 -6 -57q0 -49 23.5 -72.5 t78.5 -23.5q52 0 129 30v-51q-72 -28 -135 -28q-78 0 -116 39t-38 104q0 31 6 61l154 734h-477l-176 -832q-15 -73 -28.5 -117.5t-38 -96.5t-60 -92t-91.5 -86t-137 -97z" />
<glyph unicode="&#xfb02;" horiz-adv-x="1216" d="M-53 -354q74 44 126 87t84 79.5t54.5 86t33.5 88t25 103.5l176 832h-159l10 49h160l43 203q36 172 136 246.5t255 74.5q57 0 136.5 -10.5t125.5 -24.5l-270 -1280q-4 -28 -4 -39q0 -110 143 -110q73 0 162 26v-47q-80 -26 -164 -26q-87 0 -144 37t-57 122q0 23 6 47 l262 1233q-105 23 -200 23q-131 0 -214.5 -61t-115.5 -211l-43 -203h309l-10 -49h-309l-176 -832q-15 -73 -28.5 -117.5t-38 -96.5t-60 -92t-91.5 -86t-137 -97z" />
<glyph horiz-adv-x="0" />
<glyph horiz-adv-x="0" />
<glyph horiz-adv-x="682" />
<glyph unicode="&#xd;" horiz-adv-x="477" />
<glyph unicode=" "  horiz-adv-x="477" />
<glyph unicode="&#x09;" horiz-adv-x="477" />
<glyph unicode="&#xa0;" horiz-adv-x="477" />
<glyph unicode="!" horiz-adv-x="575" d="M240 20q0 30 19.5 48t49.5 18q43 0 43 -37q0 -29 -19 -47t-46 -18q-47 0 -47 36zM315 272l230 1090h61l-231 -1090h-60z" />
<glyph unicode="&#x22;" horiz-adv-x="860" d="M457 926l92 436h61l-92 -436h-61zM725 926l92 436h62l-93 -436h-61z" />
<glyph unicode="#" horiz-adv-x="1390" d="M256 449l10 55h301l62 364h-301l6 56h301l76 438h61l-76 -438h357l77 438h60l-76 -438h303l-6 -56h-303l-61 -364h303l-11 -55h-303l-73 -449h-62l76 449h-359l-73 -449h-62l74 449h-301zM629 504h356l64 364h-359z" />
<glyph unicode="$" d="M225 133l19 55q68 -35 174.5 -59.5t214.5 -24.5q379 0 379 246q0 53 -31.5 106t-82.5 97.5t-112 88.5l-122 88t-112 87.5t-82.5 95t-31.5 103.5q0 262 428 276l41 193h64l-43 -195q129 -3 268 -30l-16 -58q-46 12 -138.5 23.5t-156.5 11.5q-69 0 -130 -9t-122.5 -30 t-98 -64.5t-36.5 -105.5q0 -45 31.5 -92t82 -88.5t111.5 -85t122.5 -89.5t112 -93.5t82 -105.5t31.5 -118q0 -290 -414 -309l-47 -221h-63l47 221q-97 4 -204 29.5t-165 56.5z" />
<glyph unicode="%" horiz-adv-x="1673" d="M334 911q0 59 14 125q75 346 350 346q103 0 163.5 -57.5t60.5 -175.5q0 -55 -15 -125q-38 -181 -129.5 -263.5t-220.5 -82.5q-103 0 -163 57.5t-60 175.5zM387 0l1122 1362h68l-1124 -1362h-66zM389 909q0 -97 45.5 -138.5t128.5 -41.5q106 0 180 68.5t109 232.5 q14 66 14 123q0 178 -174 178q-226 0 -289 -301q-14 -66 -14 -121zM1044 221q0 55 15 125q75 346 350 346q103 0 163 -57.5t60 -175.5q0 -59 -14 -125q-38 -181 -129.5 -263.5t-220.5 -82.5q-103 0 -163.5 57.5t-60.5 175.5zM1100 219q0 -97 45.5 -138.5t128.5 -41.5 q106 0 180 68.5t109 232.5q14 66 14 123q0 178 -174 178q-226 0 -289 -301q-14 -66 -14 -121z" />
<glyph unicode="&#x26;" horiz-adv-x="1097" d="M190 256q0 92 29.5 167t88 134t125 102t161.5 89q-58 96 -88.5 169t-30.5 148q0 99 47.5 172.5t121.5 109t161 35.5q116 0 177.5 -51.5t61.5 -152.5q0 -62 -23 -119.5t-55.5 -99.5t-87 -86.5t-99 -73t-109.5 -66.5l291 -495q100 100 174 221l47 -29q-47 -76 -89.5 -129.5 t-105.5 -112.5l119 -188h-64l-92 150q-218 -168 -432 -168q-154 0 -241 73.5t-87 200.5zM250 262q0 -107 75.5 -165t206.5 -58q183 0 388 158l-295 510q-63 -34 -104.5 -58.5t-89 -57.5t-77 -65t-55.5 -72.5t-37.5 -88t-11.5 -103.5zM535 1065q0 -94 75 -231l31 -56 q67 37 109.5 63.5t91 65.5t75.5 76t45.5 86.5t18.5 106.5q0 147 -182 147q-112 0 -188 -71t-76 -187z" />
<glyph unicode="'" horiz-adv-x="602" d="M467 926l92 436h62l-93 -436h-61z" />
<glyph unicode="(" horiz-adv-x="571" d="M242 291q0 240 66.5 451t185.5 388t305 363h73q-173 -186 -246 -279q-222 -282 -290 -590q-35 -158 -35 -333q0 -378 178 -676h-63q-174 309 -174 676z" />
<glyph unicode=")" horiz-adv-x="571" d="M-74 -385q173 186 245 277q221 281 291 587q36 160 36 338q0 377 -179 676h64q174 -309 174 -676q0 -240 -66.5 -451t-185.5 -388t-305 -363h-74z" />
<glyph unicode="*" horiz-adv-x="800" d="M336 1141l22 49l248 -74l56 246h55l-51 -246l272 74l10 -49l-274 -72l129 -203l-47 -39l-131 211l-224 -211l-39 39l218 203z" />
<glyph unicode="+" d="M289 629v51h409v389h54v-389h413v-51h-413v-389h-54v389h-409z" />
<glyph unicode="," horiz-adv-x="534" d="M51 -272l228 346h73l-233 -346h-68z" />
<glyph unicode="-" horiz-adv-x="739" d="M244 530l10 52h477l-10 -52h-477z" />
<glyph unicode="." horiz-adv-x="534" d="M219 20q0 25 19.5 40.5t44.5 15.5q41 0 41 -35q0 -25 -18 -41t-44 -16q-19 0 -31 9.5t-12 26.5z" />
<glyph unicode="/" horiz-adv-x="931" d="M74 -109l1028 1604h74l-1035 -1604h-67z" />
<glyph unicode="0" d="M248 352q0 162 39 338q55 255 135 407t188 217.5t262 65.5q172 0 256 -85t84 -279q0 -139 -41 -338q-54 -257 -133.5 -410t-187.5 -219.5t-262 -66.5q-173 0 -256.5 86t-83.5 284zM309 350q0 -164 70 -237.5t215 -73.5q202 0 321 146.5t193 498.5q41 191 41 336 q0 161 -69 232t-214 71q-203 0 -322 -144t-194 -495q-41 -191 -41 -334z" />
<glyph unicode="1" d="M580 1208l12 62l340 92h47l-289 -1362h-63l274 1298z" />
<glyph unicode="2" d="M150 0v49l507 445q27 24 92.5 78t103.5 86.5t93 91t85 108t53.5 118t23.5 140.5q0 111 -81 159t-230 48q-127 0 -322 -39l6 59q60 14 155.5 25.5t166.5 11.5q170 0 268 -64.5t98 -197.5q0 -59 -13.5 -115t-34 -101.5t-54 -93t-65 -83t-76.5 -77.5t-78.5 -69.5t-81 -67 t-74.5 -62.5l-452 -396h721l-11 -53h-800z" />
<glyph unicode="3" d="M166 16l10 56q143 -33 326 -33q101 0 175.5 15.5t138 54t105.5 109t64 175.5q12 61 12 107q0 68 -24.5 113t-70.5 67t-96 30.5t-118 8.5h-143l8 51l569 535h-684l13 57h768v-43l-580 -543h53q80 0 141 -11.5t114.5 -40.5t82.5 -85t29 -137q0 -60 -10 -109 q-22 -119 -71.5 -201t-124 -127t-161 -64t-198.5 -19q-171 0 -328 34z" />
<glyph unicode="4" d="M182 385v41l912 936h77l-196 -920h209l-13 -57h-208l-80 -385h-64l80 385h-717zM274 442h637l179 840z" />
<glyph unicode="5" d="M229 16l15 56q159 -33 309 -33q93 0 161 15.5t129.5 55t104 115t66.5 189.5q16 85 16 139q0 131 -73.5 180t-221.5 49q-68 0 -158 -11t-147 -28l-24 31l174 588h661l-12 -57h-606l-144 -494q118 29 262 29q173 0 263 -66t90 -219q0 -53 -17 -143q-20 -102 -56.5 -177.5 t-83.5 -123.5t-110.5 -77t-130 -40.5t-149.5 -11.5q-164 0 -318 34z" />
<glyph unicode="6" d="M281 354q0 155 34 320q31 161 76 282t101 201.5t128.5 130.5t153 71t180.5 21q162 0 312 -28l-15 -60q-145 31 -303 31q-146 0 -248 -54t-179 -185t-126 -353q234 70 379 70q344 0 344 -273q0 -236 -141 -391t-352 -155q-184 0 -264 93t-80 279zM342 346 q0 -150 64.5 -228.5t220.5 -78.5q83 0 160 33.5t137 94.5t95.5 155.5t35.5 207.5t-71.5 163t-217.5 50q-175 0 -387 -75q-37 -191 -37 -322z" />
<glyph unicode="7" d="M274 0l949 1305h-752l12 57h817v-47l-952 -1315h-74z" />
<glyph unicode="8" d="M244 266q0 45 8 84q16 87 53.5 156t87.5 112t103 68.5t108 34.5q-81 24 -131.5 83t-50.5 159q0 40 8 79q29 151 152 244.5t313 93.5q165 0 253.5 -72t88.5 -192q0 -41 -8 -74q-30 -138 -116 -220t-198 -109q87 -15 147 -81.5t60 -185.5q0 -38 -10 -96 q-31 -167 -159.5 -267.5t-342.5 -100.5q-185 0 -275.5 75.5t-90.5 208.5zM305 264q0 -110 79 -167.5t232 -57.5q181 0 290 79t141 230q12 55 12 103q0 237 -305 237q-368 0 -439 -340q-10 -52 -10 -84zM485 963q0 -109 74.5 -163.5t206.5 -54.5q154 0 259 73.5t136 221.5 q8 33 8 72q0 101 -71.5 156t-208.5 55q-161 0 -263 -74.5t-132 -208.5q-9 -44 -9 -77z" />
<glyph unicode="9" d="M201 16l14 60q135 -37 299 -37q110 0 192.5 29t152 97t120.5 182.5t88 283.5q-234 -70 -379 -70q-342 0 -342 273q0 236 140.5 391t351.5 155q185 0 265.5 -93.5t80.5 -278.5q0 -141 -37 -320q-31 -161 -75.5 -281.5t-100.5 -201.5t-128.5 -131t-153.5 -71t-181 -21 q-145 0 -307 34zM408 831q0 -112 72.5 -162.5t215.5 -50.5q172 0 387 76q39 202 39 322q0 149 -65 228t-221 79q-83 0 -160 -33.5t-137 -95t-95.5 -156t-35.5 -207.5z" />
<glyph unicode=":" horiz-adv-x="534" d="M219 20q0 25 19.5 40.5t44.5 15.5q41 0 41 -35q0 -25 -18 -41t-44 -16q-19 0 -31 9.5t-12 26.5zM414 932q0 25 19 40t44 15q41 0 41 -35q0 -26 -17.5 -41.5t-43.5 -15.5q-19 0 -31 10t-12 27z" />
<glyph unicode=";" horiz-adv-x="534" d="M61 -272l228 346h73l-233 -346h-68zM414 932q0 25 19 40t44 15q41 0 41 -35q0 -26 -17.5 -41.5t-43.5 -15.5q-19 0 -31 10t-12 27z" />
<glyph unicode="&#x3c;" d="M289 625v57l876 389v-51l-821 -367l821 -366v-51z" />
<glyph unicode="=" d="M289 422v51h876v-51h-876zM289 831v52h876v-52h-876z" />
<glyph unicode="&#x3e;" d="M289 236v51l821 366l-821 367v51l876 -389v-57z" />
<glyph unicode="?" horiz-adv-x="784" d="M322 20q0 30 19 48t48 18q43 0 43 -39q0 -27 -19 -45t-46 -18q-45 0 -45 36zM373 1272l2 61q169 47 280 47q86 0 153 -21.5t113 -77t46 -140.5q0 -73 -22.5 -135.5t-60 -109t-83.5 -89.5t-95.5 -86t-92.5 -88t-78 -106t-50 -130l-26 -123h-64l27 123q16 75 51.5 140.5 t79 113t93 91.5t95 85.5t82.5 85.5t59.5 101.5t22.5 124.5q0 98 -68.5 141t-177.5 43q-122 0 -286 -51z" />
<glyph unicode="@" horiz-adv-x="1681" d="M190 176q0 122 29 273q77 401 294.5 606t606.5 205q133 0 237.5 -29.5t171.5 -79t111 -119.5t62 -145t18 -162q0 -79 -16 -164q-27 -145 -68 -247t-96 -161t-118.5 -85.5t-143.5 -26.5q-77 0 -123.5 29.5t-58.5 68.5q-147 -80 -256 -80q-97 0 -155 55t-58 173q0 69 8 121 q27 195 131 299t248 104q91 0 239 -39l-106 -493q-8 -33 -8 -68q0 -117 147 -117q65 0 116 22t97.5 74t83 145t64.5 230q16 71 16 160q0 78 -17 145.5t-57 130.5t-101.5 107.5t-157 71t-216.5 26.5q-187 0 -329 -48.5t-241.5 -147.5t-163.5 -235.5t-104 -325.5 q-30 -144 -30 -275q0 -106 26.5 -188t85.5 -147t163.5 -99.5t250.5 -34.5q270 0 535 119l4 -55q-271 -121 -533 -121q-133 0 -235 26.5t-168 72.5t-108 113.5t-59.5 144.5t-17.5 171zM682 291q0 -98 42.5 -138t119.5 -40q102 0 239 77q0 45 11 91l96 452q-94 27 -182 27 q-120 0 -208 -92.5t-112 -266.5q-6 -53 -6 -110z" />
<glyph unicode="A" horiz-adv-x="1335" d="M213 0l186 885q104 495 553 495q194 0 285.5 -88.5t91.5 -244.5q0 -79 -18 -162l-187 -885h-61l121 573h-787l-121 -573h-63zM410 631h786l53 252q21 100 21 164q0 276 -320 276q-93 0 -167.5 -22.5t-126.5 -61t-91 -96t-62.5 -120t-39.5 -140.5z" />
<glyph unicode="B" horiz-adv-x="1200" d="M238 35l282 1327h361q174 0 264 -69.5t90 -194.5q0 -49 -6 -82q-51 -272 -297 -330q88 -20 144.5 -78t56.5 -166q0 -52 -11 -100q-76 -360 -499 -360q-175 0 -385 53zM307 76q171 -37 318 -37q370 0 434 303q12 56 12 102q0 107 -75 160t-242 53h-322zM444 715h322 q167 0 267 71t130 230q8 41 8 82q0 100 -72.5 153.5t-217.5 53.5h-312z" />
<glyph unicode="C" horiz-adv-x="1128" d="M260 397q0 139 33 279q36 164 86.5 286t110.5 201.5t136.5 128.5t158 68.5t182.5 19.5q147 0 309 -26l-12 -60q-155 29 -301 29q-92 0 -166 -18t-142.5 -63t-122 -118t-98 -185t-76.5 -263q-34 -151 -34 -281q0 -195 88.5 -275.5t255.5 -80.5q162 0 346 35l-6 -58 q-157 -34 -353 -34q-395 0 -395 415z" />
<glyph unicode="D" horiz-adv-x="1314" d="M248 33l282 1329h359q448 0 448 -430q0 -122 -28 -254q-76 -360 -246 -528t-430 -168q-196 0 -385 51zM317 76q141 -37 322 -37q111 0 201.5 33.5t169 106.5t137 198.5t96.5 300.5q31 149 31 254q0 194 -97.5 283.5t-295.5 89.5h-301z" />
<glyph unicode="E" horiz-adv-x="1079" d="M274 182q0 22 7 62l239 1118h701l-13 -57h-639l-120 -568h567l-12 -57h-568l-92 -438q-6 -30 -6 -56q0 -129 156 -129h479l-10 -57h-476q-103 0 -158 48.5t-55 133.5z" />
<glyph unicode="F" horiz-adv-x="1064" d="M242 0l288 1362h693l-13 -57h-630l-121 -564h563l-12 -57h-564l-143 -684h-61z" />
<glyph unicode="G" horiz-adv-x="1314" d="M260 393q0 140 33 289q76 358 233.5 528t425.5 170q179 0 404 -30l-13 -62q-202 35 -395 35q-234 0 -375.5 -150.5t-214.5 -490.5q-34 -156 -34 -289q0 -193 91.5 -273.5t284.5 -80.5q184 0 377 37l129 600h-350l12 57h414l-149 -700q-215 -51 -445 -51q-211 0 -319.5 97 t-108.5 314z" />
<glyph unicode="H" horiz-adv-x="1456" d="M242 0l288 1362h62l-133 -629h848l133 629h63l-289 -1362h-63l143 676h-848l-143 -676h-61z" />
<glyph unicode="I" horiz-adv-x="544" d="M242 0l288 1362h62l-289 -1362h-61z" />
<glyph unicode="J" horiz-adv-x="546" d="M-92 -350q183 139 255 233t95 203l272 1276h62l-273 -1276q-28 -133 -100 -225.5t-278 -257.5z" />
<glyph unicode="K" horiz-adv-x="1107" d="M242 0l288 1362h62l-170 -799l868 799h74l-653 -604q127 -30 199.5 -121t103.5 -240l82 -397h-64l-80 393q-27 135 -90.5 212.5t-193.5 105.5l-262 -228l-103 -483h-61z" />
<glyph unicode="L" horiz-adv-x="978" d="M242 0l288 1362h62l-279 -1305h627l-10 -57h-688z" />
<glyph unicode="M" horiz-adv-x="1744" d="M242 0l288 1362h60l379 -856l751 856h70l-289 -1362h-59l268 1268l-713 -815h-65l-363 815l-268 -1268h-59z" />
<glyph unicode="N" horiz-adv-x="1464" d="M242 0l288 1362h62l659 -959l203 959h59l-288 -1362h-60l70 334l-662 954l-274 -1288h-57z" />
<glyph unicode="O" horiz-adv-x="1327" d="M260 393q0 138 33 287q41 193 104 330t147.5 217.5t183 116.5t222.5 36q406 0 406 -411q0 -138 -33 -287q-41 -193 -104 -330t-147.5 -217.5t-183 -116.5t-222.5 -36q-406 0 -406 411zM324 393q0 -189 87 -271.5t261 -82.5q112 0 200.5 33t162.5 107.5t129 199.5t93 303 q35 158 35 287q0 189 -87 271.5t-261 82.5q-112 0 -200.5 -33t-163 -107.5t-129.5 -199.5t-93 -303q-34 -154 -34 -287z" />
<glyph unicode="P" horiz-adv-x="1224" d="M242 0l288 1362h385q188 0 288 -74.5t100 -224.5q0 -44 -17 -131q-44 -215 -172 -308.5t-375 -93.5q-145 0 -317 33l-119 -563h-61zM434 621q156 -33 311 -33q153 0 250 37.5t150 111t78 195.5q16 78 16 131q0 123 -80 182.5t-248 59.5h-331z" />
<glyph unicode="Q" horiz-adv-x="1327" d="M260 393q0 138 33 287q41 193 104 330t147.5 217.5t183 116.5t222.5 36q406 0 406 -411q0 -138 -33 -287q-41 -193 -104 -330t-147.5 -217.5t-183 -116.5t-222.5 -36q-406 0 -406 411zM324 393q0 -189 87 -271.5t261 -82.5q112 0 200.5 33t162.5 107.5t129 199.5t93 303 q35 158 35 287q0 189 -87 271.5t-261 82.5q-112 0 -200.5 -33t-163 -107.5t-129.5 -199.5t-93 -303q-34 -154 -34 -287zM528 -209l13 55q78 0 247 -57t230 -57q55 0 97 18.5t99 63.5l29 -45q-56 -48 -111 -70.5t-124 -22.5q-64 0 -236 58q-173 57 -244 57z" />
<glyph unicode="R" horiz-adv-x="1265" d="M242 0l288 1362h385q187 0 287.5 -74t100.5 -221q0 -50 -15 -127q-32 -163 -136 -257.5t-265 -113.5q61 -27 91 -84t52 -155l72 -330h-62l-69 315q-13 59 -26.5 96.5t-38.5 74t-66.5 54t-100.5 17.5q-152 0 -311 33l-125 -590h-61zM440 647q147 -33 310 -33 q221 0 328.5 77t146.5 251q14 63 14 125q0 123 -80.5 180.5t-249.5 57.5h-329z" />
<glyph unicode="S" horiz-adv-x="1073" d="M164 51l12 55q184 -67 385 -67q160 0 258.5 66.5t98.5 199.5q0 59 -28.5 120.5t-74 115.5t-100.5 109t-109.5 109t-100 106.5t-74 111t-28.5 113.5q0 290 439 290q146 0 305 -28l-12 -58q-50 11 -138 20t-159 9q-57 0 -103.5 -4t-99 -18t-88 -38t-59 -66.5t-23.5 -100.5 q0 -51 28.5 -106t74 -106t100.5 -104.5t110 -108.5t100.5 -110.5t74 -119t28.5 -124.5q0 -91 -36 -158t-98.5 -104.5t-134.5 -55t-155 -17.5q-214 0 -393 69z" />
<glyph unicode="T" horiz-adv-x="1081" d="M317 1305l13 57h999l-12 -57h-469l-277 -1305h-61l276 1305h-469z" />
<glyph unicode="U" horiz-adv-x="1359" d="M309 338q0 76 17 154l184 870h63l-184 -870q-18 -79 -18 -154q0 -69 18.5 -121.5t50 -86t78.5 -54t98.5 -29t114.5 -8.5q171 0 371 57l270 1266h64l-279 -1307q-240 -73 -426 -73q-69 0 -128 10t-114.5 35t-94.5 64t-62 102t-23 145z" />
<glyph unicode="V" horiz-adv-x="1085" d="M289 1362h59l211 -1294q478 733 690 1294h64q-137 -355 -320.5 -685.5t-419.5 -676.5h-63z" />
<glyph unicode="W" horiz-adv-x="1718" d="M313 1362h62l55 -1296l612 999h72l189 -999q187 309 341 656t244 640h62q-249 -762 -627 -1362h-63l-191 1008l-616 -1008h-76z" />
<glyph unicode="X" horiz-adv-x="1044" d="M25 0l614 707l-283 655h64l262 -606l535 606h73l-581 -660l309 -702h-66l-288 653l-562 -653h-77z" />
<glyph unicode="Y" horiz-adv-x="1146" d="M369 1362h69l254 -827q179 157 320.5 377.5t232.5 449.5h66q-249 -600 -606 -893l-103 -469h-59l104 469z" />
<glyph unicode="Z" horiz-adv-x="1167" d="M109 0v39l1124 1266h-825l12 57h899v-45l-1116 -1260h866l-10 -57h-950z" />
<glyph unicode="[" horiz-adv-x="591" d="M176 -385l399 1880h320l-12 -59h-258l-377 -1764h258l-10 -57h-320z" />
<glyph unicode="\" horiz-adv-x="931" d="M209 1495h65l596 -1604h-59z" />
<glyph unicode="]" horiz-adv-x="591" d="M-59 -385l12 59h258l377 1764h-258l10 57h319l-399 -1880h-319z" />
<glyph unicode="^" d="M383 739l465 623h57l199 -623h-60l-176 557l-413 -557h-72z" />
<glyph unicode="_" horiz-adv-x="1316" d="M-12 -57l6 34h1319l-6 -34h-1319z" />
<glyph unicode="`" horiz-adv-x="1069" d="M608 1495h66l131 -330h-55z" />
<glyph unicode="a" horiz-adv-x="1114" d="M211 295q0 88 20 188q29 144 79 245.5t116.5 156.5t138.5 78.5t160 23.5q163 0 352 -65l-145 -691q-17 -83 -17 -108q0 -90 105 -90q70 0 166 47v-51q-101 -45 -168 -45q-80 0 -120 40q-37 37 -36 98v9q-70 -65 -172 -106t-198 -41q-126 0 -203.5 74t-77.5 237zM264 293 q0 -134 64 -197t168 -63q95 0 199 47t171 117l148 690q-134 51 -293 51q-76 0 -138 -20.5t-120 -69.5t-103 -140.5t-73 -224.5q-23 -109 -23 -190z" />
<glyph unicode="b" horiz-adv-x="1087" d="M207 33l311 1462h55l-118 -557q183 49 313 49q311 0 311 -315q0 -86 -20 -189q-23 -117 -62.5 -205.5t-87 -143.5t-109 -89.5t-122 -47.5t-131.5 -13q-148 0 -340 49zM272 70q151 -37 285 -37q63 0 113 10t102.5 39.5t93 78.5t76 131t59.5 193q23 106 23 189 q0 147 -66.5 205.5t-195.5 58.5q-157 0 -318 -53z" />
<glyph unicode="c" horiz-adv-x="882" d="M211 297q0 83 20 186q25 117 62.5 205t83 144.5t104.5 91.5t121 49t137 14q123 0 238 -22l-10 -52q-127 25 -234 25q-83 0 -147 -20t-122.5 -69t-102.5 -140t-72 -224q-25 -119 -25 -192q0 -145 71 -202.5t208 -57.5q96 0 239 41v-51q-128 -39 -247 -39 q-74 0 -130.5 15.5t-101.5 50t-68.5 97t-23.5 150.5z" />
<glyph unicode="d" horiz-adv-x="1116" d="M211 295q0 88 20 188q23 116 61 204.5t84 144.5t104 91.5t117 49.5t128 14q137 0 299 -49l119 557h57l-268 -1264q-17 -83 -17 -108q0 -48 30.5 -69t76.5 -21q68 0 164 47v-51q-101 -45 -166 -45q-80 0 -120 40q-38 37 -38 98v9q-70 -65 -172 -106t-198 -41 q-130 0 -205.5 75t-75.5 236zM264 293q0 -134 64 -197t168 -63q95 0 198 46.5t172 117.5l148 690q-134 51 -293 51q-76 0 -138 -20.5t-120 -69.5t-103 -140.5t-73 -224.5q-23 -109 -23 -190z" />
<glyph unicode="e" horiz-adv-x="956" d="M211 297q0 85 20 188q98 502 496 502q135 0 214 -63t79 -179q0 -163 -110 -231t-339 -68q-152 0 -288 17q-17 -96 -17 -166q0 -148 68.5 -206t238.5 -58q128 0 273 45v-51q-150 -43 -273 -43q-190 0 -276 69.5t-86 243.5zM293 510q118 -16 280 -16q206 0 297 53t91 198 q0 53 -19 91.5t-53 60t-75.5 31.5t-92.5 10q-167 0 -271.5 -104t-156.5 -324z" />
<glyph unicode="f" horiz-adv-x="675" d="M-53 -354q74 44 126 87t84 79.5t54.5 86t33.5 88t25 103.5l176 832h-159l10 49h160l43 203q37 172 135.5 246.5t253.5 74.5q89 0 151 -12l-10 -49q-58 12 -143 12q-131 0 -214.5 -61t-115.5 -211l-43 -203h367l-11 -49h-366l-176 -832q-15 -73 -28.5 -117.5t-38 -96.5 t-60 -92t-91.5 -86t-137 -97z" />
<glyph unicode="g" horiz-adv-x="1073" d="M127 -346l10 51q157 -55 309 -55q301 0 363 282l31 144q-180 -92 -342 -92q-134 0 -210.5 75t-76.5 236q0 85 20 188q94 504 500 504q147 0 346 -63l-211 -992q-35 -159 -141.5 -245t-284.5 -86q-167 0 -313 53zM264 293q0 -139 65 -199.5t175 -60.5q82 0 175 29t171 71 l162 752q-139 53 -291 53q-76 0 -138 -20t-120 -68.5t-103 -140t-73 -224.5q-23 -109 -23 -192z" />
<glyph unicode="h" horiz-adv-x="1142" d="M209 0l317 1495h58l-119 -557q174 49 323 49q146 0 231 -57t85 -176q0 -34 -10 -86l-140 -668h-59l141 670q11 57 11 82q0 102 -69 144t-192 42q-84 0 -179 -16.5t-154 -36.5l-187 -885h-57z" />
<glyph unicode="i" horiz-adv-x="509" d="M244 127q0 31 6 61l164 783h57l-164 -785q-6 -30 -6 -57q0 -49 23.5 -72.5t78.5 -23.5q52 0 129 30v-51q-72 -28 -135 -28q-78 0 -115.5 39t-37.5 104zM469 1331q0 27 18 43.5t45 16.5q41 0 41 -35v-13q0 -22 -18 -34.5t-43 -12.5q-43 0 -43 35z" />
<glyph unicode="j" horiz-adv-x="462" d="M-96 -354q74 44 126 87t84 79.5t54.5 86t33.5 88t25 103.5l187 881h57l-186 -881q-15 -73 -28.5 -117.5t-38 -96.5t-60 -92t-91.5 -86t-137 -97zM469 1331q0 27 18 43.5t45 16.5q41 0 41 -35v-13q0 -22 -18 -34.5t-43 -12.5q-43 0 -43 35z" />
<glyph unicode="k" horiz-adv-x="983" d="M209 0l317 1495h58l-228 -1065l691 541h75l-493 -391q141 -75 223 -324l84 -256h-55l-82 246q-24 73 -49.5 126.5t-69.5 103t-98 71.5l-240 -189l-76 -358h-57z" />
<glyph unicode="l" horiz-adv-x="569" d="M242 143q0 23 6 47l278 1305h58l-279 -1315q-4 -28 -4 -39q0 -110 143 -110q69 0 158 26v-49q-74 -24 -160 -24q-87 0 -143.5 37t-56.5 122z" />
<glyph unicode="m" horiz-adv-x="1730" d="M209 0l194 922q234 65 379 65q171 0 240 -96q205 96 393 96q279 0 279 -219q0 -30 -11 -94l-141 -674h-57l141 670q10 52 10 82q0 186 -231 186q-94 0 -192 -27t-171 -63q17 -43 17 -80q0 -38 -12 -94l-142 -674h-59l141 670q12 62 12 88q0 180 -229 180 q-71 0 -164.5 -17t-152.5 -36l-187 -885h-57z" />
<glyph unicode="n" horiz-adv-x="1142" d="M211 0l195 922q219 65 385 65q146 0 230.5 -57t84.5 -176q0 -34 -10 -86l-140 -668h-59l141 670q11 57 11 82q0 102 -69 144t-192 42q-84 0 -179 -16.5t-154 -36.5l-187 -885h-57z" />
<glyph unicode="o" horiz-adv-x="1054" d="M211 295q0 90 20 190q98 502 500 502q159 0 239.5 -74t80.5 -237q0 -86 -21 -191q-51 -261 -178 -381t-324 -120q-157 0 -237 74t-80 237zM266 293q0 -144 69.5 -202t199.5 -58q80 0 143.5 20.5t121.5 69.5t101.5 139.5t71.5 222.5q22 105 22 193q0 144 -69 202t-199 58 q-80 0 -143.5 -20.5t-121.5 -69.5t-101.5 -140t-71.5 -223q-23 -109 -23 -192z" />
<glyph unicode="p" horiz-adv-x="1097" d="M129 -385l277 1307q220 65 372 65q148 0 230 -74t82 -243q0 -79 -21 -187q-24 -122 -66 -213.5t-90.5 -145t-110 -86t-117.5 -43.5t-120 -11q-161 0 -293 36l-86 -405h-57zM283 70q151 -37 286 -37q63 0 113 10t102.5 39.5t92.5 78.5t75.5 131t59.5 193q22 102 22 187 q0 148 -65.5 207t-198.5 59q-154 0 -315 -53z" />
<glyph unicode="q" horiz-adv-x="1073" d="M211 295q0 85 20 188q22 116 60 204.5t84 144.5t105 91.5t119.5 49.5t131.5 14q157 0 346 -65l-276 -1307h-58l97 461q-184 -92 -340 -92q-289 0 -289 311zM264 293q0 -260 242 -260q160 0 344 100l164 754q-134 51 -293 51q-76 0 -138 -20t-120 -68.5t-103 -140 t-73 -224.5q-23 -109 -23 -192z" />
<glyph unicode="r" horiz-adv-x="675" d="M209 0l194 922q233 65 441 65l-10 -51q-220 0 -381 -53l-187 -883h-57z" />
<glyph unicode="s" horiz-adv-x="821" d="M123 43l10 51q148 -61 326 -61q58 0 103.5 8.5t84 29.5t59.5 60.5t21 95.5q0 46 -24.5 87t-63.5 73t-86 63t-94 62.5t-86 65.5t-63.5 78t-24.5 94q0 122 98 179.5t272 57.5q131 0 246 -18l-12 -49q-110 18 -236 18q-69 0 -121 -8t-98.5 -27.5t-71 -58t-24.5 -94.5 t45.5 -105.5t110 -90.5t129 -84.5t110 -105t45.5 -133.5q0 -122 -81 -184.5t-240 -62.5q-187 0 -334 59z" />
<glyph unicode="t" horiz-adv-x="663" d="M272 922l11 49h163l84 301h37l-63 -301h301l-10 -49h-301l-154 -721q-6 -30 -6 -54q0 -114 133 -114q79 0 188 33v-52q-99 -30 -192 -30q-87 0 -137 43t-50 125q0 21 7 61l153 709h-164z" />
<glyph unicode="u" horiz-adv-x="1138" d="M244 238q0 48 10 92l135 641h57l-137 -647q-10 -41 -10 -86q0 -106 57 -155.5t150 -49.5q97 0 204 47.5t171 116.5l163 774h58l-164 -778q-8 -41 -8 -70q0 -90 104 -90q70 0 166 47v-51q-101 -45 -168 -45q-80 0 -119 40q-36 37 -36 97v10q-75 -69 -176 -108t-197 -39 q-115 0 -187.5 63.5t-72.5 190.5z" />
<glyph unicode="v" horiz-adv-x="882" d="M225 971h60l182 -905q165 231 287 448t213 457h59q-192 -500 -545 -971h-57z" />
<glyph unicode="w" horiz-adv-x="1523" d="M240 971h55l102 -899l535 899h65l154 -899q303 460 457 899h59q-97 -272 -218 -505t-284 -466h-55l-156 907l-538 -907h-66z" />
<glyph unicode="x" horiz-adv-x="866" d="M33 0l469 520l-238 451h62l219 -412l358 412h68l-400 -465l265 -506h-66l-242 471l-422 -471h-73z" />
<glyph unicode="y" horiz-adv-x="1110" d="M156 -346l10 51q157 -55 309 -55q153 0 244 73.5t119 208.5l30 144q-189 -92 -327 -92q-139 0 -219 58.5t-80 182.5q0 51 10 97l137 649h57l-139 -656q-10 -41 -10 -88q0 -106 67 -150t187 -44q76 0 167.5 31.5t160.5 68.5l178 838h59l-221 -1039q-35 -159 -142 -245 t-286 -86q-165 0 -311 53z" />
<glyph unicode="z" horiz-adv-x="886" d="M84 0v41l854 881h-662l11 49h729v-41l-852 -881h686l-10 -49h-756z" />
<glyph unicode="{" horiz-adv-x="679" d="M225 -205q0 70 26 159.5t57 161t57 154.5t26 142q0 58 -38.5 85.5t-119.5 30.5l11 50q96 3 147 42.5t74 129.5q24 96 40.5 280.5t35.5 255.5q27 107 90.5 164t187.5 57q78 0 137 -18l-10 -55q-65 18 -137 18q-93 0 -139 -43.5t-70 -128.5q-18 -64 -34.5 -252t-43.5 -287 q-23 -86 -58.5 -125.5t-101.5 -68.5q89 -32 89 -135q0 -63 -41.5 -182.5t-83 -242t-41.5 -192.5q0 -137 161 -137q63 0 125 20v-59q-59 -18 -125 -18q-97 0 -159 46t-62 148z" />
<glyph unicode="|" horiz-adv-x="569" d="M385 -410v2048h57v-2048h-57z" />
<glyph unicode="}" horiz-adv-x="679" d="M-31 -383l11 55q65 -18 137 -18q93 0 139 43.5t70 128.5q18 64 34 252t43 287q23 86 58.5 125.5t101.5 68.5q-88 32 -88 135q0 63 41.5 182.5t83 242t41.5 192.5q0 74 -45.5 105.5t-116.5 31.5q-60 0 -125 -21v60q59 18 125 18q97 0 159 -46t62 -148q0 -70 -26 -159.5 t-56.5 -161t-56.5 -154.5t-26 -142q0 -58 38 -85.5t119 -30.5l-10 -50q-96 -3 -147 -42.5t-74 -129.5q-24 -96 -40.5 -280.5t-35.5 -255.5q-27 -107 -91 -164t-188 -57q-78 0 -137 18z" />
<glyph unicode="~" d="M268 610q45 133 201 133q59 0 256 -61t256 -61q66 0 100.5 26.5t53.5 77.5l49 -20q-49 -134 -201 -134q-61 0 -259 61.5t-255 61.5q-65 0 -100 -27t-54 -77z" />
<glyph unicode="&#xa1;" horiz-adv-x="575" d="M176 -385l227 1096h66l-236 -1096h-57zM432 924q0 27 19.5 45t46.5 18q45 0 45 -37q0 -30 -19.5 -47.5t-48.5 -17.5q-43 0 -43 39z" />
<glyph unicode="&#xa2;" d="M348 516q0 75 17 156q100 505 538 522l64 291h63l-63 -291q109 -6 266 -47l-12 -57q-171 49 -301 49q-67 0 -123.5 -11.5t-115.5 -43.5t-105.5 -83t-86 -134.5t-63.5 -194.5q-18 -83 -18 -154q0 -149 79.5 -227t233.5 -78q157 0 340 66v-58q-149 -54 -313 -63l-70 -330 h-64l70 330q-158 11 -247 97.5t-89 260.5z" />
<glyph unicode="&#xa3;" d="M219 0v49q164 111 213 373l49 256h-198l12 57h197l71 314q22 96 62.5 162.5t96.5 102.5t118 51t141 15q150 0 268 -32l-12 -56q-134 31 -262 31q-142 0 -227 -60.5t-119 -211.5l-72 -316h528l-12 -57h-528l-51 -264q-52 -253 -185 -357h776l-10 -57h-856z" />
<glyph unicode="&#xa5;" d="M227 485l13 58h436l-90 252h-293l12 57h260l-184 510h63l283 -795l578 795h71l-375 -510h283l-12 -57h-311l-191 -252h449l-13 -58h-463l-102 -485h-63l102 485h-453z" />
<glyph unicode="&#xa6;" horiz-adv-x="569" d="M385 -410v822h57v-822h-57zM385 817v821h57v-821h-57z" />
<glyph unicode="&#xa7;" horiz-adv-x="1046" d="M41 -328l22 56q183 -68 386 -68q102 0 180 27t127 88t49 151q0 59 -28.5 114t-73.5 98.5t-100 85.5t-110 83.5t-100 83t-73.5 92t-28.5 103.5q0 120 69.5 185.5t182.5 88.5q-129 109 -129 230q0 290 438 290q146 0 305 -28l-12 -60q-52 11 -140 21t-157 10 q-58 0 -103.5 -4t-98.5 -18t-88.5 -37.5t-59 -66.5t-23.5 -101q0 -24 7.5 -48.5t16.5 -43.5t29.5 -42.5t34.5 -38t44.5 -39t45 -36t51.5 -38t50 -36.5q54 -39 90.5 -71t73 -74t55 -89.5t18.5 -99.5q0 -219 -209 -295q86 -92 86 -206q0 -73 -24.5 -131.5t-65.5 -96 t-96.5 -62.5t-114.5 -35.5t-123 -10.5q-214 0 -403 69zM350 594q0 -58 42 -115.5t94.5 -96.5t131.5 -97.5t123 -98.5q189 62 189 242q0 35 -9.5 68t-31 64t-42.5 55.5t-56 54t-60 48.5t-67 49.5t-64 47.5q-250 -31 -250 -221z" />
<glyph unicode="&#xa8;" horiz-adv-x="1069" d="M606 1331q0 27 17 42.5t43 15.5q43 0 43 -37q0 -27 -17 -42.5t-43 -15.5q-43 0 -43 37zM930 1331q0 27 16.5 42.5t42.5 15.5q43 0 43 -37q0 -27 -16.5 -42.5t-42.5 -15.5q-43 0 -43 37z" />
<glyph unicode="&#xa9;" horiz-adv-x="1576" d="M266 438q0 110 27 242q70 355 260 528.5t520 173.5q268 0 396 -114t128 -346q0 -99 -26 -242q-69 -354 -259 -526t-521 -172q-268 0 -396.5 113t-128.5 343zM326 442q0 -206 112.5 -305.5t356.5 -99.5q304 0 478 157.5t240 485.5q27 145 27 233q0 211 -114 313.5 t-357 102.5q-304 0 -477 -160t-240 -489q-26 -127 -26 -238zM614 543q0 60 15 137q73 383 399 383q108 0 197 -33l-17 -51q-116 31 -190 31q-130 0 -213 -78.5t-119 -251.5q-16 -85 -16 -137q0 -103 49.5 -147t154.5 -44q91 0 211 35v-51q-125 -37 -215 -37q-128 0 -192 58 t-64 186z" />
<glyph unicode="&#xaa;" horiz-adv-x="696" d="M283 961q0 57 12 112q64 305 319 305q87 0 197 -43l-90 -432q-6 -35 -6 -65q0 -47 53 -47q44 0 100 34v-47q-56 -33 -104 -33q-43 0 -69 21.5t-29 60.5q-44 -36 -100.5 -59t-106.5 -23q-78 0 -127 51t-49 165zM332 958q0 -89 32 -128t93 -39q56 0 112.5 26t98.5 68 l86 420q-82 28 -140 28q-45 0 -82 -10.5t-74.5 -37t-66.5 -81t-47 -133.5q-12 -54 -12 -113z" />
<glyph unicode="&#xab;" horiz-adv-x="1024" d="M258 555l381 371h72l-383 -379l227 -363h-59zM627 555l381 371h71l-383 -379l228 -363h-60z" />
<glyph unicode="&#xac;" d="M289 831v52h876v-461h-51v409h-825z" />
<glyph unicode="&#xad;" horiz-adv-x="739" d="M244 530l10 52h477l-10 -52h-477z" />
<glyph unicode="&#xae;" horiz-adv-x="1302" d="M281 721q0 68 14 137q47 243 213 377.5t418 134.5q214 0 328 -97t114 -278q0 -68 -14 -137q-50 -243 -217 -377.5t-420 -134.5q-213 0 -324.5 97t-111.5 278zM334 719q0 -158 98.5 -242t290.5 -84q232 0 380.5 121t196.5 344q13 64 13 135q0 160 -99 245t-292 85 q-232 0 -380 -121t-194 -344q-14 -69 -14 -139zM600 580l123 579h160q79 0 122.5 -36t43.5 -101q0 -21 -2 -31q-8 -71 -56 -113.5t-108 -54.5q30 -12 46 -36.5t25 -69.5l29 -137h-49l-27 133q-16 96 -106 96q-53 0 -103 8l-49 -237h-49zM707 862q54 -8 104 -8q42 0 79 11.5 t69 43.5t40 80q2 12 2 31q0 94 -124 94h-115z" />
<glyph unicode="&#xaf;" horiz-adv-x="1069" d="M600 1305l10 49h424l-10 -49h-424z" />
<glyph unicode="&#xb0;" horiz-adv-x="749" d="M381 1094q0 28 6 55q20 106 94.5 168.5t180.5 62.5q93 0 142.5 -47t49.5 -131q0 -35 -4 -53q-19 -107 -93.5 -170.5t-181.5 -63.5q-92 0 -143 47.5t-51 131.5zM440 1098q0 -60 37 -94.5t103 -34.5q81 0 137.5 48t75.5 132q6 24 6 47q0 61 -38 96t-106 35q-78 0 -135 -48 t-74 -130q-6 -27 -6 -51z" />
<glyph unicode="&#xb1;" d="M289 0v51h876v-51h-876zM289 629v51h409v389h54v-389h413v-51h-413v-389h-54v389h-409z" />
<glyph unicode="&#xb2;" horiz-adv-x="641" d="M279 680v41l278 237q52 44 73.5 63t51 48.5t39.5 48t18.5 43.5t8.5 53q0 60 -43.5 87.5t-110.5 27.5q-80 0 -162 -24l6 49q82 20 156 20q89 0 148 -37.5t59 -117.5q0 -30 -5 -55.5t-21 -52t-27.5 -43.5t-44.5 -47t-51 -45.5t-66 -55.5l-228 -191h355l-11 -49h-423z" />
<glyph unicode="&#xb3;" horiz-adv-x="641" d="M221 682l17 49q82 -29 184 -29q45 0 82.5 10t70.5 32.5t51.5 64.5t18.5 100q0 111 -180 111h-74l10 35l301 258h-337l10 49h401v-45l-291 -252h27q184 -10 184 -154q0 -123 -74 -190.5t-206 -67.5q-112 0 -195 29z" />
<glyph unicode="&#xb4;" horiz-adv-x="1069" d="M670 1165l229 330h70l-236 -330h-63z" />
<glyph unicode="&#xb6;" horiz-adv-x="1216" d="M297 760q0 72 22 182q23 112 61.5 187t108 129.5t175 79t258.5 24.5h98l-358 -1686h-60l174 816h-133q-181 0 -263.5 61.5t-82.5 206.5zM868 -324l359 1686h61l-358 -1686h-62z" />
<glyph unicode="&#xb7;" horiz-adv-x="534" d="M330 543q0 25 19 40t44 15q41 0 41 -35q0 -26 -17.5 -41.5t-43.5 -15.5q-19 0 -31 10t-12 27z" />
<glyph unicode="&#xb8;" horiz-adv-x="1069" d="M356 -377l11 45q49 -18 90 -18q94 0 94 102q0 53 -43 154h53q43 -101 43 -154q0 -78 -42.5 -112.5t-106.5 -34.5q-59 0 -99 18z" />
<glyph unicode="&#xb9;" horiz-adv-x="569" d="M367 1260l10 49l215 53h31l-146 -684h-53l133 629z" />
<glyph unicode="&#xba;" horiz-adv-x="696" d="M295 956q0 51 12 109q67 311 324 311q100 0 156.5 -52.5t56.5 -160.5q0 -45 -13 -108q-67 -312 -323 -312q-100 0 -156.5 52.5t-56.5 160.5zM346 956q0 -163 166 -163q212 0 270 268q11 54 11 102q0 164 -166 164q-213 0 -271 -268q-10 -49 -10 -103z" />
<glyph unicode="&#xbb;" horiz-adv-x="1024" d="M180 184l383 379l-227 363h59l238 -371l-381 -371h-72zM549 184l383 379l-227 363h59l237 -371l-380 -371h-72z" />
<glyph unicode="&#xbc;" horiz-adv-x="1517" d="M264 0l1122 1362h68l-1124 -1362h-66zM383 1260l10 49l215 53h31l-145 -684h-54l133 629zM971 174v45l411 483h76l-102 -481h102l-8 -47h-102l-37 -174h-56l37 174h-321zM1034 221h266l91 418z" />
<glyph unicode="&#xbd;" horiz-adv-x="1503" d="M264 0l1122 1362h68l-1124 -1362h-66zM381 1260l10 49l215 53h31l-145 -684h-54l133 629zM940 0v41l279 238q81 69 113 99.5t54.5 70.5t22.5 86q0 60 -43.5 87t-110.5 27q-79 0 -161 -24l6 49q82 20 155 20q89 0 148 -37.5t59 -117.5q0 -30 -5 -55.5t-21 -52t-27.5 -43.5 t-44.5 -47t-51 -45.5t-66 -55.5l-227 -191h354l-10 -49h-424z" />
<glyph unicode="&#xbe;" horiz-adv-x="1517" d="M215 682l16 49q82 -29 185 -29q45 0 82.5 10t70.5 32.5t51.5 64.5t18.5 100q0 111 -180 111h-74l10 35l301 258h-338l11 49h401v-45l-291 -252h27q184 -10 184 -154q0 -123 -74 -190.5t-206 -67.5q-112 0 -195 29zM340 0l1122 1362h68l-1124 -1362h-66zM971 174v45 l411 483h76l-102 -481h102l-8 -47h-102l-37 -174h-56l37 174h-321zM1034 221h266l91 418z" />
<glyph unicode="&#xbf;" horiz-adv-x="702" d="M-20 -162q0 73 22.5 135.5t60 109t83.5 89.5t95 86t92 88t78 106t50 130l26 123h64l-27 -123q-16 -75 -51.5 -140.5t-79 -113t-93 -91.5t-95 -85.5t-82.5 -85.5t-59.5 -101.5t-22.5 -124.5q0 -98 68.5 -141t177.5 -43q122 0 286 51l-2 -61q-169 -47 -280 -47 q-63 0 -116.5 12.5t-98.5 39.5t-70.5 75t-25.5 112zM510 924q0 27 19 45t46 18q46 0 46 -37q0 -30 -19.5 -47.5t-48.5 -17.5q-43 0 -43 39z" />
<glyph unicode="&#xc0;" horiz-adv-x="1335" d="M213 0l186 885q104 495 553 495q194 0 285.5 -88.5t91.5 -244.5q0 -79 -18 -162l-187 -885h-61l121 573h-787l-121 -573h-63zM410 631h786l53 252q21 100 21 164q0 276 -320 276q-93 0 -167.5 -22.5t-126.5 -61t-91 -96t-62.5 -120t-39.5 -140.5zM829 1876h66l131 -330 h-55z" />
<glyph unicode="&#xc1;" horiz-adv-x="1335" d="M213 0l186 885q104 495 553 495q194 0 285.5 -88.5t91.5 -244.5q0 -79 -18 -162l-187 -885h-61l121 573h-787l-121 -573h-63zM410 631h786l53 252q21 100 21 164q0 276 -320 276q-93 0 -167.5 -22.5t-126.5 -61t-91 -96t-62.5 -120t-39.5 -140.5zM958 1546l230 330h69 l-235 -330h-64z" />
<glyph unicode="&#xc2;" horiz-adv-x="1335" d="M213 0l186 885q104 495 553 495q194 0 285.5 -88.5t91.5 -244.5q0 -79 -18 -162l-187 -885h-61l121 573h-787l-121 -573h-63zM410 631h786l53 252q21 100 21 164q0 276 -320 276q-93 0 -167.5 -22.5t-126.5 -61t-91 -96t-62.5 -120t-39.5 -140.5zM776 1546l254 330h70 l112 -330h-55l-98 279l-221 -279h-62z" />
<glyph unicode="&#xc3;" horiz-adv-x="1335" d="M213 0l186 885q104 495 553 495q194 0 285.5 -88.5t91.5 -244.5q0 -79 -18 -162l-187 -885h-61l121 573h-787l-121 -573h-63zM410 631h786l53 252q21 100 21 164q0 276 -320 276q-93 0 -167.5 -22.5t-126.5 -61t-91 -96t-62.5 -120t-39.5 -140.5zM760 1661 q25 55 57.5 81.5t89.5 26.5q39 0 128 -38.5t122 -38.5q36 0 58 21.5t40 60.5l45 -23q-25 -56 -58.5 -82.5t-92.5 -26.5q-38 0 -126 39t-120 39q-64 0 -98 -82z" />
<glyph unicode="&#xc4;" horiz-adv-x="1335" d="M213 0l186 885q104 495 553 495q194 0 285.5 -88.5t91.5 -244.5q0 -79 -18 -162l-187 -885h-61l121 573h-787l-121 -573h-63zM410 631h786l53 252q21 100 21 164q0 276 -320 276q-93 0 -167.5 -22.5t-126.5 -61t-91 -96t-62.5 -120t-39.5 -140.5zM819 1712q0 27 17 42 t43 15q43 0 43 -36q0 -27 -17 -42.5t-43 -15.5q-43 0 -43 37zM1143 1712q0 27 16.5 42t42.5 15q43 0 43 -36q0 -27 -16.5 -42.5t-42.5 -15.5q-43 0 -43 37z" />
<glyph unicode="&#xc5;" horiz-adv-x="1335" d="M213 0l186 885q104 495 553 495q194 0 285.5 -88.5t91.5 -244.5q0 -79 -18 -162l-187 -885h-61l121 573h-787l-121 -573h-63zM410 631h786l53 252q21 100 21 164q0 276 -320 276q-93 0 -167.5 -22.5t-126.5 -61t-91 -96t-62.5 -120t-39.5 -140.5zM860 1681q0 79 55.5 133 t141.5 54q69 0 105 -34t36 -91q0 -79 -55.5 -133t-143.5 -54q-67 0 -103 34t-36 91zM909 1683q0 -38 26 -58.5t71 -20.5q64 0 103.5 36t39.5 101q0 38 -25.5 59t-70.5 21q-64 0 -104 -36.5t-40 -101.5z" />
<glyph unicode="&#xc6;" horiz-adv-x="1910" d="M213 0l186 885q23 111 63.5 197t105.5 155t163 106t225 37q153 0 244 -61.5t109 -167.5l43 211h700l-12 -57h-639l-121 -568h567l-12 -57h-567l-92 -438q-7 -35 -7 -58q0 -127 154 -127h481l-10 -57h-479q-100 0 -154.5 48.5t-54.5 135.5q0 30 6 60l94 436h-786 l-144 -680h-63zM432 737h787l30 146q21 100 21 164q0 276 -320 276q-92 0 -166.5 -22.5t-126.5 -61t-91 -96t-63 -120t-40 -140.5z" />
<glyph unicode="&#xc7;" horiz-adv-x="1128" d="M260 397q0 139 33 279q36 164 86.5 286t110.5 201.5t136.5 128.5t158 68.5t182.5 19.5q147 0 309 -26l-12 -60q-155 29 -301 29q-92 0 -166 -18t-142.5 -63t-122 -118t-98 -185t-76.5 -263q-34 -151 -34 -281q0 -195 88.5 -275.5t255.5 -80.5q162 0 346 35l-6 -58 q-157 -34 -353 -34q-395 0 -395 415zM408 -377l10 45q49 -18 90 -18q94 0 94 102q0 53 -43 154h53q43 -101 43 -154q0 -78 -42.5 -112.5t-106.5 -34.5q-58 0 -98 18z" />
<glyph unicode="&#xc8;" horiz-adv-x="1079" d="M274 182q0 22 7 62l239 1118h701l-13 -57h-639l-120 -568h567l-12 -57h-568l-92 -438q-6 -30 -6 -56q0 -129 156 -129h479l-10 -57h-476q-103 0 -158 48.5t-55 133.5zM756 1876h65l131 -330h-55z" />
<glyph unicode="&#xc9;" horiz-adv-x="1079" d="M274 182q0 22 7 62l239 1118h701l-13 -57h-639l-120 -568h567l-12 -57h-568l-92 -438q-6 -30 -6 -56q0 -129 156 -129h479l-10 -57h-476q-103 0 -158 48.5t-55 133.5zM891 1546l229 330h70l-236 -330h-63z" />
<glyph unicode="&#xca;" horiz-adv-x="1079" d="M274 182q0 22 7 62l239 1118h701l-13 -57h-639l-120 -568h567l-12 -57h-568l-92 -438q-6 -30 -6 -56q0 -129 156 -129h479l-10 -57h-476q-103 0 -158 48.5t-55 133.5zM684 1546l254 330h70l112 -330h-55l-98 279l-222 -279h-61z" />
<glyph unicode="&#xcb;" horiz-adv-x="1079" d="M274 182q0 22 7 62l239 1118h701l-13 -57h-639l-120 -568h567l-12 -57h-568l-92 -438q-6 -30 -6 -56q0 -129 156 -129h479l-10 -57h-476q-103 0 -158 48.5t-55 133.5zM729 1716q0 27 16.5 42.5t42.5 15.5q43 0 43 -37q0 -27 -16.5 -42.5t-42.5 -15.5q-43 0 -43 37z M1053 1716q0 27 16.5 42.5t42.5 15.5q43 0 43 -37q0 -27 -16.5 -42.5t-42.5 -15.5q-43 0 -43 37z" />
<glyph unicode="&#xcc;" horiz-adv-x="544" d="M242 0l288 1362h62l-289 -1362h-61zM434 1876h66l131 -330h-56z" />
<glyph unicode="&#xcd;" horiz-adv-x="544" d="M242 0l288 1362h62l-289 -1362h-61zM571 1546l230 330h69l-235 -330h-64z" />
<glyph unicode="&#xce;" horiz-adv-x="544" d="M242 0l288 1362h62l-289 -1362h-61zM381 1546l254 330h70l112 -330h-55l-98 279l-222 -279h-61z" />
<glyph unicode="&#xcf;" horiz-adv-x="544" d="M242 0l288 1362h62l-289 -1362h-61zM424 1716q0 27 16.5 42.5t42.5 15.5q43 0 43 -37q0 -27 -16.5 -42.5t-42.5 -15.5q-43 0 -43 37zM748 1716q0 27 16.5 42.5t42.5 15.5q43 0 43 -37q0 -27 -16.5 -42.5t-42.5 -15.5q-43 0 -43 37z" />
<glyph unicode="&#xd0;" horiz-adv-x="1296" d="M180 676l13 57h186l133 629h358q449 0 449 -430q0 -118 -29 -254q-76 -360 -246 -528t-430 -168q-196 0 -385 51l138 643h-187zM299 76q141 -37 322 -37q111 0 201.5 33.5t169 106.5t137 198.5t96.5 300.5q30 144 30 254q0 194 -97.5 283.5t-295.5 89.5h-301l-123 -572 h387l-12 -57h-387z" />
<glyph unicode="&#xd1;" horiz-adv-x="1464" d="M242 0l288 1362h62l659 -959l203 959h59l-288 -1362h-60l70 334l-662 954l-274 -1288h-57zM823 1661q25 55 58 81.5t90 26.5q39 0 128 -38.5t122 -38.5q36 0 58 21.5t40 60.5l45 -23q-25 -56 -59 -82.5t-93 -26.5q-38 0 -125.5 39t-119.5 39q-65 0 -99 -82z" />
<glyph unicode="&#xd2;" horiz-adv-x="1327" d="M260 393q0 138 33 287q41 193 104 330t147.5 217.5t183 116.5t222.5 36q406 0 406 -411q0 -138 -33 -287q-41 -193 -104 -330t-147.5 -217.5t-183 -116.5t-222.5 -36q-406 0 -406 411zM324 393q0 -189 87 -271.5t261 -82.5q112 0 200.5 33t162.5 107.5t129 199.5t93 303 q35 158 35 287q0 189 -87 271.5t-261 82.5q-112 0 -200.5 -33t-163 -107.5t-129.5 -199.5t-93 -303q-34 -154 -34 -287zM823 1876h66l131 -330h-55z" />
<glyph unicode="&#xd3;" horiz-adv-x="1327" d="M260 393q0 138 33 287q41 193 104 330t147.5 217.5t183 116.5t222.5 36q406 0 406 -411q0 -138 -33 -287q-41 -193 -104 -330t-147.5 -217.5t-183 -116.5t-222.5 -36q-406 0 -406 411zM324 393q0 -189 87 -271.5t261 -82.5q112 0 200.5 33t162.5 107.5t129 199.5t93 303 q35 158 35 287q0 189 -87 271.5t-261 82.5q-112 0 -200.5 -33t-163 -107.5t-129.5 -199.5t-93 -303q-34 -154 -34 -287zM954 1546l230 330h69l-235 -330h-64z" />
<glyph unicode="&#xd4;" horiz-adv-x="1327" d="M260 393q0 138 33 287q41 193 104 330t147.5 217.5t183 116.5t222.5 36q406 0 406 -411q0 -138 -33 -287q-41 -193 -104 -330t-147.5 -217.5t-183 -116.5t-222.5 -36q-406 0 -406 411zM324 393q0 -189 87 -271.5t261 -82.5q112 0 200.5 33t162.5 107.5t129 199.5t93 303 q35 158 35 287q0 189 -87 271.5t-261 82.5q-112 0 -200.5 -33t-163 -107.5t-129.5 -199.5t-93 -303q-34 -154 -34 -287zM772 1546l254 330h70l112 -330h-55l-98 279l-221 -279h-62z" />
<glyph unicode="&#xd5;" horiz-adv-x="1327" d="M260 393q0 138 33 287q41 193 104 330t147.5 217.5t183 116.5t222.5 36q406 0 406 -411q0 -138 -33 -287q-41 -193 -104 -330t-147.5 -217.5t-183 -116.5t-222.5 -36q-406 0 -406 411zM324 393q0 -189 87 -271.5t261 -82.5q112 0 200.5 33t162.5 107.5t129 199.5t93 303 q35 158 35 287q0 189 -87 271.5t-261 82.5q-112 0 -200.5 -33t-163 -107.5t-129.5 -199.5t-93 -303q-34 -154 -34 -287zM756 1661q25 55 57.5 81.5t89.5 26.5q39 0 128 -38.5t122 -38.5q36 0 58 21.5t40 60.5l45 -23q-25 -56 -58.5 -82.5t-92.5 -26.5q-38 0 -126 39t-120 39 q-64 0 -98 -82z" />
<glyph unicode="&#xd6;" horiz-adv-x="1327" d="M260 393q0 138 33 287q41 193 104 330t147.5 217.5t183 116.5t222.5 36q406 0 406 -411q0 -138 -33 -287q-41 -193 -104 -330t-147.5 -217.5t-183 -116.5t-222.5 -36q-406 0 -406 411zM324 393q0 -189 87 -271.5t261 -82.5q112 0 200.5 33t162.5 107.5t129 199.5t93 303 q35 158 35 287q0 189 -87 271.5t-261 82.5q-112 0 -200.5 -33t-163 -107.5t-129.5 -199.5t-93 -303q-34 -154 -34 -287zM815 1716q0 27 16.5 42.5t42.5 15.5q44 0 44 -37q0 -27 -17 -42.5t-43 -15.5q-43 0 -43 37zM1139 1716q0 27 16.5 42.5t42.5 15.5q43 0 43 -37 q0 -27 -16.5 -42.5t-42.5 -15.5q-43 0 -43 37z" />
<glyph unicode="&#xd7;" d="M346 322l342 333l-342 334l37 39l338 -332l340 332l37 -39l-340 -334l340 -333l-37 -39l-340 331l-338 -331z" />
<glyph unicode="&#xd8;" horiz-adv-x="1327" d="M162 -57l160 192q-62 95 -62 258q0 138 33 287q41 193 104 330t147.5 217.5t183 116.5t222.5 36q211 0 310 -108l149 182l43 -37l-158 -190q62 -100 62 -258q0 -138 -33 -287q-41 -193 -104 -330t-147.5 -217.5t-183 -116.5t-222.5 -36q-210 0 -312 108 q-129 -155 -149 -182zM324 393q0 -132 38 -207l857 1039q-80 98 -275 98q-112 0 -200.5 -33t-163 -107.5t-129.5 -199.5t-93 -303q-34 -154 -34 -287zM395 139q79 -100 277 -100q112 0 200.5 33t162.5 107.5t129 199.5t93 303q35 158 35 287q0 128 -41 205z" />
<glyph unicode="&#xd9;" horiz-adv-x="1359" d="M309 338q0 76 17 154l184 870h63l-184 -870q-18 -79 -18 -154q0 -69 18.5 -121.5t50 -86t78.5 -54t98.5 -29t114.5 -8.5q171 0 371 57l270 1266h64l-279 -1307q-240 -73 -426 -73q-69 0 -128 10t-114.5 35t-94.5 64t-62 102t-23 145zM836 1876h65l131 -330h-55z" />
<glyph unicode="&#xda;" horiz-adv-x="1359" d="M309 338q0 76 17 154l184 870h63l-184 -870q-18 -79 -18 -154q0 -69 18.5 -121.5t50 -86t78.5 -54t98.5 -29t114.5 -8.5q171 0 371 57l270 1266h64l-279 -1307q-240 -73 -426 -73q-69 0 -128 10t-114.5 35t-94.5 64t-62 102t-23 145zM971 1546l229 330h70l-236 -330h-63z " />
<glyph unicode="&#xdb;" horiz-adv-x="1359" d="M309 338q0 76 17 154l184 870h63l-184 -870q-18 -79 -18 -154q0 -69 18.5 -121.5t50 -86t78.5 -54t98.5 -29t114.5 -8.5q171 0 371 57l270 1266h64l-279 -1307q-240 -73 -426 -73q-69 0 -128 10t-114.5 35t-94.5 64t-62 102t-23 145zM786 1546l254 330h70l113 -330h-56 l-98 279l-221 -279h-62z" />
<glyph unicode="&#xdc;" horiz-adv-x="1359" d="M309 338q0 76 17 154l184 870h63l-184 -870q-18 -79 -18 -154q0 -69 18.5 -121.5t50 -86t78.5 -54t98.5 -29t114.5 -8.5q171 0 371 57l270 1266h64l-279 -1307q-240 -73 -426 -73q-69 0 -128 10t-114.5 35t-94.5 64t-62 102t-23 145zM829 1712q0 27 17 42t43 15 q43 0 43 -36q0 -27 -17 -42.5t-43 -15.5q-43 0 -43 37zM1153 1712q0 27 16.5 42t42.5 15q43 0 43 -36q0 -27 -16.5 -42.5t-42.5 -15.5q-43 0 -43 37z" />
<glyph unicode="&#xdd;" horiz-adv-x="1146" d="M369 1362h69l254 -827q179 157 320.5 377.5t232.5 449.5h66q-249 -600 -606 -893l-103 -469h-59l104 469zM836 1546l229 330h70l-236 -330h-63z" />
<glyph unicode="&#xde;" horiz-adv-x="1226" d="M240 0l288 1360h62l-53 -246h325q188 0 287.5 -74.5t99.5 -224.5q0 -49 -16 -131q-44 -214 -173 -307.5t-374 -93.5q-151 0 -317 32l-68 -315h-61zM381 373q156 -33 311 -33q154 0 251 37.5t149 110.5t77 196q17 83 17 131q0 123 -80 182.5t-248 59.5h-332z" />
<glyph unicode="&#xdf;" horiz-adv-x="974" d="M-94 -354q74 44 126 87t84 79.5t54.5 86t33.5 88t25 103.5l232 1088q35 163 126.5 245t260.5 82q121 0 194.5 -56.5t73.5 -162.5q0 -64 -20.5 -120.5t-54 -98t-73.5 -79.5t-79.5 -71t-73 -65.5t-54 -71.5t-20.5 -80q0 -36 21.5 -75t53 -72t69 -73t69 -76.5t53 -84 t21.5 -94.5q0 -123 -87.5 -182t-235.5 -59q-56 0 -132.5 9.5t-121.5 22.5l12 50q48 -14 119.5 -23.5t124.5 -9.5q55 0 100 8.5t85.5 29t63.5 59t23 93.5q0 48 -30 98t-72.5 94t-85.5 87.5t-73 94.5t-30 99q0 47 21 89.5t54 77t73 68.5t80.5 71t73.5 77t54 93.5t21 113.5 q0 172 -227 172q-144 0 -216.5 -68t-103.5 -212l-231 -1088q-15 -73 -28.5 -117.5t-38 -96.5t-60 -92t-91.5 -86t-137 -97z" />
<glyph unicode="&#xe0;" horiz-adv-x="1114" d="M211 295q0 88 20 188q29 144 79 245.5t116.5 156.5t138.5 78.5t160 23.5q163 0 352 -65l-145 -691q-17 -83 -17 -108q0 -90 105 -90q70 0 166 47v-51q-101 -45 -168 -45q-80 0 -119.5 39.5t-36.5 107.5q-70 -65 -172 -106t-198 -41q-126 0 -203.5 74t-77.5 237zM264 293 q0 -134 64 -197t168 -63q95 0 199 47t171 117l148 690q-134 51 -293 51q-76 0 -138 -20.5t-120 -69.5t-103 -140.5t-73 -224.5q-23 -109 -23 -190zM639 1495h66l131 -330h-56z" />
<glyph unicode="&#xe1;" horiz-adv-x="1114" d="M211 295q0 88 20 188q29 144 79 245.5t116.5 156.5t138.5 78.5t160 23.5q163 0 352 -65l-145 -691q-17 -83 -17 -108q0 -90 105 -90q70 0 166 47v-51q-101 -45 -168 -45q-80 0 -119.5 39.5t-36.5 107.5q-70 -65 -172 -106t-198 -41q-126 0 -203.5 74t-77.5 237zM264 293 q0 -134 64 -197t168 -63q95 0 199 47t171 117l148 690q-134 51 -293 51q-76 0 -138 -20.5t-120 -69.5t-103 -140.5t-73 -224.5q-23 -109 -23 -190zM774 1165l230 330h69l-235 -330h-64z" />
<glyph unicode="&#xe2;" horiz-adv-x="1114" d="M211 295q0 88 20 188q29 144 79 245.5t116.5 156.5t138.5 78.5t160 23.5q163 0 352 -65l-145 -691q-17 -83 -17 -108q0 -90 105 -90q70 0 166 47v-51q-101 -45 -168 -45q-80 0 -119.5 39.5t-36.5 107.5q-70 -65 -172 -106t-198 -41q-126 0 -203.5 74t-77.5 237zM264 293 q0 -134 64 -197t168 -63q95 0 199 47t171 117l148 690q-134 51 -293 51q-76 0 -138 -20.5t-120 -69.5t-103 -140.5t-73 -224.5q-23 -109 -23 -190zM594 1165l254 330h70l112 -330h-55l-98 279l-222 -279h-61z" />
<glyph unicode="&#xe3;" horiz-adv-x="1114" d="M211 295q0 88 20 188q29 144 79 245.5t116.5 156.5t138.5 78.5t160 23.5q163 0 352 -65l-145 -691q-17 -83 -17 -108q0 -90 105 -90q70 0 166 47v-51q-101 -45 -168 -45q-80 0 -119.5 39.5t-36.5 107.5q-70 -65 -172 -106t-198 -41q-126 0 -203.5 74t-77.5 237zM264 293 q0 -134 64 -197t168 -63q95 0 199 47t171 117l148 690q-134 51 -293 51q-76 0 -138 -20.5t-120 -69.5t-103 -140.5t-73 -224.5q-23 -109 -23 -190zM575 1280q25 55 58 82t90 27q39 0 128 -39t122 -39q36 0 58 21.5t40 60.5l45 -23q-25 -56 -58.5 -82t-92.5 -26 q-38 0 -126 38.5t-120 38.5q-64 0 -98 -82z" />
<glyph unicode="&#xe4;" horiz-adv-x="1114" d="M211 295q0 88 20 188q29 144 79 245.5t116.5 156.5t138.5 78.5t160 23.5q163 0 352 -65l-145 -691q-17 -83 -17 -108q0 -90 105 -90q70 0 166 47v-51q-101 -45 -168 -45q-80 0 -119.5 39.5t-36.5 107.5q-70 -65 -172 -106t-198 -41q-126 0 -203.5 74t-77.5 237zM264 293 q0 -134 64 -197t168 -63q95 0 199 47t171 117l148 690q-134 51 -293 51q-76 0 -138 -20.5t-120 -69.5t-103 -140.5t-73 -224.5q-23 -109 -23 -190zM635 1331q0 27 16.5 42.5t42.5 15.5q43 0 43 -37q0 -27 -16.5 -42.5t-42.5 -15.5q-43 0 -43 37zM958 1331q0 27 17 42.5 t43 15.5q43 0 43 -37q0 -27 -17 -42.5t-43 -15.5q-43 0 -43 37z" />
<glyph unicode="&#xe5;" horiz-adv-x="1114" d="M211 295q0 88 20 188q29 144 79 245.5t116.5 156.5t138.5 78.5t160 23.5q163 0 352 -65l-145 -691q-17 -83 -17 -108q0 -90 105 -90q70 0 166 47v-51q-101 -45 -168 -45q-80 0 -119.5 39.5t-36.5 107.5q-70 -65 -172 -106t-198 -41q-126 0 -203.5 74t-77.5 237zM264 293 q0 -134 64 -197t168 -63q95 0 199 47t171 117l148 690q-134 51 -293 51q-76 0 -138 -20.5t-120 -69.5t-103 -140.5t-73 -224.5q-23 -109 -23 -190zM676 1296q0 79 55 133t141 54q69 0 105.5 -34t36.5 -91q0 -79 -55.5 -133t-143.5 -54q-67 0 -103 34t-36 91zM725 1298 q0 -38 25.5 -58.5t70.5 -20.5q65 0 104.5 36t39.5 101q0 38 -26 59t-71 21q-64 0 -103.5 -36.5t-39.5 -101.5z" />
<glyph unicode="&#xe6;" horiz-adv-x="1554" d="M147 229q0 74 24 132t63.5 94t95.5 59t115 32t128 9q120 0 265 -29q9 36 40 127t31 123q0 81 -74.5 121.5t-189.5 40.5q-140 0 -250 -20l2 47q103 20 256 20q47 0 94 -8.5t93.5 -26.5t78.5 -53.5t39 -83.5q136 174 367 174q135 0 214 -63t79 -179q0 -303 -418 -303 q-134 0 -319 27q-17 -96 -17 -172q0 -148 70 -206t246 -58q98 0 264 45v-51q-153 -43 -270 -43q-122 0 -199 26t-117 86q-188 -112 -385 -112q-92 0 -163 23.5t-117 80.5t-46 141zM203 236q0 -104 73 -154.5t195 -50.5q193 0 365 106q-27 73 -27 160q0 79 20 182 q-153 27 -251 27q-76 0 -138 -12t-118 -41t-87.5 -84t-31.5 -133zM891 514q167 -25 313 -25q60 0 107.5 5.5t95.5 22t80 43.5t52 74t20 111q0 53 -19 91.5t-53 60t-75.5 31.5t-92.5 10q-164 0 -269.5 -102.5t-158.5 -321.5z" />
<glyph unicode="&#xe7;" horiz-adv-x="882" d="M211 297q0 83 20 186q25 117 62.5 205t83 144.5t104.5 91.5t121 49t137 14q123 0 238 -22l-10 -52q-127 25 -234 25q-83 0 -147 -20t-122.5 -69t-102.5 -140t-72 -224q-25 -119 -25 -192q0 -145 71 -202.5t208 -57.5q96 0 239 41v-51q-128 -39 -247 -39 q-74 0 -130.5 15.5t-101.5 50t-68.5 97t-23.5 150.5zM279 -377l10 45q49 -18 90 -18q94 0 94 102q0 53 -43 154h53q43 -101 43 -154q0 -78 -42.5 -112.5t-106.5 -34.5q-57 0 -98 18z" />
<glyph unicode="&#xe8;" horiz-adv-x="956" d="M211 297q0 85 20 188q98 502 496 502q135 0 214 -63t79 -179q0 -163 -110 -231t-339 -68q-152 0 -288 17q-17 -96 -17 -166q0 -148 68.5 -206t238.5 -58q128 0 273 45v-51q-150 -43 -273 -43q-190 0 -276 69.5t-86 243.5zM293 510q118 -16 280 -16q206 0 297 53t91 198 q0 53 -19 91.5t-53 60t-75.5 31.5t-92.5 10q-167 0 -271.5 -104t-156.5 -324zM586 1495h65l131 -330h-55z" />
<glyph unicode="&#xe9;" horiz-adv-x="956" d="M211 297q0 85 20 188q98 502 496 502q135 0 214 -63t79 -179q0 -163 -110 -231t-339 -68q-152 0 -288 17q-17 -96 -17 -166q0 -148 68.5 -206t238.5 -58q128 0 273 45v-51q-150 -43 -273 -43q-190 0 -276 69.5t-86 243.5zM293 510q118 -16 280 -16q206 0 297 53t91 198 q0 53 -19 91.5t-53 60t-75.5 31.5t-92.5 10q-167 0 -271.5 -104t-156.5 -324zM711 1165l229 330h70l-236 -330h-63z" />
<glyph unicode="&#xea;" horiz-adv-x="956" d="M211 297q0 85 20 188q98 502 496 502q135 0 214 -63t79 -179q0 -163 -110 -231t-339 -68q-152 0 -288 17q-17 -96 -17 -166q0 -148 68.5 -206t238.5 -58q128 0 273 45v-51q-150 -43 -273 -43q-190 0 -276 69.5t-86 243.5zM293 510q118 -16 280 -16q206 0 297 53t91 198 q0 53 -19 91.5t-53 60t-75.5 31.5t-92.5 10q-167 0 -271.5 -104t-156.5 -324zM535 1165l253 330h70l113 -330h-56l-98 279l-221 -279h-61z" />
<glyph unicode="&#xeb;" horiz-adv-x="956" d="M211 297q0 85 20 188q98 502 496 502q135 0 214 -63t79 -179q0 -163 -110 -231t-339 -68q-152 0 -288 17q-17 -96 -17 -166q0 -148 68.5 -206t238.5 -58q128 0 273 45v-51q-150 -43 -273 -43q-190 0 -276 69.5t-86 243.5zM293 510q118 -16 280 -16q206 0 297 53t91 198 q0 53 -19 91.5t-53 60t-75.5 31.5t-92.5 10q-167 0 -271.5 -104t-156.5 -324zM578 1331q0 27 16.5 42.5t42.5 15.5q43 0 43 -37q0 -27 -16.5 -42.5t-42.5 -15.5q-43 0 -43 37zM901 1331q0 27 17 42.5t43 15.5q43 0 43 -37q0 -27 -17 -42.5t-43 -15.5q-43 0 -43 37z" />
<glyph unicode="&#xec;" horiz-adv-x="509" d="M244 127q0 31 6 61l164 783h57l-164 -785q-6 -30 -6 -57q0 -49 23.5 -72.5t78.5 -23.5q72 0 168 47v-51q-92 -45 -174 -45q-78 0 -115.5 39t-37.5 104zM317 1495h66l131 -330h-55z" />
<glyph unicode="&#xed;" horiz-adv-x="509" d="M244 127q0 31 6 61l164 783h57l-164 -785q-6 -30 -6 -57q0 -49 23.5 -72.5t78.5 -23.5q72 0 168 47v-51q-92 -45 -174 -45q-78 0 -115.5 39t-37.5 104zM455 1165l229 330h70l-236 -330h-63z" />
<glyph unicode="&#xee;" horiz-adv-x="497" d="M231 127q0 26 7 61l163 783h58l-164 -785q-6 -30 -6 -57q0 -49 23.5 -72.5t78.5 -23.5q72 0 168 47v-51q-92 -45 -174 -45q-78 0 -116 39t-38 104zM252 1165l254 330h69l113 -330h-55l-98 279l-222 -279h-61z" />
<glyph unicode="&#xef;" horiz-adv-x="509" d="M244 127q0 31 6 61l164 783h57l-164 -785q-6 -30 -6 -57q0 -49 23.5 -72.5t78.5 -23.5q72 0 168 47v-51q-92 -45 -174 -45q-78 0 -115.5 39t-37.5 104zM309 1331q0 27 17 42.5t43 15.5q43 0 43 -37q0 -27 -17 -42.5t-43 -15.5q-43 0 -43 37zM633 1331q0 27 16.5 42.5 t42.5 15.5q43 0 43 -37q0 -27 -16.5 -42.5t-42.5 -15.5q-43 0 -43 37z" />
<glyph unicode="&#xf0;" horiz-adv-x="1054" d="M211 295q0 90 20 190q98 502 500 502q224 0 287 -156q0 238 -45 408l-359 -68l13 56l331 59q-36 102 -108 209h68q54 -82 96 -197l198 39l-12 -55l-172 -33q43 -183 43 -375q0 -142 -35 -354l-6 -35q-51 -261 -178 -381t-324 -120q-157 0 -237 74t-80 237zM266 293 q0 -144 69.5 -202t199.5 -58q80 0 143.5 20.5t121.5 69.5t101.5 139.5t71.5 222.5q22 105 22 193q0 144 -69 202t-199 58q-80 0 -143.5 -20.5t-121.5 -69.5t-101.5 -140t-71.5 -223q-23 -109 -23 -192z" />
<glyph unicode="&#xf1;" horiz-adv-x="1142" d="M211 0l195 922q219 65 385 65q146 0 230.5 -57t84.5 -176q0 -34 -10 -86l-140 -668h-59l141 670q11 57 11 82q0 102 -69 144t-192 42q-84 0 -179 -16.5t-154 -36.5l-187 -885h-57zM598 1280q25 56 58 82.5t89 26.5q39 0 128 -39t122 -39q36 0 58.5 21.5t40.5 60.5l45 -23 q-25 -55 -59 -81.5t-93 -26.5q-38 0 -126 38.5t-120 38.5q-64 0 -98 -82z" />
<glyph unicode="&#xf2;" horiz-adv-x="1024" d="M199 295q0 90 20 190q98 502 500 502q158 0 238.5 -74t80.5 -237q0 -91 -20 -191q-51 -261 -178 -381t-324 -120q-157 0 -237 74t-80 237zM254 293q0 -144 69 -202t199 -58q64 0 116 12t103 43t91 81.5t73.5 130t55.5 185.5q22 105 22 193q0 144 -69 202t-199 58 q-80 0 -143.5 -20.5t-122 -69.5t-102 -140t-71.5 -223q-22 -105 -22 -192zM522 1495h66l131 -330h-55z" />
<glyph unicode="&#xf3;" horiz-adv-x="1024" d="M199 295q0 90 20 190q98 502 500 502q158 0 238.5 -74t80.5 -237q0 -91 -20 -191q-51 -261 -178 -381t-324 -120q-157 0 -237 74t-80 237zM254 293q0 -144 69 -202t199 -58q64 0 116 12t103 43t91 81.5t73.5 130t55.5 185.5q22 105 22 193q0 144 -69 202t-199 58 q-80 0 -143.5 -20.5t-122 -69.5t-102 -140t-71.5 -223q-22 -105 -22 -192zM725 1165l229 330h70l-236 -330h-63z" />
<glyph unicode="&#xf4;" horiz-adv-x="1024" d="M199 295q0 90 20 190q98 502 500 502q158 0 238.5 -74t80.5 -237q0 -91 -20 -191q-51 -261 -178 -381t-324 -120q-157 0 -237 74t-80 237zM254 293q0 -144 69 -202t199 -58q64 0 116 12t103 43t91 81.5t73.5 130t55.5 185.5q22 105 22 193q0 144 -69 202t-199 58 q-80 0 -143.5 -20.5t-122 -69.5t-102 -140t-71.5 -223q-22 -105 -22 -192zM541 1165l254 330h69l113 -330h-55l-99 279l-221 -279h-61z" />
<glyph unicode="&#xf5;" horiz-adv-x="1024" d="M199 295q0 90 20 190q98 502 500 502q158 0 238.5 -74t80.5 -237q0 -91 -20 -191q-51 -261 -178 -381t-324 -120q-157 0 -237 74t-80 237zM254 293q0 -144 69 -202t199 -58q64 0 116 12t103 43t91 81.5t73.5 130t55.5 185.5q22 105 22 193q0 144 -69 202t-199 58 q-80 0 -143.5 -20.5t-122 -69.5t-102 -140t-71.5 -223q-22 -105 -22 -192zM524 1280q25 55 58 82t90 27q39 0 128 -39t122 -39q36 0 58 21.5t40 60.5l45 -23q-25 -55 -59 -81.5t-93 -26.5q-38 0 -125.5 38.5t-119.5 38.5q-65 0 -99 -82z" />
<glyph unicode="&#xf6;" horiz-adv-x="1024" d="M199 295q0 90 20 190q98 502 500 502q158 0 238.5 -74t80.5 -237q0 -91 -20 -191q-51 -261 -178 -381t-324 -120q-157 0 -237 74t-80 237zM254 293q0 -144 69 -202t199 -58q64 0 116 12t103 43t91 81.5t73.5 130t55.5 185.5q22 105 22 193q0 144 -69 202t-199 58 q-80 0 -143.5 -20.5t-122 -69.5t-102 -140t-71.5 -223q-22 -105 -22 -192zM584 1331q0 27 16.5 42.5t42.5 15.5q43 0 43 -37q0 -27 -16.5 -42.5t-42.5 -15.5q-43 0 -43 37zM907 1331q0 27 17 42.5t43 15.5q43 0 43 -37q0 -27 -17 -42.5t-43 -15.5q-43 0 -43 37z" />
<glyph unicode="&#xf7;" d="M289 629v51h876v-51h-876zM678 322q0 27 16 42t43 15q28 0 44 -15t16 -42q0 -28 -17 -45t-45 -17q-26 0 -41.5 17t-15.5 45zM678 991q0 27 16 42.5t43 15.5q28 0 44 -15t16 -43t-16 -44.5t-44 -16.5q-26 0 -42.5 16.5t-16.5 44.5z" />
<glyph unicode="&#xf8;" horiz-adv-x="1024" d="M113 -119l151 191q-65 77 -65 223q0 90 20 190q98 502 500 502q148 0 223 -61l135 170l37 -35l-135 -172q59 -74 59 -213q0 -91 -20 -191q-51 -261 -178 -381t-324 -120q-140 0 -213 53l-149 -189zM254 293q0 -116 47 -178l608 770q-64 53 -194 53q-80 0 -143.5 -20.5 t-122 -69.5t-102 -140t-71.5 -223q-22 -105 -22 -192zM336 80q63 -47 186 -47q64 0 116 12t103 43t91 81.5t73.5 130t55.5 185.5q22 105 22 193q0 106 -41 168z" />
<glyph unicode="&#xf9;" horiz-adv-x="1138" d="M244 238q0 48 10 92l135 641h57l-137 -647q-10 -41 -10 -86q0 -106 57 -155.5t150 -49.5q97 0 204 47.5t171 116.5l163 774h58l-164 -778q-8 -41 -8 -70q0 -90 104 -90q70 0 166 47v-51q-101 -45 -168 -45q-80 0 -119 39.5t-36 107.5q-75 -69 -176 -108t-197 -39 q-115 0 -187.5 63.5t-72.5 190.5zM616 1495h66l131 -330h-55z" />
<glyph unicode="&#xfa;" horiz-adv-x="1138" d="M244 238q0 48 10 92l135 641h57l-137 -647q-10 -41 -10 -86q0 -106 57 -155.5t150 -49.5q97 0 204 47.5t171 116.5l163 774h58l-164 -778q-8 -41 -8 -70q0 -90 104 -90q70 0 166 47v-51q-101 -45 -168 -45q-80 0 -119 39.5t-36 107.5q-75 -69 -176 -108t-197 -39 q-115 0 -187.5 63.5t-72.5 190.5zM748 1165l229 330h70l-236 -330h-63z" />
<glyph unicode="&#xfb;" horiz-adv-x="1138" d="M244 238q0 48 10 92l135 641h57l-137 -647q-10 -41 -10 -86q0 -106 57 -155.5t150 -49.5q97 0 204 47.5t171 116.5l163 774h58l-164 -778q-8 -41 -8 -70q0 -90 104 -90q70 0 166 47v-51q-101 -45 -168 -45q-80 0 -119 39.5t-36 107.5q-75 -69 -176 -108t-197 -39 q-115 0 -187.5 63.5t-72.5 190.5zM567 1165l254 330h70l113 -330h-56l-98 279l-221 -279h-62z" />
<glyph unicode="&#xfc;" horiz-adv-x="1138" d="M244 238q0 48 10 92l135 641h57l-137 -647q-10 -41 -10 -86q0 -106 57 -155.5t150 -49.5q97 0 204 47.5t171 116.5l163 774h58l-164 -778q-8 -41 -8 -70q0 -90 104 -90q70 0 166 47v-51q-101 -45 -168 -45q-80 0 -119 39.5t-36 107.5q-75 -69 -176 -108t-197 -39 q-115 0 -187.5 63.5t-72.5 190.5zM612 1331q0 27 17 42.5t43 15.5q43 0 43 -37q0 -27 -17 -42.5t-43 -15.5q-43 0 -43 37zM936 1331q0 27 16.5 42.5t42.5 15.5q43 0 43 -37q0 -27 -16.5 -42.5t-42.5 -15.5q-43 0 -43 37z" />
<glyph unicode="&#xfd;" horiz-adv-x="1110" d="M156 -346l10 51q157 -55 309 -55q153 0 244 73.5t119 208.5l30 144q-189 -92 -327 -92q-139 0 -219 58.5t-80 182.5q0 51 10 97l137 649h57l-139 -656q-10 -41 -10 -88q0 -106 67 -150t187 -44q76 0 167.5 31.5t160.5 68.5l178 838h59l-221 -1039q-35 -159 -142 -245 t-286 -86q-165 0 -311 53zM754 1165l229 330h70l-236 -330h-63z" />
<glyph unicode="&#xfe;" horiz-adv-x="1095" d="M129 -385l397 1880h58l-119 -557q164 49 313 49q148 0 230 -74t82 -243q0 -79 -21 -187q-24 -122 -66 -213.5t-90.5 -145t-110 -86t-117.5 -43.5t-120 -11q-135 0 -293 36l-86 -405h-57zM283 70q151 -37 286 -37q63 0 113 10t102.5 39.5t92.5 78.5t75.5 131t59.5 193 q22 102 22 187q0 148 -65.5 207t-198.5 59q-154 0 -315 -53z" />
<glyph unicode="&#xff;" horiz-adv-x="1110" d="M156 -346l10 51q157 -55 309 -55q153 0 244 73.5t119 208.5l30 144q-189 -92 -327 -92q-139 0 -219 58.5t-80 182.5q0 51 10 97l137 649h57l-139 -656q-10 -41 -10 -88q0 -106 67 -150t187 -44q76 0 167.5 31.5t160.5 68.5l178 838h59l-221 -1039q-35 -159 -142 -245 t-286 -86q-165 0 -311 53zM612 1331q0 27 17 42.5t43 15.5q43 0 43 -37q0 -27 -17 -42.5t-43 -15.5q-43 0 -43 37zM936 1331q0 27 16.5 42.5t42.5 15.5q43 0 43 -37q0 -27 -16.5 -42.5t-42.5 -15.5q-43 0 -43 37z" />
<glyph unicode="&#x152;" horiz-adv-x="1961" d="M260 393q0 138 33 287q41 193 104 330t147.5 217.5t183 116.5t222.5 36q341 0 391 -303l62 285h700l-12 -57h-639l-121 -568h567l-12 -57h-567l-92 -438q-6 -30 -6 -56q0 -129 155 -129h479l-10 -57h-475q-103 0 -158 48.5t-55 133.5q0 28 6 62l4 20 q-89 -149 -213 -215.5t-288 -66.5q-406 0 -406 411zM324 393q0 -189 87 -271.5t261 -82.5q109 0 195 31t159 100.5t127.5 186.5t93.5 284l23 100q22 135 22 228q0 189 -87 271.5t-261 82.5q-112 0 -200.5 -33t-163 -107.5t-129.5 -199.5t-93 -303q-34 -154 -34 -287z" />
<glyph unicode="&#x153;" horiz-adv-x="1695" d="M211 295q0 90 20 190q98 502 500 502q150 0 228 -66.5t85 -213.5q67 143 169.5 211.5t254.5 68.5q135 0 213 -63t78 -179q0 -163 -109.5 -231t-338.5 -68q-153 0 -289 17q-16 -90 -16 -166q0 -148 68.5 -206t238.5 -58q125 0 272 45v-51q-136 -43 -278 -43 q-177 0 -261.5 62.5t-91.5 217.5q-124 -280 -426 -280q-157 0 -237 74t-80 237zM266 293q0 -144 69.5 -202t199.5 -58q80 0 143.5 20.5t121.5 69.5t101.5 139.5t71.5 222.5q24 114 24 193q0 144 -70 202t-200 58q-80 0 -143.5 -20.5t-121.5 -69.5t-101.5 -140t-71.5 -223 q-23 -109 -23 -192zM1032 510q118 -16 281 -16q205 0 296 53t91 198q0 103 -65.5 148t-172.5 45q-167 0 -272.5 -104t-157.5 -324z" />
<glyph unicode="&#x178;" horiz-adv-x="1146" d="M369 1362h69l254 -827q179 157 320.5 377.5t232.5 449.5h66q-249 -600 -606 -893l-103 -469h-59l104 469zM694 1712q0 27 17 42t43 15q43 0 43 -36q0 -27 -17 -42.5t-43 -15.5q-43 0 -43 37zM1018 1712q0 27 16.5 42t42.5 15q43 0 43 -36q0 -27 -16.5 -42.5t-42.5 -15.5 q-43 0 -43 37z" />
<glyph unicode="&#x2c6;" horiz-adv-x="1069" d="M563 1165l254 330h70l112 -330h-55l-98 279l-221 -279h-62z" />
<glyph unicode="&#x2dc;" horiz-adv-x="1069" d="M545 1280q25 56 58 82.5t89 26.5q39 0 128 -39t122 -39q36 0 58 21.5t40 60.5l45 -23q-25 -56 -58.5 -82t-92.5 -26q-38 0 -126 38.5t-120 38.5q-64 0 -98 -82z" />
<glyph unicode="&#x2000;" horiz-adv-x="938" />
<glyph unicode="&#x2001;" horiz-adv-x="1876" />
<glyph unicode="&#x2002;" horiz-adv-x="938" />
<glyph unicode="&#x2003;" horiz-adv-x="1876" />
<glyph unicode="&#x2004;" horiz-adv-x="625" />
<glyph unicode="&#x2005;" horiz-adv-x="469" />
<glyph unicode="&#x2006;" horiz-adv-x="312" />
<glyph unicode="&#x2007;" horiz-adv-x="312" />
<glyph unicode="&#x2008;" horiz-adv-x="234" />
<glyph unicode="&#x2009;" horiz-adv-x="375" />
<glyph unicode="&#x200a;" horiz-adv-x="104" />
<glyph unicode="&#x2010;" horiz-adv-x="739" d="M244 530l10 52h477l-10 -52h-477z" />
<glyph unicode="&#x2011;" horiz-adv-x="739" d="M244 530l10 52h477l-10 -52h-477z" />
<glyph unicode="&#x2012;" horiz-adv-x="739" d="M244 530l10 52h477l-10 -52h-477z" />
<glyph unicode="&#x2013;" horiz-adv-x="1118" d="M244 530l10 52h856l-10 -52h-856z" />
<glyph unicode="&#x2014;" horiz-adv-x="1552" d="M244 530l10 52h1290l-10 -52h-1290z" />
<glyph unicode="&#x2018;" horiz-adv-x="602" d="M381 926l254 436h72l-258 -436h-68z" />
<glyph unicode="&#x2019;" horiz-adv-x="602" d="M381 926l254 436h72l-258 -436h-68z" />
<glyph unicode="&#x201a;" horiz-adv-x="602" d="M115 -328l254 437h71l-258 -437h-67z" />
<glyph unicode="&#x201c;" horiz-adv-x="942" d="M369 926l252 436h67l-248 -436h-71zM752 926l239 436h66l-234 -436h-71z" />
<glyph unicode="&#x201d;" horiz-adv-x="942" d="M369 926l233 436h72l-240 -436h-65zM737 926l248 436h72l-254 -436h-66z" />
<glyph unicode="&#x201e;" horiz-adv-x="950" d="M102 -328l238 437h72l-242 -437h-68zM473 -328l250 437h72l-256 -437h-66z" />
<glyph unicode="&#x2022;" horiz-adv-x="749" d="M354 524q0 68 48 112t116 44q50 0 79.5 -25.5t29.5 -68.5q0 -65 -48.5 -111.5t-113.5 -46.5q-52 0 -81.5 26.5t-29.5 69.5z" />
<glyph unicode="&#x2026;" horiz-adv-x="1675" d="M219 20q0 25 19.5 40.5t44.5 15.5q41 0 41 -35q0 -25 -18 -41t-44 -16q-19 0 -31 9.5t-12 26.5zM791 18q0 26 18 42t43 16q41 0 41 -33q0 -26 -17 -42.5t-45 -16.5q-18 0 -29 9.5t-11 24.5zM1362 18q0 27 18 42.5t45 15.5q41 0 41 -33q0 -26 -18 -42.5t-43 -16.5 q-20 0 -31.5 9.5t-11.5 24.5z" />
<glyph unicode="&#x202f;" horiz-adv-x="375" />
<glyph unicode="&#x2039;" horiz-adv-x="655" d="M258 555l381 371h72l-383 -379l227 -363h-59z" />
<glyph unicode="&#x203a;" horiz-adv-x="655" d="M180 184l383 379l-227 363h59l238 -371l-381 -371h-72z" />
<glyph unicode="&#x205f;" horiz-adv-x="469" />
<glyph unicode="&#x20ac;" d="M211 487l12 58h209q6 43 25 131q9 46 35 149h-209l12 58h213q43 143 99.5 240.5t130 153.5t156.5 79.5t191 23.5q100 0 256 -26l-18 -58q-154 27 -244 27q-133 0 -224.5 -38.5t-163 -136t-122.5 -265.5h564l-41 -58h-541q-26 -103 -35 -149q-15 -73 -24 -131h491l-41 -58 h-459q-8 -63 -8 -129q0 -177 75.5 -248t231.5 -71q106 0 297 33l-6 -58q-178 -32 -303 -32q-176 0 -264 87t-88 289q0 58 6 129h-213z" />
<glyph unicode="&#x2122;" horiz-adv-x="1529" d="M369 1311l10 51h459l-11 -51h-200l-121 -561h-57l120 561h-200zM864 750l131 612h56l168 -424l346 424h67l-131 -612h-57l110 518l-315 -389h-55l-152 389l-110 -518h-58z" />
<glyph unicode="&#x25fc;" horiz-adv-x="972" d="M0 0v973h973v-973h-973z" />
</font>
</defs>
</svg>
