<?xml version="1.0" standalone="no"?>
<!DOCTYPE svg PUBLIC "-//W3C//DTD SVG 1.1//EN" "http://www.w3.org/Graphics/SVG/1.1/DTD/svg11.dtd" >
<svg xmlns="http://www.w3.org/2000/svg">
<metadata></metadata>
<defs>
<font id="3dscondensed" horiz-adv-x="1060" >
<font-face units-per-em="2048" ascent="1638" descent="-410" />
<missing-glyph horiz-adv-x="440" />
<glyph unicode="&#xfb01;" horiz-adv-x="1028" d="M61 834v153h129v164q0 195 95.5 281t281.5 86q78 0 153 -10.5t124 -26.5l-19 -160q-51 16 -120.5 27.5t-131.5 11.5q-98 0 -137 -44t-39 -159v-170h480v-987h-207v834h-273v-834h-207v834h-129z" />
<glyph unicode="&#xfb02;" horiz-adv-x="1083" d="M61 834v153h129v168q0 98 26 168t75 113t120.5 62.5t161.5 19.5q86 0 166 -13.5t138 -29.5v-1475h-207v1352q-10 2 -35 5t-49 3q-47 0 -83 -8.5t-59.5 -30t-35 -61t-11.5 -103.5v-170h168v-153h-168v-834h-207v834h-129z" />
<glyph horiz-adv-x="0" />
<glyph horiz-adv-x="0" />
<glyph unicode="&#xd;" horiz-adv-x="440" />
<glyph unicode=" "  horiz-adv-x="440" />
<glyph unicode="&#x09;" horiz-adv-x="440" />
<glyph unicode="&#xa0;" horiz-adv-x="440" />
<glyph unicode="!" horiz-adv-x="561" d="M158 92q0 53 33.5 83t91.5 30q53 0 86.5 -30t33.5 -83t-33.5 -82.5t-86.5 -29.5q-57 0 -91 29.5t-34 82.5zM174 1362h217l-22 -1018h-172z" />
<glyph unicode="&#x22;" horiz-adv-x="827" d="M158 1362h211l-29 -436h-158zM459 1362h211l-29 -436h-158z" />
<glyph unicode="#" horiz-adv-x="1241" d="M84 393l20 146h220l45 278h-219l22 146h219l62 399h172l-62 -399h195l63 399h178l-61 -399h219l-24 -146h-218l-43 -278h220l-25 -146h-219l-60 -393h-178l62 393h-197l-61 -393h-172l59 393h-217zM496 539h198l43 278h-196z" />
<glyph unicode="$" d="M143 106l29 160q72 -25 159 -48t171 -23q39 0 73.5 6t60.5 22.5t41 46t15 76.5q0 66 -40 116t-101.5 93t-131 86t-131 94t-101.5 115.5t-40 155.5q0 80 24 135t64.5 91t97 55.5t124.5 27.5v180h161v-174q59 -4 128 -11t116 -18l-14 -164q-27 6 -63.5 12.5t-74.5 11.5 t-76 7t-65 2q-43 0 -80.5 -5t-66.5 -20.5t-45.5 -44t-16.5 -75.5q0 -59 41 -104.5t101.5 -87.5t132.5 -86t132 -97t101 -122.5t41 -162.5q0 -78 -20.5 -132t-57 -91t-88 -59.5t-112.5 -32.5v-215h-162v205q-92 6 -181 29.5t-145 45.5z" />
<glyph unicode="%" horiz-adv-x="1478" d="M92 1026q0 98 20.5 166t58.5 109.5t89.5 61t112.5 19.5t112.5 -19.5t88 -61t57 -110.5t20.5 -167q0 -96 -20.5 -164.5t-57 -111.5t-88 -63.5t-112.5 -20.5t-112.5 20.5t-89.5 64.5t-58.5 112.5t-20.5 164.5zM264 1026q0 -70 8.5 -116t23.5 -73.5t34.5 -40t42.5 -12.5 q43 0 73.5 51.5t30.5 188.5q0 70 -8 116t-22.5 72.5t-34 38t-39.5 11.5q-23 0 -42.5 -11.5t-34.5 -38t-23.5 -71.5t-8.5 -115zM307 0l701 1362h161l-704 -1362h-158zM827 344q0 98 20.5 167t57.5 111t88.5 61t112.5 19t112.5 -19t89.5 -62t58 -112t20 -167 q0 -190 -78.5 -275t-201.5 -85q-121 0 -200 85t-79 277zM999 344q0 -137 32 -188.5t75 -51.5q45 0 75.5 51.5t30.5 186.5q0 139 -30.5 189.5t-75.5 50.5q-23 0 -41 -11.5t-33.5 -39t-24 -72.5t-8.5 -115z" />
<glyph unicode="&#x26;" horiz-adv-x="1105" d="M100 354q0 70 17.5 127.5t49.5 105.5t76 89t95 80q-53 72 -99 152.5t-46 176.5q0 147 83.5 222t229.5 75q141 0 228 -71.5t87 -214.5q0 -119 -59.5 -209t-147.5 -166l209 -301q23 41 41.5 88t38.5 125l168 -49q-18 -86 -56 -176.5t-85 -157.5l176 -250h-240l-67 94 q-57 -55 -135 -86t-179 -31q-182 0 -283.5 94.5t-101.5 282.5zM311 354q0 -121 51.5 -169t135.5 -48q55 0 114.5 28t94.5 75l-256 364q-35 -27 -60.5 -50.5t-43 -52t-27 -63.5t-9.5 -84zM399 1094q0 -66 29 -117t74 -117q53 47 86 100.5t33 133.5q0 82 -31 109.5t-82 27.5 q-47 0 -78 -28.5t-31 -108.5z" />
<glyph unicode="'" horiz-adv-x="526" d="M158 1362h211l-29 -436h-158z" />
<glyph unicode="(" horiz-adv-x="600" d="M102 553q0 262 70 508t207 434h180q-61 -96 -110.5 -197.5t-85 -215t-55 -244.5t-19.5 -285t19.5 -283t55 -242.5t85 -214t110.5 -198.5h-180q-137 188 -207 432t-70 506z" />
<glyph unicode=")" horiz-adv-x="600" d="M41 -385q61 98 110.5 198.5t85 214t55 242.5t19.5 283t-19.5 285t-55 244.5t-85 215t-110.5 197.5h180q137 -188 207 -434t70 -508t-70 -506t-207 -432h-180z" />
<glyph unicode="*" horiz-adv-x="770" d="M70 1087l41 142l208 -90l-22 223h174l-22 -223l208 90l41 -142l-225 -67l158 -186l-119 -109l-127 205l-129 -205l-119 109l158 186z" />
<glyph unicode="+" d="M125 582v143h319v348h172v-348h320v-143h-320v-351h-172v351h-319z" />
<glyph unicode="," horiz-adv-x="520" d="M57 -272l119 481h209l-156 -481h-172z" />
<glyph unicode="-" horiz-adv-x="712" d="M117 475v160h477v-160h-477z" />
<glyph unicode="." horiz-adv-x="518" d="M133 100q0 55 34 86t93 31t93 -30.5t34 -86.5q0 -55 -34 -86.5t-93 -31.5t-93 31.5t-34 86.5z" />
<glyph unicode="/" horiz-adv-x="854" d="M53 -109l582 1604h180l-586 -1604h-176z" />
<glyph unicode="0" d="M102 676q0 373 104.5 539.5t323.5 166.5t323.5 -165.5t104.5 -536.5t-104 -537t-324 -166q-219 0 -323.5 166t-104.5 533zM313 678q0 -150 12.5 -253t38 -166.5t66.5 -91.5t100 -28q57 0 98.5 28t68 91.5t39 166.5t12.5 253q0 152 -12.5 255t-39 167.5t-67.5 92.5t-99 28 q-59 0 -100 -28t-66.5 -92.5t-38 -168t-12.5 -254.5z" />
<glyph unicode="1" d="M221 1094v172l295 96h162v-1362h-207v1174z" />
<glyph unicode="2" d="M123 0v150l336 419q88 109 145.5 210.5t57.5 224.5q0 115 -56.5 166t-150.5 51q-72 0 -149 -16.5t-132 -33.5l-22 164q63 23 144 35t173 12t169 -20.5t130 -64.5t83 -115.5t30 -173.5q0 -84 -19.5 -155t-54.5 -136.5t-82 -128t-102 -127.5l-250 -297h520v-164h-770z" />
<glyph unicode="3" d="M117 25l18 161q68 -18 157 -32.5t161 -14.5q109 0 168 57.5t59 211.5q0 127 -57.5 184t-167.5 57h-146v133l309 416h-483v164h729v-137l-323 -428q66 0 129 -21.5t114.5 -67.5t82 -119t30.5 -173q0 -123 -31.5 -207t-90 -135t-139.5 -74t-181 -23q-90 0 -179.5 13.5 t-158.5 34.5z" />
<glyph unicode="4" d="M57 326v137l518 899h265v-879h139v-157h-139v-326h-201v326h-582zM274 483h365v639z" />
<glyph unicode="5" d="M143 25l19 161q82 -23 155.5 -35t143.5 -12q49 0 91 12.5t72.5 44t48 85t17.5 135.5q0 80 -16.5 130t-46 79.5t-71.5 41t-93 11.5q-41 0 -111.5 -11.5t-130.5 -21.5l-47 66l47 651h651v-170h-475l-24 -361q25 4 54.5 5.5t57.5 1.5q92 0 170 -20.5t133.5 -69t86 -128 t30.5 -200.5q0 -125 -32.5 -209t-90 -136t-138.5 -75t-175 -23q-174 0 -326 48z" />
<glyph unicode="6" d="M131 670q0 201 35 338t98.5 220t153.5 118.5t200 35.5q92 0 164 -10t119 -24l-20 -162q-55 16 -122 25.5t-122 9.5q-68 0 -122 -19.5t-92 -69t-58.5 -133.5t-20.5 -213q49 16 109.5 27.5t124.5 11.5q178 0 276 -93t98 -306q0 -207 -102 -326.5t-293 -119.5 q-104 0 -184 36.5t-133.5 119.5t-81 214t-27.5 320zM346 614q0 -86 6 -171t27.5 -152.5t63.5 -109.5t114 -42q86 0 136 76t50 205q0 135 -46 187t-142 52q-49 0 -106.5 -12.5t-102.5 -32.5z" />
<glyph unicode="7" d="M133 1194v168h789v-137l-496 -1225h-227l501 1194h-567z" />
<glyph unicode="8" d="M109 365q0 145 54 223t146 112q-94 41 -137 116t-43 202q0 92 29.5 159.5t83 113.5t127 68.5t161.5 22.5t162 -22.5t127 -68.5t83 -113.5t30 -159.5q0 -127 -43 -202t-137 -116q92 -35 146 -112.5t54 -222.5q0 -182 -110.5 -285t-311.5 -103t-311 102.5t-110 285.5z M319 369q0 -111 53.5 -170.5t157.5 -59.5t157.5 59.5t53.5 170.5q0 129 -56.5 187t-154.5 58t-154.5 -58t-56.5 -187zM340 1016q0 -117 49 -172.5t141 -55.5t141.5 55.5t49.5 172.5q0 100 -49.5 152.5t-141.5 52.5t-141 -52.5t-49 -152.5z" />
<glyph unicode="9" d="M109 936q0 100 26.5 182t76.5 140.5t124 91t168 32.5q104 0 184 -36.5t133 -119.5t81 -214t28 -320q0 -201 -35 -338t-98.5 -220t-153.5 -118.5t-201 -35.5q-92 0 -163.5 10t-118.5 24l20 162q55 -16 122 -25.5t122 -9.5q68 0 122 19.5t92 69t58.5 133t20.5 212.5 q-49 -16 -109.5 -27t-124.5 -11q-178 0 -276 93t-98 306zM315 942q0 -135 47.5 -187.5t143.5 -52.5q49 0 106.5 13t102.5 33q0 86 -6.5 171t-28 152.5t-63.5 109.5t-113 42q-86 0 -137.5 -76t-51.5 -205z" />
<glyph unicode=":" horiz-adv-x="520" d="M133 102q0 55 34 86t93 31t93 -30.5t34 -86.5q0 -55 -34 -86.5t-93 -31.5t-93 31.5t-34 86.5zM133 891q0 55 34 86t93 31t93 -31t34 -86t-34 -87t-93 -32t-93 32t-34 87z" />
<glyph unicode=";" horiz-adv-x="520" d="M57 -272l119 481h209l-156 -481h-172zM133 889q0 55 34 86t93 31t93 -31t34 -86t-34 -87t-93 -32t-93 32t-34 87z" />
<glyph unicode="&#x3c;" d="M125 590v127l811 385v-162l-619 -287l619 -288v-162z" />
<glyph unicode="=" d="M125 379v141h811v-141h-811zM125 786v142h811v-142h-811z" />
<glyph unicode="&#x3e;" d="M125 203v162l618 288l-618 287v162l811 -385v-127z" />
<glyph unicode="?" horiz-adv-x="778" d="M45 1329q53 25 131 39t170 14q74 0 136.5 -19.5t106.5 -59t69.5 -100t25.5 -144.5q0 -59 -12.5 -107.5t-33 -87.5t-46 -72.5t-49.5 -64.5q-43 -53 -78 -111.5t-35 -152.5v-121h-184v129q0 66 13 120t33.5 99t46.5 83t50 69q35 45 62.5 93t27.5 112q0 94 -39 134t-114 40 q-63 0 -130 -14.5t-112 -35.5zM215 92q0 53 34 83t89 30q53 0 87 -30t34 -83t-34 -82.5t-87 -29.5q-55 0 -89 29.5t-34 82.5z" />
<glyph unicode="@" horiz-adv-x="1513" d="M92 467q0 166 38 313.5t119 258t207 175t304 64.5q182 0 308 -56.5t204 -151.5t112.5 -222t34.5 -266q0 -262 -73.5 -403.5t-233.5 -141.5q-82 0 -133 26.5t-76 61.5q-37 -31 -76 -55.5t-110 -24.5q-57 0 -105.5 22.5t-84 72.5t-55 129t-19.5 194q0 207 84 298t245 91 q78 0 143.5 -15.5t100.5 -29.5v-457q0 -76 16.5 -122t75.5 -46q70 0 101.5 93.5t31.5 310.5q0 123 -26.5 225t-86 176t-152.5 115t-226 41q-137 0 -231.5 -52.5t-153 -142.5t-85 -214t-26.5 -267q0 -154 21.5 -282t78 -220t152.5 -143t246 -51q109 0 212 30.5t204 77.5 l28 -139q-96 -47 -209.5 -79t-236.5 -32q-190 0 -318.5 65.5t-206 178.5t-110.5 265.5t-33 328.5zM641 459q0 -84 8 -135.5t21.5 -81t31 -39.5t35.5 -10q31 0 55.5 19t47.5 42v453q-12 4 -30.5 6t-35.5 2q-66 0 -99.5 -60.5t-33.5 -195.5z" />
<glyph unicode="A" horiz-adv-x="1177" d="M154 0v885q0 111 21.5 202t71.5 157.5t133 102t208 35.5t208 -35.5t134 -102t72.5 -158t21.5 -201.5v-885h-213v504h-449v-504h-208zM362 666h449v227q0 72 -10 132t-37 103t-70 68t-106 25q-66 0 -109 -25t-69.5 -68t-37 -103t-10.5 -132v-227z" />
<glyph unicode="B" horiz-adv-x="1103" d="M178 31v1331h375q94 0 171 -18.5t129 -60.5t81 -108.5t29 -162.5q0 -135 -50.5 -207t-134.5 -107v-2q43 -12 83 -36.5t70 -63.5t48 -95.5t18 -131.5q0 -190 -109.5 -291t-326.5 -101q-72 0 -176 13.5t-207 40.5zM391 158q33 -8 82 -13.5t84 -5.5q123 0 169 61.5t46 172.5 q0 117 -46 175t-163 58h-172v-448zM391 766h172q86 0 134 56.5t48 172.5q0 113 -45 161t-143 48h-166v-438z" />
<glyph unicode="C" horiz-adv-x="1015" d="M109 682q0 201 34.5 336t100 216t162 114.5t217.5 33.5q74 0 149.5 -8t140.5 -24l-16 -166q-68 16 -143.5 26.5t-137.5 10.5q-72 0 -126 -26t-89.5 -87t-53 -164.5t-17.5 -259.5q0 -162 18.5 -267.5t55 -167t91 -86t126.5 -24.5q59 0 137 11.5t149 31.5l15 -162 q-72 -23 -153 -33t-155 -10q-119 0 -212 35t-158.5 117t-100 217t-34.5 336z" />
<glyph unicode="D" horiz-adv-x="1187" d="M178 29v1333h389q121 0 216.5 -39t161 -121t99 -208t33.5 -300q0 -168 -27.5 -301t-90 -225t-165 -141.5t-249.5 -49.5q-86 0 -176 11.5t-191 40.5zM391 152q29 -6 71 -9.5t89 -3.5q160 0 233.5 133.5t73.5 419.5q0 137 -19.5 234.5t-56.5 158t-91 88t-124 27.5h-176 v-1048z" />
<glyph unicode="E" horiz-adv-x="991" d="M170 324v1038h694v-162h-481v-422h434v-162h-434v-294q0 -90 35 -125t94 -35h375v-162h-381q-158 0 -247 76t-89 248z" />
<glyph unicode="F" horiz-adv-x="978" d="M182 0v1362h705v-162h-492v-446h430v-162h-430v-592h-213z" />
<glyph unicode="G" horiz-adv-x="1181" d="M106 688q0 190 37 322.5t105.5 215.5t169 119.5t229.5 36.5q117 0 215.5 -12t157.5 -27l-14 -167q-70 16 -164 30.5t-193 14.5q-84 0 -144.5 -29t-99 -93.5t-58 -166t-19.5 -246.5q0 -160 19.5 -265.5t57 -168t93 -88t127.5 -25.5q55 0 117.5 7.5t93.5 15.5v434h-238v166 h451v-713q-86 -29 -199 -50.5t-221 -21.5q-121 0 -218.5 34t-165 116t-103.5 219t-36 342z" />
<glyph unicode="H" horiz-adv-x="1294" d="M182 0v1362h213v-576h504v576h213v-1362h-213v616h-504v-616h-213z" />
<glyph unicode="I" horiz-adv-x="577" d="M182 0v1362h213v-1362h-213z" />
<glyph unicode="J" horiz-adv-x="571" d="M-25 -289q55 57 94.5 109.5t64 104.5t36.5 107.5t12 119.5v1210h213v-1206q0 -92 -21.5 -166t-63.5 -139.5t-100 -127t-132 -129.5z" />
<glyph unicode="K" horiz-adv-x="1095" d="M182 0v1362h213v-666l457 666h219l-424 -623q61 -25 107.5 -64.5t82 -92t64.5 -118t57 -138.5l121 -326h-231l-96 279q-41 117 -94.5 201.5t-127.5 103.5l-135 -187v-397h-213z" />
<glyph unicode="L" horiz-adv-x="913" d="M182 0v1362h213v-1200h467v-162h-680z" />
<glyph unicode="M" horiz-adv-x="1564" d="M182 0v1362h228l372 -700l375 700h225v-1362h-208v1001l-306 -573h-174l-301 571v-999h-211z" />
<glyph unicode="N" horiz-adv-x="1306" d="M182 0v1362h176l557 -741v741h209v-1362h-209v307l-526 690v-997h-207z" />
<glyph unicode="O" horiz-adv-x="1193" d="M109 680q0 188 31.5 321.5t93 218.5t152.5 123.5t212 38.5q119 0 210 -38.5t152.5 -123.5t93 -218.5t31.5 -321.5t-31.5 -321.5t-93 -218.5t-152.5 -124t-210 -39q-121 0 -212 39t-152.5 124t-93 218.5t-31.5 321.5zM330 680q0 -152 17.5 -255t51 -166.5t83.5 -91.5 t116 -28t115 28t82.5 91.5t51 166.5t17.5 255t-17.5 255t-51 166.5t-82.5 91.5t-115 28t-116 -28t-83.5 -91.5t-51 -167t-17.5 -254.5z" />
<glyph unicode="P" horiz-adv-x="1099" d="M182 0v1362h373q109 0 190.5 -21.5t137 -72.5t83 -133t27.5 -205q0 -121 -29.5 -206t-85 -137t-134 -76t-177.5 -24q-41 0 -85 4.5t-87 12.5v-504h-213zM395 670q43 -10 81 -13.5t73 -3.5q129 0 179 67.5t50 209.5q0 78 -12 130t-40 83t-70 44t-101 13h-160v-530z" />
<glyph unicode="Q" horiz-adv-x="1193" d="M109 680q0 188 31.5 321.5t93 218.5t152.5 123.5t212 38.5q119 0 210 -38.5t152.5 -123.5t93 -218.5t31.5 -321.5t-31.5 -321.5t-93 -218.5t-152.5 -124t-210 -39q-121 0 -212 39t-152.5 124t-93 218.5t-31.5 321.5zM330 680q0 -152 17.5 -255t51 -166.5t83.5 -91.5 t116 -28t115 28t82.5 91.5t51 166.5t17.5 255t-17.5 255t-51 166.5t-82.5 91.5t-115 28t-116 -28t-83.5 -91.5t-51 -167t-17.5 -254.5zM500 -127q61 0 125.5 -16.5t124 -37t108.5 -36.5t78 -16q37 0 69.5 16t73.5 61l92 -135q-35 -51 -95 -83t-138 -32q-57 0 -111.5 17.5 t-107.5 39t-107.5 41t-111.5 21.5v160z" />
<glyph unicode="R" horiz-adv-x="1120" d="M182 0v1362h373q109 0 190.5 -20.5t137 -69.5t83 -130t27.5 -202q0 -80 -17.5 -140.5t-47 -103.5t-70.5 -72.5t-90 -48.5q39 -18 64.5 -39.5t44 -51t32 -66.5t27.5 -82l96 -336h-219l-86 289q-29 98 -67.5 159.5t-116.5 61.5q-35 0 -73 2t-75 8v-520h-213zM395 686 q43 -10 81 -12t73 -2q129 0 179 63.5t50 204.5q0 78 -12 128t-40 80t-70 41t-101 11h-160v-514z" />
<glyph unicode="S" horiz-adv-x="966" d="M115 1059q0 88 32.5 150.5t90 100.5t135.5 55t166 17q70 0 150.5 -7t144.5 -21l-17 -166q-31 6 -68.5 12t-75.5 11.5t-73 7.5t-61 2q-43 0 -80 -6.5t-64.5 -22.5t-43 -45t-15.5 -76q0 -55 40 -106.5t101.5 -105.5t131 -111.5t131 -123t101.5 -143.5t40 -170 q0 -90 -28 -153.5t-79 -103.5t-120.5 -58.5t-155.5 -18.5q-100 0 -204 19.5t-171 48.5l24 162q68 -25 161 -46.5t173 -21.5q78 0 129.5 34t51.5 126q0 66 -41 123t-101.5 113.5t-131.5 114t-131 119.5t-101 134t-41 156z" />
<glyph unicode="T" horiz-adv-x="1011" d="M43 1200v162h926v-162h-357v-1200h-213v1200h-356z" />
<glyph unicode="U" horiz-adv-x="1220" d="M160 422v940h213v-948q0 -135 56 -205t187 -70q72 0 131.5 10.5t90.5 20.5v1192h213v-1301q-76 -27 -185.5 -55.5t-255.5 -28.5q-233 0 -341.5 114t-108.5 331z" />
<glyph unicode="V" horiz-adv-x="1073" d="M14 1362h217l326 -1118q45 123 89 266t84 289.5t72 291t52 271.5h205q-72 -371 -175.5 -712t-232.5 -650h-219z" />
<glyph unicode="W" horiz-adv-x="1560" d="M31 1362h205l217 -1067l223 803h196l232 -809q33 106 65.5 235t63.5 268.5t58.5 285t49.5 284.5h189q-25 -170 -62.5 -354.5t-83 -364.5t-94.5 -346t-96 -297h-188l-232 811l-242 -811h-202z" />
<glyph unicode="X" horiz-adv-x="1040" d="M29 0l372 690l-352 672h236l245 -477l256 477h222l-365 -666l369 -696h-238l-260 504l-268 -504h-217z" />
<glyph unicode="Y" horiz-adv-x="997" d="M0 1362h229l289 -690q96 160 168 342t111 348h200q-72 -250 -165 -474t-228 -415v-473h-207v465z" />
<glyph unicode="Z" horiz-adv-x="1062" d="M92 0v143l610 1057h-591v162h841v-145l-606 -1055h623v-162h-877z" />
<glyph unicode="[" horiz-adv-x="600" d="M188 -385v1880h373v-133h-190v-1612h190v-135h-373z" />
<glyph unicode="\" horiz-adv-x="854" d="M-33 1495h180l582 -1604h-176z" />
<glyph unicode="]" horiz-adv-x="600" d="M39 -250h190v1612h-190v133h373v-1880h-373v135z" />
<glyph unicode="^" d="M168 739l285 623h153l287 -623h-178l-185 416l-186 -416h-176z" />
<glyph unicode="_" horiz-adv-x="1193" d="M14 -23h1166v-131h-1166v131z" />
<glyph unicode="`" horiz-adv-x="970" d="M250 1495h221l141 -330h-172z" />
<glyph unicode="a" horiz-adv-x="892" d="M68 303q0 86 28.5 143.5t75.5 92t109.5 49t130.5 14.5q49 0 83.5 -4t67.5 -10v92q0 51 -13 85t-35.5 53.5t-53.5 26.5t-66 7q-53 0 -120.5 -10.5t-120.5 -24.5l-9 156q57 16 127 25.5t131 9.5q74 0 140.5 -15.5t116 -53.5t79 -99.5t29.5 -153.5v-633q-66 -23 -159 -48 t-197 -25q-74 0 -136.5 16t-108.5 54t-72.5 99.5t-26.5 153.5zM268 291q0 -94 43 -130t103 -36q47 0 87 7t62 15v289q-23 4 -60.5 9.5t-78.5 5.5q-31 0 -59.5 -6.5t-50 -22.5t-34 -48t-12.5 -83z" />
<glyph unicode="b" horiz-adv-x="995" d="M152 43v1452h206v-510q37 8 81 15.5t91 7.5q80 0 150 -26t120 -85t78.5 -155.5t28.5 -239.5q0 -154 -30.5 -254.5t-84 -160.5t-125 -83.5t-153.5 -23.5q-84 0 -184.5 19t-177.5 44zM358 156q31 -8 72 -14.5t82 -6.5q43 0 77 15.5t57.5 57.5t35.5 112.5t12 181.5 q0 104 -12 170.5t-35.5 106.5t-55.5 55.5t-69 15.5q-41 0 -85 -8t-79 -19v-667z" />
<glyph unicode="c" horiz-adv-x="798" d="M96 496q0 147 30 246.5t83 157.5t127 83t164 25q53 0 112.5 -7.5t102.5 -17.5l-17 -158q-51 10 -102 17.5t-94 7.5q-45 0 -81 -15.5t-60.5 -55.5t-38 -108.5t-13.5 -176.5q0 -104 13.5 -173t38 -110t61.5 -57.5t84 -16.5t97 8.5t106 24.5l14 -158q-53 -16 -112.5 -24 t-118.5 -8q-88 0 -161 26.5t-125 87t-81 158.5t-29 244z" />
<glyph unicode="d" horiz-adv-x="999" d="M96 502q0 143 30 239.5t82 155.5t122.5 85t150.5 26q43 0 83 -6.5t79 -16.5v510h209v-1452q-78 -25 -179.5 -44t-183.5 -19q-84 0 -155.5 23.5t-123.5 83.5t-83 160.5t-31 254.5zM309 502q0 -111 12.5 -181.5t36 -111.5t57.5 -56.5t77 -15.5q41 0 81.5 5t71.5 14v667 q-35 10 -75 18.5t-81 8.5q-37 0 -69.5 -15.5t-57 -55.5t-39 -106.5t-14.5 -170.5z" />
<glyph unicode="e" horiz-adv-x="919" d="M96 494q0 143 27 241.5t77 158.5t121.5 87t159.5 27t153.5 -30t107.5 -83t62.5 -129t20.5 -170v-162h-514q4 -141 55.5 -219t184.5 -78q72 0 133 12.5t109 26.5l14 -158q-51 -16 -125 -27t-150 -11q-98 0 -178 22.5t-137 80.5t-89 157.5t-32 253.5zM313 578h312 q-4 133 -40 208.5t-108 75.5q-82 0 -120 -73.5t-44 -210.5z" />
<glyph unicode="f" horiz-adv-x="675" d="M61 834v153h129v180q0 180 91.5 265.5t244.5 85.5q41 0 87 -3.5t85 -13.5l-16 -151q-41 6 -74 8t-67 2q-31 0 -56.5 -9.5t-45 -31t-31 -58t-11.5 -94.5v-180h254v-153h-254v-834h-207v834h-129z" />
<glyph unicode="g" horiz-adv-x="995" d="M96 514q0 141 32 236.5t87 151.5t129 81t158 25q90 0 180 -23.5t172 -56.5v-934q0 -113 -26.5 -188.5t-76 -123t-120 -68t-158.5 -20.5q-33 0 -75 4.5t-85 10.5t-80.5 14t-62.5 19l20 155q59 -18 139.5 -32.5t139.5 -14.5q94 0 136 52.5t42 168.5v49q-41 -8 -83 -14 t-87 -6q-78 0 -146.5 21.5t-120.5 79t-83 157.5t-31 256zM311 512q0 -111 13.5 -180.5t36 -107.5t55.5 -52t73 -14q41 0 82 7t76 15v643q-23 8 -64.5 17.5t-80.5 9.5q-41 0 -75 -13.5t-60.5 -50t-41 -102.5t-14.5 -172z" />
<glyph unicode="h" horiz-adv-x="1032" d="M154 0v1495h206v-512q41 10 87.5 17.5t93.5 7.5q74 0 138 -17.5t111.5 -58.5t75 -107.5t27.5 -165.5v-659h-207v651q0 117 -47 158t-117 41q-43 0 -89 -9.5t-73 -17.5v-823h-206z" />
<glyph unicode="i" horiz-adv-x="516" d="M133 1356q0 57 33 88t92 31q125 0 125 -119q0 -55 -33 -86t-92 -31t-92 30.5t-33 86.5zM156 0v987h206v-987h-206z" />
<glyph unicode="j" horiz-adv-x="516" d="M-27 -295q55 61 91 111.5t56.5 99.5t28 101.5t7.5 117.5v852h206v-850q0 -92 -12 -158.5t-43 -127t-84 -121t-137 -136.5zM133 1356q0 57 33 88t92 31q125 0 125 -119q0 -55 -33 -86t-92 -31t-92 30.5t-33 86.5z" />
<glyph unicode="k" horiz-adv-x="944" d="M156 0v1495h206v-920l316 412h213l-305 -399q98 -31 156.5 -116t88.5 -198l76 -274h-219l-72 256q-27 92 -65.5 138t-83.5 59l-105 -125v-328h-206z" />
<glyph unicode="l" horiz-adv-x="516" d="M156 0v1495h206v-1495h-206z" />
<glyph unicode="m" horiz-adv-x="1507" d="M154 0v932q74 25 166 50.5t194 25.5q72 0 134.5 -18.5t107.5 -57.5q59 33 135 54.5t147 21.5q70 0 130.5 -17.5t105.5 -58.5t69.5 -107.5t24.5 -165.5v-659h-207v651q0 59 -11 97t-31.5 60.5t-47.5 32t-57 9.5q-47 0 -92 -18.5t-78 -34.5q18 -59 18 -138v-659h-205v651 q0 59 -11 97t-31.5 60.5t-47 32t-57.5 9.5q-41 0 -83 -8t-67 -19v-823h-206z" />
<glyph unicode="n" horiz-adv-x="1032" d="M154 0v932q72 25 170 50.5t202 25.5q78 0 144.5 -17.5t116 -57.5t78 -107.5t28.5 -166.5v-659h-207v651q0 117 -46 158t-118 41q-43 0 -89 -8t-73 -19v-823h-206z" />
<glyph unicode="o" horiz-adv-x="983" d="M96 494q0 272 102.5 393t290.5 121q190 0 294 -121t104 -393t-103.5 -393t-294.5 -121q-188 0 -290.5 120.5t-102.5 393.5zM309 494q0 -104 11.5 -173t35 -110t57 -57.5t79.5 -16.5q43 0 77.5 16.5t57 57.5t35 110t12.5 173t-12.5 172.5t-35 109.5t-57 57.5t-77.5 16.5 q-45 0 -79 -16.5t-57.5 -57.5t-35 -109.5t-11.5 -172.5z" />
<glyph unicode="p" horiz-adv-x="1003" d="M152 -385v1313q82 33 179 56.5t187 23.5q82 0 153.5 -26t124 -85t82 -155.5t29.5 -237.5q0 -156 -30.5 -257.5t-82 -160.5t-121 -82.5t-145.5 -23.5q-45 0 -87 6t-83 14v-385h-206zM358 160q35 -8 76 -15.5t82 -7.5t74 15.5t56.5 56.5t35.5 111.5t12 181.5 q0 106 -12 173.5t-35.5 106.5t-57.5 53.5t-75 14.5q-18 0 -40.5 -3t-44 -7t-41 -8.5t-30.5 -8.5v-663z" />
<glyph unicode="q" horiz-adv-x="1009" d="M96 504q0 141 32 237.5t86 155.5t128 85t158 26q92 0 182 -23.5t172 -56.5v-1313h-207v385q-41 -8 -84 -14t-88 -6q-76 0 -144.5 23.5t-120.5 82.5t-83 160.5t-31 257.5zM311 502q0 -111 12.5 -181.5t36 -111.5t56.5 -56.5t73 -15.5q41 0 82 7.5t76 15.5v663 q-23 8 -65.5 17.5t-79.5 9.5q-41 0 -75 -14.5t-60.5 -53.5t-41 -106.5t-14.5 -173.5z" />
<glyph unicode="r" horiz-adv-x="667" d="M152 0v928q106 41 218.5 59.5t252.5 18.5v-166q-37 4 -58.5 4h-40.5q-47 0 -94 -7.5t-72 -17.5v-819h-206z" />
<glyph unicode="s" horiz-adv-x="821" d="M94 739q0 76 30 128.5t81 83t119.5 44t144.5 13.5q61 0 128 -6.5t110 -16.5l-17 -156q-49 10 -107.5 17.5t-113.5 7.5q-74 0 -121 -21.5t-47 -87.5q0 -41 33 -72.5t81 -61t105.5 -62.5t105.5 -75t80.5 -98.5t32.5 -131.5q0 -72 -24.5 -122t-68.5 -82t-104.5 -46 t-129.5 -14q-82 0 -167 17t-141 40l21 160q27 -10 62.5 -21.5t72.5 -20t73 -13.5t64 -5q55 0 92 21.5t37 85.5q0 45 -31.5 79.5t-79.5 65.5t-104.5 62.5t-104.5 71.5t-80 92.5t-32 123.5z" />
<glyph unicode="t" horiz-adv-x="696" d="M57 834v153h133l41 285h162v-285h230v-153h-230v-590q0 -59 20.5 -83t61.5 -24q37 0 81 7.5t79 17.5l6 -156q-31 -10 -82 -18t-98 -8q-59 0 -109.5 14t-87.5 46t-57.5 84t-20.5 128v582h-129z" />
<glyph unicode="u" horiz-adv-x="1009" d="M139 336v651h207v-653q0 -111 46 -154t112 -43q53 0 91 8.5t60 14.5v827h207v-928q-72 -29 -164 -54t-190 -25q-74 0 -141.5 16t-117.5 57t-80 109.5t-30 173.5z" />
<glyph unicode="v" horiz-adv-x="876" d="M27 987h213l213 -768q63 172 117.5 374t82.5 394h197q-45 -254 -126 -501.5t-179 -485.5h-209z" />
<glyph unicode="w" horiz-adv-x="1435" d="M37 987h215l168 -713l203 713h200l195 -713q55 160 101 343.5t79 369.5h201q-47 -231 -111.5 -473t-163.5 -514h-209l-196 696l-205 -696h-215z" />
<glyph unicode="x" horiz-adv-x="851" d="M25 0l278 494l-266 493h227l172 -321l176 321h207l-270 -481q68 -125 139.5 -253t138.5 -253h-227l-184 332l-187 -332h-204z" />
<glyph unicode="y" horiz-adv-x="1015" d="M139 356v631h207v-633q0 -113 46 -155.5t112 -42.5q41 0 85 5t66 13v813h207v-991q0 -113 -25.5 -189.5t-74.5 -124t-120 -68t-161 -20.5q-76 0 -162 13.5t-141 34.5l21 155q66 -23 143.5 -35t132.5 -12q94 0 137 50t43 167v47q-37 -8 -76.5 -11t-78.5 -3 q-82 0 -148.5 16.5t-114 57.5t-73 109.5t-25.5 172.5z" />
<glyph unicode="z" horiz-adv-x="876" d="M82 0v129l461 705h-447v153h688v-127l-454 -706h471v-154h-719z" />
<glyph unicode="{" horiz-adv-x="679" d="M84 473v164q76 2 115 25.5t39 101.5q0 43 -5.5 95t-10.5 108.5l-10 113t-5 105.5q0 170 82 251t229 81q29 0 57.5 -2.5t59.5 -8.5l-12 -153q-29 4 -53.5 6t-47.5 2q-61 0 -96 -35t-35 -131q0 -47 4 -103.5t10.5 -113.5t10.5 -112.5t4 -102.5q0 -98 -46 -145.5t-102 -63.5 q27 -10 53.5 -25.5t48 -40t34 -60.5t12.5 -85q0 -47 -4 -102.5t-10.5 -113.5t-10.5 -113.5t-4 -100.5q0 -98 35 -132t104 -34q45 0 93 8l12 -153q-29 -4 -56.5 -6.5t-54.5 -2.5q-150 0 -233.5 77t-83.5 253q0 49 5 105.5t10 114t10.5 110.5t5.5 94q0 78 -40 100.5t-114 24.5 z" />
<glyph unicode="|" horiz-adv-x="552" d="M188 -410v2048h177v-2048h-177z" />
<glyph unicode="}" horiz-adv-x="679" d="M45 -397l12 153q47 -8 93 -8q70 0 104.5 34t34.5 132q0 45 -4 100.5t-10.5 113.5t-10.5 113.5t-4 102.5q0 49 12.5 85t34 60.5t47 40t54.5 25.5q-55 16 -101.5 63.5t-46.5 145.5q0 47 4 102.5t10.5 112.5t10.5 113.5t4 103.5q0 96 -35 131t-96 35q-23 0 -47.5 -2 t-53.5 -6l-12 153q31 6 59.5 8.5t57.5 2.5q147 0 229 -81t82 -251q0 -49 -5 -105.5l-10 -113t-10.5 -108.5t-5.5 -95q0 -78 39 -101.5t115 -25.5v-164q-74 -2 -114 -24.5t-40 -100.5q0 -41 5.5 -94t10.5 -110.5t10 -114t5 -105.5q0 -176 -84 -253t-233 -77q-27 0 -54.5 2.5 t-56.5 6.5z" />
<glyph unicode="~" d="M102 590q23 76 79.5 130t154.5 54q43 0 95 -15.5t106.5 -34.5t102.5 -34.5t81 -15.5q39 0 63.5 24.5t46.5 81.5l123 -61q-25 -84 -83 -136.5t-156 -52.5q-43 0 -96.5 16.5t-104.5 36t-98 36t-78 16.5q-41 0 -64.5 -26.5t-46.5 -82.5z" />
<glyph unicode="&#xa1;" horiz-adv-x="561" d="M158 897q0 53 33.5 82t91.5 29q53 0 86.5 -29t33.5 -82t-33.5 -83t-86.5 -30q-57 0 -91 30t-34 83zM174 -385l23 1020h172l22 -1020h-217z" />
<glyph unicode="&#xa2;" horiz-adv-x="1036" d="M150 680q0 129 23.5 223t66.5 158.5t103 101.5t134 51v281h162v-266q68 -4 131.5 -14.5t116.5 -24.5l-19 -162q-59 16 -130.5 28.5t-137.5 12.5q-55 0 -99 -16.5t-77 -59.5t-50.5 -118.5t-17.5 -194.5q0 -115 16.5 -189.5t49.5 -120.5t81 -64.5t111 -18.5q72 0 136.5 14 t123.5 35l17 -164q-53 -20 -117.5 -32.5t-130.5 -16.5v-295h-162v307q-78 14 -139 52t-104 103.5t-65.5 162t-22.5 227.5z" />
<glyph unicode="&#xa3;" d="M88 637v143h176l15 174q10 127 43.5 210t86 131t122 67.5t151.5 19.5q78 0 144.5 -10t113.5 -20l-18 -166q-53 14 -110.5 24.5t-129.5 10.5q-78 0 -125 -48.5t-57 -158.5l-21 -234h381v-143h-395l-8 -105q-6 -68 -12.5 -121t-19.5 -97t-35.5 -80.5t-59.5 -71.5h592v-162 h-832v125q88 74 118 172t38 233l6 107h-164z" />
<glyph unicode="&#xa5;" d="M59 1362h226l268 -586l244 586h202l-206 -481h188v-125h-236l-77 -189h313v-131h-324v-436h-206v436h-334v131h327l-92 189h-235v125h174z" />
<glyph unicode="&#xa6;" horiz-adv-x="552" d="M188 -410v822h177v-822h-177zM188 817v821h177v-821h-177z" />
<glyph unicode="&#xa7;" horiz-adv-x="991" d="M96 -334l31 156q68 -27 153 -48.5t162 -21.5q76 0 129.5 37t53.5 135q0 68 -38 117t-93.5 92t-122 84t-121.5 90t-93 113.5t-38 154.5q0 94 33.5 152.5t87.5 99.5q-43 45 -68 101.5t-25 124.5q0 90 30 152.5t83 102.5t126 57t161 17q33 0 74 -3t81.5 -8t76.5 -10t59 -11 l-17 -160q-23 4 -55.5 9t-68 10t-73.5 8.5t-69 3.5q-41 0 -77 -7.5t-63.5 -25t-43 -48t-15.5 -77.5q0 -57 40 -101t99.5 -85t128 -83t128 -95.5t99.5 -123t40 -165.5q0 -98 -34 -160t-93 -100q31 -47 49 -99.5t18 -116.5q0 -90 -30.5 -154.5t-83.5 -105.5t-124 -60.5 t-153 -19.5q-94 0 -188 23t-156 49zM317 590q0 -55 34 -96t85 -77t108.5 -70t104.5 -75q20 16 31.5 46t11.5 79q0 61 -32.5 105.5t-81 80t-104.5 67.5t-103 69q-25 -18 -39.5 -50t-14.5 -79z" />
<glyph unicode="&#xa8;" horiz-adv-x="970" d="M209 1331q0 47 28.5 74t86.5 27q57 0 85.5 -27t28.5 -74t-28.5 -73.5t-85.5 -26.5t-86 26.5t-29 73.5zM530 1331q0 47 29 74t86 27q53 0 84 -27t31 -74t-31 -73.5t-84 -26.5q-57 0 -86 26.5t-29 73.5z" />
<glyph unicode="&#xa9;" horiz-adv-x="1310" d="M82 680q0 350 143.5 526t429.5 176q287 0 430.5 -176t143.5 -526q0 -700 -574 -700q-573 0 -573 700zM217 680q0 -297 106.5 -444.5t331.5 -147.5t331 147.5t106 444.5q0 295 -105.5 442.5t-331.5 147.5q-225 0 -331.5 -147.5t-106.5 -442.5zM371 680q0 211 80.5 300 t226.5 89q53 0 108.5 -9t90.5 -20l-13 -129q-35 10 -86 19.5t-92 9.5q-35 0 -60.5 -11t-43 -40t-25.5 -79t-8 -130q0 -82 9 -133t26.5 -81t45 -40t64.5 -10q35 0 82 9t92 26l17 -127q-45 -16 -98.5 -26.5t-104.5 -10.5q-74 0 -131 20.5t-97 66.5t-61.5 121.5t-21.5 184.5z " />
<glyph unicode="&#xaa;" horiz-adv-x="655" d="M76 940q0 57 19.5 94t50 57.5t68.5 28.5t75 8q45 0 82 -6v52q0 55 -17.5 76.5t-58.5 21.5q-43 0 -88 -9.5t-78 -19.5l-18 111q37 10 92 19t108 9q104 0 164 -47t60 -155v-381q-35 -16 -100.5 -35t-137.5 -19q-47 0 -87 10.5t-69.5 33t-47 60.5t-17.5 91zM231 938 q0 -53 20.5 -72.5t49.5 -19.5q16 0 33.5 2t36.5 8v164q-16 4 -31.5 4h-30.5q-35 0 -56.5 -17.5t-21.5 -68.5z" />
<glyph unicode="&#xab;" horiz-adv-x="1011" d="M106 555l250 371h185l-222 -371l222 -371h-185zM496 555l225 371h186l-196 -371l196 -371h-186z" />
<glyph unicode="&#xac;" d="M125 786v142h811v-549h-166v407h-645z" />
<glyph unicode="&#xad;" horiz-adv-x="712" d="M117 475v160h477v-160h-477z" />
<glyph unicode="&#xae;" horiz-adv-x="1107" d="M72 854q0 256 126 391t355 135t356 -135t127 -391q0 -254 -127 -390t-356 -136t-355 136t-126 390zM205 854q0 -426 348 -426t348 426t-348 426t-348 -426zM367 580v579h188q94 0 150.5 -43t56.5 -129q0 -68 -26.5 -98.5t-67.5 -46.5q37 -18 53 -44t24 -65l33 -153h-149 l-31 153q-10 33 -25.5 47.5t-44.5 14.5h-20v-215h-141zM508 891h31q33 0 55 15.5t22 74.5q0 49 -16 67.5t-51 18.5h-41v-176z" />
<glyph unicode="&#xaf;" horiz-adv-x="970" d="M250 1262v135h471v-135h-471z" />
<glyph unicode="&#xb0;" horiz-adv-x="700" d="M125 1149q0 102 63.5 167.5t161.5 65.5q100 0 164 -65.5t64 -167.5t-63.5 -168t-164.5 -66q-98 0 -161.5 66t-63.5 168zM260 1149q0 -59 24.5 -95t65.5 -36t66.5 36t25.5 95t-25.5 95t-66.5 36t-65.5 -36t-24.5 -95z" />
<glyph unicode="&#xb1;" d="M125 0v143h811v-143h-811zM125 582v143h319v348h172v-348h320v-143h-320v-351h-172v351h-319z" />
<glyph unicode="&#xb2;" horiz-adv-x="610" d="M84 680v96l166 201q43 53 70.5 104.5t27.5 92.5q0 51 -23.5 69.5t-60.5 18.5q-39 0 -84 -9.5t-74 -17.5l-14 117q29 10 81 19t108 9q104 0 166.5 -48t62.5 -154q0 -84 -45 -147.5t-105 -133.5l-84 -100h240v-117h-432z" />
<glyph unicode="&#xb3;" horiz-adv-x="610" d="M84 686l18 115q41 -12 81 -21.5t89 -9.5q39 0 64.5 22.5t25.5 88.5q0 59 -31.5 76.5t-74.5 17.5h-94v92l166 180h-238v115h420v-100l-172 -185q72 -4 127 -52t55 -140q0 -127 -67.5 -181.5t-169.5 -54.5q-66 0 -114 12.5t-85 24.5z" />
<glyph unicode="&#xb4;" horiz-adv-x="970" d="M356 1165l140 330h221l-189 -330h-172z" />
<glyph unicode="&#xb6;" horiz-adv-x="1171" d="M86 926q0 125 23.5 208t73.5 134t129 72.5t190 21.5h235v-1686h-162v797q-10 -2 -23 -2h-26h-28q-109 0 -185.5 23.5t-128 77t-75 140.5t-23.5 214zM825 -324v1686h162v-1686h-162z" />
<glyph unicode="&#xb7;" horiz-adv-x="520" d="M133 553q0 55 34 86t93 31t93 -31t34 -86t-34 -87t-93 -32t-93 32t-34 87z" />
<glyph unicode="&#xb8;" horiz-adv-x="970" d="M313 -377l25 121q20 -6 41.5 -11t40.5 -5q23 0 36 11t13 42t-11.5 62.5t-27.5 62.5h160q51 -80 51 -156q0 -72 -36 -114t-132 -42q-41 0 -84 8.5t-76 20.5z" />
<glyph unicode="&#xb9;" horiz-adv-x="581" d="M86 1180v129l178 53h117v-684h-162v543z" />
<glyph unicode="&#xba;" horiz-adv-x="655" d="M68 1059q0 172 69.5 246.5t192.5 74.5q121 0 190.5 -74.5t69.5 -246.5t-70.5 -248t-189.5 -76q-123 0 -192.5 76t-69.5 248zM231 1059q0 -119 28 -165t69 -46q45 0 71.5 46t26.5 165q0 117 -26.5 163t-71.5 46q-41 0 -69 -46t-28 -163z" />
<glyph unicode="&#xbb;" horiz-adv-x="1011" d="M104 184l199 371l-199 371h187l225 -371l-225 -371h-187zM471 184l221 371l-221 371h184l250 -371l-250 -371h-184z" />
<glyph unicode="&#xbc;" horiz-adv-x="1376" d="M86 1180v129l178 53h117v-684h-162v543zM227 0l701 1362h162l-705 -1362h-158zM805 150v94l219 458h195v-440h77v-112h-77v-150h-160v150h-254zM942 262h117v252z" />
<glyph unicode="&#xbd;" horiz-adv-x="1376" d="M86 1180v129l178 53h117v-684h-162v543zM221 0l701 1362h161l-704 -1362h-158zM817 0v96l166 201q43 53 70.5 104.5t27.5 92.5q0 51 -23.5 69.5t-60.5 18.5q-39 0 -84 -9.5t-73 -17.5l-15 117q29 10 81 19t108 9q104 0 166.5 -48t62.5 -154q0 -84 -45 -147.5t-104 -133.5 l-84 -100h239v-117h-432z" />
<glyph unicode="&#xbe;" horiz-adv-x="1376" d="M90 686l19 115q41 -12 80.5 -21.5t89.5 -9.5q39 0 64.5 22.5t25.5 88.5q0 59 -32 76.5t-75 17.5h-94v92l166 180h-238v115h420v-100l-172 -185q72 -4 127 -52t55 -140q0 -127 -67.5 -181.5t-169.5 -54.5q-66 0 -114 12.5t-85 24.5zM289 0l700 1362h162l-705 -1362h-157z M805 150v94l219 458h195v-440h77v-112h-77v-150h-160v150h-254zM942 262h117v252z" />
<glyph unicode="&#xbf;" horiz-adv-x="708" d="M47 -82q0 59 12.5 107.5t33 87.5t46 72.5t49.5 64.5q20 27 41 53.5t37.5 57t25.5 68.5t9 85v121h184v-129q0 -66 -13 -120t-33.5 -99t-46 -83t-50.5 -69q-35 -45 -62.5 -93t-27.5 -112q0 -94 40 -134t116 -40q63 0 128.5 15.5t110.5 38.5l39 -158q-51 -29 -129 -43.5 t-170 -14.5q-74 0 -136.5 19.5t-107.5 59.5t-70.5 100.5t-25.5 144.5zM272 895q0 53 33 83t86 30q57 0 91 -30t34 -83t-33.5 -83t-91.5 -30q-53 0 -86 30t-33 83z" />
<glyph unicode="&#xc0;" horiz-adv-x="1177" d="M154 0v885q0 111 21.5 202t71.5 157.5t133 102t208 35.5t208 -35.5t134 -102t72.5 -158t21.5 -201.5v-885h-213v504h-449v-504h-208zM305 1876h221l142 -330h-172zM362 666h449v227q0 72 -10 132t-37 103t-70 68t-106 25q-66 0 -109 -25t-69.5 -68t-37 -103t-10.5 -132 v-227z" />
<glyph unicode="&#xc1;" horiz-adv-x="1177" d="M154 0v885q0 111 21.5 202t71.5 157.5t133 102t208 35.5t208 -35.5t134 -102t72.5 -158t21.5 -201.5v-885h-213v504h-449v-504h-208zM362 666h449v227q0 72 -10 132t-37 103t-70 68t-106 25q-66 0 -109 -25t-69.5 -68t-37 -103t-10.5 -132v-227zM504 1546l139 330h221 l-188 -330h-172z" />
<glyph unicode="&#xc2;" horiz-adv-x="1177" d="M154 0v885q0 111 21.5 202t71.5 157.5t133 102t208 35.5t208 -35.5t134 -102t72.5 -158t21.5 -201.5v-885h-213v504h-449v-504h-208zM324 1546l168 330h192l168 -330h-174l-90 191l-90 -191h-174zM362 666h449v227q0 72 -10 132t-37 103t-70 68t-106 25q-66 0 -109 -25 t-69.5 -68t-37 -103t-10.5 -132v-227z" />
<glyph unicode="&#xc3;" horiz-adv-x="1177" d="M154 0v885q0 111 21.5 202t71.5 157.5t133 102t208 35.5t208 -35.5t134 -102t72.5 -158t21.5 -201.5v-885h-213v504h-449v-504h-208zM313 1651q18 63 57.5 111t116.5 48q41 0 72 -12t55 -26q23 -10 39.5 -19.5t32.5 -9.5q12 0 22.5 16.5t24.5 59.5l131 -45 q-20 -72 -59 -120t-115 -48q-35 0 -63.5 12t-53.5 27q-23 10 -39 19t-34 9q-16 0 -27.5 -15.5t-26.5 -53.5zM362 666h449v227q0 72 -10 132t-37 103t-70 68t-106 25q-66 0 -109 -25t-69.5 -68t-37 -103t-10.5 -132v-227z" />
<glyph unicode="&#xc4;" horiz-adv-x="1177" d="M154 0v885q0 111 21.5 202t71.5 157.5t133 102t208 35.5t208 -35.5t134 -102t72.5 -158t21.5 -201.5v-885h-213v504h-449v-504h-208zM313 1710q0 47 29 73.5t86 26.5t86 -26.5t29 -73.5t-29 -73.5t-86 -26.5t-86 26.5t-29 73.5zM362 666h449v227q0 72 -10 132t-37 103 t-70 68t-106 25q-66 0 -109 -25t-69.5 -68t-37 -103t-10.5 -132v-227zM635 1710q0 47 28.5 73.5t86.5 26.5q53 0 83.5 -26.5t30.5 -73.5t-30.5 -73.5t-83.5 -26.5q-57 0 -86 26.5t-29 73.5z" />
<glyph unicode="&#xc5;" horiz-adv-x="1177" d="M154 0v885q0 111 21.5 202t71.5 157.5t133 102t208 35.5t208 -35.5t134 -102t72.5 -158t21.5 -201.5v-885h-213v504h-449v-504h-208zM362 666h449v227q0 72 -10 132t-37 103t-70 68t-106 25q-66 0 -109 -25t-69.5 -68t-37 -103t-10.5 -132v-227zM393 1710q0 88 52.5 132 t142.5 44q92 0 144 -44t52 -132q0 -86 -52 -130t-144 -44q-90 0 -142.5 44t-52.5 130zM532 1710q0 -39 12.5 -58.5t43.5 -19.5q33 0 45 19.5t12 58.5q0 41 -12 59.5t-45 18.5q-31 0 -43.5 -18.5t-12.5 -59.5z" />
<glyph unicode="&#xc6;" horiz-adv-x="1630" d="M154 0v885q0 111 21.5 202t71.5 157.5t134 102t209 35.5q88 0 144.5 -22.5t90.5 -59.5v62h678v-162h-479v-422h432v-162h-432v-297q0 -90 37 -123.5t90 -33.5h375v-162h-381q-174 0 -254 84t-80 256v276h-449v-616h-208zM362 778h449v94q0 80 -9 144.5t-34 109.5t-68 70 t-110 25q-68 0 -112 -25t-69.5 -70t-36 -109.5t-10.5 -144.5v-94z" />
<glyph unicode="&#xc7;" horiz-adv-x="1015" d="M109 682q0 201 34.5 336t100 216t162 114.5t217.5 33.5q74 0 149.5 -8t140.5 -24l-16 -166q-68 16 -143.5 26.5t-137.5 10.5q-72 0 -126 -26t-89.5 -87t-53 -164.5t-17.5 -259.5q0 -162 18.5 -267.5t55 -167t91 -86t126.5 -24.5q59 0 137 11.5t149 31.5l15 -162 q-72 -23 -153 -33t-155 -10q-119 0 -212 35t-158.5 117t-100 217t-34.5 336zM373 -377l24 121q20 -6 42 -11t40 -5q23 0 36 11t13 42t-11 62.5t-28 62.5h160q51 -80 51 -156q0 -72 -35.5 -114t-132.5 -42q-41 0 -83.5 8.5t-75.5 20.5z" />
<glyph unicode="&#xc8;" horiz-adv-x="991" d="M170 324v1038h694v-162h-481v-422h434v-162h-434v-294q0 -90 35 -125t94 -35h375v-162h-381q-158 0 -247 76t-89 248zM270 1876h222l141 -330h-172z" />
<glyph unicode="&#xc9;" horiz-adv-x="991" d="M170 324v1038h694v-162h-481v-422h434v-162h-434v-294q0 -90 35 -125t94 -35h375v-162h-381q-158 0 -247 76t-89 248zM420 1546l139 330h221l-188 -330h-172z" />
<glyph unicode="&#xca;" horiz-adv-x="991" d="M170 324v1038h694v-162h-481v-422h434v-162h-434v-294q0 -90 35 -125t94 -35h375v-162h-381q-158 0 -247 76t-89 248zM252 1546l168 330h192l168 -330h-174l-90 191l-90 -191h-174z" />
<glyph unicode="&#xcb;" horiz-adv-x="991" d="M170 324v1038h694v-162h-481v-422h434v-162h-434v-294q0 -90 35 -125t94 -35h375v-162h-381q-158 0 -247 76t-89 248zM242 1710q0 47 28.5 73.5t85.5 26.5t86 -26.5t29 -73.5t-28.5 -73.5t-86.5 -26.5q-57 0 -85.5 26.5t-28.5 73.5zM563 1710q0 47 29 73.5t86 26.5 q53 0 84 -26.5t31 -73.5t-31 -73.5t-84 -26.5q-57 0 -86 26.5t-29 73.5z" />
<glyph unicode="&#xcc;" horiz-adv-x="577" d="M8 1876h221l142 -330h-172zM182 0v1362h213v-1362h-213z" />
<glyph unicode="&#xcd;" horiz-adv-x="577" d="M182 0v1362h213v-1362h-213zM205 1546l139 330h221l-188 -330h-172z" />
<glyph unicode="&#xce;" horiz-adv-x="577" d="M25 1546l168 330h192l168 -330h-174l-90 191l-90 -191h-174zM182 0v1362h213v-1362h-213z" />
<glyph unicode="&#xcf;" horiz-adv-x="577" d="M16 1710q0 47 29 73.5t86 26.5t86 -26.5t29 -73.5t-29 -73.5t-86 -26.5t-86 26.5t-29 73.5zM182 0v1362h213v-1362h-213zM338 1710q0 47 28.5 73.5t86.5 26.5q53 0 83.5 -26.5t30.5 -73.5t-30.5 -73.5t-83.5 -26.5q-57 0 -86 26.5t-29 73.5z" />
<glyph unicode="&#xd0;" horiz-adv-x="1206" d="M47 608v162h150v592h389q121 0 216 -39t160.5 -121t99.5 -209t34 -301q0 -166 -28 -299t-91.5 -225t-164.5 -141.5t-249 -49.5q-84 0 -176 11.5t-190 40.5v579h-150zM410 154q29 -6 69.5 -10.5t87.5 -4.5q160 0 235 132t75 421q0 137 -19.5 233.5t-56.5 158t-91.5 89 t-123.5 27.5h-176v-430h264v-162h-264v-454z" />
<glyph unicode="&#xd1;" horiz-adv-x="1306" d="M182 0v1362h176l557 -741v741h209v-1362h-209v307l-526 690v-997h-207zM377 1649q18 63 57 111t117 48q41 0 71.5 -12t55.5 -27q23 -10 39 -19t33 -9q12 0 22 16.5t25 59.5l131 -45q-20 -72 -59.5 -120t-114.5 -48q-35 0 -63.5 12t-53.5 26q-23 10 -39 19.5t-35 9.5 q-16 0 -27.5 -15.5t-25.5 -53.5z" />
<glyph unicode="&#xd2;" horiz-adv-x="1193" d="M109 680q0 188 31.5 321.5t93 218.5t152.5 123.5t212 38.5q119 0 210 -38.5t152.5 -123.5t93 -218.5t31.5 -321.5t-31.5 -321.5t-93 -218.5t-152.5 -124t-210 -39q-121 0 -212 39t-152.5 124t-93 218.5t-31.5 321.5zM322 1876h221l141 -330h-172zM330 680 q0 -152 17.5 -255t51 -166.5t83.5 -91.5t116 -28t115 28t82.5 91.5t51 166.5t17.5 255t-17.5 255t-51 166.5t-82.5 91.5t-115 28t-116 -28t-83.5 -91.5t-51 -167t-17.5 -254.5z" />
<glyph unicode="&#xd3;" horiz-adv-x="1193" d="M109 680q0 188 31.5 321.5t93 218.5t152.5 123.5t212 38.5q119 0 210 -38.5t152.5 -123.5t93 -218.5t31.5 -321.5t-31.5 -321.5t-93 -218.5t-152.5 -124t-210 -39q-121 0 -212 39t-152.5 124t-93 218.5t-31.5 321.5zM330 680q0 -152 17.5 -255t51 -166.5t83.5 -91.5 t116 -28t115 28t82.5 91.5t51 166.5t17.5 255t-17.5 255t-51 166.5t-82.5 91.5t-115 28t-116 -28t-83.5 -91.5t-51 -167t-17.5 -254.5zM504 1546l139 330h221l-188 -330h-172z" />
<glyph unicode="&#xd4;" horiz-adv-x="1193" d="M109 680q0 188 31.5 321.5t93 218.5t152.5 123.5t212 38.5q119 0 210 -38.5t152.5 -123.5t93 -218.5t31.5 -321.5t-31.5 -321.5t-93 -218.5t-152.5 -124t-210 -39q-121 0 -212 39t-152.5 124t-93 218.5t-31.5 321.5zM330 680q0 -152 17.5 -255t51 -166.5t83.5 -91.5 t116 -28t115 28t82.5 91.5t51 166.5t17.5 255t-17.5 255t-51 166.5t-82.5 91.5t-115 28t-116 -28t-83.5 -91.5t-51 -167t-17.5 -254.5zM334 1546l168 330h192l168 -330h-174l-90 191l-90 -191h-174z" />
<glyph unicode="&#xd5;" horiz-adv-x="1193" d="M109 680q0 188 31.5 321.5t93 218.5t152.5 123.5t212 38.5q119 0 210 -38.5t152.5 -123.5t93 -218.5t31.5 -321.5t-31.5 -321.5t-93 -218.5t-152.5 -124t-210 -39q-121 0 -212 39t-152.5 124t-93 218.5t-31.5 321.5zM324 1649q18 63 57 111t117 48q41 0 71.5 -12 t55.5 -27q23 -10 39 -19t32 -9q12 0 22.5 16.5t24.5 59.5l131 -45q-20 -72 -59 -120t-115 -48q-35 0 -63.5 12t-52.5 26q-23 10 -39.5 19.5t-34.5 9.5q-16 0 -27.5 -15.5t-25.5 -53.5zM330 680q0 -152 17.5 -255t51 -166.5t83.5 -91.5t116 -28t115 28t82.5 91.5t51 166.5 t17.5 255t-17.5 255t-51 166.5t-82.5 91.5t-115 28t-116 -28t-83.5 -91.5t-51 -167t-17.5 -254.5z" />
<glyph unicode="&#xd6;" horiz-adv-x="1193" d="M109 680q0 188 31.5 321.5t93 218.5t152.5 123.5t212 38.5q119 0 210 -38.5t152.5 -123.5t93 -218.5t31.5 -321.5t-31.5 -321.5t-93 -218.5t-152.5 -124t-210 -39q-121 0 -212 39t-152.5 124t-93 218.5t-31.5 321.5zM324 1710q0 47 28.5 73.5t85.5 26.5t86 -26.5 t29 -73.5t-28.5 -73.5t-86.5 -26.5q-57 0 -85.5 26.5t-28.5 73.5zM330 680q0 -152 17.5 -255t51 -166.5t83.5 -91.5t116 -28t115 28t82.5 91.5t51 166.5t17.5 255t-17.5 255t-51 166.5t-82.5 91.5t-115 28t-116 -28t-83.5 -91.5t-51 -167t-17.5 -254.5zM645 1710 q0 47 28.5 73.5t86.5 26.5q53 0 83.5 -26.5t30.5 -73.5t-30.5 -73.5t-83.5 -26.5q-57 0 -86 26.5t-29 73.5z" />
<glyph unicode="&#xd7;" d="M147 342l277 309l-277 310l121 110l262 -299l263 299l120 -110l-276 -310l276 -309l-120 -111l-263 299l-262 -299z" />
<glyph unicode="&#xd8;" horiz-adv-x="1196" d="M109 680q0 188 31.5 321.5t93 218.5t152.5 123.5t212 38.5q70 0 130 -13t112 -42l84 178l125 -59l-101 -211q68 -84 102.5 -220t34.5 -335q0 -188 -31.5 -321.5t-93 -218.5t-152.5 -124t-210 -39q-129 0 -227 48l-101 -209l-125 59l113 236q-74 84 -111.5 223t-37.5 346z M330 680q0 -219 37 -342l391 819q-63 63 -160 64q-66 0 -116 -28t-83.5 -91.5t-51 -166.5t-17.5 -255zM449 190q31 -29 67.5 -40t81.5 -11q66 0 115 28t82.5 91.5t51 166.5t17.5 255q0 197 -30 317z" />
<glyph unicode="&#xd9;" horiz-adv-x="1220" d="M160 422v940h213v-948q0 -135 56 -205t187 -70q72 0 131.5 10.5t90.5 20.5v1192h213v-1301q-76 -27 -185.5 -55.5t-255.5 -28.5q-233 0 -341.5 114t-108.5 331zM328 1876h221l141 -330h-172z" />
<glyph unicode="&#xda;" horiz-adv-x="1220" d="M160 422v940h213v-948q0 -135 56 -205t187 -70q72 0 131.5 10.5t90.5 20.5v1192h213v-1301q-76 -27 -185.5 -55.5t-255.5 -28.5q-233 0 -341.5 114t-108.5 331zM518 1546l139 330h222l-189 -330h-172z" />
<glyph unicode="&#xdb;" horiz-adv-x="1220" d="M160 422v940h213v-948q0 -135 56 -205t187 -70q72 0 131.5 10.5t90.5 20.5v1192h213v-1301q-76 -27 -185.5 -55.5t-255.5 -28.5q-233 0 -341.5 114t-108.5 331zM344 1546l168 330h193l167 -330h-174l-90 191l-90 -191h-174z" />
<glyph unicode="&#xdc;" horiz-adv-x="1220" d="M160 422v940h213v-948q0 -135 56 -205t187 -70q72 0 131.5 10.5t90.5 20.5v1192h213v-1301q-76 -27 -185.5 -55.5t-255.5 -28.5q-233 0 -341.5 114t-108.5 331zM334 1710q0 47 28.5 73.5t86.5 26.5q57 0 85.5 -26.5t28.5 -73.5t-28.5 -73.5t-85.5 -26.5t-86 26.5 t-29 73.5zM655 1710q0 47 29 73.5t86 26.5q53 0 84 -26.5t31 -73.5t-31 -73.5t-84 -26.5q-57 0 -86 26.5t-29 73.5z" />
<glyph unicode="&#xdd;" horiz-adv-x="1112" d="M115 1362h229l289 -690q96 160 167.5 342t110.5 348h201q-72 -250 -165 -474t-228 -415v-473h-207v465zM537 1546l139 330h221l-188 -330h-172z" />
<glyph unicode="&#xde;" horiz-adv-x="1085" d="M182 0v1362h213v-234h164q111 0 193 -20.5t135 -70.5t79.5 -133t26.5 -208q0 -240 -113.5 -339t-324.5 -99q-80 0 -160 12v-270h-213zM395 434q82 -16 152 -16q127 0 179 68.5t52 209.5q0 78 -12 129.5t-39 82t-69 44t-99 13.5h-164v-531z" />
<glyph unicode="&#xdf;" horiz-adv-x="964" d="M152 0v1163q0 168 83.5 259t262.5 91q80 0 142 -23.5t105 -65.5t66 -98t23 -122q0 -90 -27 -153.5t-57.5 -112.5t-57 -92t-26.5 -92q0 -51 39.5 -103.5t89 -113t89.5 -134t40 -167.5q0 -72 -23.5 -121t-62.5 -79t-91.5 -43t-107.5 -13q-45 0 -94 8t-84 18l10 146 q35 -10 77 -17.5t73 -7.5q53 0 82.5 21.5t29.5 95.5q0 45 -18.5 84t-47 73.5t-61.5 70.5t-61.5 75t-47 85t-18.5 103q0 61 24.5 113.5t54.5 105t54.5 106.5t24.5 120q0 94 -38 136t-101 42q-139 0 -140 -195v-1163h-206z" />
<glyph unicode="&#xe0;" horiz-adv-x="892" d="M68 303q0 86 28.5 143.5t75.5 92t109.5 49t130.5 14.5q49 0 83.5 -4t67.5 -10v92q0 51 -13 85t-35.5 53.5t-53.5 26.5t-66 7q-53 0 -120.5 -10.5t-120.5 -24.5l-9 156q57 16 127 25.5t131 9.5q74 0 140.5 -15.5t116 -53.5t79 -99.5t29.5 -153.5v-633q-66 -23 -159 -48 t-197 -25q-74 0 -136.5 16t-108.5 54t-72.5 99.5t-26.5 153.5zM190 1495h222l141 -330h-172zM268 291q0 -94 43 -130t103 -36q47 0 87 7t62 15v289q-23 4 -60.5 9.5t-78.5 5.5q-31 0 -59.5 -6.5t-50 -22.5t-34 -48t-12.5 -83z" />
<glyph unicode="&#xe1;" horiz-adv-x="892" d="M68 303q0 86 28.5 143.5t75.5 92t109.5 49t130.5 14.5q49 0 83.5 -4t67.5 -10v92q0 51 -13 85t-35.5 53.5t-53.5 26.5t-66 7q-53 0 -120.5 -10.5t-120.5 -24.5l-9 156q57 16 127 25.5t131 9.5q74 0 140.5 -15.5t116 -53.5t79 -99.5t29.5 -153.5v-633q-66 -23 -159 -48 t-197 -25q-74 0 -136.5 16t-108.5 54t-72.5 99.5t-26.5 153.5zM268 291q0 -94 43 -130t103 -36q47 0 87 7t62 15v289q-23 4 -60.5 9.5t-78.5 5.5q-31 0 -59.5 -6.5t-50 -22.5t-34 -48t-12.5 -83zM338 1165l139 330h221l-188 -330h-172z" />
<glyph unicode="&#xe2;" horiz-adv-x="892" d="M68 303q0 86 28.5 143.5t75.5 92t109.5 49t130.5 14.5q49 0 83.5 -4t67.5 -10v92q0 51 -13 85t-35.5 53.5t-53.5 26.5t-66 7q-53 0 -120.5 -10.5t-120.5 -24.5l-9 156q57 16 127 25.5t131 9.5q74 0 140.5 -15.5t116 -53.5t79 -99.5t29.5 -153.5v-633q-66 -23 -159 -48 t-197 -25q-74 0 -136.5 16t-108.5 54t-72.5 99.5t-26.5 153.5zM188 1165l168 330h193l168 -330h-174l-90 191l-91 -191h-174zM268 291q0 -94 43 -130t103 -36q47 0 87 7t62 15v289q-23 4 -60.5 9.5t-78.5 5.5q-31 0 -59.5 -6.5t-50 -22.5t-34 -48t-12.5 -83z" />
<glyph unicode="&#xe3;" horiz-adv-x="892" d="M68 303q0 86 28.5 143.5t75.5 92t109.5 49t130.5 14.5q49 0 83.5 -4t67.5 -10v92q0 51 -13 85t-35.5 53.5t-53.5 26.5t-66 7q-53 0 -120.5 -10.5t-120.5 -24.5l-9 156q57 16 127 25.5t131 9.5q74 0 140.5 -15.5t116 -53.5t79 -99.5t29.5 -153.5v-633q-66 -23 -159 -48 t-197 -25q-74 0 -136.5 16t-108.5 54t-72.5 99.5t-26.5 153.5zM176 1270q18 63 57 111.5t117 48.5q41 0 72 -12.5t55 -26.5q23 -10 39 -19.5t33 -9.5q12 0 22.5 16.5t24.5 59.5l131 -45q-20 -72 -59 -120t-115 -48q-35 0 -63.5 12t-53.5 27q-23 10 -39 19t-35 9 q-16 0 -27 -15t-26 -54zM268 291q0 -94 43 -130t103 -36q47 0 87 7t62 15v289q-23 4 -60.5 9.5t-78.5 5.5q-31 0 -59.5 -6.5t-50 -22.5t-34 -48t-12.5 -83z" />
<glyph unicode="&#xe4;" horiz-adv-x="892" d="M68 303q0 86 28.5 143.5t75.5 92t109.5 49t130.5 14.5q49 0 83.5 -4t67.5 -10v92q0 51 -13 85t-35.5 53.5t-53.5 26.5t-66 7q-53 0 -120.5 -10.5t-120.5 -24.5l-9 156q57 16 127 25.5t131 9.5q74 0 140.5 -15.5t116 -53.5t79 -99.5t29.5 -153.5v-633q-66 -23 -159 -48 t-197 -25q-74 0 -136.5 16t-108.5 54t-72.5 99.5t-26.5 153.5zM176 1331q0 47 28.5 74t86.5 27q57 0 86 -27t29 -74t-29 -73.5t-86 -26.5t-86 26.5t-29 73.5zM268 291q0 -94 43 -130t103 -36q47 0 87 7t62 15v289q-23 4 -60.5 9.5t-78.5 5.5q-31 0 -59.5 -6.5t-50 -22.5 t-34 -48t-12.5 -83zM498 1331q0 47 28.5 74t85.5 27q53 0 84 -27t31 -74t-30.5 -73.5t-84.5 -26.5q-57 0 -85.5 26.5t-28.5 73.5z" />
<glyph unicode="&#xe5;" horiz-adv-x="892" d="M68 303q0 86 28.5 143.5t75.5 92t109.5 49t130.5 14.5q49 0 83.5 -4t67.5 -10v92q0 51 -13 85t-35.5 53.5t-53.5 26.5t-66 7q-53 0 -120.5 -10.5t-120.5 -24.5l-9 156q57 16 127 25.5t131 9.5q74 0 140.5 -15.5t116 -53.5t79 -99.5t29.5 -153.5v-633q-66 -23 -159 -48 t-197 -25q-74 0 -136.5 16t-108.5 54t-72.5 99.5t-26.5 153.5zM256 1327q0 88 52 132t143 44q92 0 144 -44t52 -132q0 -86 -52 -130t-144 -44q-90 0 -142.5 44t-52.5 130zM268 291q0 -94 43 -130t103 -36q47 0 87 7t62 15v289q-23 4 -60.5 9.5t-78.5 5.5q-31 0 -59.5 -6.5 t-50 -22.5t-34 -48t-12.5 -83zM395 1327q0 -39 12.5 -58.5t43.5 -19.5q33 0 45 19.5t12 58.5q0 41 -12.5 59.5t-44.5 18.5q-31 0 -43.5 -18.5t-12.5 -59.5z" />
<glyph unicode="&#xe6;" horiz-adv-x="1376" d="M68 301q0 86 28.5 144.5t74.5 93t106.5 49t125.5 14.5q41 0 83 -3t77 -11v92q0 51 -13 85t-35.5 53.5t-53.5 26.5t-66 7q-53 0 -119.5 -10.5t-121.5 -24.5l-9 156q55 16 124 25.5t134 9.5q86 0 159 -22.5t120 -82.5q41 53 105.5 78t150.5 25q178 0 261 -112t83 -298v-162 h-514q4 -143 55 -220t185 -77q66 0 131 12.5t110 26.5l15 -158q-51 -16 -125 -27t-150 -11q-82 0 -156.5 18t-127.5 61q-59 -33 -134 -56t-159 -23q-72 0 -135.5 16t-109.5 53t-72.5 98.5t-26.5 153.5zM268 291q0 -88 40 -127t95 -39q47 0 102.5 15t84.5 38q-29 109 -31 258 q-23 4 -59.5 9.5t-75.5 5.5q-31 0 -59.5 -6.5t-50 -24t-34 -48t-12.5 -81.5zM770 578h311q-4 133 -39.5 208.5t-107.5 75.5q-82 0 -120 -74.5t-44 -209.5z" />
<glyph unicode="&#xe7;" horiz-adv-x="798" d="M96 496q0 147 30 246.5t83 157.5t127 83t164 25q53 0 112.5 -7.5t102.5 -17.5l-17 -158q-51 10 -102 17.5t-94 7.5q-45 0 -81 -15.5t-60.5 -55.5t-38 -108.5t-13.5 -176.5q0 -104 13.5 -173t38 -110t61.5 -57.5t84 -16.5t97 8.5t106 24.5l14 -158q-53 -16 -112.5 -24 t-118.5 -8q-88 0 -161 26.5t-125 87t-81 158.5t-29 244zM266 -377l25 121q20 -6 41.5 -11t40.5 -5q23 0 36 11t13 42t-11.5 62.5t-27.5 62.5h160q51 -80 51 -156q0 -72 -36 -114t-132 -42q-41 0 -84 8.5t-76 20.5z" />
<glyph unicode="&#xe8;" horiz-adv-x="919" d="M96 494q0 143 27 241.5t77 158.5t121.5 87t159.5 27t153.5 -30t107.5 -83t62.5 -129t20.5 -170v-162h-514q4 -141 55.5 -219t184.5 -78q72 0 133 12.5t109 26.5l14 -158q-51 -16 -125 -27t-150 -11q-98 0 -178 22.5t-137 80.5t-89 157.5t-32 253.5zM203 1495h221 l141 -330h-172zM313 578h312q-4 133 -40 208.5t-108 75.5q-82 0 -120 -73.5t-44 -210.5z" />
<glyph unicode="&#xe9;" horiz-adv-x="919" d="M96 494q0 143 27 241.5t77 158.5t121.5 87t159.5 27t153.5 -30t107.5 -83t62.5 -129t20.5 -170v-162h-514q4 -141 55.5 -219t184.5 -78q72 0 133 12.5t109 26.5l14 -158q-51 -16 -125 -27t-150 -11q-98 0 -178 22.5t-137 80.5t-89 157.5t-32 253.5zM313 578h312 q-4 133 -40 208.5t-108 75.5q-82 0 -120 -73.5t-44 -210.5zM385 1165l139 330h221l-188 -330h-172z" />
<glyph unicode="&#xea;" horiz-adv-x="919" d="M96 494q0 143 27 241.5t77 158.5t121.5 87t159.5 27t153.5 -30t107.5 -83t62.5 -129t20.5 -170v-162h-514q4 -141 55.5 -219t184.5 -78q72 0 133 12.5t109 26.5l14 -158q-51 -16 -125 -27t-150 -11q-98 0 -178 22.5t-137 80.5t-89 157.5t-32 253.5zM213 1165l168 330h192 l168 -330h-174l-90 191l-90 -191h-174zM313 578h312q-4 133 -40 208.5t-108 75.5q-82 0 -120 -73.5t-44 -210.5z" />
<glyph unicode="&#xeb;" horiz-adv-x="919" d="M96 494q0 143 27 241.5t77 158.5t121.5 87t159.5 27t153.5 -30t107.5 -83t62.5 -129t20.5 -170v-162h-514q4 -141 55.5 -219t184.5 -78q72 0 133 12.5t109 26.5l14 -158q-51 -16 -125 -27t-150 -11q-98 0 -178 22.5t-137 80.5t-89 157.5t-32 253.5zM203 1331 q0 47 28.5 74t85.5 27t86 -27t29 -74t-28.5 -73.5t-86.5 -26.5q-57 0 -85.5 26.5t-28.5 73.5zM313 578h312q-4 133 -40 208.5t-108 75.5q-82 0 -120 -73.5t-44 -210.5zM524 1331q0 47 29 74t86 27q53 0 84 -27t31 -74t-31 -73.5t-84 -26.5q-57 0 -86 26.5t-29 73.5z" />
<glyph unicode="&#xec;" horiz-adv-x="507" d="M-18 1495h221l141 -330h-172zM156 0v987h196v-987h-196z" />
<glyph unicode="&#xed;" horiz-adv-x="507" d="M156 0v987h196v-987h-196zM170 1165l139 330h221l-188 -330h-172z" />
<glyph unicode="&#xee;" horiz-adv-x="507" d="M-8 1165l168 330h192l168 -330h-174l-90 191l-90 -191h-174zM156 0v987h196v-987h-196z" />
<glyph unicode="&#xef;" horiz-adv-x="507" d="M-20 1331q0 47 28.5 74t85.5 27t86 -27t29 -74t-28.5 -73.5t-86.5 -26.5q-57 0 -85.5 26.5t-28.5 73.5zM156 0v987h196v-987h-196zM301 1331q0 47 28.5 74t86.5 27q53 0 83.5 -27t30.5 -74t-30.5 -73.5t-83.5 -26.5q-57 0 -86 26.5t-29 73.5z" />
<glyph unicode="&#xf0;" horiz-adv-x="972" d="M96 494q0 266 99.5 390t281.5 124q61 0 104.5 -10.5t75.5 -34.5q-12 53 -30.5 111.5t-36.5 99.5l-305 -68v133l245 59q-31 59 -60.5 104.5t-61.5 92.5h194q35 -45 58.5 -81t46.5 -77l186 43v-131l-127 -35q66 -174 92.5 -341.5t26.5 -348.5q0 -268 -99.5 -406 t-296.5 -138q-92 0 -164.5 28.5t-122.5 90t-78 158.5t-28 237zM309 494q0 -104 11.5 -173t35 -110t57 -57.5t76.5 -16.5t77 16.5t57.5 57.5t36 108.5t12.5 169.5q0 84 -7.5 152t-28 114t-56 70.5t-91.5 24.5q-43 0 -76.5 -16.5t-57 -57.5t-35 -109.5t-11.5 -172.5z" />
<glyph unicode="&#xf1;" horiz-adv-x="1032" d="M152 0v932q72 25 170 50.5t202 25.5q78 0 144.5 -17.5t116 -57.5t78 -107.5t28.5 -166.5v-659h-207v651q0 117 -46 158t-118 41q-43 0 -89 -8t-73 -19v-823h-206zM246 1270q18 63 57 111.5t117 48.5q41 0 71.5 -12.5t55.5 -26.5q23 -10 39 -19.5t32 -9.5q12 0 22.5 16.5 t25.5 59.5l131 -45q-20 -72 -59.5 -120t-114.5 -48q-35 0 -64 12t-53 27q-23 10 -39 19t-35 9q-16 0 -27.5 -15t-25.5 -54z" />
<glyph unicode="&#xf2;" horiz-adv-x="983" d="M96 494q0 272 102.5 393t290.5 121q190 0 294 -121t104 -393t-103.5 -393t-294.5 -121q-188 0 -290.5 120.5t-102.5 393.5zM209 1495h221l141 -330h-172zM309 494q0 -104 11.5 -173t35 -110t57 -57.5t79.5 -16.5q43 0 77.5 16.5t57 57.5t35 110t12.5 173t-12.5 172.5 t-35 109.5t-57 57.5t-77.5 16.5q-45 0 -79 -16.5t-57.5 -57.5t-35 -109.5t-11.5 -172.5z" />
<glyph unicode="&#xf3;" horiz-adv-x="983" d="M96 494q0 272 102.5 393t290.5 121q190 0 294 -121t104 -393t-103.5 -393t-294.5 -121q-188 0 -290.5 120.5t-102.5 393.5zM309 494q0 -104 11.5 -173t35 -110t57 -57.5t79.5 -16.5q43 0 77.5 16.5t57 57.5t35 110t12.5 173t-12.5 172.5t-35 109.5t-57 57.5t-77.5 16.5 q-45 0 -79 -16.5t-57.5 -57.5t-35 -109.5t-11.5 -172.5zM401 1165l140 330h221l-189 -330h-172z" />
<glyph unicode="&#xf4;" horiz-adv-x="983" d="M96 494q0 272 102.5 393t290.5 121q190 0 294 -121t104 -393t-103.5 -393t-294.5 -121q-188 0 -290.5 120.5t-102.5 393.5zM225 1165l168 330h193l168 -330h-174l-91 191l-90 -191h-174zM309 494q0 -104 11.5 -173t35 -110t57 -57.5t79.5 -16.5q43 0 77.5 16.5t57 57.5 t35 110t12.5 173t-12.5 172.5t-35 109.5t-57 57.5t-77.5 16.5q-45 0 -79 -16.5t-57.5 -57.5t-35 -109.5t-11.5 -172.5z" />
<glyph unicode="&#xf5;" horiz-adv-x="983" d="M96 494q0 272 102.5 393t290.5 121q190 0 294 -121t104 -393t-103.5 -393t-294.5 -121q-188 0 -290.5 120.5t-102.5 393.5zM213 1270q18 63 57 111.5t117 48.5q41 0 71.5 -12.5t55.5 -26.5q23 -10 39 -19.5t33 -9.5q12 0 22 16.5t25 59.5l131 -45q-20 -72 -59 -120 t-115 -48q-35 0 -63.5 12t-53.5 27q-23 10 -39 19t-35 9q-16 0 -27.5 -15t-25.5 -54zM309 494q0 -104 11.5 -173t35 -110t57 -57.5t79.5 -16.5q43 0 77.5 16.5t57 57.5t35 110t12.5 173t-12.5 172.5t-35 109.5t-57 57.5t-77.5 16.5q-45 0 -79 -16.5t-57.5 -57.5t-35 -109.5 t-11.5 -172.5z" />
<glyph unicode="&#xf6;" horiz-adv-x="983" d="M96 494q0 272 102.5 393t290.5 121q190 0 294 -121t104 -393t-103.5 -393t-294.5 -121q-188 0 -290.5 120.5t-102.5 393.5zM213 1331q0 47 28.5 74t86.5 27q57 0 85.5 -27t28.5 -74t-28.5 -73.5t-85.5 -26.5t-86 26.5t-29 73.5zM309 494q0 -104 11.5 -173t35 -110 t57 -57.5t79.5 -16.5q43 0 77.5 16.5t57 57.5t35 110t12.5 173t-12.5 172.5t-35 109.5t-57 57.5t-77.5 16.5q-45 0 -79 -16.5t-57.5 -57.5t-35 -109.5t-11.5 -172.5zM535 1331q0 47 28.5 74t85.5 27q53 0 84 -27t31 -74t-31 -73.5t-84 -26.5q-57 0 -85.5 26.5t-28.5 73.5z " />
<glyph unicode="&#xf7;" d="M125 582v143h811v-143h-811zM420 297q0 49 30.5 75.5t84.5 26.5q53 0 83.5 -26.5t30.5 -75.5q0 -51 -30.5 -77.5t-83.5 -26.5t-84 26.5t-31 77.5zM420 1012q0 49 30.5 75.5t84.5 26.5q53 0 83.5 -26.5t30.5 -75.5t-30.5 -77t-83.5 -28t-84 28t-31 77z" />
<glyph unicode="&#xf8;" horiz-adv-x="983" d="M96 494q0 272 102.5 393t290.5 121q100 0 173 -33l90 176l114 -61l-96 -189q57 -63 87 -163.5t30 -243.5q0 -272 -103.5 -393t-294.5 -121q-92 0 -167 28l-99 -196l-119 63l107 211q-55 61 -85 161.5t-30 246.5zM309 494q0 -119 15 -189l262 518q-39 27 -94 27 q-45 0 -79 -16.5t-57.5 -57.5t-35 -109.5t-11.5 -172.5zM399 162q33 -25 93 -25q43 0 77.5 16.5t57 57.5t35 110t12.5 173q0 57 -4 103t-11 81z" />
<glyph unicode="&#xf9;" horiz-adv-x="1009" d="M139 336v651h207v-653q0 -111 46 -154t112 -43q53 0 91 8.5t60 14.5v827h207v-928q-72 -29 -164 -54t-190 -25q-74 0 -141.5 16t-117.5 57t-80 109.5t-30 173.5zM231 1495h222l141 -330h-172z" />
<glyph unicode="&#xfa;" horiz-adv-x="1009" d="M139 336v651h207v-653q0 -111 46 -154t112 -43q53 0 91 8.5t60 14.5v827h207v-928q-72 -29 -164 -54t-190 -25q-74 0 -141.5 16t-117.5 57t-80 109.5t-30 173.5zM403 1165l140 330h221l-189 -330h-172z" />
<glyph unicode="&#xfb;" horiz-adv-x="1009" d="M139 336v651h207v-653q0 -111 46 -154t112 -43q53 0 91 8.5t60 14.5v827h207v-928q-72 -29 -164 -54t-190 -25q-74 0 -141.5 16t-117.5 57t-80 109.5t-30 173.5zM240 1165l168 330h192l168 -330h-174l-90 191l-90 -191h-174z" />
<glyph unicode="&#xfc;" horiz-adv-x="1009" d="M139 336v651h207v-653q0 -111 46 -154t112 -43q53 0 91 8.5t60 14.5v827h207v-928q-72 -29 -164 -54t-190 -25q-74 0 -141.5 16t-117.5 57t-80 109.5t-30 173.5zM227 1331q0 47 29 74t86 27t86 -27t29 -74t-29 -73.5t-86 -26.5t-86 26.5t-29 73.5zM549 1331q0 47 28.5 74 t86.5 27q53 0 83.5 -27t30.5 -74t-30.5 -73.5t-83.5 -26.5q-57 0 -86 26.5t-29 73.5z" />
<glyph unicode="&#xfd;" horiz-adv-x="1015" d="M139 356v631h207v-633q0 -113 46 -155.5t112 -42.5q41 0 85 5t66 13v813h207v-991q0 -113 -25.5 -189.5t-74.5 -124t-120 -68t-161 -20.5q-76 0 -162 13.5t-141 34.5l21 155q66 -23 143.5 -35t132.5 -12q94 0 137 50t43 167v47q-37 -8 -76.5 -11t-78.5 -3 q-82 0 -148.5 16.5t-114 57.5t-73 109.5t-25.5 172.5zM403 1165l140 330h221l-189 -330h-172z" />
<glyph unicode="&#xfe;" horiz-adv-x="1007" d="M156 -385v1880h206v-506q80 18 160 19q82 0 154 -26t124 -85t81.5 -155.5t29.5 -237.5q0 -156 -30.5 -257.5t-81.5 -160.5t-121 -82.5t-146 -23.5q-45 0 -87 6t-83 14v-385h-206zM362 160q35 -8 76 -15.5t82 -7.5t74 15.5t56.5 56.5t35.5 111.5t12 181.5q0 106 -12 173.5 t-35.5 106.5t-57.5 53.5t-75 14.5q-18 0 -40.5 -3t-44 -7t-41 -8.5t-30.5 -8.5v-663z" />
<glyph unicode="&#xff;" horiz-adv-x="1015" d="M139 356v631h207v-633q0 -113 46 -155.5t112 -42.5q41 0 85 5t66 13v813h207v-991q0 -113 -25.5 -189.5t-74.5 -124t-120 -68t-161 -20.5q-76 0 -162 13.5t-141 34.5l21 155q66 -23 143.5 -35t132.5 -12q94 0 137 50t43 167v47q-37 -8 -76.5 -11t-78.5 -3 q-82 0 -148.5 16.5t-114 57.5t-73 109.5t-25.5 172.5zM229 1331q0 47 29 74t86 27t86 -27t29 -74t-29 -73.5t-86 -26.5t-86 26.5t-29 73.5zM551 1331q0 47 28.5 74t86.5 27q53 0 83.5 -27t30.5 -74t-30.5 -73.5t-83.5 -26.5q-57 0 -86 26.5t-29 73.5z" />
<glyph unicode="&#x152;" horiz-adv-x="1687" d="M109 678q0 188 31.5 322.5t93 219.5t152.5 123.5t210 38.5q94 0 162.5 -22.5t120.5 -77.5v80h680v-162h-480v-422h432v-162h-432v-297q0 -90 37 -123.5t90 -33.5h377v-162h-323q-63 0 -116.5 3t-95.5 15.5t-73 37t-49 67.5q-53 -78 -134 -109.5t-198 -31.5t-208 37.5 t-152.5 121.5t-93 216t-31.5 321zM330 680q0 -152 17.5 -255t51 -166.5t83.5 -91.5t116 -28t115 28t82.5 91.5t51 166.5t17.5 255t-17.5 255t-51 165.5t-82.5 90.5t-115 28t-116 -28t-83.5 -90.5t-51 -166t-17.5 -254.5z" />
<glyph unicode="&#x153;" horiz-adv-x="1497" d="M96 494q0 272 102.5 393t290.5 121q102 0 173 -32t116 -104q84 135 283 136q88 0 153.5 -30t106.5 -83t61.5 -129t20.5 -170v-162h-514q4 -141 54 -219t185 -78q59 0 128 12.5t114 26.5l14 -158q-53 -16 -125.5 -27t-148.5 -11q-113 0 -197 30.5t-133 106.5 q-88 -137 -291 -137q-188 0 -290.5 120.5t-102.5 393.5zM309 494q0 -104 11.5 -173t35 -110t57 -57.5t79.5 -16.5q43 0 77.5 16.5t57 57.5t35 110t12.5 173t-12.5 172.5t-35 109.5t-57 57.5t-77.5 16.5q-45 0 -79 -16.5t-57.5 -57.5t-35 -109.5t-11.5 -172.5zM891 578h311 q-4 133 -40 208.5t-107 75.5q-82 0 -119 -73.5t-45 -210.5z" />
<glyph unicode="&#x178;" horiz-adv-x="997" d="M0 1362h229l289 -690q96 160 168 342t111 348h200q-72 -250 -165 -474t-228 -415v-473h-207v465zM250 1710q0 47 28.5 73.5t86.5 26.5q57 0 85.5 -26.5t28.5 -73.5t-28.5 -73.5t-85.5 -26.5t-86 26.5t-29 73.5zM571 1710q0 47 29 73.5t86 26.5q53 0 84 -26.5t31 -73.5 t-31 -73.5t-84 -26.5q-57 0 -86 26.5t-29 73.5z" />
<glyph unicode="&#x2c6;" horiz-adv-x="970" d="M221 1165l168 330h193l168 -330h-175l-90 191l-90 -191h-174z" />
<glyph unicode="&#x2dc;" horiz-adv-x="970" d="M209 1270q18 63 57 111.5t117 48.5q41 0 71.5 -12.5t55.5 -26.5q23 -10 39 -19.5t33 -9.5q12 0 22 16.5t25 59.5l131 -45q-20 -72 -59 -120t-115 -48q-35 0 -63.5 12t-53.5 27q-23 10 -39 19t-35 9q-16 0 -27.5 -15t-25.5 -54z" />
<glyph unicode="&#x2000;" horiz-adv-x="943" />
<glyph unicode="&#x2001;" horiz-adv-x="1886" />
<glyph unicode="&#x2002;" horiz-adv-x="943" />
<glyph unicode="&#x2003;" horiz-adv-x="1886" />
<glyph unicode="&#x2004;" horiz-adv-x="628" />
<glyph unicode="&#x2005;" horiz-adv-x="471" />
<glyph unicode="&#x2006;" horiz-adv-x="314" />
<glyph unicode="&#x2007;" horiz-adv-x="314" />
<glyph unicode="&#x2008;" horiz-adv-x="235" />
<glyph unicode="&#x2009;" horiz-adv-x="377" />
<glyph unicode="&#x200a;" horiz-adv-x="104" />
<glyph unicode="&#x2010;" horiz-adv-x="712" d="M117 475v160h477v-160h-477z" />
<glyph unicode="&#x2011;" horiz-adv-x="712" d="M117 475v160h477v-160h-477z" />
<glyph unicode="&#x2012;" horiz-adv-x="712" d="M117 475v160h477v-160h-477z" />
<glyph unicode="&#x2013;" horiz-adv-x="1036" d="M117 481v148h803v-148h-803z" />
<glyph unicode="&#x2014;" horiz-adv-x="1388" d="M117 481v148h1155v-148h-1155z" />
<glyph unicode="&#x2018;" horiz-adv-x="524" d="M115 926l133 436h168l-101 -436h-200z" />
<glyph unicode="&#x2019;" horiz-adv-x="524" d="M109 926l100 436h201l-134 -436h-167z" />
<glyph unicode="&#x201a;" horiz-adv-x="524" d="M106 -328l101 437h201l-134 -437h-168z" />
<glyph unicode="&#x201c;" horiz-adv-x="862" d="M115 926l145 436h166l-107 -436h-204zM481 926l105 436h168l-76 -436h-197z" />
<glyph unicode="&#x201d;" horiz-adv-x="862" d="M109 926l75 436h197l-105 -436h-167zM436 926l107 436h205l-146 -436h-166z" />
<glyph unicode="&#x201e;" horiz-adv-x="862" d="M109 -328l75 437h197l-105 -437h-167zM436 -328l107 437h205l-146 -437h-166z" />
<glyph unicode="&#x2022;" horiz-adv-x="700" d="M150 555q0 102 57 153.5t143 51.5q90 0 144.5 -51.5t54.5 -153.5q0 -100 -54.5 -153.5t-144.5 -53.5q-86 0 -143 53.5t-57 153.5z" />
<glyph unicode="&#x2026;" horiz-adv-x="1449" d="M133 100q0 55 34 86t93 31t93 -30.5t34 -86.5q0 -55 -34 -86.5t-93 -31.5t-93 31.5t-34 86.5zM596 100q0 55 36 86t91 31q59 0 94 -30.5t35 -86.5q0 -55 -35 -86.5t-94 -31.5q-55 0 -91 31.5t-36 86.5zM1061 100q0 55 36 86t91 31q59 0 94 -30.5t35 -86.5 q0 -55 -35 -86.5t-94 -31.5q-55 0 -91 31.5t-36 86.5z" />
<glyph unicode="&#x202f;" horiz-adv-x="377" />
<glyph unicode="&#x2039;" horiz-adv-x="651" d="M106 555l256 371h185l-228 -371l228 -371h-185z" />
<glyph unicode="&#x203a;" horiz-adv-x="651" d="M104 184l228 371l-228 371h185l256 -371l-256 -371h-185z" />
<glyph unicode="&#x205f;" horiz-adv-x="471" />
<glyph unicode="&#x20ac;" d="M66 430v127h139q-2 49 -2 67.5v37.5v90h-137v127h147q47 504 473 503q31 0 66.5 -2t70.5 -6t66 -9t53 -11l-22 -164q-47 14 -117 22.5t-121 8.5q-55 0 -98 -17.5t-74 -57.5t-50.5 -105.5t-27.5 -161.5h432l-41 -127h-397q-2 -18 -2 -44v-46v-36t2 -69h348l-39 -127h-293 q8 -84 29 -140.5t53.5 -90t76.5 -48t99 -14.5q59 0 115.5 10.5t110.5 26.5l18 -160q-53 -18 -120.5 -27.5t-137.5 -9.5q-395 0 -465 453h-155z" />
<glyph unicode="&#x2122;" horiz-adv-x="1429" d="M63 1249v113h496v-113h-162v-499h-170v499h-164zM655 750v612h179l145 -334l145 334h181v-612h-156v362l-102 -233h-136l-98 229v-358h-158z" />
<glyph unicode="&#x25fc;" horiz-adv-x="983" d="M0 0v983h983v-983h-983z" />
</font>
</defs>
</svg>
